<svg width="2285" height="1003" viewBox="0 0 2285 1003" fill="none" xmlns="http://www.w3.org/2000/svg">
<path d="M1742.52 517.328V629.127H1834.69V1002.01H1945.94V629.127H2038.76V517.328H1742.52Z" fill="black"/>
<path d="M1719.28 519.301L1409.22 519.958V1002.01H1719.28V890.869H1520.47V814.582H1681.76V703.441H1520.47V630.442H1719.28V519.301Z" fill="black"/>
<path d="M1215.06 1001.35C1278.26 1001.35 1338.82 978.336 1386.22 930.985L1307.88 852.068C1256.53 903.364 1173.59 902.707 1122.9 852.068C1098.54 826.42 1084.72 794.853 1084.72 759.998C1084.72 725.143 1098.54 692.918 1122.9 667.27C1173.59 616.632 1256.53 615.974 1307.88 667.27L1386.22 589.011C1291.42 494.31 1138.7 494.31 1043.9 589.011C998.477 634.388 973.461 694.234 973.461 759.998C973.461 825.105 998.477 884.293 1043.9 930.985C1091.3 978.336 1152.52 1001.35 1215.06 1001.35Z" fill="black"/>
<path d="M2280.52 889.655C2260.54 969.761 2179.34 1018.5 2099.15 998.52C2019.01 978.563 1970.22 897.446 1990.23 817.339C2010.2 737.254 2091.4 688.51 2171.54 708.477C2251.73 728.444 2300.52 809.574 2280.52 889.655Z" fill="#F7931A"/>
<path d="M2201.34 832.212C2204.33 812.306 2189.16 801.617 2168.43 794.484L2175.16 767.538L2158.73 763.448L2152.2 789.686C2147.87 788.611 2143.44 787.599 2139.03 786.592L2145.64 760.183L2129.23 756.095L2122.5 783.033C2118.93 782.221 2115.41 781.417 2112.01 780.572L2112.04 780.486L2089.38 774.838L2085.02 792.359C2085.02 792.359 2097.2 795.147 2096.95 795.321C2103.58 796.978 2104.8 801.374 2104.59 804.859L2096.92 835.551C2097.38 835.678 2097.99 835.855 2098.64 836.108C2098.09 835.981 2097.51 835.829 2096.9 835.677L2086.16 878.677C2085.35 880.701 2083.3 883.736 2078.64 882.573C2078.79 882.8 2066.72 879.588 2066.72 879.588L2058.56 898.381L2079.93 903.693C2083.91 904.679 2087.78 905.742 2091.63 906.703L2084.82 933.97L2101.23 938.067L2107.96 911.079C2112.44 912.293 2116.8 913.431 2121.05 914.494L2114.34 941.33L2130.75 945.403L2137.56 918.212C2165.56 923.498 2186.61 921.373 2195.47 896.054C2202.61 875.693 2195.11 863.956 2180.38 856.292C2191.11 853.813 2199.19 846.756 2201.34 832.212ZM2163.84 884.748C2158.75 905.135 2124.42 894.107 2113.31 891.35L2122.32 855.255C2133.43 858.012 2169.13 863.501 2163.84 884.748ZM2168.91 831.909C2164.27 850.449 2135.71 841.015 2126.45 838.713L2134.62 805.967C2143.89 808.274 2173.74 812.584 2168.91 831.909Z" fill="white"/>
<path d="M1014.76 1003L858.741 520.287H753.411L588.833 1003H706.671L726.42 944.467H878.49L897.581 1003H1014.76ZM804.759 716.265L842.941 833.325H764.602L804.759 716.265Z" fill="black"/>
<path d="M511.153 814.911L418.331 516.341H301.152L457.171 1003H562.501L727.079 516.341H609.241L511.153 814.911Z" fill="black"/>
<path d="M111.254 517.656H0V1003H111.254C242.258 995.763 342.98 893.171 342.98 763.615C342.98 632.744 240.283 525.548 111.254 518.314V517.656ZM111.254 629.456C179.06 636.69 231.725 694.562 231.725 763.615C231.725 830.695 179.719 883.964 111.254 891.198V629.456Z" fill="black"/>
<path d="M2037.95 490.602L1881.93 7.89172H1776.6L1612.03 490.602H1729.86L1749.61 432.072H1901.68L1920.77 490.602H2037.95ZM1827.95 203.87L1866.13 320.93H1787.79L1827.95 203.87Z" fill="black"/>
<path d="M1495.21 290.021L1337.87 9.20706H1216.74V490.602H1328V209.131L1485.99 490.602H1606.46V7.89172H1495.21V290.021Z" fill="black"/>
<path d="M961.874 5.26123H850.619V490.602H961.874C1092.88 483.368 1193.6 380.776 1193.6 251.22C1193.6 120.349 1090.9 13.153 961.874 5.9189V5.26123ZM961.874 117.061C1029.68 124.295 1082.34 182.167 1082.34 251.22C1082.34 318.299 1030.34 371.569 961.874 378.803V117.061Z" fill="black"/>
<path d="M827.831 7.89172L517.767 8.54939V490.602H827.831V379.46H629.022V303.174H790.308V192.032H629.022V119.033H827.831V7.89172Z" fill="black"/>
<path d="M383.234 0V307.777C383.234 348.551 349.66 379.46 310.82 379.46C291.071 379.46 273.954 372.226 259.472 357.758C245.647 343.29 239.064 326.191 239.064 306.462L127.809 305.147C127.151 355.127 145.584 400.505 179.816 435.36C214.706 470.215 259.472 489.944 309.503 490.602H311.478C410.883 490.602 494.488 410.369 494.488 308.435V0H383.234Z" fill="black"/>
</svg>
