<svg width="2285" height="1004" viewBox="0 0 2285 1004" fill="none" xmlns="http://www.w3.org/2000/svg">
<path d="M1742.52 517.843V629.754H1834.69V1003.01H1945.94V629.754H2038.76V517.843H1742.52Z" fill="#F7931A"/>
<path d="M1719.28 519.818L1409.22 520.477V1003.01H1719.28V891.757H1520.47V815.395H1681.76V704.142H1520.47V631.071H1719.28V519.818Z" fill="#F7931A"/>
<path d="M1215.06 1002.35C1278.26 1002.35 1338.82 979.311 1386.22 931.913L1307.88 852.918C1256.53 904.265 1173.59 903.607 1122.9 852.918C1098.54 827.244 1084.72 795.645 1084.72 760.756C1084.72 725.866 1098.54 693.609 1122.9 667.936C1173.59 617.247 1256.53 616.588 1307.88 667.936L1386.22 589.598C1291.42 494.803 1138.7 494.803 1043.9 589.598C998.477 635.021 973.461 694.926 973.461 760.756C973.461 825.927 998.477 885.174 1043.9 931.913C1091.3 979.311 1152.52 1002.35 1215.06 1002.35Z" fill="#F7931A"/>
<path d="M2280.52 890.542C2260.54 970.728 2179.34 1019.52 2099.15 999.516C2019.01 979.539 1970.22 898.34 1990.23 818.154C2010.2 737.989 2091.4 689.196 2171.54 709.183C2251.73 729.17 2300.52 810.382 2280.52 890.542Z" fill="white"/>
<path d="M2201.34 833.042C2204.33 813.116 2189.16 802.416 2168.43 795.276L2175.16 768.303L2158.73 764.209L2152.2 790.473C2147.87 789.397 2143.43 788.384 2139.03 787.376L2145.64 760.941L2129.23 756.849L2122.5 783.814C2118.93 783.001 2115.41 782.196 2112.01 781.35L2112.04 781.264L2089.38 775.61L2085.02 793.149C2085.02 793.149 2097.2 795.939 2096.95 796.114C2103.58 797.772 2104.8 802.173 2104.59 805.662L2096.92 836.384C2097.38 836.511 2097.99 836.688 2098.64 836.941C2098.09 836.815 2097.5 836.663 2096.9 836.511L2086.16 879.553C2085.35 881.579 2083.3 884.617 2078.64 883.453C2078.79 883.68 2066.72 880.465 2066.72 880.465L2058.56 899.277L2079.93 904.594C2083.91 905.581 2087.78 906.645 2091.63 907.607L2084.82 934.901L2101.23 939.003L2107.96 911.987C2112.44 913.203 2116.8 914.342 2121.05 915.405L2114.34 942.269L2130.75 946.345L2137.56 919.127C2165.56 924.419 2186.6 922.292 2195.47 896.948C2202.61 876.566 2195.11 864.818 2180.38 857.146C2191.11 854.665 2199.19 847.601 2201.34 833.042ZM2163.84 885.63C2158.75 906.037 2124.42 894.998 2113.3 892.238L2122.32 856.108C2133.43 858.868 2169.13 864.362 2163.84 885.63ZM2168.91 832.738C2164.27 851.297 2135.71 841.853 2126.45 839.549L2134.62 806.771C2143.89 809.08 2173.74 813.394 2168.91 832.738Z" fill="black"/>
<path d="M1014.76 1004L858.74 520.806H753.411L588.833 1004H706.671L726.42 945.409H878.49L897.581 1004H1014.76ZM804.759 716.979L842.941 834.156H764.602L804.759 716.979Z" fill="#F7931A"/>
<path d="M511.152 815.724L418.331 516.856H301.151L457.171 1004H562.501L727.078 516.856H609.241L511.152 815.724Z" fill="#F7931A"/>
<path d="M111.254 518.172H0V1004H111.254C242.258 996.756 342.98 894.061 342.98 764.376C342.98 633.375 240.283 526.072 111.254 518.831V518.172ZM111.254 630.083C179.06 637.325 231.725 695.255 231.725 764.376C231.725 831.523 179.719 884.845 111.254 892.086V630.083Z" fill="#F7931A"/>
<path d="M2037.95 491.091L1881.93 7.89954H1776.6L1612.03 491.091H1729.86L1749.61 432.502H1901.68L1920.77 491.091H2037.95ZM1827.95 204.073L1866.13 321.25H1787.79L1827.95 204.073Z" fill="#F7931A"/>
<path d="M1495.21 290.31L1337.87 9.21618H1216.74V491.091H1327.99V209.339L1485.99 491.091H1606.46V7.89954H1495.21V290.31Z" fill="#F7931A"/>
<path d="M961.874 5.26648H850.619V491.091H961.874C1092.88 483.85 1193.6 381.155 1193.6 251.47C1193.6 120.469 1090.9 13.1661 961.874 5.9248V5.26648ZM961.874 117.177C1029.68 124.419 1082.34 182.349 1082.34 251.47C1082.34 318.617 1030.34 371.939 961.874 379.18V117.177Z" fill="#F7931A"/>
<path d="M827.831 7.89954L517.767 8.55786V491.091H827.831V379.839H629.021V303.476H790.307V192.223H629.021V119.152H827.831V7.89954Z" fill="#F7931A"/>
<path d="M383.233 0V308.084C383.233 348.898 349.66 379.839 310.819 379.839C291.07 379.839 273.954 372.597 259.471 358.115C245.647 343.632 239.063 326.516 239.063 306.767L127.809 305.451C127.151 355.482 145.583 400.904 179.816 435.794C214.706 470.684 259.471 490.433 309.503 491.091H311.478C410.882 491.091 494.488 410.779 494.488 308.742V0H383.233Z" fill="#F7931A"/>
</svg>
