<svg width="2739" height="2684" viewBox="0 0 2739 2684" fill="none" xmlns="http://www.w3.org/2000/svg">
<g clip-path="url(#clip0_106_1648)">
<rect width="2739" height="2684" fill="white"/>
<path d="M2041.92 1242.7V1354.66H2135.94V1728.09H2249.44V1354.66H2344.13V1242.7H2041.92Z" fill="black"/>
<path d="M2018.21 1244.68L1701.9 1245.33V1728.09H2018.21V1616.79H1815.4V1540.39H1979.93V1429.08H1815.4V1355.98H2018.21V1244.68Z" fill="black"/>
<path d="M1503.83 1727.43C1568.3 1727.43 1630.09 1704.38 1678.44 1656.96L1598.52 1577.93C1546.14 1629.3 1461.52 1628.64 1409.81 1577.93C1384.96 1552.24 1370.86 1520.63 1370.86 1485.72C1370.86 1450.82 1384.96 1418.55 1409.81 1392.86C1461.52 1342.15 1546.14 1341.49 1598.52 1392.86L1678.44 1314.49C1581.73 1219.65 1425.93 1219.65 1329.22 1314.49C1282.88 1359.93 1257.36 1419.86 1257.36 1485.72C1257.36 1550.93 1282.88 1610.2 1329.22 1656.96C1377.57 1704.38 1440.03 1727.43 1503.83 1727.43Z" fill="black"/>
<path d="M2590.75 1615.57C2570.37 1695.79 2487.54 1744.61 2405.73 1724.6C2323.98 1704.61 2274.21 1623.37 2294.61 1543.15C2314.99 1462.95 2397.83 1414.13 2479.58 1434.13C2561.39 1454.12 2611.16 1535.37 2590.75 1615.57Z" fill="#F7931A"/>
<path d="M2509.98 1558.04C2513.03 1538.11 2497.56 1527.4 2476.41 1520.26L2483.28 1493.28L2466.51 1489.18L2459.85 1515.46C2455.43 1514.38 2450.91 1513.37 2446.42 1512.36L2453.16 1485.91L2436.42 1481.82L2429.55 1508.79C2425.91 1507.98 2422.32 1507.17 2418.86 1506.33L2418.88 1506.24L2395.77 1500.59L2391.32 1518.13C2391.32 1518.13 2403.75 1520.92 2403.49 1521.1C2410.26 1522.76 2411.5 1527.16 2411.29 1530.65L2403.46 1561.39C2403.93 1561.51 2404.55 1561.69 2405.22 1561.95C2404.65 1561.82 2404.06 1561.67 2403.44 1561.51L2392.48 1604.58C2391.66 1606.6 2389.57 1609.64 2384.81 1608.48C2384.97 1608.71 2372.65 1605.49 2372.65 1605.49L2364.33 1624.31L2386.13 1629.63C2390.19 1630.62 2394.14 1631.68 2398.06 1632.64L2391.12 1659.95L2407.85 1664.05L2414.72 1637.03C2419.3 1638.24 2423.74 1639.38 2428.08 1640.45L2421.23 1667.32L2437.97 1671.4L2444.92 1644.17C2473.49 1649.46 2494.95 1647.34 2503.99 1621.98C2511.28 1601.59 2503.63 1589.83 2488.6 1582.16C2499.55 1579.68 2507.79 1572.61 2509.98 1558.04ZM2471.73 1610.66C2466.54 1631.07 2431.51 1620.03 2420.17 1617.27L2429.37 1581.12C2440.71 1583.88 2477.13 1589.38 2471.73 1610.66ZM2476.9 1557.74C2472.17 1576.31 2443.03 1566.86 2433.58 1564.55L2441.92 1531.76C2451.38 1534.07 2481.83 1538.39 2476.9 1557.74Z" fill="white"/>
<path d="M1299.49 1729.08L1140.33 1245.66H1032.88L864.984 1729.08H985.196L1005.34 1670.46H1160.48L1179.95 1729.08H1299.49ZM1085.26 1441.93L1124.21 1559.16H1044.3L1085.26 1441.93Z" fill="black"/>
<path d="M785.738 1540.72L691.046 1241.71H571.505L730.669 1729.08H838.121L1006.02 1241.71H885.803L785.738 1540.72Z" fill="black"/>
<path d="M377.78 1243.03H264.283V1729.08H377.78C511.424 1721.83 614.175 1619.09 614.175 1489.35C614.175 1358.28 509.409 1250.93 377.78 1243.69V1243.03ZM377.78 1354.99C446.952 1362.24 500.678 1420.19 500.678 1489.35C500.678 1556.52 447.624 1609.87 377.78 1617.12V1354.99Z" fill="black"/>
<path d="M2343.31 1215.93L2184.14 732.519H2076.69L1908.8 1215.93H2029.01L2049.16 1157.32H2204.29L2223.77 1215.93H2343.31ZM2129.07 928.783L2168.02 1046.01H2088.11L2129.07 928.783Z" fill="black"/>
<path d="M1789.62 1015.06L1629.12 733.837H1505.55V1215.94H1619.04V934.052L1780.22 1215.94H1903.12V732.52H1789.62V1015.06Z" fill="black"/>
<path d="M1245.54 729.885H1132.05V1215.93H1245.54C1379.19 1208.69 1481.94 1105.95 1481.94 976.203C1481.94 845.141 1377.17 737.788 1245.54 730.544V729.885ZM1245.54 841.848C1314.71 849.092 1368.44 907.049 1368.44 976.203C1368.44 1043.38 1315.39 1096.73 1245.54 1103.97V841.848Z" fill="black"/>
<path d="M1108.8 732.52L792.487 733.178V1215.94H1108.8V1104.63H905.983V1028.23H1070.52V916.929H905.983V843.824H1108.8V732.52Z" fill="black"/>
<path d="M655.242 724.616V1032.84C655.242 1073.68 620.991 1104.63 581.368 1104.63C561.221 1104.63 543.76 1097.39 528.985 1082.9C514.882 1068.41 508.166 1051.28 508.166 1031.53L394.67 1030.21C393.998 1080.26 412.802 1125.71 447.724 1160.61C483.318 1195.52 528.985 1215.28 580.025 1215.93H582.04C683.448 1215.93 768.738 1135.59 768.738 1033.5V724.616H655.242Z" fill="black"/>
</g>
<defs>
<clipPath id="clip0_106_1648">
<rect width="2739" height="2684" fill="white"/>
</clipPath>
</defs>
</svg>
