<svg width="2284" height="1003" viewBox="0 0 2284 1003" fill="none" xmlns="http://www.w3.org/2000/svg">
<path d="M1741.76 517.328V629.127H1833.88V1002.01H1945.09V629.127H2037.87V517.328H1741.76Z" fill="white"/>
<path d="M1718.53 519.301L1408.6 519.958V1002.01H1718.53V890.869H1519.81V814.582H1681.02V703.441H1519.81V630.442H1718.53V519.301Z" fill="white"/>
<path d="M1214.53 1001.35C1277.7 1001.35 1338.24 978.336 1385.61 930.985L1307.31 852.068C1255.98 903.364 1173.07 902.707 1122.41 852.068C1098.06 826.42 1084.24 794.853 1084.24 759.998C1084.24 725.143 1098.06 692.918 1122.41 667.27C1173.07 616.632 1255.98 615.974 1307.31 667.27L1385.61 589.011C1290.86 494.31 1138.2 494.31 1043.44 589.011C998.04 634.388 973.035 694.234 973.035 759.998C973.035 825.105 998.04 884.293 1043.44 930.985C1090.82 978.336 1152.02 1001.35 1214.53 1001.35Z" fill="white"/>
<path d="M2279.52 889.655C2259.55 969.761 2178.38 1018.5 2098.23 998.52C2018.13 978.563 1969.36 897.446 1989.36 817.339C2009.32 737.254 2090.49 688.51 2170.59 708.477C2250.74 728.444 2299.51 809.574 2279.52 889.655Z" fill="#F7931A"/>
<path d="M2200.38 832.212C2203.36 812.306 2188.2 801.617 2167.48 794.484L2174.21 767.538L2157.78 763.448L2151.25 789.686C2146.93 788.611 2142.5 787.599 2138.09 786.592L2144.7 760.183L2128.3 756.095L2121.57 783.033C2118 782.221 2114.48 781.417 2111.09 780.572L2111.11 780.486L2088.46 774.838L2084.11 792.359C2084.11 792.359 2096.28 795.147 2096.03 795.321C2102.66 796.978 2103.88 801.374 2103.67 804.859L2096.01 835.551C2096.46 835.678 2097.07 835.855 2097.73 836.108C2097.17 835.981 2096.59 835.829 2095.98 835.677L2085.25 878.677C2084.44 880.701 2082.39 883.736 2077.73 882.573C2077.88 882.8 2065.81 879.588 2065.81 879.588L2057.66 898.381L2079.02 903.693C2083 904.679 2086.87 905.742 2090.72 906.703L2083.91 933.97L2100.31 938.067L2107.04 911.079C2111.52 912.293 2115.87 913.431 2120.12 914.494L2113.42 941.33L2129.82 945.403L2136.63 918.212C2164.62 923.498 2185.65 921.373 2194.51 896.054C2201.64 875.693 2194.15 863.956 2179.42 856.292C2190.15 853.813 2198.23 846.756 2200.38 832.212ZM2162.9 884.748C2157.81 905.135 2123.49 894.107 2112.38 891.35L2121.39 855.255C2132.5 858.012 2168.19 863.501 2162.9 884.748ZM2167.96 831.909C2163.33 850.449 2134.78 841.015 2125.52 838.713L2133.69 805.967C2142.95 808.274 2172.79 812.584 2167.96 831.909Z" fill="white"/>
<path d="M1014.32 1003L858.365 520.287H753.081L588.576 1003H706.362L726.102 944.467H878.106L897.188 1003H1014.32ZM804.407 716.265L842.572 833.325H764.268L804.407 716.265Z" fill="white"/>
<path d="M510.929 814.911L418.148 516.341H301.02L456.971 1003H562.255L726.761 516.341H608.974L510.929 814.911Z" fill="white"/>
<path d="M111.206 517.656H0V1003H111.206C242.152 995.763 342.83 893.171 342.83 763.615C342.83 632.744 240.178 525.548 111.206 518.314V517.656ZM111.206 629.456C178.982 636.69 231.624 694.562 231.624 763.615C231.624 830.695 179.64 883.964 111.206 891.198V629.456Z" fill="white"/>
<path d="M2037.06 490.602L1881.11 7.89172H1775.83L1611.32 490.602H1729.11L1748.85 432.072H1900.85L1919.93 490.602H2037.06ZM1827.15 203.87L1865.32 320.93H1787.01L1827.15 203.87Z" fill="white"/>
<path d="M1494.55 290.021L1337.28 9.20706H1216.21V490.602H1327.41V209.131L1485.34 490.602H1605.75V7.89172H1494.55V290.021Z" fill="white"/>
<path d="M961.453 5.26123H850.247V490.602H961.453C1092.4 483.368 1193.08 380.776 1193.08 251.22C1193.08 120.349 1090.43 13.153 961.453 5.9189V5.26123ZM961.453 117.061C1029.23 124.295 1081.87 182.167 1081.87 251.22C1081.87 318.299 1029.89 371.569 961.453 378.803V117.061Z" fill="white"/>
<path d="M827.469 7.89172L517.541 8.54939V490.602H827.469V379.46H628.746V303.174H789.962V192.032H628.746V119.033H827.469V7.89172Z" fill="white"/>
<path d="M383.066 0V307.777C383.066 348.551 349.507 379.46 310.684 379.46C290.943 379.46 273.835 372.226 259.358 357.758C245.54 343.29 238.959 326.191 238.959 306.462L127.754 305.147C127.096 355.127 145.52 400.505 179.737 435.36C214.613 470.215 259.358 489.944 309.368 490.602H311.342C410.703 490.602 494.272 410.369 494.272 308.435V0H383.066Z" fill="white"/>
</svg>
