<svg width="2684" height="2684" viewBox="0 0 2684 2684" fill="none" xmlns="http://www.w3.org/2000/svg">
<g clip-path="url(#clip0_106_1691)">
<rect width="2684" height="2684" fill="black"/>
<path d="M2000.92 1242.7V1354.66H2093.05V1728.09H2204.27V1354.66H2297.06V1242.7H2000.92Z" fill="#F7931A"/>
<path d="M1977.69 1244.68L1667.73 1245.33V1728.09H1977.69V1616.79H1778.94V1540.39H1940.17V1429.08H1778.94V1355.98H1977.69V1244.68Z" fill="#F7931A"/>
<path d="M1473.63 1727.43C1536.81 1727.43 1597.35 1704.38 1644.74 1656.96L1566.42 1577.93C1515.09 1629.3 1432.17 1628.64 1381.5 1577.93C1357.15 1552.24 1343.33 1520.63 1343.33 1485.72C1343.33 1450.82 1357.15 1418.55 1381.5 1392.86C1432.17 1342.15 1515.09 1341.49 1566.42 1392.86L1644.74 1314.49C1549.97 1219.65 1397.3 1219.65 1302.53 1314.49C1257.12 1359.93 1232.11 1419.86 1232.11 1485.72C1232.11 1550.93 1257.12 1610.2 1302.53 1656.96C1349.91 1704.38 1411.12 1727.43 1473.63 1727.43Z" fill="#F7931A"/>
<path d="M2538.73 1615.57C2518.76 1695.79 2437.59 1744.61 2357.43 1724.6C2277.32 1704.61 2228.54 1623.37 2248.54 1543.15C2268.51 1462.95 2349.68 1414.13 2429.79 1434.13C2509.95 1454.12 2558.73 1535.37 2538.73 1615.57Z" fill="white"/>
<path d="M2459.58 1558.04C2462.57 1538.11 2447.41 1527.4 2426.68 1520.26L2433.41 1493.28L2416.98 1489.18L2410.45 1515.46C2406.13 1514.38 2401.7 1513.37 2397.29 1512.36L2403.9 1485.91L2387.5 1481.82L2380.76 1508.79C2377.2 1507.98 2373.68 1507.17 2370.29 1506.33L2370.31 1506.24L2347.66 1500.59L2343.3 1518.13C2343.3 1518.13 2355.48 1520.92 2355.23 1521.1C2361.86 1522.76 2363.07 1527.16 2362.87 1530.65L2355.2 1561.39C2355.66 1561.51 2356.26 1561.69 2356.92 1561.95C2356.36 1561.82 2355.78 1561.67 2355.17 1561.51L2344.44 1604.58C2343.63 1606.6 2341.58 1609.64 2336.93 1608.48C2337.08 1608.71 2325 1605.49 2325 1605.49L2316.85 1624.31L2338.22 1629.63C2342.19 1630.62 2346.06 1631.68 2349.91 1632.64L2343.1 1659.95L2359.5 1664.05L2366.24 1637.03C2370.72 1638.24 2375.07 1639.38 2379.32 1640.45L2372.61 1667.32L2389.02 1671.4L2395.82 1644.17C2423.82 1649.46 2444.85 1647.34 2453.71 1621.98C2460.85 1601.59 2453.36 1589.83 2438.63 1582.16C2449.36 1579.68 2457.43 1572.61 2459.58 1558.04ZM2422.1 1610.66C2417.01 1631.07 2382.69 1620.03 2371.58 1617.27L2380.59 1581.12C2391.7 1583.88 2427.39 1589.38 2422.1 1610.66ZM2427.16 1557.74C2422.53 1576.31 2393.98 1566.86 2384.71 1564.55L2392.89 1531.76C2402.15 1534.07 2431.99 1538.39 2427.16 1557.74Z" fill="black"/>
<path d="M1273.4 1729.08L1117.43 1245.66H1012.14L847.615 1729.08H965.414L985.156 1670.46H1137.18L1156.26 1729.08H1273.4ZM1063.47 1441.93L1101.64 1559.16H1023.33L1063.47 1441.93Z" fill="#F7931A"/>
<path d="M769.96 1540.72L677.17 1241.71H560.029L715.997 1729.08H821.292L985.814 1241.71H868.016L769.96 1540.72Z" fill="#F7931A"/>
<path d="M370.194 1243.03H258.977V1729.08H370.194C501.154 1721.83 601.842 1619.09 601.842 1489.35C601.842 1358.28 499.18 1250.93 370.194 1243.69V1243.03ZM370.194 1354.99C437.977 1362.24 490.625 1420.19 490.625 1489.35C490.625 1556.52 438.635 1609.87 370.194 1617.12V1354.99Z" fill="#F7931A"/>
<path d="M2296.25 1215.93L2140.28 732.519H2034.99L1870.47 1215.93H1988.27L2008.01 1157.32H2160.03L2179.11 1215.93H2296.25ZM2086.32 928.783L2124.49 1046.01H2046.18L2086.32 928.783Z" fill="#F7931A"/>
<path d="M1753.69 1015.06L1596.4 733.837H1475.31V1215.94H1586.53V934.052L1744.47 1215.94H1864.9V732.52H1753.69V1015.06Z" fill="#F7931A"/>
<path d="M1220.53 729.885H1109.31V1215.93H1220.53C1351.49 1208.69 1452.18 1105.95 1452.18 976.203C1452.18 845.141 1349.52 737.788 1220.53 730.544V729.885ZM1220.53 841.848C1288.31 849.092 1340.96 907.049 1340.96 976.203C1340.96 1043.38 1288.97 1096.73 1220.53 1103.97V841.848Z" fill="#F7931A"/>
<path d="M1086.53 732.52L776.573 733.178V1215.94H1086.53V1104.63H887.791V1028.23H1049.02V916.929H887.791V843.824H1086.53V732.52Z" fill="#F7931A"/>
<path d="M642.084 724.616V1032.84C642.084 1073.68 608.521 1104.63 569.694 1104.63C549.951 1104.63 532.841 1097.39 518.363 1082.9C504.543 1068.41 497.962 1051.28 497.962 1031.53L386.745 1030.21C386.086 1080.26 404.513 1125.71 438.734 1160.61C473.613 1195.52 518.363 1215.28 568.378 1215.93H570.352C669.724 1215.93 753.301 1135.59 753.301 1033.5V724.616H642.084Z" fill="#F7931A"/>
</g>
<defs>
<clipPath id="clip0_106_1691">
<rect width="2684" height="2684" fill="white"/>
</clipPath>
</defs>
</svg>
