<svg width="2683" height="2684" viewBox="0 0 2683 2684" fill="none" xmlns="http://www.w3.org/2000/svg">
<g clip-path="url(#clip0_106_1669)">
<rect width="2683" height="2684" fill="black"/>
<path d="M2000.18 1242.7V1354.66H2092.27V1728.09H2203.45V1354.66H2296.21V1242.7H2000.18Z" fill="white"/>
<path d="M1976.95 1244.68L1667.11 1245.33V1728.09H1976.95V1616.79H1778.28V1540.39H1939.45V1429.08H1778.28V1355.98H1976.95V1244.68Z" fill="white"/>
<path d="M1473.08 1727.43C1536.24 1727.43 1596.76 1704.38 1644.12 1656.96L1565.84 1577.93C1514.53 1629.3 1431.64 1628.64 1380.99 1577.93C1356.65 1552.24 1342.83 1520.63 1342.83 1485.72C1342.83 1450.82 1356.65 1418.55 1380.99 1392.86C1431.64 1342.15 1514.53 1341.49 1565.84 1392.86L1644.12 1314.49C1549.39 1219.65 1396.77 1219.65 1302.04 1314.49C1256.65 1359.93 1231.66 1419.86 1231.66 1485.72C1231.66 1550.93 1256.65 1610.2 1302.04 1656.96C1349.41 1704.38 1410.59 1727.43 1473.08 1727.43Z" fill="white"/>
<path d="M2537.79 1615.57C2517.82 1695.79 2436.68 1744.61 2356.55 1724.6C2276.47 1704.61 2227.71 1623.37 2247.7 1543.15C2267.67 1462.95 2348.81 1414.13 2428.89 1434.13C2509.02 1454.12 2557.78 1535.37 2537.79 1615.57Z" fill="#F7931A"/>
<path d="M2458.67 1558.04C2461.65 1538.11 2446.5 1527.4 2425.77 1520.26L2432.51 1493.28L2416.08 1489.18L2409.56 1515.46C2405.23 1514.38 2400.8 1513.37 2396.4 1512.36L2403 1485.91L2386.61 1481.82L2379.88 1508.79C2376.31 1507.98 2372.79 1507.17 2369.4 1506.33L2369.43 1506.24L2346.78 1500.59L2342.43 1518.13C2342.43 1518.13 2354.6 1520.92 2354.35 1521.1C2360.98 1522.76 2362.19 1527.16 2361.99 1530.65L2354.32 1561.39C2354.78 1561.51 2355.39 1561.69 2356.04 1561.95C2355.49 1561.82 2354.9 1561.67 2354.3 1561.51L2343.57 1604.58C2342.76 1606.6 2340.71 1609.64 2336.05 1608.48C2336.21 1608.71 2324.14 1605.49 2324.14 1605.49L2315.99 1624.31L2337.35 1629.63C2341.32 1630.62 2345.19 1631.68 2349.03 1632.64L2342.23 1659.95L2358.62 1664.05L2365.35 1637.03C2369.83 1638.24 2374.18 1639.38 2378.44 1640.45L2371.73 1667.32L2388.13 1671.4L2394.93 1644.17C2422.92 1649.46 2443.94 1647.34 2452.8 1621.98C2459.93 1601.59 2452.44 1589.83 2437.72 1582.16C2448.45 1579.68 2456.52 1572.61 2458.67 1558.04ZM2421.2 1610.66C2416.11 1631.07 2381.8 1620.03 2370.69 1617.27L2379.7 1581.12C2390.81 1583.88 2426.48 1589.38 2421.2 1610.66ZM2426.26 1557.74C2421.63 1576.31 2393.09 1566.86 2383.82 1564.55L2392 1531.76C2401.26 1534.07 2431.09 1538.39 2426.26 1557.74Z" fill="white"/>
<path d="M1272.93 1729.08L1117.02 1245.66H1011.76L847.299 1729.08H965.053L984.789 1670.46H1136.75L1155.83 1729.08H1272.93ZM1063.07 1441.93L1101.23 1559.16H1022.94L1063.07 1441.93Z" fill="white"/>
<path d="M769.673 1540.72L676.917 1241.71H559.82L715.73 1729.08H820.985L985.447 1241.71H867.692L769.673 1540.72Z" fill="white"/>
<path d="M370.056 1243.03H258.88V1729.08H370.056C500.967 1721.83 601.618 1619.09 601.618 1489.35C601.618 1358.28 498.994 1250.93 370.056 1243.69V1243.03ZM370.056 1354.99C437.814 1362.24 490.442 1420.19 490.442 1489.35C490.442 1556.52 438.472 1609.87 370.056 1617.12V1354.99Z" fill="white"/>
<path d="M2295.4 1215.93L2139.49 732.519H2034.23L1869.77 1215.93H1987.52L2007.26 1157.32H2159.22L2178.3 1215.93H2295.4ZM2085.54 928.783L2123.7 1046.01H2045.42L2085.54 928.783Z" fill="white"/>
<path d="M1753.03 1015.06L1595.81 733.837H1474.77V1215.94H1585.94V934.052L1743.82 1215.94H1864.21V732.52H1753.03V1015.06Z" fill="white"/>
<path d="M1220.08 729.885H1108.9V1215.93H1220.08C1350.99 1208.69 1451.64 1105.95 1451.64 976.203C1451.64 845.141 1349.01 737.788 1220.08 730.544V729.885ZM1220.08 841.848C1287.83 849.092 1340.46 907.049 1340.46 976.203C1340.46 1043.38 1288.49 1096.73 1220.08 1103.97V841.848Z" fill="white"/>
<path d="M1086.13 732.52L776.284 733.178V1215.94H1086.13V1104.63H887.46V1028.23H1048.63V916.929H887.46V843.824H1086.13V732.52Z" fill="white"/>
<path d="M641.845 724.616V1032.84C641.845 1073.68 608.295 1104.63 569.482 1104.63C549.746 1104.63 532.642 1097.39 518.17 1082.9C504.355 1068.41 497.777 1051.28 497.777 1031.53L386.601 1030.21C385.943 1080.26 404.362 1125.71 438.57 1160.61C473.436 1195.52 518.17 1215.28 568.166 1215.93H570.14C669.474 1215.93 753.021 1135.59 753.021 1033.5V724.616H641.845Z" fill="white"/>
</g>
<defs>
<clipPath id="clip0_106_1669">
<rect width="2683" height="2684" fill="white"/>
</clipPath>
</defs>
</svg>
