<svg width="1060" height="1060" viewBox="0 0 1060 1060" fill="none" xmlns="http://www.w3.org/2000/svg">
<g clip-path="url(#clip0_106_429)">
<rect width="1060" height="1060" fill="black"/>
<path d="M790.229 490.783V535.001H826.616V682.48H870.539V535.001H907.185V490.783H790.229Z" fill="white"/>
<path d="M781.053 491.563L658.641 491.823V682.48H781.053V638.522H702.563V608.35H766.239V564.393H702.563V535.521H781.053V491.563Z" fill="white"/>
<path d="M581.987 682.22C606.937 682.22 630.848 673.116 649.561 654.389L618.633 623.176C598.36 643.464 565.613 643.204 545.6 623.176C535.984 613.032 530.526 600.547 530.526 586.761C530.526 572.976 535.984 560.231 545.6 550.087C565.613 530.059 598.36 529.799 618.633 550.087L649.561 519.134C612.135 481.679 551.838 481.679 514.412 519.134C496.479 537.081 486.603 560.751 486.603 586.761C486.603 612.512 496.479 635.921 514.412 654.389C533.125 673.116 557.296 682.22 581.987 682.22Z" fill="white"/>
<path d="M1002.63 638.042C994.742 669.725 962.684 689.003 931.026 681.099C899.388 673.206 880.125 641.123 888.022 609.441C895.909 577.766 927.967 558.487 959.606 566.384C991.264 574.282 1010.53 606.369 1002.63 638.042Z" fill="#F7931A"/>
<path d="M971.371 615.323C972.55 607.45 966.562 603.222 958.375 600.401L961.035 589.744L954.547 588.126L951.968 598.503C950.259 598.078 948.509 597.678 946.77 597.28L949.379 586.835L942.901 585.218L940.242 595.872C938.833 595.551 937.443 595.233 936.104 594.899L936.114 594.865L927.167 592.631L925.448 599.561C925.448 599.561 930.256 600.663 930.156 600.732C932.775 601.388 933.255 603.126 933.175 604.505L930.146 616.644C930.326 616.694 930.566 616.764 930.826 616.864C930.606 616.814 930.376 616.754 930.136 616.694L925.898 633.7C925.578 634.501 924.768 635.701 922.929 635.241C922.989 635.331 918.221 634.061 918.221 634.061L915.002 641.494L923.439 643.594C925.008 643.985 926.538 644.405 928.057 644.785L925.368 655.569L931.846 657.19L934.504 646.516C936.274 646.996 937.993 647.446 939.673 647.866L937.024 658.48L943.501 660.091L946.19 649.337C957.246 651.428 965.553 650.587 969.052 640.573C971.87 632.52 968.912 627.878 963.094 624.847C967.332 623.867 970.521 621.075 971.371 615.323ZM956.566 636.101C954.557 644.165 941.002 639.803 936.614 638.712L940.172 624.437C944.561 625.527 958.655 627.698 956.566 636.101ZM958.565 615.203C956.736 622.536 945.46 618.804 941.802 617.894L945.031 604.943C948.689 605.855 960.475 607.56 958.565 615.203Z" fill="white"/>
<path d="M502.908 682.87L441.311 491.954H399.726L334.751 682.87H381.273L389.071 659.721H449.108L456.645 682.87H502.908ZM419.999 569.465L435.073 615.763H404.145L419.999 569.465Z" fill="white"/>
<path d="M304.083 608.48L267.436 490.393H221.174L282.771 682.87H324.355L389.33 490.393H342.808L304.083 608.48Z" fill="white"/>
<path d="M146.202 490.913H102.278V682.87H146.202C197.922 680.009 237.687 639.432 237.687 588.192C237.687 536.431 197.143 494.034 146.202 491.173V490.913ZM146.202 535.131C172.972 537.992 193.764 560.881 193.764 588.192C193.764 614.723 173.232 635.791 146.202 638.652V535.131Z" fill="white"/>
<path d="M906.866 480.213L845.269 289.296H803.684L738.709 480.213H785.231L793.029 457.063H853.066L860.603 480.213H906.866ZM823.957 366.807L839.031 413.106H808.103L823.957 366.807Z" fill="white"/>
<path d="M692.589 400.881L630.472 289.816H582.65V480.213H626.574V368.888L688.95 480.213H736.51V289.296H692.589V400.881Z" fill="white"/>
<path d="M482.028 288.256H438.104V480.213H482.028C533.748 477.352 573.513 436.775 573.513 385.535C573.513 333.774 532.969 291.377 482.028 288.516V288.256ZM482.028 332.473C508.798 335.335 529.59 358.224 529.59 385.535C529.59 412.065 509.058 433.134 482.028 435.995V332.473Z" fill="white"/>
<path d="M429.108 289.296L306.694 289.556V480.213H429.108V436.255H350.618V406.083H414.294V362.125H350.618V333.254H429.108V289.296Z" fill="white"/>
<path d="M253.58 286.175V407.904C253.58 424.03 240.325 436.255 224.991 436.255C217.194 436.255 210.436 433.394 204.719 427.672C199.261 421.949 196.662 415.187 196.662 407.383L152.738 406.863C152.478 426.631 159.756 444.578 173.27 458.364C187.045 472.149 204.719 479.953 224.471 480.213H225.251C264.496 480.213 297.504 448.48 297.504 408.164V286.175H253.58Z" fill="white"/>
<path d="M428.859 766C428.859 769.172 428.784 772.872 428.633 777.102C428.557 781.255 428.293 785.711 427.84 790.469C427.462 795.227 426.858 800.098 426.027 805.082C425.272 810.066 424.253 814.938 422.969 819.695C421.685 824.453 420.099 828.947 418.211 833.176C416.323 837.405 414.057 841.105 411.414 844.277C408.771 847.449 405.712 849.979 402.238 851.867C398.764 853.68 394.799 854.586 390.344 854.586C385.888 854.586 381.848 853.566 378.223 851.527C374.598 849.413 371.539 846.656 369.047 843.258C367.008 840.539 365.195 837.216 363.609 833.289C362.099 829.286 360.74 824.944 359.531 820.262C358.398 815.579 357.417 810.708 356.586 805.648C355.755 800.589 355.076 795.604 354.547 790.695C354.094 785.786 353.754 781.142 353.527 776.762C353.301 772.306 353.188 768.417 353.188 765.094C353.188 759.505 353.414 753.652 353.867 747.535C354.396 741.418 355.34 735.376 356.699 729.41C358.059 723.368 359.909 717.553 362.25 711.965C364.591 706.376 367.612 701.354 371.312 696.898C371.69 696.445 372.143 695.917 372.672 695.312C373.276 694.708 373.918 694.142 374.598 693.613C375.277 693.009 375.957 692.518 376.637 692.141C377.392 691.688 378.109 691.461 378.789 691.461C379.469 691.461 380.111 691.65 380.715 692.027C381.395 692.405 381.961 692.896 382.414 693.5C384 692.594 385.661 691.952 387.398 691.574C389.211 691.197 391.023 691.008 392.836 691.008C398.349 691.008 403.069 692.329 406.996 694.973C410.999 697.54 414.322 700.939 416.965 705.168C419.608 709.397 421.723 714.193 423.309 719.555C424.895 724.917 426.103 730.392 426.934 735.98C427.764 741.569 428.293 746.969 428.52 752.18C428.746 757.391 428.859 761.997 428.859 766ZM411.188 770.984C411.188 769.021 411.112 766.038 410.961 762.035C410.885 757.957 410.621 753.501 410.168 748.668C409.715 743.759 409.073 738.737 408.242 733.602C407.487 728.466 406.43 723.822 405.07 719.668C403.711 715.439 402.012 712.003 399.973 709.359C398.009 706.641 395.63 705.281 392.836 705.281C391.703 705.281 390.684 705.81 389.777 706.867C388.871 707.924 388.003 709.284 387.172 710.945C386.341 712.607 385.586 714.419 384.906 716.383C384.227 718.346 383.547 720.234 382.867 722.047C382.188 723.859 381.546 725.483 380.941 726.918C380.337 728.353 379.695 729.372 379.016 729.977C378.789 730.203 378.411 730.354 377.883 730.43C377.43 730.43 376.977 730.43 376.523 730.43C375.24 730.43 374.031 730.203 372.898 729.75C371.615 734.885 370.708 740.021 370.18 745.156C369.727 750.216 369.5 755.352 369.5 760.562C369.5 762.148 369.576 764.527 369.727 767.699C369.878 770.871 370.104 774.496 370.406 778.574C370.708 782.652 371.124 787.033 371.652 791.715C372.181 796.397 372.823 801.079 373.578 805.762C374.333 810.368 375.202 814.824 376.184 819.129C377.241 823.358 378.449 827.134 379.809 830.457C381.168 833.704 382.678 836.31 384.34 838.273C386.001 840.237 387.852 841.219 389.891 841.219C391.023 841.219 392.043 840.917 392.949 840.312C393.855 839.633 394.724 838.953 395.555 838.273C397.82 836.234 399.784 833.553 401.445 830.23C403.107 826.908 404.504 823.245 405.637 819.242C406.77 815.24 407.714 811.048 408.469 806.668C409.224 802.212 409.79 797.832 410.168 793.527C410.546 789.223 410.81 785.145 410.961 781.293C411.112 777.366 411.188 773.93 411.188 770.984ZM477.117 769.965C477.117 770.871 476.777 771.626 476.098 772.23C475.493 772.835 474.738 773.363 473.832 773.816C472.926 774.194 471.982 774.458 471 774.609C470.094 774.76 469.339 774.836 468.734 774.836C467.828 774.836 466.96 774.76 466.129 774.609C465.298 774.383 464.467 774.156 463.637 773.93C462.806 773.703 462.013 773.514 461.258 773.363C460.503 773.137 459.71 773.023 458.879 773.023C457.746 773.023 456.613 773.212 455.48 773.59C454.348 773.967 453.328 774.496 452.422 775.176C451.516 775.855 450.76 776.686 450.156 777.668C449.628 778.65 449.363 779.745 449.363 780.953C449.363 782.766 449.741 784.578 450.496 786.391C451.251 788.128 452.233 789.902 453.441 791.715C454.725 793.527 456.16 795.378 457.746 797.266C459.408 799.078 461.145 800.928 462.957 802.816C465.147 805.233 467.337 807.688 469.527 810.18C471.793 812.672 473.794 815.277 475.531 817.996C477.344 820.715 478.816 823.585 479.949 826.605C481.082 829.626 481.648 832.798 481.648 836.121C481.648 838.991 481.158 841.559 480.176 843.824C479.27 846.09 477.948 848.016 476.211 849.602C474.549 851.188 472.51 852.396 470.094 853.227C467.753 854.133 465.185 854.586 462.391 854.586C461.635 854.586 460.465 854.435 458.879 854.133C457.368 853.831 455.632 853.415 453.668 852.887C451.704 852.283 449.665 851.641 447.551 850.961C445.512 850.281 443.624 849.564 441.887 848.809C440.225 847.978 438.828 847.185 437.695 846.43C436.638 845.599 436.109 844.844 436.109 844.164C436.109 843.258 436.525 842.352 437.355 841.445C438.186 840.464 439.168 839.595 440.301 838.84C441.434 838.009 442.604 837.329 443.812 836.801C445.096 836.272 446.154 836.008 446.984 836.008C448.117 836.008 449.288 836.272 450.496 836.801C451.78 837.329 453.064 837.934 454.348 838.613C455.783 839.368 457.217 840.048 458.652 840.652C460.163 841.257 461.711 841.559 463.297 841.559C464.505 841.559 465.185 841.143 465.336 840.312C465.562 839.482 465.676 838.538 465.676 837.48C465.676 834.837 465.223 832.345 464.316 830.004C463.41 827.587 462.24 825.246 460.805 822.98C459.37 820.715 457.708 818.525 455.82 816.41C453.932 814.22 452.044 812.068 450.156 809.953C448.193 807.839 446.267 805.724 444.379 803.609C442.566 801.495 440.943 799.342 439.508 797.152C438.073 794.887 436.902 792.583 435.996 790.242C435.165 787.901 434.75 785.409 434.75 782.766C434.75 779.518 435.467 776.611 436.902 774.043C438.337 771.4 440.188 769.134 442.453 767.246C444.794 765.358 447.4 763.923 450.27 762.941C453.215 761.884 456.16 761.355 459.105 761.355C460.087 761.355 461.598 761.582 463.637 762.035C465.676 762.413 467.677 762.979 469.641 763.734C471.604 764.49 473.341 765.396 474.852 766.453C476.362 767.51 477.117 768.681 477.117 769.965ZM512.348 850.168C512.348 850.999 512.159 851.716 511.781 852.32C511.404 852.849 510.913 853.264 510.309 853.566C509.78 853.868 509.176 854.057 508.496 854.133C507.892 854.284 507.288 854.359 506.684 854.359C505.853 854.359 504.871 854.246 503.738 854.02C502.681 853.868 501.624 853.604 500.566 853.227C499.509 852.849 498.527 852.396 497.621 851.867C496.79 851.263 496.148 850.546 495.695 849.715C495.242 848.96 494.827 847.562 494.449 845.523C494.147 843.409 493.883 840.992 493.656 838.273C493.43 835.479 493.241 832.534 493.09 829.438C492.939 826.266 492.788 823.245 492.637 820.375C492.561 817.505 492.486 814.938 492.41 812.672C492.41 810.331 492.41 808.594 492.41 807.461C492.41 802.174 492.486 797.077 492.637 792.168C492.863 787.184 493.09 782.086 493.316 776.875C492.939 776.875 492.561 776.913 492.184 776.988C491.806 777.064 491.428 777.102 491.051 777.102C490.069 777.253 489.049 777.366 487.992 777.441C487.01 777.517 485.991 777.555 484.934 777.555C483.65 777.555 482.517 777.328 481.535 776.875C480.553 776.422 480.062 775.402 480.062 773.816C480.062 771.928 480.478 770.418 481.309 769.285C482.139 768.152 483.197 767.284 484.48 766.68C485.764 766 487.161 765.547 488.672 765.32C490.182 765.018 491.655 764.792 493.09 764.641C493.316 764.641 493.467 764.641 493.543 764.641C493.618 764.565 493.77 764.527 493.996 764.527C494.072 763.621 494.147 762.526 494.223 761.242C494.298 759.883 494.374 758.41 494.449 756.824C494.525 754.332 494.638 751.689 494.789 748.895C494.94 746.025 495.091 743.306 495.242 740.738C495.393 738.095 495.582 735.792 495.809 733.828C496.035 731.789 496.262 730.354 496.488 729.523C496.866 728.542 497.281 727.749 497.734 727.145C498.263 726.54 499.207 726.238 500.566 726.238C503.587 726.238 505.928 727.22 507.59 729.184C509.251 731.147 510.082 733.564 510.082 736.434C510.082 739.757 509.969 743.079 509.742 746.402C509.591 749.725 509.44 753.086 509.289 756.484L508.949 762.262C510.837 762.035 512.725 761.695 514.613 761.242C516.426 760.865 518.238 760.525 520.051 760.223C521.939 759.921 523.751 759.77 525.488 759.77C526.999 759.77 528.169 760.185 529 761.016C529.831 761.771 530.246 762.904 530.246 764.414C530.246 766.076 529.944 767.699 529.34 769.285C528.736 770.871 527.678 772.079 526.168 772.91H526.281C525.979 773.061 525.073 773.288 523.562 773.59C522.052 773.816 520.315 774.043 518.352 774.27C516.464 774.496 514.576 774.723 512.688 774.949C510.875 775.176 509.516 775.327 508.609 775.402H508.496C508.345 779.632 508.232 783.823 508.156 787.977C508.081 792.055 508.043 796.208 508.043 800.438C508.043 806.253 508.194 812.445 508.496 819.016C508.874 825.51 509.478 831.703 510.309 837.594L511.215 842.691C511.517 843.975 511.781 845.259 512.008 846.543C512.234 847.751 512.348 848.96 512.348 850.168ZM543.16 854.812C542.027 854.812 540.781 854.661 539.422 854.359C538.138 854.057 536.892 853.566 535.684 852.887C534.551 852.207 533.569 851.376 532.738 850.395C531.983 849.337 531.605 848.091 531.605 846.656C531.605 844.542 531.681 842.465 531.832 840.426C532.059 838.311 532.285 836.234 532.512 834.195V834.309L533.191 826.719C533.418 824 533.607 821.017 533.758 817.77C533.909 814.522 534.022 811.237 534.098 807.914C534.249 804.516 534.362 801.193 534.438 797.945C534.513 794.698 534.551 791.715 534.551 788.996C534.551 787.41 534.513 785.824 534.438 784.238C534.438 782.577 534.438 780.915 534.438 779.254C534.362 777.819 534.324 776.233 534.324 774.496C534.324 772.684 534.324 771.022 534.324 769.512C534.324 767.926 534.513 766.642 534.891 765.66C535.344 764.603 536.552 764.074 538.516 764.074C540.253 764.074 542.065 764.527 543.953 765.434C545.917 766.34 547.276 767.624 548.031 769.285H547.918C548.296 770.116 548.56 771.475 548.711 773.363C548.938 775.176 549.089 776.799 549.164 778.234C550.448 776.271 551.883 774.194 553.469 772.004C555.13 769.814 556.905 767.812 558.793 766C560.681 764.112 562.682 762.564 564.797 761.355C566.911 760.147 569.177 759.543 571.594 759.543C574.766 759.543 577.182 760.336 578.844 761.922C580.505 763.508 581.714 765.509 582.469 767.926C583.224 770.267 583.639 772.797 583.715 775.516C583.79 778.159 583.828 780.576 583.828 782.766V783.672C583.828 784.578 583.79 785.484 583.715 786.391C583.715 787.221 583.564 788.014 583.262 788.77C583.035 789.449 582.582 790.016 581.902 790.469C581.298 790.922 580.43 791.148 579.297 791.148C578.089 791.148 576.805 790.997 575.445 790.695C574.086 790.318 572.802 789.789 571.594 789.109C570.461 788.43 569.479 787.599 568.648 786.617C567.818 785.56 567.365 784.352 567.289 782.992C567.289 782.388 567.289 781.784 567.289 781.18C567.289 780.576 567.327 779.971 567.402 779.367C567.402 778.99 567.402 778.536 567.402 778.008C567.478 777.404 567.516 776.837 567.516 776.309C565.099 778.725 562.947 781.708 561.059 785.258C559.246 788.807 557.585 792.583 556.074 796.586C554.639 800.589 553.393 804.629 552.336 808.707C551.279 812.71 550.372 816.335 549.617 819.582V819.922C549.391 822.263 549.24 824.566 549.164 826.832C549.089 829.098 549.013 831.439 548.938 833.855C548.862 836.574 548.749 839.331 548.598 842.125C548.522 844.919 548.333 847.638 548.031 850.281C547.88 851.716 547.427 852.811 546.672 853.566C545.992 854.397 544.822 854.812 543.16 854.812ZM633.785 851.527C633.785 853.038 633.408 854.057 632.652 854.586C631.897 855.19 630.84 855.492 629.48 855.492C625.931 855.492 623.363 854.548 621.777 852.66C620.267 850.772 619.134 848.28 618.379 845.184C618.152 844.126 617.926 843.069 617.699 842.012C617.473 840.879 617.284 839.784 617.133 838.727C616.982 837.745 616.831 837.065 616.68 836.688C616.529 836.31 616.378 835.592 616.227 834.535C615.32 836.725 614.188 839.029 612.828 841.445C611.544 843.786 610.034 845.977 608.297 848.016C606.56 849.979 604.596 851.603 602.406 852.887C600.292 854.171 597.951 854.812 595.383 854.812C592.664 854.812 590.398 854.171 588.586 852.887C586.773 851.527 585.339 849.866 584.281 847.902C583.299 845.863 582.582 843.635 582.129 841.219C581.751 838.802 581.562 836.499 581.562 834.309C581.562 829.173 582.053 823.622 583.035 817.656C584.092 811.615 585.527 805.611 587.34 799.645C589.152 793.603 591.267 787.826 593.684 782.312C596.1 776.724 598.743 771.853 601.613 767.699V767.812L602.293 766.793C603.124 765.66 604.068 764.452 605.125 763.168C606.258 761.809 607.579 761.129 609.09 761.129C610.525 761.129 611.771 761.771 612.828 763.055C613.885 764.263 614.641 765.547 615.094 766.906C617.057 767.284 618.643 767.775 619.852 768.379C621.06 768.908 622.004 769.587 622.684 770.418C623.363 771.249 623.816 772.23 624.043 773.363C624.27 774.421 624.383 775.591 624.383 776.875C624.383 777.404 624.383 777.97 624.383 778.574C624.383 779.178 624.345 779.783 624.27 780.387C624.194 780.991 624.156 781.708 624.156 782.539C624.156 783.37 624.156 784.125 624.156 784.805C624.156 785.56 624.27 786.542 624.496 787.75C624.798 788.958 625.1 790.204 625.402 791.488L626.195 795.68C626.573 797.87 626.875 800.362 627.102 803.156C627.404 805.951 627.743 808.745 628.121 811.539C628.423 814.409 628.725 817.203 629.027 819.922C629.329 822.565 629.632 825.02 629.934 827.285L632.652 844.051L632.992 845.977C633.143 846.958 633.294 847.865 633.445 848.695C633.672 849.526 633.785 850.47 633.785 851.527ZM607.844 786.391C607.844 786.24 607.806 786.013 607.73 785.711C607.655 785.333 607.579 784.956 607.504 784.578C605.767 788.279 604.219 792.319 602.859 796.699C601.576 801.004 600.48 805.422 599.574 809.953C598.743 814.409 598.102 818.902 597.648 823.434C597.271 827.889 597.082 832.118 597.082 836.121C597.082 836.499 597.082 836.839 597.082 837.141C597.082 837.443 597.12 837.745 597.195 838.047V838.16C599.008 835.366 600.556 831.703 601.84 827.172C603.199 822.565 604.332 817.77 605.238 812.785C606.145 807.725 606.786 802.854 607.164 798.172C607.617 793.414 607.844 789.487 607.844 786.391ZM681.816 770.871C681.816 781.293 680.986 791.564 679.324 801.684C677.738 811.803 675.812 821.885 673.547 831.93C673.245 832.911 673.056 833.742 672.98 834.422C672.527 836.612 672.036 838.878 671.508 841.219C671.055 843.484 670.299 845.75 669.242 848.016C668.26 849.904 666.901 851.565 665.164 853C663.503 854.359 661.652 855.039 659.613 855.039C658.783 855.039 657.914 854.85 657.008 854.473C656.102 854.095 655.12 853.604 654.062 853C652.552 851.943 651.419 850.508 650.664 848.695C649.909 846.807 649.267 844.882 648.738 842.918L648.512 842.125V842.238C647.228 837.329 646.133 832.421 645.227 827.512C644.396 822.603 643.565 817.656 642.734 812.672C642.281 809.576 641.828 806.517 641.375 803.496C640.922 800.4 640.393 797.341 639.789 794.32L638.203 787.637C637.826 786.126 637.41 784.503 636.957 782.766C636.579 780.953 636.202 779.254 635.824 777.668C635.447 776.082 635.145 774.685 634.918 773.477C634.691 772.193 634.578 771.324 634.578 770.871C634.578 769.436 635.031 768.492 635.938 768.039C636.919 767.51 638.014 767.246 639.223 767.246C641.639 767.246 643.754 767.775 645.566 768.832C647.454 769.889 648.814 771.626 649.645 774.043C650.098 775.327 650.475 776.686 650.777 778.121C651.155 779.556 651.457 780.991 651.684 782.426C652.967 787.41 654.176 792.697 655.309 798.285C656.517 803.798 657.536 809.122 658.367 814.258L659.387 820.035C659.462 820.413 659.5 820.715 659.5 820.941C659.5 821.168 659.5 821.357 659.5 821.508C659.576 821.659 659.613 821.848 659.613 822.074C659.689 822.301 659.764 822.641 659.84 823.094C661.501 815.089 662.898 807.083 664.031 799.078C665.164 790.997 665.73 782.879 665.73 774.723C665.73 773.061 665.617 771.438 665.391 769.852C665.24 768.266 665.051 766.604 664.824 764.867C664.598 763.281 664.371 761.658 664.145 759.996C663.993 758.259 663.918 756.522 663.918 754.785C663.918 753.199 664.409 752.104 665.391 751.5C666.372 750.896 667.581 750.594 669.016 750.594C670.753 750.594 672.339 750.707 673.773 750.934C675.208 751.16 676.454 751.613 677.512 752.293C678.569 752.897 679.438 753.803 680.117 755.012C680.797 756.145 681.25 757.655 681.477 759.543C681.628 761.28 681.703 763.168 681.703 765.207C681.779 767.171 681.816 769.059 681.816 770.871ZM738.684 851.527C738.684 853.038 738.306 854.057 737.551 854.586C736.796 855.19 735.738 855.492 734.379 855.492C730.829 855.492 728.262 854.548 726.676 852.66C725.165 850.772 724.033 848.28 723.277 845.184C723.051 844.126 722.824 843.069 722.598 842.012C722.371 840.879 722.182 839.784 722.031 838.727C721.88 837.745 721.729 837.065 721.578 836.688C721.427 836.31 721.276 835.592 721.125 834.535C720.219 836.725 719.086 839.029 717.727 841.445C716.443 843.786 714.932 845.977 713.195 848.016C711.458 849.979 709.495 851.603 707.305 852.887C705.19 854.171 702.849 854.812 700.281 854.812C697.562 854.812 695.297 854.171 693.484 852.887C691.672 851.527 690.237 849.866 689.18 847.902C688.198 845.863 687.48 843.635 687.027 841.219C686.65 838.802 686.461 836.499 686.461 834.309C686.461 829.173 686.952 823.622 687.934 817.656C688.991 811.615 690.426 805.611 692.238 799.645C694.051 793.603 696.165 787.826 698.582 782.312C700.999 776.724 703.642 771.853 706.512 767.699V767.812L707.191 766.793C708.022 765.66 708.966 764.452 710.023 763.168C711.156 761.809 712.478 761.129 713.988 761.129C715.423 761.129 716.669 761.771 717.727 763.055C718.784 764.263 719.539 765.547 719.992 766.906C721.956 767.284 723.542 767.775 724.75 768.379C725.958 768.908 726.902 769.587 727.582 770.418C728.262 771.249 728.715 772.23 728.941 773.363C729.168 774.421 729.281 775.591 729.281 776.875C729.281 777.404 729.281 777.97 729.281 778.574C729.281 779.178 729.243 779.783 729.168 780.387C729.092 780.991 729.055 781.708 729.055 782.539C729.055 783.37 729.055 784.125 729.055 784.805C729.055 785.56 729.168 786.542 729.395 787.75C729.697 788.958 729.999 790.204 730.301 791.488L731.094 795.68C731.471 797.87 731.773 800.362 732 803.156C732.302 805.951 732.642 808.745 733.02 811.539C733.322 814.409 733.624 817.203 733.926 819.922C734.228 822.565 734.53 825.02 734.832 827.285L737.551 844.051L737.891 845.977C738.042 846.958 738.193 847.865 738.344 848.695C738.57 849.526 738.684 850.47 738.684 851.527ZM712.742 786.391C712.742 786.24 712.704 786.013 712.629 785.711C712.553 785.333 712.478 784.956 712.402 784.578C710.665 788.279 709.117 792.319 707.758 796.699C706.474 801.004 705.379 805.422 704.473 809.953C703.642 814.409 703 818.902 702.547 823.434C702.169 827.889 701.98 832.118 701.98 836.121C701.98 836.499 701.98 836.839 701.98 837.141C701.98 837.443 702.018 837.745 702.094 838.047V838.16C703.906 835.366 705.454 831.703 706.738 827.172C708.098 822.565 709.23 817.77 710.137 812.785C711.043 807.725 711.685 802.854 712.062 798.172C712.516 793.414 712.742 789.487 712.742 786.391Z" fill="#F7931A"/>
</g>
<defs>
<clipPath id="clip0_106_429">
<rect width="1060" height="1060" fill="white"/>
</clipPath>
</defs>
</svg>
