<svg width="1060" height="1060" viewBox="0 0 1060 1060" fill="none" xmlns="http://www.w3.org/2000/svg">
<g clip-path="url(#clip0_106_1059)">
<rect width="1060" height="1060" fill="black"/>
<path d="M790.229 490.783V535.001H826.616V682.48H870.539V535.001H907.185V490.783H790.229Z" fill="white"/>
<path d="M781.053 491.563L658.641 491.823V682.48H781.053V638.522H702.563V608.35H766.239V564.393H702.563V535.521H781.053V491.563Z" fill="white"/>
<path d="M581.987 682.22C606.937 682.22 630.848 673.116 649.561 654.389L618.633 623.176C598.36 643.464 565.613 643.204 545.6 623.176C535.984 613.032 530.526 600.547 530.526 586.761C530.526 572.976 535.984 560.231 545.6 550.087C565.613 530.059 598.36 529.799 618.633 550.087L649.561 519.134C612.135 481.679 551.838 481.679 514.412 519.134C496.479 537.081 486.603 560.751 486.603 586.761C486.603 612.512 496.479 635.921 514.412 654.389C533.125 673.116 557.296 682.22 581.987 682.22Z" fill="white"/>
<path d="M1002.63 638.042C994.742 669.725 962.684 689.003 931.026 681.099C899.388 673.206 880.125 641.123 888.022 609.441C895.909 577.766 927.967 558.487 959.606 566.384C991.264 574.282 1010.53 606.369 1002.63 638.042Z" fill="#F7931A"/>
<path d="M971.371 615.323C972.55 607.45 966.562 603.222 958.375 600.401L961.035 589.744L954.547 588.126L951.968 598.503C950.259 598.078 948.509 597.678 946.77 597.28L949.379 586.835L942.901 585.218L940.242 595.872C938.833 595.551 937.443 595.233 936.104 594.899L936.114 594.865L927.167 592.631L925.448 599.561C925.448 599.561 930.256 600.663 930.156 600.732C932.775 601.388 933.255 603.126 933.175 604.505L930.146 616.644C930.326 616.694 930.566 616.764 930.826 616.864C930.606 616.814 930.376 616.754 930.136 616.694L925.898 633.7C925.578 634.501 924.768 635.701 922.929 635.241C922.989 635.331 918.221 634.061 918.221 634.061L915.002 641.494L923.439 643.594C925.008 643.985 926.538 644.405 928.057 644.785L925.368 655.569L931.846 657.19L934.504 646.516C936.274 646.996 937.993 647.446 939.673 647.866L937.024 658.48L943.501 660.091L946.19 649.337C957.246 651.428 965.553 650.587 969.052 640.573C971.87 632.52 968.912 627.878 963.094 624.847C967.332 623.867 970.521 621.075 971.371 615.323ZM956.566 636.101C954.557 644.165 941.002 639.803 936.614 638.712L940.172 624.437C944.561 625.527 958.655 627.698 956.566 636.101ZM958.565 615.203C956.736 622.536 945.46 618.804 941.802 617.894L945.031 604.943C948.689 605.855 960.475 607.56 958.565 615.203Z" fill="white"/>
<path d="M502.908 682.87L441.311 491.954H399.726L334.751 682.87H381.273L389.071 659.721H449.108L456.645 682.87H502.908ZM419.999 569.465L435.073 615.763H404.145L419.999 569.465Z" fill="white"/>
<path d="M304.083 608.48L267.436 490.393H221.174L282.771 682.87H324.355L389.33 490.393H342.808L304.083 608.48Z" fill="white"/>
<path d="M146.202 490.913H102.278V682.87H146.202C197.922 680.009 237.687 639.432 237.687 588.192C237.687 536.431 197.143 494.034 146.202 491.173V490.913ZM146.202 535.131C172.972 537.992 193.764 560.881 193.764 588.192C193.764 614.723 173.232 635.791 146.202 638.652V535.131Z" fill="white"/>
<path d="M906.866 480.213L845.269 289.296H803.684L738.709 480.213H785.231L793.029 457.063H853.066L860.603 480.213H906.866ZM823.957 366.807L839.031 413.106H808.103L823.957 366.807Z" fill="white"/>
<path d="M692.589 400.881L630.472 289.816H582.65V480.213H626.574V368.888L688.95 480.213H736.51V289.296H692.589V400.881Z" fill="white"/>
<path d="M482.028 288.256H438.104V480.213H482.028C533.748 477.352 573.513 436.775 573.513 385.535C573.513 333.774 532.969 291.377 482.028 288.516V288.256ZM482.028 332.473C508.798 335.335 529.59 358.224 529.59 385.535C529.59 412.065 509.058 433.134 482.028 435.995V332.473Z" fill="white"/>
<path d="M429.108 289.296L306.694 289.556V480.213H429.108V436.255H350.618V406.083H414.294V362.125H350.618V333.254H429.108V289.296Z" fill="white"/>
<path d="M253.58 286.175V407.904C253.58 424.03 240.325 436.255 224.991 436.255C217.194 436.255 210.436 433.394 204.719 427.672C199.261 421.949 196.662 415.187 196.662 407.383L152.738 406.863C152.478 426.631 159.756 444.578 173.27 458.364C187.045 472.149 204.719 479.953 224.471 480.213H225.251C264.496 480.213 297.504 448.48 297.504 408.164V286.175H253.58Z" fill="white"/>
<path d="M387.059 731.109C387.059 738.586 385.85 746.1 383.434 753.652C381.092 761.204 377.77 768.266 373.465 774.836C369.236 781.406 364.138 787.259 358.172 792.395C352.206 797.53 345.673 801.419 338.574 804.062C339.027 810.331 339.556 816.561 340.16 822.754C340.764 828.947 341.595 835.177 342.652 841.445C342.879 842.578 343.105 843.749 343.332 844.957C343.634 846.165 343.785 847.411 343.785 848.695C343.785 850.659 343.294 851.98 342.312 852.66C341.331 853.34 339.934 853.68 338.121 853.68C336.837 853.68 335.289 853.529 333.477 853.227C331.664 852.924 330.116 852.471 328.832 851.867C327.322 851.036 326.302 850.206 325.773 849.375C325.32 848.469 324.98 847.26 324.754 845.75C323.47 839.331 322.677 832.911 322.375 826.492C322.148 820.073 321.809 813.654 321.355 807.234C319.845 807.083 318.599 806.706 317.617 806.102C316.635 805.422 316.145 804.289 316.145 802.703C316.145 801.193 316.56 799.607 317.391 797.945C318.297 796.284 319.316 795 320.449 794.094C319.77 780.047 319.467 766.113 319.543 752.293C319.694 738.473 319.694 724.539 319.543 710.492C319.165 710.643 318.826 710.757 318.523 710.832C318.221 710.908 317.882 710.945 317.504 710.945C316.673 710.945 315.993 710.757 315.465 710.379C314.936 709.926 314.483 709.397 314.105 708.793C313.803 708.189 313.577 707.547 313.426 706.867C313.275 706.112 313.199 705.432 313.199 704.828C313.199 702.562 313.766 700.939 314.898 699.957C316.031 698.9 317.579 697.956 319.543 697.125C319.543 696.294 319.543 695.35 319.543 694.293C319.618 693.16 319.77 692.141 319.996 691.234C320.298 690.253 320.751 689.46 321.355 688.855C321.96 688.176 322.866 687.836 324.074 687.836C326.038 687.836 327.926 688.214 329.738 688.969C331.551 689.724 332.91 691.008 333.816 692.82C336.46 692.367 339.027 691.952 341.52 691.574C344.012 691.197 346.579 691.008 349.223 691.008C355.189 691.008 360.513 692.027 365.195 694.066C369.878 696.03 373.842 698.824 377.09 702.449C380.337 705.999 382.792 710.228 384.453 715.137C386.19 720.046 387.059 725.37 387.059 731.109ZM370.066 729.07C370.066 725.596 369.613 722.349 368.707 719.328C367.801 716.232 366.441 713.589 364.629 711.398C362.816 709.133 360.513 707.358 357.719 706.074C354.924 704.79 351.639 704.148 347.863 704.148C345.824 704.148 343.747 704.299 341.633 704.602C339.594 704.904 337.592 705.357 335.629 705.961C335.629 719.781 335.704 733.488 335.855 747.082C336.082 760.676 336.611 774.307 337.441 787.977C342.275 785.484 346.693 782.01 350.695 777.555C354.698 773.099 358.134 768.19 361.004 762.828C363.874 757.391 366.102 751.764 367.688 745.949C369.273 740.059 370.066 734.432 370.066 729.07ZM396.234 854.812C395.102 854.812 393.855 854.661 392.496 854.359C391.212 854.057 389.966 853.566 388.758 852.887C387.625 852.207 386.643 851.376 385.812 850.395C385.057 849.337 384.68 848.091 384.68 846.656C384.68 844.542 384.755 842.465 384.906 840.426C385.133 838.311 385.359 836.234 385.586 834.195V834.309L386.266 826.719C386.492 824 386.681 821.017 386.832 817.77C386.983 814.522 387.096 811.237 387.172 807.914C387.323 804.516 387.436 801.193 387.512 797.945C387.587 794.698 387.625 791.715 387.625 788.996C387.625 787.41 387.587 785.824 387.512 784.238C387.512 782.577 387.512 780.915 387.512 779.254C387.436 777.819 387.398 776.233 387.398 774.496C387.398 772.684 387.398 771.022 387.398 769.512C387.398 767.926 387.587 766.642 387.965 765.66C388.418 764.603 389.626 764.074 391.59 764.074C393.327 764.074 395.139 764.527 397.027 765.434C398.991 766.34 400.35 767.624 401.105 769.285H400.992C401.37 770.116 401.634 771.475 401.785 773.363C402.012 775.176 402.163 776.799 402.238 778.234C403.522 776.271 404.957 774.194 406.543 772.004C408.204 769.814 409.979 767.812 411.867 766C413.755 764.112 415.757 762.564 417.871 761.355C419.986 760.147 422.251 759.543 424.668 759.543C427.84 759.543 430.257 760.336 431.918 761.922C433.579 763.508 434.788 765.509 435.543 767.926C436.298 770.267 436.714 772.797 436.789 775.516C436.865 778.159 436.902 780.576 436.902 782.766V783.672C436.902 784.578 436.865 785.484 436.789 786.391C436.789 787.221 436.638 788.014 436.336 788.77C436.109 789.449 435.656 790.016 434.977 790.469C434.372 790.922 433.504 791.148 432.371 791.148C431.163 791.148 429.879 790.997 428.52 790.695C427.16 790.318 425.876 789.789 424.668 789.109C423.535 788.43 422.553 787.599 421.723 786.617C420.892 785.56 420.439 784.352 420.363 782.992C420.363 782.388 420.363 781.784 420.363 781.18C420.363 780.576 420.401 779.971 420.477 779.367C420.477 778.99 420.477 778.536 420.477 778.008C420.552 777.404 420.59 776.837 420.59 776.309C418.173 778.725 416.021 781.708 414.133 785.258C412.32 788.807 410.659 792.583 409.148 796.586C407.714 800.589 406.467 804.629 405.41 808.707C404.353 812.71 403.447 816.335 402.691 819.582V819.922C402.465 822.263 402.314 824.566 402.238 826.832C402.163 829.098 402.087 831.439 402.012 833.855C401.936 836.574 401.823 839.331 401.672 842.125C401.596 844.919 401.408 847.638 401.105 850.281C400.954 851.716 400.501 852.811 399.746 853.566C399.066 854.397 397.896 854.812 396.234 854.812ZM490.938 806.555C490.938 813.125 490.371 819.695 489.238 826.266C488.181 832.76 485.953 838.915 482.555 844.73C481.497 846.467 480.289 848.167 478.93 849.828C477.57 851.414 476.06 852.849 474.398 854.133C472.812 855.492 471.038 856.549 469.074 857.305C467.186 858.135 465.185 858.551 463.07 858.551C459.747 858.551 456.84 857.758 454.348 856.172C451.931 854.661 449.816 852.66 448.004 850.168C446.267 847.6 444.794 844.73 443.586 841.559C442.453 838.311 441.547 835.026 440.867 831.703C440.263 828.305 439.81 825.02 439.508 821.848C439.281 818.676 439.168 815.882 439.168 813.465C439.168 810.746 439.281 807.763 439.508 804.516C439.734 801.268 440.112 797.945 440.641 794.547C441.245 791.148 442 787.788 442.906 784.465C443.888 781.142 445.134 778.046 446.645 775.176C448.155 772.23 449.967 769.625 452.082 767.359C454.197 765.018 456.651 763.168 459.445 761.809V761.922C461.862 760.638 464.279 759.996 466.695 759.996C468.206 759.996 469.376 760.336 470.207 761.016C471.038 761.62 471.415 762.677 471.34 764.188C475.493 764.943 478.854 766.944 481.422 770.191C483.99 773.439 485.953 777.215 487.312 781.52C488.747 785.824 489.691 790.242 490.145 794.773C490.673 799.305 490.938 803.232 490.938 806.555ZM465.336 778.234C464.052 778.234 462.844 777.743 461.711 776.762C460.276 778.952 459.068 781.482 458.086 784.352C457.104 787.146 456.311 790.053 455.707 793.074C455.178 796.02 454.801 799.003 454.574 802.023C454.348 805.044 454.234 807.876 454.234 810.52C454.234 812.71 454.348 815.542 454.574 819.016C454.801 822.414 455.216 825.85 455.82 829.324C456.5 832.798 457.406 836.046 458.539 839.066C459.747 842.087 461.296 844.315 463.184 845.75C465.525 844.391 467.451 842.238 468.961 839.293C470.547 836.272 471.793 832.987 472.699 829.438C473.605 825.888 474.21 822.301 474.512 818.676C474.889 815.051 475.078 811.954 475.078 809.387C475.078 807.499 474.965 805.044 474.738 802.023C474.512 799.003 474.134 795.944 473.605 792.848C473.077 789.676 472.322 786.73 471.34 784.012C470.434 781.293 469.263 779.254 467.828 777.895C467.148 778.121 466.318 778.234 465.336 778.234ZM537.496 769.965C537.496 770.871 537.156 771.626 536.477 772.23C535.872 772.835 535.117 773.363 534.211 773.816C533.305 774.194 532.361 774.458 531.379 774.609C530.473 774.76 529.717 774.836 529.113 774.836C528.207 774.836 527.339 774.76 526.508 774.609C525.677 774.383 524.846 774.156 524.016 773.93C523.185 773.703 522.392 773.514 521.637 773.363C520.882 773.137 520.089 773.023 519.258 773.023C518.125 773.023 516.992 773.212 515.859 773.59C514.727 773.967 513.707 774.496 512.801 775.176C511.895 775.855 511.139 776.686 510.535 777.668C510.007 778.65 509.742 779.745 509.742 780.953C509.742 782.766 510.12 784.578 510.875 786.391C511.63 788.128 512.612 789.902 513.82 791.715C515.104 793.527 516.539 795.378 518.125 797.266C519.786 799.078 521.523 800.928 523.336 802.816C525.526 805.233 527.716 807.688 529.906 810.18C532.172 812.672 534.173 815.277 535.91 817.996C537.723 820.715 539.195 823.585 540.328 826.605C541.461 829.626 542.027 832.798 542.027 836.121C542.027 838.991 541.536 841.559 540.555 843.824C539.648 846.09 538.327 848.016 536.59 849.602C534.928 851.188 532.889 852.396 530.473 853.227C528.132 854.133 525.564 854.586 522.77 854.586C522.014 854.586 520.844 854.435 519.258 854.133C517.747 853.831 516.01 853.415 514.047 852.887C512.083 852.283 510.044 851.641 507.93 850.961C505.891 850.281 504.003 849.564 502.266 848.809C500.604 847.978 499.207 847.185 498.074 846.43C497.017 845.599 496.488 844.844 496.488 844.164C496.488 843.258 496.904 842.352 497.734 841.445C498.565 840.464 499.547 839.595 500.68 838.84C501.812 838.009 502.983 837.329 504.191 836.801C505.475 836.272 506.533 836.008 507.363 836.008C508.496 836.008 509.667 836.272 510.875 836.801C512.159 837.329 513.443 837.934 514.727 838.613C516.161 839.368 517.596 840.048 519.031 840.652C520.542 841.257 522.09 841.559 523.676 841.559C524.884 841.559 525.564 841.143 525.715 840.312C525.941 839.482 526.055 838.538 526.055 837.48C526.055 834.837 525.602 832.345 524.695 830.004C523.789 827.587 522.618 825.246 521.184 822.98C519.749 820.715 518.087 818.525 516.199 816.41C514.311 814.22 512.423 812.068 510.535 809.953C508.572 807.839 506.646 805.724 504.758 803.609C502.945 801.495 501.322 799.342 499.887 797.152C498.452 794.887 497.281 792.583 496.375 790.242C495.544 787.901 495.129 785.409 495.129 782.766C495.129 779.518 495.846 776.611 497.281 774.043C498.716 771.4 500.566 769.134 502.832 767.246C505.173 765.358 507.779 763.923 510.648 762.941C513.594 761.884 516.539 761.355 519.484 761.355C520.466 761.355 521.977 761.582 524.016 762.035C526.055 762.413 528.056 762.979 530.02 763.734C531.983 764.49 533.72 765.396 535.23 766.453C536.741 767.51 537.496 768.681 537.496 769.965ZM572.727 850.168C572.727 850.999 572.538 851.716 572.16 852.32C571.783 852.849 571.292 853.264 570.688 853.566C570.159 853.868 569.555 854.057 568.875 854.133C568.271 854.284 567.667 854.359 567.062 854.359C566.232 854.359 565.25 854.246 564.117 854.02C563.06 853.868 562.003 853.604 560.945 853.227C559.888 852.849 558.906 852.396 558 851.867C557.169 851.263 556.527 850.546 556.074 849.715C555.621 848.96 555.206 847.562 554.828 845.523C554.526 843.409 554.262 840.992 554.035 838.273C553.809 835.479 553.62 832.534 553.469 829.438C553.318 826.266 553.167 823.245 553.016 820.375C552.94 817.505 552.865 814.938 552.789 812.672C552.789 810.331 552.789 808.594 552.789 807.461C552.789 802.174 552.865 797.077 553.016 792.168C553.242 787.184 553.469 782.086 553.695 776.875C553.318 776.875 552.94 776.913 552.562 776.988C552.185 777.064 551.807 777.102 551.43 777.102C550.448 777.253 549.428 777.366 548.371 777.441C547.389 777.517 546.37 777.555 545.312 777.555C544.029 777.555 542.896 777.328 541.914 776.875C540.932 776.422 540.441 775.402 540.441 773.816C540.441 771.928 540.857 770.418 541.688 769.285C542.518 768.152 543.576 767.284 544.859 766.68C546.143 766 547.54 765.547 549.051 765.32C550.561 765.018 552.034 764.792 553.469 764.641C553.695 764.641 553.846 764.641 553.922 764.641C553.997 764.565 554.148 764.527 554.375 764.527C554.451 763.621 554.526 762.526 554.602 761.242C554.677 759.883 554.753 758.41 554.828 756.824C554.904 754.332 555.017 751.689 555.168 748.895C555.319 746.025 555.47 743.306 555.621 740.738C555.772 738.095 555.961 735.792 556.188 733.828C556.414 731.789 556.641 730.354 556.867 729.523C557.245 728.542 557.66 727.749 558.113 727.145C558.642 726.54 559.586 726.238 560.945 726.238C563.966 726.238 566.307 727.22 567.969 729.184C569.63 731.147 570.461 733.564 570.461 736.434C570.461 739.757 570.348 743.079 570.121 746.402C569.97 749.725 569.819 753.086 569.668 756.484L569.328 762.262C571.216 762.035 573.104 761.695 574.992 761.242C576.805 760.865 578.617 760.525 580.43 760.223C582.318 759.921 584.13 759.77 585.867 759.77C587.378 759.77 588.548 760.185 589.379 761.016C590.21 761.771 590.625 762.904 590.625 764.414C590.625 766.076 590.323 767.699 589.719 769.285C589.115 770.871 588.057 772.079 586.547 772.91H586.66C586.358 773.061 585.452 773.288 583.941 773.59C582.431 773.816 580.694 774.043 578.73 774.27C576.842 774.496 574.954 774.723 573.066 774.949C571.254 775.176 569.895 775.327 568.988 775.402H568.875C568.724 779.632 568.611 783.823 568.535 787.977C568.46 792.055 568.422 796.208 568.422 800.438C568.422 806.253 568.573 812.445 568.875 819.016C569.253 825.51 569.857 831.703 570.688 837.594L571.594 842.691C571.896 843.975 572.16 845.259 572.387 846.543C572.613 847.751 572.727 848.96 572.727 850.168ZM634.125 832.27C634.125 834.535 633.483 836.876 632.199 839.293C630.991 841.71 629.405 843.938 627.441 845.977C625.478 847.94 623.212 849.564 620.645 850.848C618.152 852.132 615.66 852.773 613.168 852.773C609.618 852.773 606.56 852.094 603.992 850.734C601.424 849.299 599.197 847.411 597.309 845.07C595.421 842.654 593.872 839.935 592.664 836.914C591.531 833.893 590.625 830.797 589.945 827.625C589.266 824.378 588.775 821.168 588.473 817.996C588.246 814.749 588.133 811.803 588.133 809.16C588.133 806.895 588.246 804.214 588.473 801.117C588.775 798.021 589.228 794.811 589.832 791.488C590.512 788.165 591.418 784.88 592.551 781.633C593.684 778.385 595.081 775.478 596.742 772.91C598.479 770.342 600.518 768.266 602.859 766.68C605.276 765.094 608.033 764.301 611.129 764.301C613.546 764.301 615.698 764.792 617.586 765.773C619.549 766.755 621.173 768.077 622.457 769.738C623.816 771.324 624.836 773.174 625.516 775.289C626.271 777.404 626.648 779.594 626.648 781.859C626.648 784.805 625.969 788.014 624.609 791.488C623.25 794.962 621.475 798.323 619.285 801.57C617.171 804.818 614.754 807.763 612.035 810.406C609.392 812.974 606.749 814.938 604.105 816.297C604.257 817.656 604.559 819.658 605.012 822.301C605.465 824.868 606.069 827.436 606.824 830.004C607.655 832.572 608.599 834.799 609.656 836.688C610.789 838.576 612.111 839.52 613.621 839.52C614.376 839.52 615.018 839.293 615.547 838.84C616.151 838.387 616.68 837.783 617.133 837.027C617.586 836.272 617.964 835.441 618.266 834.535C618.643 833.629 618.983 832.76 619.285 831.93L619.965 830.344C620.116 830.117 620.191 829.966 620.191 829.891C620.267 829.815 620.342 829.702 620.418 829.551C620.947 828.569 621.438 827.663 621.891 826.832C622.419 826.001 623.137 825.284 624.043 824.68H623.93C624.232 824.378 624.534 824.227 624.836 824.227C625.214 824.151 625.553 824.113 625.855 824.113C626.686 824.113 627.592 824.378 628.574 824.906C629.556 825.435 630.462 826.115 631.293 826.945C632.124 827.701 632.803 828.569 633.332 829.551C633.861 830.457 634.125 831.363 634.125 832.27ZM611.695 782.312C611.695 781.557 611.658 780.764 611.582 779.934C611.507 779.103 611.318 778.385 611.016 777.781C609.958 779.065 609.014 780.613 608.184 782.426C607.428 784.163 606.786 786.013 606.258 787.977C605.729 789.865 605.276 791.79 604.898 793.754C604.596 795.717 604.37 797.53 604.219 799.191C606.182 796.85 607.919 794.207 609.43 791.262C610.94 788.241 611.695 785.258 611.695 782.312ZM586.547 726.465C586.547 725.861 586.773 725.37 587.227 724.992C587.68 724.615 588.246 724.35 588.926 724.199C589.605 723.973 590.285 723.859 590.965 723.859C591.645 723.784 592.211 723.746 592.664 723.746C593.344 723.746 594.099 723.784 594.93 723.859C595.76 723.859 596.516 724.048 597.195 724.426C598.102 724.879 598.743 725.521 599.121 726.352C599.499 727.182 599.914 728.051 600.367 728.957C601.273 731.374 602.217 733.753 603.199 736.094C604.257 738.435 605.352 740.738 606.484 743.004C607.542 740.361 608.599 737.717 609.656 735.074C610.714 732.355 611.771 729.637 612.828 726.918C613.055 726.238 613.281 725.672 613.508 725.219C613.81 724.69 614.263 724.199 614.867 723.746C615.018 723.444 615.396 723.293 616 723.293C616.68 723.293 617.397 723.482 618.152 723.859C618.908 724.237 619.587 724.728 620.191 725.332C620.796 725.861 621.286 726.465 621.664 727.145C622.117 727.824 622.344 728.504 622.344 729.184C622.344 729.788 621.966 731.223 621.211 733.488C620.456 735.678 619.587 738.095 618.605 740.738C617.624 743.382 616.642 745.911 615.66 748.328C614.754 750.745 614.112 752.368 613.734 753.199C613.13 754.785 612.337 756.031 611.355 756.938C610.449 757.768 609.128 758.184 607.391 758.184C606.258 758.184 605.201 757.957 604.219 757.504C603.237 756.975 602.331 756.371 601.5 755.691C600.141 754.181 598.97 752.557 597.988 750.82C597.007 749.008 596.062 747.233 595.156 745.496C594.779 744.816 594.137 743.533 593.23 741.645C592.324 739.757 591.342 737.755 590.285 735.641C589.303 733.526 588.435 731.6 587.68 729.863C586.924 728.051 586.547 726.918 586.547 726.465ZM652.93 745.609C652.93 746.516 652.892 747.422 652.816 748.328C652.816 749.159 652.779 750.027 652.703 750.934C652.628 751.84 652.59 752.746 652.59 753.652C652.59 754.559 652.59 755.465 652.59 756.371C652.59 757.73 652.363 758.977 651.91 760.109C651.457 761.242 650.362 761.809 648.625 761.809C648.021 761.809 647.001 761.695 645.566 761.469C644.207 761.242 642.772 760.902 641.262 760.449C639.827 759.996 638.543 759.467 637.41 758.863C636.277 758.184 635.711 757.428 635.711 756.598C635.711 756.296 635.862 755.352 636.164 753.766C636.542 752.18 636.957 750.48 637.41 748.668C637.863 746.78 638.279 745.081 638.656 743.57C639.034 741.984 639.298 741.116 639.449 740.965V741.078C639.827 740.247 640.204 739.757 640.582 739.605C640.96 739.454 641.564 739.379 642.395 739.379C643.301 739.379 644.358 739.492 645.566 739.719C646.775 739.87 647.908 740.21 648.965 740.738C650.098 741.191 651.042 741.833 651.797 742.664C652.552 743.419 652.93 744.401 652.93 745.609ZM673.094 817.996C673.094 818.449 672.716 819.507 671.961 821.168C671.281 822.754 670.413 824.604 669.355 826.719C668.298 828.833 667.165 831.061 665.957 833.402C664.749 835.668 663.691 837.707 662.785 839.52C662.332 840.426 661.954 841.257 661.652 842.012C661.35 842.691 661.086 843.22 660.859 843.598L661.879 849.715C663.238 858.4 664.522 867.122 665.73 875.883C666.939 884.643 667.543 893.479 667.543 902.391C667.543 905.034 667.467 907.753 667.316 910.547C667.241 913.417 666.901 916.211 666.297 918.93C665.768 921.648 664.862 924.216 663.578 926.633C662.37 929.125 660.633 931.277 658.367 933.09C656.63 934.449 654.742 935.507 652.703 936.262C650.664 937.092 648.549 937.508 646.359 937.508C642.206 937.508 638.77 936.602 636.051 934.789C633.408 933.052 631.293 930.786 629.707 927.992C628.121 925.198 627.026 922.064 626.422 918.59C625.742 915.191 625.402 911.793 625.402 908.395C625.402 902.428 626.007 896.5 627.215 890.609C628.348 884.719 629.858 878.904 631.746 873.164C633.634 867.424 635.749 861.798 638.09 856.285C640.507 850.772 642.923 845.335 645.34 839.973C644.207 833.176 643.301 826.454 642.621 819.809C641.941 813.087 641.375 806.177 640.922 799.078L640.582 793.641C640.431 790.846 640.242 788.052 640.016 785.258C639.865 782.464 639.789 779.632 639.789 776.762C639.789 775.251 640.016 773.967 640.469 772.91C640.997 771.777 642.13 771.211 643.867 771.211C644.698 771.211 645.491 771.286 646.246 771.438C647.001 771.589 647.794 771.853 648.625 772.23V772.117C650.06 772.797 651.155 773.59 651.91 774.496C652.665 775.327 653.232 776.233 653.609 777.215C653.987 778.197 654.214 779.254 654.289 780.387C654.44 781.52 654.516 782.69 654.516 783.898V785.711C654.742 790.997 655.007 795.944 655.309 800.551C655.686 805.082 656.177 809.991 656.781 815.277C657.461 813.918 658.254 812.672 659.16 811.539C660.142 810.331 661.464 809.727 663.125 809.727C663.956 809.727 664.938 809.991 666.07 810.52C667.279 811.048 668.374 811.728 669.355 812.559C670.413 813.389 671.281 814.296 671.961 815.277C672.716 816.259 673.094 817.165 673.094 817.996ZM652.363 899.672C652.363 894.688 652.099 889.59 651.57 884.379C651.117 879.168 650.513 874.033 649.758 868.973C647.492 875.014 645.529 881.358 643.867 888.004C642.206 894.725 641.375 901.258 641.375 907.602C641.375 908.885 641.413 910.283 641.488 911.793C641.564 913.379 641.753 914.965 642.055 916.551C642.357 918.137 642.772 919.647 643.301 921.082C643.829 922.517 644.547 923.688 645.453 924.594C645.529 924.669 645.755 924.707 646.133 924.707C647.115 924.707 647.945 924.178 648.625 923.121C649.305 922.139 649.871 920.855 650.324 919.27C650.777 917.684 651.117 915.909 651.344 913.945C651.646 911.982 651.872 910.056 652.023 908.168C652.174 906.355 652.25 904.656 652.25 903.07C652.326 901.56 652.363 900.427 652.363 899.672ZM726.336 806.555C726.336 813.125 725.77 819.695 724.637 826.266C723.579 832.76 721.352 838.915 717.953 844.73C716.896 846.467 715.688 848.167 714.328 849.828C712.969 851.414 711.458 852.849 709.797 854.133C708.211 855.492 706.436 856.549 704.473 857.305C702.585 858.135 700.583 858.551 698.469 858.551C695.146 858.551 692.238 857.758 689.746 856.172C687.329 854.661 685.215 852.66 683.402 850.168C681.665 847.6 680.193 844.73 678.984 841.559C677.852 838.311 676.945 835.026 676.266 831.703C675.661 828.305 675.208 825.02 674.906 821.848C674.68 818.676 674.566 815.882 674.566 813.465C674.566 810.746 674.68 807.763 674.906 804.516C675.133 801.268 675.51 797.945 676.039 794.547C676.643 791.148 677.398 787.788 678.305 784.465C679.286 781.142 680.533 778.046 682.043 775.176C683.553 772.23 685.366 769.625 687.48 767.359C689.595 765.018 692.049 763.168 694.844 761.809V761.922C697.26 760.638 699.677 759.996 702.094 759.996C703.604 759.996 704.775 760.336 705.605 761.016C706.436 761.62 706.814 762.677 706.738 764.188C710.892 764.943 714.253 766.944 716.82 770.191C719.388 773.439 721.352 777.215 722.711 781.52C724.146 785.824 725.09 790.242 725.543 794.773C726.072 799.305 726.336 803.232 726.336 806.555ZM700.734 778.234C699.451 778.234 698.242 777.743 697.109 776.762C695.674 778.952 694.466 781.482 693.484 784.352C692.503 787.146 691.71 790.053 691.105 793.074C690.577 796.02 690.199 799.003 689.973 802.023C689.746 805.044 689.633 807.876 689.633 810.52C689.633 812.71 689.746 815.542 689.973 819.016C690.199 822.414 690.615 825.85 691.219 829.324C691.898 832.798 692.805 836.046 693.938 839.066C695.146 842.087 696.694 844.315 698.582 845.75C700.923 844.391 702.849 842.238 704.359 839.293C705.945 836.272 707.191 832.987 708.098 829.438C709.004 825.888 709.608 822.301 709.91 818.676C710.288 815.051 710.477 811.954 710.477 809.387C710.477 807.499 710.363 805.044 710.137 802.023C709.91 799.003 709.533 795.944 709.004 792.848C708.475 789.676 707.72 786.73 706.738 784.012C705.832 781.293 704.661 779.254 703.227 777.895C702.547 778.121 701.716 778.234 700.734 778.234ZM776.406 770.871C776.406 781.293 775.576 791.564 773.914 801.684C772.328 811.803 770.402 821.885 768.137 831.93C767.835 832.911 767.646 833.742 767.57 834.422C767.117 836.612 766.626 838.878 766.098 841.219C765.645 843.484 764.889 845.75 763.832 848.016C762.85 849.904 761.491 851.565 759.754 853C758.092 854.359 756.242 855.039 754.203 855.039C753.372 855.039 752.504 854.85 751.598 854.473C750.691 854.095 749.71 853.604 748.652 853C747.142 851.943 746.009 850.508 745.254 848.695C744.499 846.807 743.857 844.882 743.328 842.918L743.102 842.125V842.238C741.818 837.329 740.723 832.421 739.816 827.512C738.986 822.603 738.155 817.656 737.324 812.672C736.871 809.576 736.418 806.517 735.965 803.496C735.512 800.4 734.983 797.341 734.379 794.32L732.793 787.637C732.415 786.126 732 784.503 731.547 782.766C731.169 780.953 730.792 779.254 730.414 777.668C730.036 776.082 729.734 774.685 729.508 773.477C729.281 772.193 729.168 771.324 729.168 770.871C729.168 769.436 729.621 768.492 730.527 768.039C731.509 767.51 732.604 767.246 733.812 767.246C736.229 767.246 738.344 767.775 740.156 768.832C742.044 769.889 743.404 771.626 744.234 774.043C744.688 775.327 745.065 776.686 745.367 778.121C745.745 779.556 746.047 780.991 746.273 782.426C747.557 787.41 748.766 792.697 749.898 798.285C751.107 803.798 752.126 809.122 752.957 814.258L753.977 820.035C754.052 820.413 754.09 820.715 754.09 820.941C754.09 821.168 754.09 821.357 754.09 821.508C754.165 821.659 754.203 821.848 754.203 822.074C754.279 822.301 754.354 822.641 754.43 823.094C756.091 815.089 757.488 807.083 758.621 799.078C759.754 790.997 760.32 782.879 760.32 774.723C760.32 773.061 760.207 771.438 759.98 769.852C759.829 768.266 759.641 766.604 759.414 764.867C759.188 763.281 758.961 761.658 758.734 759.996C758.583 758.259 758.508 756.522 758.508 754.785C758.508 753.199 758.999 752.104 759.98 751.5C760.962 750.896 762.171 750.594 763.605 750.594C765.342 750.594 766.928 750.707 768.363 750.934C769.798 751.16 771.044 751.613 772.102 752.293C773.159 752.897 774.027 753.803 774.707 755.012C775.387 756.145 775.84 757.655 776.066 759.543C776.217 761.28 776.293 763.168 776.293 765.207C776.368 767.171 776.406 769.059 776.406 770.871Z" fill="#F7931A"/>
</g>
<defs>
<clipPath id="clip0_106_1059">
<rect width="1060" height="1060" fill="white"/>
</clipPath>
</defs>
</svg>
