<svg width="1060" height="1060" viewBox="0 0 1060 1060" fill="none" xmlns="http://www.w3.org/2000/svg">
<g clip-path="url(#clip0_106_919)">
<rect width="1060" height="1060" fill="black"/>
<path d="M790.229 490.783V535.001H826.616V682.48H870.539V535.001H907.185V490.783H790.229Z" fill="white"/>
<path d="M781.053 491.563L658.641 491.823V682.48H781.053V638.522H702.563V608.35H766.239V564.393H702.563V535.521H781.053V491.563Z" fill="white"/>
<path d="M581.987 682.22C606.937 682.22 630.848 673.116 649.561 654.389L618.633 623.176C598.36 643.464 565.613 643.204 545.6 623.176C535.984 613.032 530.526 600.547 530.526 586.761C530.526 572.976 535.984 560.231 545.6 550.087C565.613 530.059 598.36 529.799 618.633 550.087L649.561 519.134C612.135 481.679 551.838 481.679 514.412 519.134C496.479 537.081 486.603 560.751 486.603 586.761C486.603 612.512 496.479 635.921 514.412 654.389C533.125 673.116 557.296 682.22 581.987 682.22Z" fill="white"/>
<path d="M1002.63 638.042C994.742 669.725 962.684 689.003 931.026 681.099C899.388 673.206 880.125 641.123 888.022 609.441C895.909 577.766 927.967 558.487 959.606 566.384C991.264 574.282 1010.53 606.369 1002.63 638.042Z" fill="#F7931A"/>
<path d="M971.371 615.323C972.55 607.45 966.562 603.222 958.375 600.401L961.035 589.744L954.547 588.126L951.968 598.503C950.259 598.078 948.509 597.678 946.77 597.28L949.379 586.835L942.901 585.218L940.242 595.872C938.833 595.551 937.443 595.233 936.104 594.899L936.114 594.865L927.167 592.631L925.448 599.561C925.448 599.561 930.256 600.663 930.156 600.732C932.775 601.388 933.255 603.126 933.175 604.505L930.146 616.644C930.326 616.694 930.566 616.764 930.826 616.864C930.606 616.814 930.376 616.754 930.136 616.694L925.898 633.7C925.578 634.501 924.768 635.701 922.929 635.241C922.989 635.331 918.221 634.061 918.221 634.061L915.002 641.494L923.439 643.594C925.008 643.985 926.538 644.405 928.057 644.785L925.368 655.569L931.846 657.19L934.504 646.516C936.274 646.996 937.993 647.446 939.673 647.866L937.024 658.48L943.501 660.091L946.19 649.337C957.246 651.428 965.553 650.587 969.052 640.573C971.87 632.52 968.912 627.878 963.094 624.847C967.332 623.867 970.521 621.075 971.371 615.323ZM956.566 636.101C954.557 644.165 941.002 639.803 936.614 638.712L940.172 624.437C944.561 625.527 958.655 627.698 956.566 636.101ZM958.565 615.203C956.736 622.536 945.46 618.804 941.802 617.894L945.031 604.943C948.689 605.855 960.475 607.56 958.565 615.203Z" fill="white"/>
<path d="M502.908 682.87L441.311 491.954H399.726L334.751 682.87H381.273L389.071 659.721H449.108L456.645 682.87H502.908ZM419.999 569.465L435.073 615.763H404.145L419.999 569.465Z" fill="white"/>
<path d="M304.083 608.48L267.436 490.393H221.174L282.771 682.87H324.355L389.33 490.393H342.808L304.083 608.48Z" fill="white"/>
<path d="M146.202 490.913H102.278V682.87H146.202C197.922 680.009 237.687 639.432 237.687 588.192C237.687 536.431 197.143 494.034 146.202 491.173V490.913ZM146.202 535.131C172.972 537.992 193.764 560.881 193.764 588.192C193.764 614.723 173.232 635.791 146.202 638.652V535.131Z" fill="white"/>
<path d="M906.866 480.213L845.269 289.296H803.684L738.709 480.213H785.231L793.029 457.063H853.066L860.603 480.213H906.866ZM823.957 366.807L839.031 413.106H808.103L823.957 366.807Z" fill="white"/>
<path d="M692.589 400.881L630.472 289.816H582.65V480.213H626.574V368.888L688.95 480.213H736.51V289.296H692.589V400.881Z" fill="white"/>
<path d="M482.028 288.256H438.104V480.213H482.028C533.748 477.352 573.513 436.775 573.513 385.535C573.513 333.774 532.969 291.377 482.028 288.516V288.256ZM482.028 332.473C508.798 335.335 529.59 358.224 529.59 385.535C529.59 412.065 509.058 433.134 482.028 435.995V332.473Z" fill="white"/>
<path d="M429.108 289.296L306.694 289.556V480.213H429.108V436.255H350.618V406.083H414.294V362.125H350.618V333.254H429.108V289.296Z" fill="white"/>
<path d="M253.58 286.175V407.904C253.58 424.03 240.325 436.255 224.991 436.255C217.194 436.255 210.436 433.394 204.719 427.672C199.261 421.949 196.662 415.187 196.662 407.383L152.738 406.863C152.478 426.631 159.756 444.578 173.27 458.364C187.045 472.149 204.719 479.953 224.471 480.213H225.251C264.496 480.213 297.504 448.48 297.504 408.164V286.175H253.58Z" fill="white"/>
<path d="M486.066 731.109C486.066 738.586 484.858 746.1 482.441 753.652C480.1 761.204 476.777 768.266 472.473 774.836C468.243 781.406 463.146 787.259 457.18 792.395C451.214 797.53 444.681 801.419 437.582 804.062C438.035 810.331 438.564 816.561 439.168 822.754C439.772 828.947 440.603 835.177 441.66 841.445C441.887 842.578 442.113 843.749 442.34 844.957C442.642 846.165 442.793 847.411 442.793 848.695C442.793 850.659 442.302 851.98 441.32 852.66C440.339 853.34 438.941 853.68 437.129 853.68C435.845 853.68 434.297 853.529 432.484 853.227C430.672 852.924 429.124 852.471 427.84 851.867C426.329 851.036 425.31 850.206 424.781 849.375C424.328 848.469 423.988 847.26 423.762 845.75C422.478 839.331 421.685 832.911 421.383 826.492C421.156 820.073 420.816 813.654 420.363 807.234C418.853 807.083 417.607 806.706 416.625 806.102C415.643 805.422 415.152 804.289 415.152 802.703C415.152 801.193 415.568 799.607 416.398 797.945C417.305 796.284 418.324 795 419.457 794.094C418.777 780.047 418.475 766.113 418.551 752.293C418.702 738.473 418.702 724.539 418.551 710.492C418.173 710.643 417.833 710.757 417.531 710.832C417.229 710.908 416.889 710.945 416.512 710.945C415.681 710.945 415.001 710.757 414.473 710.379C413.944 709.926 413.491 709.397 413.113 708.793C412.811 708.189 412.585 707.547 412.434 706.867C412.283 706.112 412.207 705.432 412.207 704.828C412.207 702.562 412.773 700.939 413.906 699.957C415.039 698.9 416.587 697.956 418.551 697.125C418.551 696.294 418.551 695.35 418.551 694.293C418.626 693.16 418.777 692.141 419.004 691.234C419.306 690.253 419.759 689.46 420.363 688.855C420.967 688.176 421.874 687.836 423.082 687.836C425.046 687.836 426.934 688.214 428.746 688.969C430.559 689.724 431.918 691.008 432.824 692.82C435.467 692.367 438.035 691.952 440.527 691.574C443.02 691.197 445.587 691.008 448.23 691.008C454.197 691.008 459.521 692.027 464.203 694.066C468.885 696.03 472.85 698.824 476.098 702.449C479.345 705.999 481.799 710.228 483.461 715.137C485.198 720.046 486.066 725.37 486.066 731.109ZM469.074 729.07C469.074 725.596 468.621 722.349 467.715 719.328C466.809 716.232 465.449 713.589 463.637 711.398C461.824 709.133 459.521 707.358 456.727 706.074C453.932 704.79 450.647 704.148 446.871 704.148C444.832 704.148 442.755 704.299 440.641 704.602C438.602 704.904 436.6 705.357 434.637 705.961C434.637 719.781 434.712 733.488 434.863 747.082C435.09 760.676 435.618 774.307 436.449 787.977C441.283 785.484 445.701 782.01 449.703 777.555C453.706 773.099 457.142 768.19 460.012 762.828C462.882 757.391 465.109 751.764 466.695 745.949C468.281 740.059 469.074 734.432 469.074 729.07ZM520.051 856.285C520.051 857.342 519.786 858.211 519.258 858.891C518.729 859.57 518.049 860.099 517.219 860.477C516.464 860.93 515.595 861.232 514.613 861.383C513.707 861.609 512.876 861.723 512.121 861.723C509.478 861.723 507.174 860.967 505.211 859.457C503.247 857.947 501.548 855.983 500.113 853.566C498.678 851.225 497.508 848.544 496.602 845.523C495.695 842.427 494.94 839.368 494.336 836.348C493.732 833.251 493.279 830.306 492.977 827.512C492.674 824.642 492.448 822.188 492.297 820.148C491.617 813.125 491.126 805.988 490.824 798.738C490.598 791.488 490.484 784.314 490.484 777.215C490.484 757.806 491.164 738.586 492.523 719.555C492.523 719.253 492.523 718.913 492.523 718.535C492.599 718.158 492.637 717.78 492.637 717.402C492.712 715.816 492.788 714.004 492.863 711.965C492.939 709.85 493.052 707.773 493.203 705.734C493.354 703.695 493.505 701.845 493.656 700.184C493.883 698.447 494.147 697.238 494.449 696.559V696.672C494.751 695.615 495.167 694.822 495.695 694.293C496.224 693.764 497.13 693.5 498.414 693.5C501.133 693.5 503.436 694.406 505.324 696.219C507.212 698.031 508.156 700.297 508.156 703.016C508.156 703.62 508.118 704.224 508.043 704.828C508.043 705.357 508.005 705.885 507.93 706.414C507.854 706.943 507.779 707.471 507.703 708C507.703 708.453 507.703 708.868 507.703 709.246C507.477 712.191 507.288 715.137 507.137 718.082C507.061 720.952 506.948 723.859 506.797 726.805C506.419 733.299 506.117 739.794 505.891 746.289C505.74 752.708 505.664 759.203 505.664 765.773C505.664 768.568 505.702 772.23 505.777 776.762C505.853 781.293 506.004 786.24 506.23 791.602C506.457 796.888 506.759 802.363 507.137 808.027C507.59 813.691 508.156 819.091 508.836 824.227C509.516 829.362 510.309 834.007 511.215 838.16C512.197 842.314 513.329 845.523 514.613 847.789C515.293 848.091 515.935 848.582 516.539 849.262C517.219 849.866 517.785 850.583 518.238 851.414C518.767 852.169 519.182 852.962 519.484 853.793C519.862 854.699 520.051 855.53 520.051 856.285ZM570.348 840.312C570.348 841.672 569.781 842.918 568.648 844.051C567.516 845.184 566.043 846.203 564.23 847.109C562.493 847.94 560.492 848.695 558.227 849.375C556.036 850.055 553.884 850.621 551.77 851.074C549.655 851.452 547.691 851.754 545.879 851.98C544.142 852.207 542.783 852.32 541.801 852.32C539.913 852.32 537.911 852.169 535.797 851.867C533.682 851.565 531.605 851.112 529.566 850.508C527.527 849.828 525.602 848.997 523.789 848.016C521.977 846.958 520.428 845.712 519.145 844.277V844.391C518.54 843.786 517.974 843.069 517.445 842.238C516.841 841.408 516.539 840.464 516.539 839.406C516.539 838.727 516.803 838.122 517.332 837.594C517.861 837.065 518.465 836.688 519.145 836.461C519.9 834.648 520.693 832.836 521.523 831.023C522.354 829.211 523.185 827.436 524.016 825.699L525.715 821.734C529.717 813.88 533.418 806.102 536.816 798.398C540.29 790.695 543.727 782.728 547.125 774.496L542.594 774.723L537.043 775.062L533.305 775.516C532.247 775.667 531.228 775.78 530.246 775.855C529.34 775.931 528.396 775.969 527.414 775.969C524.544 775.969 523.109 774.572 523.109 771.777C523.109 770.493 523.26 769.361 523.562 768.379C523.865 767.322 524.431 766.378 525.262 765.547C525.639 765.094 526.621 764.678 528.207 764.301C529.868 763.848 531.794 763.47 533.984 763.168C536.174 762.79 538.516 762.451 541.008 762.148C543.576 761.846 546.03 761.582 548.371 761.355C550.712 761.129 552.789 760.978 554.602 760.902C556.49 760.751 557.811 760.676 558.566 760.676C559.926 760.676 561.172 760.865 562.305 761.242C563.513 761.62 564.117 762.753 564.117 764.641C564.117 765.698 563.853 766.868 563.324 768.152C562.796 769.361 562.229 770.456 561.625 771.438C561.776 771.815 561.852 772.382 561.852 773.137C561.852 773.967 561.549 775.365 560.945 777.328C560.341 779.292 559.51 781.671 558.453 784.465C557.471 787.259 556.301 790.355 554.941 793.754C553.582 797.152 552.147 800.626 550.637 804.176C549.202 807.725 547.729 811.275 546.219 814.824C544.708 818.374 543.273 821.697 541.914 824.793L535.57 839.52C536.854 839.822 538.327 839.973 539.988 839.973C543.387 839.973 546.596 839.331 549.617 838.047C552.714 836.763 555.357 835.479 557.547 834.195C558.831 833.516 559.964 832.949 560.945 832.496C561.927 831.967 562.72 831.703 563.324 831.703C564.306 831.703 565.212 832.005 566.043 832.609C566.949 833.138 567.704 833.855 568.309 834.762C568.988 835.592 569.479 836.499 569.781 837.48C570.159 838.462 570.348 839.406 570.348 840.312ZM618.945 832.27C618.945 834.535 618.303 836.876 617.02 839.293C615.811 841.71 614.225 843.938 612.262 845.977C610.298 847.94 608.033 849.564 605.465 850.848C602.973 852.132 600.48 852.773 597.988 852.773C594.439 852.773 591.38 852.094 588.812 850.734C586.245 849.299 584.017 847.411 582.129 845.07C580.241 842.654 578.693 839.935 577.484 836.914C576.352 833.893 575.445 830.797 574.766 827.625C574.086 824.378 573.595 821.168 573.293 817.996C573.066 814.749 572.953 811.803 572.953 809.16C572.953 806.895 573.066 804.214 573.293 801.117C573.595 798.021 574.048 794.811 574.652 791.488C575.332 788.165 576.238 784.88 577.371 781.633C578.504 778.385 579.901 775.478 581.562 772.91C583.299 770.342 585.339 768.266 587.68 766.68C590.096 765.094 592.853 764.301 595.949 764.301C598.366 764.301 600.518 764.792 602.406 765.773C604.37 766.755 605.993 768.077 607.277 769.738C608.637 771.324 609.656 773.174 610.336 775.289C611.091 777.404 611.469 779.594 611.469 781.859C611.469 784.805 610.789 788.014 609.43 791.488C608.07 794.962 606.296 798.323 604.105 801.57C601.991 804.818 599.574 807.763 596.855 810.406C594.212 812.974 591.569 814.938 588.926 816.297C589.077 817.656 589.379 819.658 589.832 822.301C590.285 824.868 590.889 827.436 591.645 830.004C592.475 832.572 593.419 834.799 594.477 836.688C595.609 838.576 596.931 839.52 598.441 839.52C599.197 839.52 599.839 839.293 600.367 838.84C600.971 838.387 601.5 837.783 601.953 837.027C602.406 836.272 602.784 835.441 603.086 834.535C603.464 833.629 603.803 832.76 604.105 831.93L604.785 830.344C604.936 830.117 605.012 829.966 605.012 829.891C605.087 829.815 605.163 829.702 605.238 829.551C605.767 828.569 606.258 827.663 606.711 826.832C607.24 826.001 607.957 825.284 608.863 824.68H608.75C609.052 824.378 609.354 824.227 609.656 824.227C610.034 824.151 610.374 824.113 610.676 824.113C611.507 824.113 612.413 824.378 613.395 824.906C614.376 825.435 615.283 826.115 616.113 826.945C616.944 827.701 617.624 828.569 618.152 829.551C618.681 830.457 618.945 831.363 618.945 832.27ZM596.516 782.312C596.516 781.557 596.478 780.764 596.402 779.934C596.327 779.103 596.138 778.385 595.836 777.781C594.779 779.065 593.835 780.613 593.004 782.426C592.249 784.163 591.607 786.013 591.078 787.977C590.549 789.865 590.096 791.79 589.719 793.754C589.417 795.717 589.19 797.53 589.039 799.191C591.003 796.85 592.74 794.207 594.25 791.262C595.76 788.241 596.516 785.258 596.516 782.312ZM642.961 852.434C642.961 854.171 642.432 855.303 641.375 855.832C640.393 856.361 639.185 856.625 637.75 856.625C636.466 856.625 635.182 856.512 633.898 856.285C632.69 856.134 631.52 855.794 630.387 855.266C629.329 854.737 628.385 854.02 627.555 853.113C626.799 852.207 626.271 851.036 625.969 849.602C624.911 845.07 624.307 840.652 624.156 836.348C624.005 831.967 623.93 827.474 623.93 822.867V808.934C623.93 802.59 624.194 796.02 624.723 789.223C625.251 782.35 625.818 775.742 626.422 769.398C626.422 769.172 626.46 768.908 626.535 768.605C626.611 768.303 626.648 768.077 626.648 767.926C626.724 767.095 626.837 766.189 626.988 765.207C627.139 764.225 627.366 763.357 627.668 762.602C628.046 761.771 628.536 761.091 629.141 760.562C629.82 760.034 630.689 759.77 631.746 759.77C632.954 759.77 634.087 760.034 635.145 760.562C636.277 761.016 637.259 761.658 638.09 762.488C638.921 763.243 639.562 764.188 640.016 765.32C640.544 766.453 640.809 767.624 640.809 768.832C640.809 770.116 640.771 771.551 640.695 773.137C640.62 774.647 640.507 776.082 640.355 777.441C640.355 777.819 640.318 778.234 640.242 778.688C640.242 779.141 640.204 779.556 640.129 779.934C641.186 777.819 642.395 775.629 643.754 773.363C645.113 771.022 646.661 768.908 648.398 767.02C650.211 765.056 652.174 763.47 654.289 762.262C656.479 761.053 658.896 760.449 661.539 760.449C663.729 760.449 665.542 760.789 666.977 761.469C668.411 762.148 669.544 763.13 670.375 764.414C671.281 765.622 671.885 767.057 672.188 768.719C672.565 770.38 672.754 772.155 672.754 774.043C672.754 776.611 672.678 779.216 672.527 781.859C672.376 784.427 672.225 786.995 672.074 789.562C671.848 792.206 671.659 794.811 671.508 797.379C671.357 799.947 671.281 802.552 671.281 805.195C671.281 808.367 671.357 811.652 671.508 815.051C671.659 818.374 671.885 821.583 672.188 824.68C672.49 827.701 672.829 830.457 673.207 832.949C673.585 835.366 673.962 837.254 674.34 838.613C674.642 839.746 674.944 841.068 675.246 842.578C675.624 844.013 675.964 845.523 676.266 847.109C676.643 848.62 676.945 850.092 677.172 851.527C677.398 852.962 677.512 854.246 677.512 855.379C677.512 857.04 676.832 858.098 675.473 858.551C674.189 859.004 672.905 859.23 671.621 859.23C670.337 859.23 668.865 859.117 667.203 858.891C665.617 858.74 664.182 858.324 662.898 857.645C661.312 856.512 660.255 854.926 659.727 852.887C659.273 850.848 658.971 848.846 658.82 846.883L658.48 843.824C658.254 842.012 657.952 839.633 657.574 836.688C657.197 833.742 656.819 830.495 656.441 826.945C656.139 823.396 655.875 819.733 655.648 815.957C655.422 812.105 655.309 808.367 655.309 804.742C655.309 801.495 655.422 798.361 655.648 795.34C655.951 792.319 656.253 789.26 656.555 786.164C656.706 784.578 656.819 783.294 656.895 782.312C656.97 781.331 657.083 780.047 657.234 778.461C655.724 780.878 654.214 783.71 652.703 786.957C651.193 790.204 649.758 793.603 648.398 797.152C647.039 800.626 645.793 804.025 644.66 807.348C643.603 810.671 642.772 813.578 642.168 816.07L641.488 818.562C641.111 819.771 640.771 820.979 640.469 822.188C640.242 823.396 640.129 824.529 640.129 825.586C640.129 826.945 640.204 828.531 640.355 830.344C640.507 832.081 640.695 833.742 640.922 835.328C641.148 837.216 641.413 839.142 641.715 841.105C641.715 841.257 641.79 841.747 641.941 842.578C642.092 843.409 642.243 844.391 642.395 845.523C642.546 846.656 642.659 847.865 642.734 849.148C642.885 850.357 642.961 851.452 642.961 852.434ZM631.633 722.727C631.633 722.122 631.859 721.632 632.312 721.254C632.766 720.876 633.332 720.612 634.012 720.461C634.691 720.234 635.371 720.121 636.051 720.121C636.73 720.046 637.297 720.008 637.75 720.008C638.43 720.008 639.185 720.046 640.016 720.121C640.846 720.121 641.602 720.31 642.281 720.688C643.188 721.141 643.829 721.783 644.207 722.613C644.585 723.444 645 724.312 645.453 725.219C646.359 727.635 647.303 730.014 648.285 732.355C649.342 734.697 650.438 737 651.57 739.266C652.628 736.622 653.685 733.979 654.742 731.336C655.799 728.617 656.857 725.898 657.914 723.18C658.141 722.5 658.367 721.934 658.594 721.48C658.896 720.952 659.349 720.461 659.953 720.008C660.104 719.706 660.482 719.555 661.086 719.555C661.766 719.555 662.483 719.743 663.238 720.121C663.993 720.499 664.673 720.99 665.277 721.594C665.882 722.122 666.372 722.727 666.75 723.406C667.203 724.086 667.43 724.766 667.43 725.445C667.43 726.049 667.052 727.484 666.297 729.75C665.542 731.94 664.673 734.357 663.691 737C662.71 739.643 661.728 742.173 660.746 744.59C659.84 747.007 659.198 748.63 658.82 749.461C658.216 751.047 657.423 752.293 656.441 753.199C655.535 754.03 654.214 754.445 652.477 754.445C651.344 754.445 650.286 754.219 649.305 753.766C648.323 753.237 647.417 752.633 646.586 751.953C645.227 750.443 644.056 748.819 643.074 747.082C642.092 745.27 641.148 743.495 640.242 741.758C639.865 741.078 639.223 739.794 638.316 737.906C637.41 736.018 636.428 734.017 635.371 731.902C634.389 729.788 633.521 727.862 632.766 726.125C632.01 724.312 631.633 723.18 631.633 722.727Z" fill="#F7931A"/>
</g>
<defs>
<clipPath id="clip0_106_919">
<rect width="1060" height="1060" fill="white"/>
</clipPath>
</defs>
</svg>
