<svg width="1060" height="1060" viewBox="0 0 1060 1060" fill="none" xmlns="http://www.w3.org/2000/svg">
<g clip-path="url(#clip0_106_569)">
<rect width="1060" height="1060" fill="black"/>
<path d="M790.229 490.783V535.001H826.616V682.48H870.539V535.001H907.185V490.783H790.229Z" fill="white"/>
<path d="M781.053 491.563L658.641 491.823V682.48H781.053V638.522H702.563V608.35H766.239V564.393H702.563V535.521H781.053V491.563Z" fill="white"/>
<path d="M581.987 682.22C606.937 682.22 630.848 673.116 649.561 654.389L618.633 623.176C598.36 643.464 565.613 643.204 545.6 623.176C535.984 613.032 530.526 600.547 530.526 586.761C530.526 572.976 535.984 560.231 545.6 550.087C565.613 530.059 598.36 529.799 618.633 550.087L649.561 519.134C612.135 481.679 551.838 481.679 514.412 519.134C496.479 537.081 486.603 560.751 486.603 586.761C486.603 612.512 496.479 635.921 514.412 654.389C533.125 673.116 557.296 682.22 581.987 682.22Z" fill="white"/>
<path d="M1002.63 638.042C994.742 669.725 962.684 689.003 931.026 681.099C899.388 673.206 880.125 641.123 888.022 609.441C895.909 577.766 927.967 558.487 959.606 566.384C991.264 574.282 1010.53 606.369 1002.63 638.042Z" fill="#F7931A"/>
<path d="M971.371 615.323C972.55 607.45 966.562 603.222 958.375 600.401L961.035 589.744L954.547 588.126L951.968 598.503C950.259 598.078 948.509 597.678 946.77 597.28L949.379 586.835L942.901 585.218L940.242 595.872C938.833 595.551 937.443 595.233 936.104 594.899L936.114 594.865L927.167 592.631L925.448 599.561C925.448 599.561 930.256 600.663 930.156 600.732C932.775 601.388 933.255 603.126 933.175 604.505L930.146 616.644C930.326 616.694 930.566 616.764 930.826 616.864C930.606 616.814 930.376 616.754 930.136 616.694L925.898 633.7C925.578 634.501 924.768 635.701 922.929 635.241C922.989 635.331 918.221 634.061 918.221 634.061L915.002 641.494L923.439 643.594C925.008 643.985 926.538 644.405 928.057 644.785L925.368 655.569L931.846 657.19L934.504 646.516C936.274 646.996 937.993 647.446 939.673 647.866L937.024 658.48L943.501 660.091L946.19 649.337C957.246 651.428 965.553 650.587 969.052 640.573C971.87 632.52 968.912 627.878 963.094 624.847C967.332 623.867 970.521 621.075 971.371 615.323ZM956.566 636.101C954.557 644.165 941.002 639.803 936.614 638.712L940.172 624.437C944.561 625.527 958.655 627.698 956.566 636.101ZM958.565 615.203C956.736 622.536 945.46 618.804 941.802 617.894L945.031 604.943C948.689 605.855 960.475 607.56 958.565 615.203Z" fill="white"/>
<path d="M502.908 682.87L441.311 491.954H399.726L334.751 682.87H381.273L389.071 659.721H449.108L456.645 682.87H502.908ZM419.999 569.465L435.073 615.763H404.145L419.999 569.465Z" fill="white"/>
<path d="M304.083 608.48L267.436 490.393H221.174L282.771 682.87H324.355L389.33 490.393H342.808L304.083 608.48Z" fill="white"/>
<path d="M146.202 490.913H102.278V682.87H146.202C197.922 680.009 237.687 639.432 237.687 588.192C237.687 536.431 197.143 494.034 146.202 491.173V490.913ZM146.202 535.131C172.972 537.992 193.764 560.881 193.764 588.192C193.764 614.723 173.232 635.791 146.202 638.652V535.131Z" fill="white"/>
<path d="M906.866 480.213L845.269 289.296H803.684L738.709 480.213H785.231L793.029 457.063H853.066L860.603 480.213H906.866ZM823.957 366.807L839.031 413.106H808.103L823.957 366.807Z" fill="white"/>
<path d="M692.589 400.881L630.472 289.816H582.65V480.213H626.574V368.888L688.95 480.213H736.51V289.296H692.589V400.881Z" fill="white"/>
<path d="M482.028 288.256H438.104V480.213H482.028C533.748 477.352 573.513 436.775 573.513 385.535C573.513 333.774 532.969 291.377 482.028 288.516V288.256ZM482.028 332.473C508.798 335.335 529.59 358.224 529.59 385.535C529.59 412.065 509.058 433.134 482.028 435.995V332.473Z" fill="white"/>
<path d="M429.108 289.296L306.694 289.556V480.213H429.108V436.255H350.618V406.083H414.294V362.125H350.618V333.254H429.108V289.296Z" fill="white"/>
<path d="M253.58 286.175V407.904C253.58 424.03 240.325 436.255 224.991 436.255C217.194 436.255 210.436 433.394 204.719 427.672C199.261 421.949 196.662 415.187 196.662 407.383L152.738 406.863C152.478 426.631 159.756 444.578 173.27 458.364C187.045 472.149 204.719 479.953 224.471 480.213H225.251C264.496 480.213 297.504 448.48 297.504 408.164V286.175H253.58Z" fill="white"/>
<path d="M381.168 731.109C381.168 738.586 379.96 746.1 377.543 753.652C375.202 761.204 371.879 768.266 367.574 774.836C363.345 781.406 358.247 787.259 352.281 792.395C346.315 797.53 339.783 801.419 332.684 804.062C333.137 810.331 333.665 816.561 334.27 822.754C334.874 828.947 335.704 835.177 336.762 841.445C336.988 842.578 337.215 843.749 337.441 844.957C337.743 846.165 337.895 847.411 337.895 848.695C337.895 850.659 337.404 851.98 336.422 852.66C335.44 853.34 334.043 853.68 332.23 853.68C330.947 853.68 329.398 853.529 327.586 853.227C325.773 852.924 324.225 852.471 322.941 851.867C321.431 851.036 320.411 850.206 319.883 849.375C319.43 848.469 319.09 847.26 318.863 845.75C317.579 839.331 316.786 832.911 316.484 826.492C316.258 820.073 315.918 813.654 315.465 807.234C313.954 807.083 312.708 806.706 311.727 806.102C310.745 805.422 310.254 804.289 310.254 802.703C310.254 801.193 310.669 799.607 311.5 797.945C312.406 796.284 313.426 795 314.559 794.094C313.879 780.047 313.577 766.113 313.652 752.293C313.803 738.473 313.803 724.539 313.652 710.492C313.275 710.643 312.935 710.757 312.633 710.832C312.331 710.908 311.991 710.945 311.613 710.945C310.783 710.945 310.103 710.757 309.574 710.379C309.046 709.926 308.592 709.397 308.215 708.793C307.913 708.189 307.686 707.547 307.535 706.867C307.384 706.112 307.309 705.432 307.309 704.828C307.309 702.562 307.875 700.939 309.008 699.957C310.141 698.9 311.689 697.956 313.652 697.125C313.652 696.294 313.652 695.35 313.652 694.293C313.728 693.16 313.879 692.141 314.105 691.234C314.408 690.253 314.861 689.46 315.465 688.855C316.069 688.176 316.975 687.836 318.184 687.836C320.147 687.836 322.035 688.214 323.848 688.969C325.66 689.724 327.02 691.008 327.926 692.82C330.569 692.367 333.137 691.952 335.629 691.574C338.121 691.197 340.689 691.008 343.332 691.008C349.298 691.008 354.622 692.027 359.305 694.066C363.987 696.03 367.952 698.824 371.199 702.449C374.447 705.999 376.901 710.228 378.562 715.137C380.299 720.046 381.168 725.37 381.168 731.109ZM364.176 729.07C364.176 725.596 363.723 722.349 362.816 719.328C361.91 716.232 360.551 713.589 358.738 711.398C356.926 709.133 354.622 707.358 351.828 706.074C349.034 704.79 345.749 704.148 341.973 704.148C339.934 704.148 337.857 704.299 335.742 704.602C333.703 704.904 331.702 705.357 329.738 705.961C329.738 719.781 329.814 733.488 329.965 747.082C330.191 760.676 330.72 774.307 331.551 787.977C336.384 785.484 340.802 782.01 344.805 777.555C348.807 773.099 352.243 768.19 355.113 762.828C357.983 757.391 360.211 751.764 361.797 745.949C363.383 740.059 364.176 734.432 364.176 729.07ZM421.609 851.527C421.609 853.038 421.232 854.057 420.477 854.586C419.721 855.19 418.664 855.492 417.305 855.492C413.755 855.492 411.188 854.548 409.602 852.66C408.091 850.772 406.958 848.28 406.203 845.184C405.977 844.126 405.75 843.069 405.523 842.012C405.297 840.879 405.108 839.784 404.957 838.727C404.806 837.745 404.655 837.065 404.504 836.688C404.353 836.31 404.202 835.592 404.051 834.535C403.145 836.725 402.012 839.029 400.652 841.445C399.368 843.786 397.858 845.977 396.121 848.016C394.384 849.979 392.421 851.603 390.23 852.887C388.116 854.171 385.775 854.812 383.207 854.812C380.488 854.812 378.223 854.171 376.41 852.887C374.598 851.527 373.163 849.866 372.105 847.902C371.124 845.863 370.406 843.635 369.953 841.219C369.576 838.802 369.387 836.499 369.387 834.309C369.387 829.173 369.878 823.622 370.859 817.656C371.917 811.615 373.352 805.611 375.164 799.645C376.977 793.603 379.091 787.826 381.508 782.312C383.924 776.724 386.568 771.853 389.438 767.699V767.812L390.117 766.793C390.948 765.66 391.892 764.452 392.949 763.168C394.082 761.809 395.404 761.129 396.914 761.129C398.349 761.129 399.595 761.771 400.652 763.055C401.71 764.263 402.465 765.547 402.918 766.906C404.882 767.284 406.467 767.775 407.676 768.379C408.884 768.908 409.828 769.587 410.508 770.418C411.188 771.249 411.641 772.23 411.867 773.363C412.094 774.421 412.207 775.591 412.207 776.875C412.207 777.404 412.207 777.97 412.207 778.574C412.207 779.178 412.169 779.783 412.094 780.387C412.018 780.991 411.98 781.708 411.98 782.539C411.98 783.37 411.98 784.125 411.98 784.805C411.98 785.56 412.094 786.542 412.32 787.75C412.622 788.958 412.924 790.204 413.227 791.488L414.02 795.68C414.397 797.87 414.699 800.362 414.926 803.156C415.228 805.951 415.568 808.745 415.945 811.539C416.247 814.409 416.549 817.203 416.852 819.922C417.154 822.565 417.456 825.02 417.758 827.285L420.477 844.051L420.816 845.977C420.967 846.958 421.118 847.865 421.27 848.695C421.496 849.526 421.609 850.47 421.609 851.527ZM395.668 786.391C395.668 786.24 395.63 786.013 395.555 785.711C395.479 785.333 395.404 784.956 395.328 784.578C393.591 788.279 392.043 792.319 390.684 796.699C389.4 801.004 388.305 805.422 387.398 809.953C386.568 814.409 385.926 818.902 385.473 823.434C385.095 827.889 384.906 832.118 384.906 836.121C384.906 836.499 384.906 836.839 384.906 837.141C384.906 837.443 384.944 837.745 385.02 838.047V838.16C386.832 835.366 388.38 831.703 389.664 827.172C391.023 822.565 392.156 817.77 393.062 812.785C393.969 807.725 394.611 802.854 394.988 798.172C395.441 793.414 395.668 789.487 395.668 786.391ZM439.508 854.812C438.375 854.812 437.129 854.661 435.77 854.359C434.486 854.057 433.24 853.566 432.031 852.887C430.898 852.207 429.917 851.376 429.086 850.395C428.331 849.337 427.953 848.091 427.953 846.656C427.953 844.542 428.029 842.465 428.18 840.426C428.406 838.311 428.633 836.234 428.859 834.195V834.309L429.539 826.719C429.766 824 429.954 821.017 430.105 817.77C430.257 814.522 430.37 811.237 430.445 807.914C430.596 804.516 430.71 801.193 430.785 797.945C430.861 794.698 430.898 791.715 430.898 788.996C430.898 787.41 430.861 785.824 430.785 784.238C430.785 782.577 430.785 780.915 430.785 779.254C430.71 777.819 430.672 776.233 430.672 774.496C430.672 772.684 430.672 771.022 430.672 769.512C430.672 767.926 430.861 766.642 431.238 765.66C431.691 764.603 432.9 764.074 434.863 764.074C436.6 764.074 438.413 764.527 440.301 765.434C442.264 766.34 443.624 767.624 444.379 769.285H444.266C444.643 770.116 444.908 771.475 445.059 773.363C445.285 775.176 445.436 776.799 445.512 778.234C446.796 776.271 448.23 774.194 449.816 772.004C451.478 769.814 453.253 767.812 455.141 766C457.029 764.112 459.03 762.564 461.145 761.355C463.259 760.147 465.525 759.543 467.941 759.543C471.113 759.543 473.53 760.336 475.191 761.922C476.853 763.508 478.061 765.509 478.816 767.926C479.572 770.267 479.987 772.797 480.062 775.516C480.138 778.159 480.176 780.576 480.176 782.766V783.672C480.176 784.578 480.138 785.484 480.062 786.391C480.062 787.221 479.911 788.014 479.609 788.77C479.383 789.449 478.93 790.016 478.25 790.469C477.646 790.922 476.777 791.148 475.645 791.148C474.436 791.148 473.152 790.997 471.793 790.695C470.434 790.318 469.15 789.789 467.941 789.109C466.809 788.43 465.827 787.599 464.996 786.617C464.165 785.56 463.712 784.352 463.637 782.992C463.637 782.388 463.637 781.784 463.637 781.18C463.637 780.576 463.674 779.971 463.75 779.367C463.75 778.99 463.75 778.536 463.75 778.008C463.826 777.404 463.863 776.837 463.863 776.309C461.447 778.725 459.294 781.708 457.406 785.258C455.594 788.807 453.932 792.583 452.422 796.586C450.987 800.589 449.741 804.629 448.684 808.707C447.626 812.71 446.72 816.335 445.965 819.582V819.922C445.738 822.263 445.587 824.566 445.512 826.832C445.436 829.098 445.361 831.439 445.285 833.855C445.21 836.574 445.096 839.331 444.945 842.125C444.87 844.919 444.681 847.638 444.379 850.281C444.228 851.716 443.775 852.811 443.02 853.566C442.34 854.397 441.169 854.812 439.508 854.812ZM534.211 849.488C534.211 850.319 534.022 851.036 533.645 851.641C533.267 852.169 532.776 852.622 532.172 853C531.643 853.302 531.039 853.529 530.359 853.68C529.755 853.831 529.151 853.906 528.547 853.906C527.641 853.906 526.659 853.793 525.602 853.566C524.544 853.34 523.487 853.038 522.43 852.66C521.372 852.207 520.391 851.678 519.484 851.074C518.654 850.395 518.012 849.639 517.559 848.809C517.105 847.978 516.766 846.958 516.539 845.75C516.388 844.466 516.237 843.182 516.086 841.898C515.331 843.711 514.424 845.486 513.367 847.223C512.385 848.96 511.177 850.508 509.742 851.867C508.307 853.151 506.684 854.171 504.871 854.926C503.134 855.757 501.171 856.172 498.98 856.172C495.129 856.172 491.995 855.266 489.578 853.453C487.237 851.641 485.387 849.375 484.027 846.656C482.743 843.862 481.875 840.841 481.422 837.594C481.044 834.271 480.855 831.099 480.855 828.078C480.855 825.586 480.969 822.754 481.195 819.582C481.422 816.41 481.724 813.163 482.102 809.84C482.479 806.517 482.932 803.307 483.461 800.211C483.99 797.039 484.556 794.245 485.16 791.828C485.915 789.034 486.822 785.975 487.879 782.652C489.012 779.254 490.409 776.12 492.07 773.25C493.807 770.305 495.922 767.812 498.414 765.773C500.906 763.734 503.889 762.602 507.363 762.375C507.137 756.258 506.797 750.632 506.344 745.496C505.966 740.285 505.551 734.961 505.098 729.523L503.965 716.949L503.512 712.418C503.361 711.21 503.247 710.001 503.172 708.793C503.096 707.509 503.059 706.263 503.059 705.055C503.059 703.318 503.512 702.109 504.418 701.43C505.4 700.75 506.646 700.41 508.156 700.41C511.479 700.41 514.009 700.901 515.746 701.883C517.483 702.865 518.691 704.186 519.371 705.848C520.126 707.509 520.542 709.473 520.617 711.738C520.693 713.928 520.73 716.307 520.73 718.875C520.73 720.536 520.919 722.424 521.297 724.539L521.863 728.73L522.77 740.285C522.921 742.098 523.072 743.91 523.223 745.723C523.374 747.535 523.525 749.348 523.676 751.16L526.055 775.516L530.586 821.055L530.926 825.246C531.228 828.342 531.492 831.552 531.719 834.875C532.021 838.198 532.549 841.483 533.305 844.73C533.531 845.561 533.72 846.354 533.871 847.109C534.098 847.865 534.211 848.658 534.211 849.488ZM507.816 783.219C507.816 782.388 507.779 781.482 507.703 780.5C507.703 779.443 507.703 778.461 507.703 777.555V774.496C507.174 775.251 506.495 776.309 505.664 777.668C504.833 778.952 504.191 780.122 503.738 781.18C502.53 783.823 501.435 787.221 500.453 791.375C499.471 795.453 498.603 799.758 497.848 804.289C497.168 808.745 496.639 813.125 496.262 817.43C495.884 821.659 495.695 825.208 495.695 828.078C495.695 829.135 495.695 830.344 495.695 831.703C495.771 833.062 495.922 834.46 496.148 835.895C496.375 837.254 496.715 838.576 497.168 839.859C497.621 841.143 498.225 842.201 498.98 843.031C500.113 841.596 501.133 839.406 502.039 836.461C502.945 833.44 503.701 830.042 504.305 826.266C504.984 822.414 505.551 818.374 506.004 814.145C506.457 809.915 506.797 805.837 507.023 801.91C507.326 797.908 507.514 794.283 507.59 791.035C507.741 787.712 507.816 785.107 507.816 783.219ZM589.945 778.234C589.945 778.99 589.87 779.783 589.719 780.613C589.568 781.444 589.417 782.199 589.266 782.879C589.115 783.71 588.964 784.503 588.812 785.258C588.661 785.938 588.586 786.617 588.586 787.297C588.586 794.32 588.699 801.382 588.926 808.48C589.228 815.504 589.983 822.565 591.191 829.664C591.569 832.383 592.022 835.026 592.551 837.594C593.079 840.161 593.684 842.767 594.363 845.41L594.59 846.09V845.863C594.816 846.392 595.005 846.958 595.156 847.562C595.383 848.091 595.496 848.658 595.496 849.262C595.496 850.092 595.27 850.772 594.816 851.301C594.439 851.829 593.948 852.245 593.344 852.547C592.74 852.849 592.06 853.038 591.305 853.113C590.625 853.189 589.983 853.227 589.379 853.227C586.887 853.227 584.885 852.962 583.375 852.434C581.94 851.829 580.77 851.036 579.863 850.055C578.957 848.997 578.277 847.751 577.824 846.316C577.447 844.882 577.107 843.296 576.805 841.559L576.465 839.52C576.163 838.462 575.974 837.329 575.898 836.121C575.823 835.517 575.747 835.253 575.672 835.328C575.672 835.328 575.634 835.026 575.559 834.422C574.501 836.31 573.255 838.349 571.82 840.539C570.461 842.654 568.875 844.655 567.062 846.543C565.326 848.355 563.438 849.904 561.398 851.188C559.359 852.396 557.169 853 554.828 853C551.581 853 549.051 852.018 547.238 850.055C545.501 848.091 544.217 845.712 543.387 842.918C542.556 840.048 542.065 837.103 541.914 834.082C541.763 830.986 541.688 828.305 541.688 826.039C541.688 817.43 541.952 808.896 542.48 800.438C543.085 791.979 543.727 783.483 544.406 774.949C544.406 774.723 544.406 774.421 544.406 774.043C544.482 773.665 544.52 773.363 544.52 773.137C544.595 772.079 544.671 771.098 544.746 770.191C544.822 769.285 545.01 768.417 545.312 767.586V767.699C545.615 766.491 546.03 765.622 546.559 765.094C547.163 764.565 548.069 764.301 549.277 764.301C550.41 764.301 551.543 764.527 552.676 764.98C553.809 765.358 554.828 765.924 555.734 766.68C556.641 767.359 557.358 768.19 557.887 769.172C558.491 770.154 558.793 771.249 558.793 772.457C558.793 773.061 558.793 773.779 558.793 774.609C558.793 775.44 558.755 776.158 558.68 776.762C558.68 777.29 558.642 777.97 558.566 778.801C558.566 779.556 558.566 780.198 558.566 780.727C557.962 787.977 557.509 795.189 557.207 802.363C556.905 809.462 556.754 816.674 556.754 824C556.754 826.039 556.754 828.078 556.754 830.117C556.829 832.156 557.056 834.195 557.434 836.234C559.926 833.062 562.078 829.022 563.891 824.113C565.703 819.129 567.214 813.88 568.422 808.367C569.706 802.779 570.725 797.266 571.48 791.828C572.311 786.315 572.915 781.444 573.293 777.215C573.293 776.988 573.293 776.724 573.293 776.422C573.368 776.12 573.406 775.855 573.406 775.629C573.482 774.798 573.557 774.005 573.633 773.25C573.708 772.495 573.973 771.777 574.426 771.098C574.426 770.418 574.464 769.701 574.539 768.945C574.615 768.19 574.803 767.51 575.105 766.906C575.408 766.227 575.823 765.698 576.352 765.32C576.956 764.943 577.786 764.754 578.844 764.754C581.865 764.754 584.243 765.698 585.98 767.586C587.717 769.398 588.661 771.74 588.812 774.609C589.19 775.214 589.454 775.818 589.605 776.422C589.832 776.951 589.945 777.555 589.945 778.234ZM654.969 788.996C654.969 792.092 654.818 795.529 654.516 799.305C654.214 803.005 653.76 806.857 653.156 810.859C652.552 814.862 651.721 818.902 650.664 822.98C649.682 826.983 648.474 830.835 647.039 834.535C645.604 838.236 643.905 841.672 641.941 844.844C640.053 847.94 637.901 850.546 635.484 852.66C633.747 854.171 631.784 855.379 629.594 856.285C627.479 857.267 625.289 857.758 623.023 857.758C622.193 857.758 621.324 857.607 620.418 857.305C619.512 857.078 618.832 856.474 618.379 855.492C616.717 855.341 615.056 855.001 613.395 854.473C611.809 854.02 610.487 852.962 609.43 851.301C609.203 850.772 609.014 850.13 608.863 849.375C608.712 848.62 608.561 847.827 608.41 846.996C608.335 846.618 608.259 846.279 608.184 845.977C608.108 845.599 608.033 845.259 607.957 844.957C605.767 831.363 604.257 817.77 603.426 804.176C602.671 790.582 602.293 776.875 602.293 763.055C602.293 761.846 602.293 759.732 602.293 756.711C602.293 753.69 602.293 750.254 602.293 746.402C602.368 742.551 602.406 738.51 602.406 734.281C602.482 730.052 602.557 726.087 602.633 722.387C602.708 718.686 602.822 715.514 602.973 712.871C603.124 710.152 603.275 708.415 603.426 707.66C603.728 706.603 604.143 705.734 604.672 705.055C605.201 704.375 606.107 704.035 607.391 704.035C610.94 704.035 613.47 705.168 614.98 707.434C616.566 709.624 617.359 712.342 617.359 715.59V744.703C617.359 748.253 617.359 751.462 617.359 754.332C617.359 757.126 617.359 759.883 617.359 762.602C617.435 765.245 617.51 768.001 617.586 770.871C617.661 773.665 617.775 776.799 617.926 780.273C618.832 778.234 619.927 776.233 621.211 774.27C622.57 772.306 624.081 770.531 625.742 768.945C627.404 767.359 629.254 766.076 631.293 765.094C633.332 764.112 635.598 763.621 638.09 763.621C641.715 763.621 644.622 764.414 646.812 766C649.078 767.586 650.777 769.625 651.91 772.117C653.118 774.534 653.911 777.253 654.289 780.273C654.742 783.294 654.969 786.202 654.969 788.996ZM639.336 786.391C639.336 784.88 639.26 783.219 639.109 781.406C639.034 779.594 638.581 778.008 637.75 776.648C637.07 777.177 636.466 777.743 635.938 778.348C635.484 778.952 634.993 779.632 634.465 780.387L634.238 780.727V780.613C632.124 784.087 630.387 788.128 629.027 792.734C627.743 797.341 626.686 802.137 625.855 807.121C625.1 812.03 624.572 816.939 624.27 821.848C623.967 826.681 623.816 831.061 623.816 834.988C623.816 835.819 623.816 837.065 623.816 838.727C623.892 840.312 624.043 841.634 624.27 842.691C627.215 840.199 629.632 836.574 631.52 831.816C633.483 826.983 635.031 821.81 636.164 816.297C637.372 810.708 638.203 805.233 638.656 799.871C639.109 794.509 639.336 790.016 639.336 786.391ZM677.625 757.73C677.625 759.014 677.323 759.958 676.719 760.562C676.19 761.091 675.171 761.355 673.66 761.355C672.98 761.355 671.923 761.28 670.488 761.129C669.053 760.902 667.581 760.6 666.07 760.223C664.635 759.845 663.352 759.316 662.219 758.637C661.161 757.957 660.633 757.126 660.633 756.145C660.633 755.842 660.746 755.012 660.973 753.652C661.199 752.217 661.464 750.707 661.766 749.121C662.143 747.535 662.445 746.1 662.672 744.816C662.974 743.533 663.201 742.815 663.352 742.664V742.777C663.729 742.173 664.182 741.796 664.711 741.645C665.24 741.493 665.768 741.418 666.297 741.418C666.977 741.418 667.845 741.531 668.902 741.758C670.035 741.909 671.13 742.173 672.188 742.551C673.32 742.853 674.34 743.268 675.246 743.797C676.152 744.326 676.719 744.892 676.945 745.496C677.172 746.1 677.285 746.931 677.285 747.988C677.361 748.97 677.361 749.876 677.285 750.707C677.285 751.009 677.247 751.387 677.172 751.84C677.172 752.217 677.172 752.52 677.172 752.746C677.172 753.124 677.172 753.501 677.172 753.879C677.247 754.257 677.323 754.634 677.398 755.012C677.474 755.389 677.512 755.805 677.512 756.258C677.587 756.711 677.625 757.202 677.625 757.73ZM681.816 848.016C681.816 849.753 681.401 850.999 680.57 851.754C679.815 852.434 678.569 852.773 676.832 852.773C675.926 852.773 674.906 852.66 673.773 852.434C672.716 852.207 671.659 851.905 670.602 851.527C669.544 851.074 668.562 850.546 667.656 849.941C666.75 849.337 666.07 848.658 665.617 847.902C665.315 847.449 665.051 846.052 664.824 843.711C664.598 841.37 664.409 838.462 664.258 834.988C664.182 831.514 664.069 827.625 663.918 823.32C663.842 819.016 663.767 814.673 663.691 810.293C663.691 805.913 663.691 801.646 663.691 797.492C663.691 793.339 663.691 789.714 663.691 786.617V777.895C663.691 777.139 663.691 776.384 663.691 775.629C663.767 774.874 663.918 774.232 664.145 773.703C664.447 773.099 664.862 772.608 665.391 772.23C665.995 771.853 666.826 771.664 667.883 771.664C671.206 771.664 673.622 772.608 675.133 774.496C676.719 776.309 677.701 778.763 678.078 781.859C678.456 786.466 678.72 791.073 678.871 795.68C679.098 800.211 679.286 804.818 679.438 809.5C679.589 813.729 679.702 817.921 679.777 822.074C679.928 826.152 680.193 830.23 680.57 834.309C680.646 835.139 680.721 835.932 680.797 836.688C680.872 837.443 680.986 838.198 681.137 838.953C681.288 840.464 681.439 841.974 681.59 843.484C681.741 844.919 681.816 846.43 681.816 848.016ZM736.758 827.625C736.758 829.211 736.493 830.835 735.965 832.496C735.436 834.158 734.832 835.743 734.152 837.254C733.246 839.444 732.151 841.596 730.867 843.711C729.583 845.75 728.111 847.6 726.449 849.262C724.788 850.848 722.9 852.132 720.785 853.113C718.671 854.095 716.292 854.586 713.648 854.586C708.966 854.586 705.077 853.415 701.98 851.074C698.884 848.733 696.43 845.788 694.617 842.238C692.805 838.689 691.521 834.799 690.766 830.57C690.086 826.341 689.746 822.339 689.746 818.562C689.746 815.768 689.859 812.483 690.086 808.707C690.312 804.855 690.728 800.891 691.332 796.812C692.012 792.734 692.956 788.694 694.164 784.691C695.448 780.689 697.072 777.139 699.035 774.043C700.999 770.871 703.378 768.303 706.172 766.34C709.042 764.376 712.44 763.395 716.367 763.395C717.198 763.395 718.406 763.546 719.992 763.848C721.578 764.15 723.126 764.603 724.637 765.207C726.223 765.736 727.582 766.491 728.715 767.473C729.923 768.379 730.527 769.436 730.527 770.645C730.527 771.777 729.999 772.646 728.941 773.25C727.96 773.854 726.751 774.307 725.316 774.609C723.957 774.836 722.522 774.987 721.012 775.062C719.577 775.062 718.406 775.062 717.5 775.062H715.461C713.346 776.951 711.609 779.745 710.25 783.445C708.891 787.07 707.833 790.96 707.078 795.113C706.323 799.267 705.794 803.383 705.492 807.461C705.19 811.464 705.039 814.749 705.039 817.316C705.039 820.941 705.303 824.529 705.832 828.078C706.436 831.552 707.607 834.837 709.344 837.934C709.721 838.613 710.25 839.406 710.93 840.312C711.685 841.143 712.516 841.559 713.422 841.559C714.102 841.559 714.781 840.992 715.461 839.859C716.216 838.727 716.896 837.405 717.5 835.895C718.104 834.384 718.595 832.911 718.973 831.477C719.35 830.042 719.615 828.984 719.766 828.305C719.841 828.003 719.879 827.663 719.879 827.285C719.879 826.908 719.879 826.53 719.879 826.152C719.879 825.473 719.879 824.831 719.879 824.227C719.954 823.547 720.068 823.018 720.219 822.641C720.747 821.357 721.427 820.488 722.258 820.035C723.164 819.582 724.259 819.355 725.543 819.355C726.676 819.355 727.884 819.507 729.168 819.809C730.452 820.111 731.66 820.602 732.793 821.281C733.926 821.961 734.87 822.829 735.625 823.887C736.38 824.944 736.758 826.19 736.758 827.625ZM785.695 832.27C785.695 834.535 785.053 836.876 783.77 839.293C782.561 841.71 780.975 843.938 779.012 845.977C777.048 847.94 774.783 849.564 772.215 850.848C769.723 852.132 767.23 852.773 764.738 852.773C761.189 852.773 758.13 852.094 755.562 850.734C752.995 849.299 750.767 847.411 748.879 845.07C746.991 842.654 745.443 839.935 744.234 836.914C743.102 833.893 742.195 830.797 741.516 827.625C740.836 824.378 740.345 821.168 740.043 817.996C739.816 814.749 739.703 811.803 739.703 809.16C739.703 806.895 739.816 804.214 740.043 801.117C740.345 798.021 740.798 794.811 741.402 791.488C742.082 788.165 742.988 784.88 744.121 781.633C745.254 778.385 746.651 775.478 748.312 772.91C750.049 770.342 752.089 768.266 754.43 766.68C756.846 765.094 759.603 764.301 762.699 764.301C765.116 764.301 767.268 764.792 769.156 765.773C771.12 766.755 772.743 768.077 774.027 769.738C775.387 771.324 776.406 773.174 777.086 775.289C777.841 777.404 778.219 779.594 778.219 781.859C778.219 784.805 777.539 788.014 776.18 791.488C774.82 794.962 773.046 798.323 770.855 801.57C768.741 804.818 766.324 807.763 763.605 810.406C760.962 812.974 758.319 814.938 755.676 816.297C755.827 817.656 756.129 819.658 756.582 822.301C757.035 824.868 757.639 827.436 758.395 830.004C759.225 832.572 760.169 834.799 761.227 836.688C762.359 838.576 763.681 839.52 765.191 839.52C765.947 839.52 766.589 839.293 767.117 838.84C767.721 838.387 768.25 837.783 768.703 837.027C769.156 836.272 769.534 835.441 769.836 834.535C770.214 833.629 770.553 832.76 770.855 831.93L771.535 830.344C771.686 830.117 771.762 829.966 771.762 829.891C771.837 829.815 771.913 829.702 771.988 829.551C772.517 828.569 773.008 827.663 773.461 826.832C773.99 826.001 774.707 825.284 775.613 824.68H775.5C775.802 824.378 776.104 824.227 776.406 824.227C776.784 824.151 777.124 824.113 777.426 824.113C778.257 824.113 779.163 824.378 780.145 824.906C781.126 825.435 782.033 826.115 782.863 826.945C783.694 827.701 784.374 828.569 784.902 829.551C785.431 830.457 785.695 831.363 785.695 832.27ZM763.266 782.312C763.266 781.557 763.228 780.764 763.152 779.934C763.077 779.103 762.888 778.385 762.586 777.781C761.529 779.065 760.585 780.613 759.754 782.426C758.999 784.163 758.357 786.013 757.828 787.977C757.299 789.865 756.846 791.79 756.469 793.754C756.167 795.717 755.94 797.53 755.789 799.191C757.753 796.85 759.49 794.207 761 791.262C762.51 788.241 763.266 785.258 763.266 782.312Z" fill="#F7931A"/>
</g>
<defs>
<clipPath id="clip0_106_569">
<rect width="1060" height="1060" fill="white"/>
</clipPath>
</defs>
</svg>
