<svg width="1060" height="1060" viewBox="0 0 1060 1060" fill="none" xmlns="http://www.w3.org/2000/svg">
<g clip-path="url(#clip0_106_1152)">
<rect width="1060" height="1060" fill="white"/>
<path d="M790.229 490.783V535.001H826.616V682.48H870.539V535.001H907.185V490.783H790.229Z" fill="black"/>
<path d="M781.053 491.563L658.641 491.823V682.48H781.053V638.522H702.563V608.35H766.239V564.392H702.563V535.521H781.053V491.563Z" fill="black"/>
<path d="M581.987 682.22C606.937 682.22 630.848 673.116 649.561 654.389L618.633 623.176C598.36 643.464 565.613 643.204 545.6 623.176C535.984 613.032 530.526 600.547 530.526 586.761C530.526 572.976 535.984 560.231 545.6 550.087C565.613 530.059 598.36 529.799 618.633 550.087L649.561 519.134C612.135 481.679 551.838 481.679 514.412 519.134C496.479 537.081 486.603 560.751 486.603 586.761C486.603 612.512 496.479 635.921 514.412 654.389C533.125 673.116 557.296 682.22 581.987 682.22Z" fill="black"/>
<path d="M1002.63 638.042C994.742 669.725 962.684 689.003 931.026 681.099C899.388 673.206 880.125 641.123 888.022 609.441C895.909 577.766 927.967 558.487 959.606 566.384C991.264 574.282 1010.53 606.369 1002.63 638.042Z" fill="#F7931A"/>
<path d="M971.371 615.323C972.55 607.45 966.562 603.222 958.375 600.401L961.035 589.744L954.547 588.126L951.968 598.503C950.259 598.078 948.509 597.678 946.77 597.28L949.379 586.835L942.901 585.218L940.242 595.872C938.833 595.551 937.443 595.233 936.104 594.899L936.114 594.865L927.167 592.631L925.448 599.561C925.448 599.561 930.256 600.663 930.156 600.732C932.775 601.388 933.255 603.126 933.175 604.505L930.146 616.644C930.326 616.694 930.566 616.764 930.826 616.864C930.606 616.814 930.376 616.754 930.136 616.694L925.898 633.7C925.578 634.501 924.768 635.701 922.929 635.241C922.989 635.331 918.221 634.061 918.221 634.061L915.002 641.494L923.439 643.594C925.008 643.985 926.538 644.405 928.057 644.785L925.368 655.569L931.846 657.19L934.504 646.516C936.274 646.996 937.993 647.446 939.673 647.866L937.024 658.48L943.501 660.091L946.19 649.337C957.246 651.428 965.553 650.587 969.052 640.573C971.87 632.52 968.912 627.878 963.094 624.847C967.332 623.867 970.521 621.075 971.371 615.323ZM956.566 636.101C954.557 644.165 941.002 639.803 936.614 638.712L940.172 624.437C944.561 625.527 958.655 627.698 956.566 636.101ZM958.565 615.203C956.736 622.536 945.46 618.804 941.802 617.894L945.031 604.943C948.689 605.855 960.475 607.56 958.565 615.203Z" fill="white"/>
<path d="M502.908 682.87L441.311 491.954H399.726L334.751 682.87H381.273L389.071 659.721H449.108L456.645 682.87H502.908ZM419.999 569.465L435.073 615.763H404.145L419.999 569.465Z" fill="black"/>
<path d="M304.083 608.48L267.436 490.393H221.174L282.771 682.87H324.355L389.33 490.393H342.808L304.083 608.48Z" fill="black"/>
<path d="M146.202 490.913H102.278V682.87H146.202C197.922 680.009 237.687 639.432 237.687 588.192C237.687 536.431 197.143 494.034 146.202 491.173V490.913ZM146.202 535.131C172.972 537.992 193.764 560.881 193.764 588.192C193.764 614.723 173.232 635.791 146.202 638.652V535.131Z" fill="black"/>
<path d="M906.866 480.213L845.269 289.296H803.684L738.709 480.213H785.231L793.029 457.063H853.066L860.603 480.213H906.866ZM823.957 366.807L839.031 413.106H808.103L823.957 366.807Z" fill="black"/>
<path d="M692.589 400.881L630.472 289.816H582.65V480.213H626.574V368.888L688.95 480.213H736.51V289.296H692.589V400.881Z" fill="black"/>
<path d="M482.028 288.256H438.104V480.213H482.028C533.748 477.352 573.513 436.775 573.513 385.535C573.513 333.774 532.969 291.377 482.028 288.516V288.256ZM482.028 332.473C508.798 335.335 529.59 358.224 529.59 385.535C529.59 412.065 509.058 433.134 482.028 435.995V332.473Z" fill="black"/>
<path d="M429.108 289.296L306.694 289.556V480.213H429.108V436.255H350.618V406.083H414.294V362.125H350.618V333.254H429.108V289.296Z" fill="black"/>
<path d="M253.58 286.175V407.904C253.58 424.03 240.325 436.255 224.991 436.255C217.194 436.255 210.436 433.394 204.719 427.672C199.261 421.949 196.662 415.187 196.662 407.383L152.738 406.863C152.478 426.631 159.756 444.578 173.27 458.364C187.045 472.149 204.719 479.953 224.471 480.213H225.251C264.496 480.213 297.504 448.48 297.504 408.164V286.175H253.58Z" fill="black"/>
<path d="M456.727 698.484C456.727 701.505 456.047 703.771 454.688 705.281C453.404 706.716 451.742 707.736 449.703 708.34C447.664 708.944 445.436 709.322 443.02 709.473C440.678 709.548 438.451 709.737 436.336 710.039L430.219 710.719C431.956 724.086 433.013 737.453 433.391 750.82C433.844 764.112 434.07 777.555 434.07 791.148C434.07 795.378 433.957 799.871 433.73 804.629C433.504 809.311 432.975 813.993 432.145 818.676C431.314 823.283 430.105 827.701 428.52 831.93C426.934 836.159 424.781 839.897 422.062 843.145C419.344 846.316 415.983 848.884 411.98 850.848C407.978 852.736 403.182 853.68 397.594 853.68C391.174 853.68 385.435 852.32 380.375 849.602C375.391 846.807 371.161 843.182 367.688 838.727C364.214 834.271 361.57 829.211 359.758 823.547C357.945 817.807 357.039 811.992 357.039 806.102C357.039 804.893 357.077 802.93 357.152 800.211C357.303 797.492 357.605 794.736 358.059 791.941C358.587 789.072 359.342 786.579 360.324 784.465C361.382 782.275 362.779 781.18 364.516 781.18C365.497 781.18 366.706 781.444 368.141 781.973C369.651 782.426 371.048 783.068 372.332 783.898C373.691 784.729 374.824 785.711 375.73 786.844C376.712 787.901 377.203 789.034 377.203 790.242C377.203 793.112 376.863 795.906 376.184 798.625C375.504 801.344 375.164 804.138 375.164 807.008C375.164 810.104 375.617 813.54 376.523 817.316C377.43 821.092 378.789 824.68 380.602 828.078C382.414 831.401 384.68 834.195 387.398 836.461C390.193 838.727 393.44 839.859 397.141 839.859C399.859 839.859 402.163 839.368 404.051 838.387C406.014 837.329 407.638 835.97 408.922 834.309C410.281 832.572 411.339 830.608 412.094 828.418C412.924 826.228 413.604 824 414.133 821.734C415.87 814.107 416.852 806.404 417.078 798.625C417.38 790.771 417.531 782.841 417.531 774.836C417.531 764.49 417.267 754.143 416.738 743.797C416.285 733.451 415.417 723.104 414.133 712.758C408.997 713.362 403.938 714.004 398.953 714.684C393.969 715.363 388.909 715.703 383.773 715.703C382.49 715.703 381.47 715.439 380.715 714.91C380.035 714.382 379.695 713.438 379.695 712.078C379.695 709.435 380.488 707.434 382.074 706.074C383.66 704.639 385.661 703.62 388.078 703.016C392.081 701.883 396.159 701.09 400.312 700.637C404.542 700.108 408.695 699.542 412.773 698.938V697.125C412.773 695.841 413.227 695.048 414.133 694.746C415.039 694.368 416.021 694.18 417.078 694.18C418.664 694.18 420.212 694.406 421.723 694.859C423.233 695.312 424.63 696.068 425.914 697.125C430.143 696.445 434.335 695.652 438.488 694.746C442.717 693.764 447.06 693.273 451.516 693.273C453.102 693.273 454.348 693.764 455.254 694.746C456.236 695.652 456.727 696.898 456.727 698.484ZM466.582 757.73C466.582 759.014 466.28 759.958 465.676 760.562C465.147 761.091 464.128 761.355 462.617 761.355C461.938 761.355 460.88 761.28 459.445 761.129C458.01 760.902 456.538 760.6 455.027 760.223C453.592 759.845 452.309 759.316 451.176 758.637C450.118 757.957 449.59 757.126 449.59 756.145C449.59 755.842 449.703 755.012 449.93 753.652C450.156 752.217 450.421 750.707 450.723 749.121C451.1 747.535 451.402 746.1 451.629 744.816C451.931 743.533 452.158 742.815 452.309 742.664V742.777C452.686 742.173 453.139 741.796 453.668 741.645C454.197 741.493 454.725 741.418 455.254 741.418C455.934 741.418 456.802 741.531 457.859 741.758C458.992 741.909 460.087 742.173 461.145 742.551C462.277 742.853 463.297 743.268 464.203 743.797C465.109 744.326 465.676 744.892 465.902 745.496C466.129 746.1 466.242 746.931 466.242 747.988C466.318 748.97 466.318 749.876 466.242 750.707C466.242 751.009 466.204 751.387 466.129 751.84C466.129 752.217 466.129 752.52 466.129 752.746C466.129 753.124 466.129 753.501 466.129 753.879C466.204 754.257 466.28 754.634 466.355 755.012C466.431 755.389 466.469 755.805 466.469 756.258C466.544 756.711 466.582 757.202 466.582 757.73ZM470.773 848.016C470.773 849.753 470.358 850.999 469.527 851.754C468.772 852.434 467.526 852.773 465.789 852.773C464.883 852.773 463.863 852.66 462.73 852.434C461.673 852.207 460.616 851.905 459.559 851.527C458.501 851.074 457.52 850.546 456.613 849.941C455.707 849.337 455.027 848.658 454.574 847.902C454.272 847.449 454.008 846.052 453.781 843.711C453.555 841.37 453.366 838.462 453.215 834.988C453.139 831.514 453.026 827.625 452.875 823.32C452.799 819.016 452.724 814.673 452.648 810.293C452.648 805.913 452.648 801.646 452.648 797.492C452.648 793.339 452.648 789.714 452.648 786.617V777.895C452.648 777.139 452.648 776.384 452.648 775.629C452.724 774.874 452.875 774.232 453.102 773.703C453.404 773.099 453.819 772.608 454.348 772.23C454.952 771.853 455.783 771.664 456.84 771.664C460.163 771.664 462.579 772.608 464.09 774.496C465.676 776.309 466.658 778.763 467.035 781.859C467.413 786.466 467.677 791.073 467.828 795.68C468.055 800.211 468.243 804.818 468.395 809.5C468.546 813.729 468.659 817.921 468.734 822.074C468.885 826.152 469.15 830.23 469.527 834.309C469.603 835.139 469.678 835.932 469.754 836.688C469.829 837.443 469.943 838.198 470.094 838.953C470.245 840.464 470.396 841.974 470.547 843.484C470.698 844.919 470.773 846.43 470.773 848.016ZM534.891 846.883C534.891 848.393 534.4 849.488 533.418 850.168C532.436 850.848 531.228 851.188 529.793 851.188C528.887 851.188 527.943 851.112 526.961 850.961C525.979 850.734 525.035 850.508 524.129 850.281C522.543 849.828 521.297 849.262 520.391 848.582C519.56 847.902 518.918 847.147 518.465 846.316C518.012 845.41 517.71 844.428 517.559 843.371C517.483 842.314 517.408 841.143 517.332 839.859C517.332 839.482 517.294 839.142 517.219 838.84C517.219 838.538 517.219 838.236 517.219 837.934C516.992 833.629 516.766 829.211 516.539 824.68C516.388 820.148 516.312 815.73 516.312 811.426C516.312 809.236 516.312 807.046 516.312 804.855C516.388 802.665 516.464 800.475 516.539 798.285C516.615 796.095 516.652 793.943 516.652 791.828C516.728 789.638 516.766 787.448 516.766 785.258C516.766 784.805 516.728 784.389 516.652 784.012C516.652 783.559 516.615 783.105 516.539 782.652C514.576 785.522 512.839 788.732 511.328 792.281C509.893 795.755 508.609 799.38 507.477 803.156C506.344 806.857 505.362 810.595 504.531 814.371C503.776 818.072 503.134 821.621 502.605 825.02L502.266 827.398C501.888 830.042 501.51 832.76 501.133 835.555C500.755 838.273 500.566 840.992 500.566 843.711C500.566 844.844 500.755 846.09 501.133 847.449C501.284 848.053 501.397 848.658 501.473 849.262C501.624 849.79 501.699 850.47 501.699 851.301C501.699 853.113 501.246 854.322 500.34 854.926C499.434 855.605 498.225 855.945 496.715 855.945C495.809 855.945 494.789 855.87 493.656 855.719C492.599 855.568 491.542 855.303 490.484 854.926C489.503 854.624 488.559 854.208 487.652 853.68C486.746 853.151 486.029 852.471 485.5 851.641C485.047 850.659 484.594 848.053 484.141 843.824C483.763 839.595 483.385 834.346 483.008 828.078C482.706 821.81 482.404 814.786 482.102 807.008C481.799 799.154 481.497 791.111 481.195 782.879C480.969 774.647 480.742 766.491 480.516 758.41C480.365 750.329 480.214 742.891 480.062 736.094C479.987 729.297 479.911 723.406 479.836 718.422C479.76 713.362 479.723 709.812 479.723 707.773C479.723 706.263 479.911 704.904 480.289 703.695C480.742 702.411 481.951 701.77 483.914 701.77C485.953 701.77 487.879 702.26 489.691 703.242C491.504 704.148 492.826 705.583 493.656 707.547C493.807 707.849 493.958 709.095 494.109 711.285C494.26 713.4 494.411 716.156 494.562 719.555C494.714 722.878 494.865 726.729 495.016 731.109C495.167 735.414 495.318 739.908 495.469 744.59C495.62 749.197 495.771 753.841 495.922 758.523C496.073 763.206 496.224 767.586 496.375 771.664L496.941 788.43C497.848 786.089 498.98 783.634 500.34 781.066C501.699 778.499 503.247 776.158 504.984 774.043C506.797 771.928 508.798 770.191 510.988 768.832C513.254 767.473 515.746 766.793 518.465 766.793C521.788 766.793 524.393 767.661 526.281 769.398C528.169 771.135 529.566 773.288 530.473 775.855C531.454 778.423 532.059 781.18 532.285 784.125C532.512 787.07 532.625 789.751 532.625 792.168C532.625 793.678 532.587 795.151 532.512 796.586C532.512 798.021 532.474 799.456 532.398 800.891C532.323 802.401 532.247 803.911 532.172 805.422C532.172 806.857 532.172 808.329 532.172 809.84C532.172 815.051 532.285 820.413 532.512 825.926C532.738 831.363 533.305 836.725 534.211 842.012L534.438 843.598C534.589 844.051 534.702 844.579 534.777 845.184C534.853 845.788 534.891 846.354 534.891 846.883ZM573.406 856.285C573.406 857.342 573.142 858.211 572.613 858.891C572.085 859.57 571.405 860.099 570.574 860.477C569.819 860.93 568.951 861.232 567.969 861.383C567.062 861.609 566.232 861.723 565.477 861.723C562.833 861.723 560.53 860.967 558.566 859.457C556.603 857.947 554.904 855.983 553.469 853.566C552.034 851.225 550.863 848.544 549.957 845.523C549.051 842.427 548.296 839.368 547.691 836.348C547.087 833.251 546.634 830.306 546.332 827.512C546.03 824.642 545.803 822.188 545.652 820.148C544.973 813.125 544.482 805.988 544.18 798.738C543.953 791.488 543.84 784.314 543.84 777.215C543.84 757.806 544.52 738.586 545.879 719.555C545.879 719.253 545.879 718.913 545.879 718.535C545.954 718.158 545.992 717.78 545.992 717.402C546.068 715.816 546.143 714.004 546.219 711.965C546.294 709.85 546.408 707.773 546.559 705.734C546.71 703.695 546.861 701.845 547.012 700.184C547.238 698.447 547.503 697.238 547.805 696.559V696.672C548.107 695.615 548.522 694.822 549.051 694.293C549.579 693.764 550.486 693.5 551.77 693.5C554.488 693.5 556.792 694.406 558.68 696.219C560.568 698.031 561.512 700.297 561.512 703.016C561.512 703.62 561.474 704.224 561.398 704.828C561.398 705.357 561.361 705.885 561.285 706.414C561.21 706.943 561.134 707.471 561.059 708C561.059 708.453 561.059 708.868 561.059 709.246C560.832 712.191 560.643 715.137 560.492 718.082C560.417 720.952 560.303 723.859 560.152 726.805C559.775 733.299 559.473 739.794 559.246 746.289C559.095 752.708 559.02 759.203 559.02 765.773C559.02 768.568 559.057 772.23 559.133 776.762C559.208 781.293 559.359 786.24 559.586 791.602C559.812 796.888 560.115 802.363 560.492 808.027C560.945 813.691 561.512 819.091 562.191 824.227C562.871 829.362 563.664 834.007 564.57 838.16C565.552 842.314 566.685 845.523 567.969 847.789C568.648 848.091 569.29 848.582 569.895 849.262C570.574 849.866 571.141 850.583 571.594 851.414C572.122 852.169 572.538 852.962 572.84 853.793C573.217 854.699 573.406 855.53 573.406 856.285ZM624.723 851.527C624.723 853.038 624.345 854.057 623.59 854.586C622.835 855.19 621.777 855.492 620.418 855.492C616.868 855.492 614.301 854.548 612.715 852.66C611.204 850.772 610.072 848.28 609.316 845.184C609.09 844.126 608.863 843.069 608.637 842.012C608.41 840.879 608.221 839.784 608.07 838.727C607.919 837.745 607.768 837.065 607.617 836.688C607.466 836.31 607.315 835.592 607.164 834.535C606.258 836.725 605.125 839.029 603.766 841.445C602.482 843.786 600.971 845.977 599.234 848.016C597.497 849.979 595.534 851.603 593.344 852.887C591.229 854.171 588.888 854.812 586.32 854.812C583.602 854.812 581.336 854.171 579.523 852.887C577.711 851.527 576.276 849.866 575.219 847.902C574.237 845.863 573.52 843.635 573.066 841.219C572.689 838.802 572.5 836.499 572.5 834.309C572.5 829.173 572.991 823.622 573.973 817.656C575.03 811.615 576.465 805.611 578.277 799.645C580.09 793.603 582.204 787.826 584.621 782.312C587.038 776.724 589.681 771.853 592.551 767.699V767.812L593.23 766.793C594.061 765.66 595.005 764.452 596.062 763.168C597.195 761.809 598.517 761.129 600.027 761.129C601.462 761.129 602.708 761.771 603.766 763.055C604.823 764.263 605.578 765.547 606.031 766.906C607.995 767.284 609.581 767.775 610.789 768.379C611.997 768.908 612.941 769.587 613.621 770.418C614.301 771.249 614.754 772.23 614.98 773.363C615.207 774.421 615.32 775.591 615.32 776.875C615.32 777.404 615.32 777.97 615.32 778.574C615.32 779.178 615.283 779.783 615.207 780.387C615.132 780.991 615.094 781.708 615.094 782.539C615.094 783.37 615.094 784.125 615.094 784.805C615.094 785.56 615.207 786.542 615.434 787.75C615.736 788.958 616.038 790.204 616.34 791.488L617.133 795.68C617.51 797.87 617.812 800.362 618.039 803.156C618.341 805.951 618.681 808.745 619.059 811.539C619.361 814.409 619.663 817.203 619.965 819.922C620.267 822.565 620.569 825.02 620.871 827.285L623.59 844.051L623.93 845.977C624.081 846.958 624.232 847.865 624.383 848.695C624.609 849.526 624.723 850.47 624.723 851.527ZM598.781 786.391C598.781 786.24 598.743 786.013 598.668 785.711C598.592 785.333 598.517 784.956 598.441 784.578C596.704 788.279 595.156 792.319 593.797 796.699C592.513 801.004 591.418 805.422 590.512 809.953C589.681 814.409 589.039 818.902 588.586 823.434C588.208 827.889 588.02 832.118 588.02 836.121C588.02 836.499 588.02 836.839 588.02 837.141C588.02 837.443 588.057 837.745 588.133 838.047V838.16C589.945 835.366 591.493 831.703 592.777 827.172C594.137 822.565 595.27 817.77 596.176 812.785C597.082 807.725 597.724 802.854 598.102 798.172C598.555 793.414 598.781 789.487 598.781 786.391ZM672.754 770.871C672.754 781.293 671.923 791.564 670.262 801.684C668.676 811.803 666.75 821.885 664.484 831.93C664.182 832.911 663.993 833.742 663.918 834.422C663.465 836.612 662.974 838.878 662.445 841.219C661.992 843.484 661.237 845.75 660.18 848.016C659.198 849.904 657.839 851.565 656.102 853C654.44 854.359 652.59 855.039 650.551 855.039C649.72 855.039 648.852 854.85 647.945 854.473C647.039 854.095 646.057 853.604 645 853C643.49 851.943 642.357 850.508 641.602 848.695C640.846 846.807 640.204 844.882 639.676 842.918L639.449 842.125V842.238C638.165 837.329 637.07 832.421 636.164 827.512C635.333 822.603 634.503 817.656 633.672 812.672C633.219 809.576 632.766 806.517 632.312 803.496C631.859 800.4 631.331 797.341 630.727 794.32L629.141 787.637C628.763 786.126 628.348 784.503 627.895 782.766C627.517 780.953 627.139 779.254 626.762 777.668C626.384 776.082 626.082 774.685 625.855 773.477C625.629 772.193 625.516 771.324 625.516 770.871C625.516 769.436 625.969 768.492 626.875 768.039C627.857 767.51 628.952 767.246 630.16 767.246C632.577 767.246 634.691 767.775 636.504 768.832C638.392 769.889 639.751 771.626 640.582 774.043C641.035 775.327 641.413 776.686 641.715 778.121C642.092 779.556 642.395 780.991 642.621 782.426C643.905 787.41 645.113 792.697 646.246 798.285C647.454 803.798 648.474 809.122 649.305 814.258L650.324 820.035C650.4 820.413 650.438 820.715 650.438 820.941C650.438 821.168 650.438 821.357 650.438 821.508C650.513 821.659 650.551 821.848 650.551 822.074C650.626 822.301 650.702 822.641 650.777 823.094C652.439 815.089 653.836 807.083 654.969 799.078C656.102 790.997 656.668 782.879 656.668 774.723C656.668 773.061 656.555 771.438 656.328 769.852C656.177 768.266 655.988 766.604 655.762 764.867C655.535 763.281 655.309 761.658 655.082 759.996C654.931 758.259 654.855 756.522 654.855 754.785C654.855 753.199 655.346 752.104 656.328 751.5C657.31 750.896 658.518 750.594 659.953 750.594C661.69 750.594 663.276 750.707 664.711 750.934C666.146 751.16 667.392 751.613 668.449 752.293C669.507 752.897 670.375 753.803 671.055 755.012C671.734 756.145 672.188 757.655 672.414 759.543C672.565 761.28 672.641 763.168 672.641 765.207C672.716 767.171 672.754 769.059 672.754 770.871ZM729.621 851.527C729.621 853.038 729.243 854.057 728.488 854.586C727.733 855.19 726.676 855.492 725.316 855.492C721.767 855.492 719.199 854.548 717.613 852.66C716.103 850.772 714.97 848.28 714.215 845.184C713.988 844.126 713.762 843.069 713.535 842.012C713.309 840.879 713.12 839.784 712.969 838.727C712.818 837.745 712.667 837.065 712.516 836.688C712.365 836.31 712.214 835.592 712.062 834.535C711.156 836.725 710.023 839.029 708.664 841.445C707.38 843.786 705.87 845.977 704.133 848.016C702.396 849.979 700.432 851.603 698.242 852.887C696.128 854.171 693.786 854.812 691.219 854.812C688.5 854.812 686.234 854.171 684.422 852.887C682.609 851.527 681.174 849.866 680.117 847.902C679.135 845.863 678.418 843.635 677.965 841.219C677.587 838.802 677.398 836.499 677.398 834.309C677.398 829.173 677.889 823.622 678.871 817.656C679.928 811.615 681.363 805.611 683.176 799.645C684.988 793.603 687.103 787.826 689.52 782.312C691.936 776.724 694.579 771.853 697.449 767.699V767.812L698.129 766.793C698.96 765.66 699.904 764.452 700.961 763.168C702.094 761.809 703.415 761.129 704.926 761.129C706.361 761.129 707.607 761.771 708.664 763.055C709.721 764.263 710.477 765.547 710.93 766.906C712.893 767.284 714.479 767.775 715.688 768.379C716.896 768.908 717.84 769.587 718.52 770.418C719.199 771.249 719.652 772.23 719.879 773.363C720.105 774.421 720.219 775.591 720.219 776.875C720.219 777.404 720.219 777.97 720.219 778.574C720.219 779.178 720.181 779.783 720.105 780.387C720.03 780.991 719.992 781.708 719.992 782.539C719.992 783.37 719.992 784.125 719.992 784.805C719.992 785.56 720.105 786.542 720.332 787.75C720.634 788.958 720.936 790.204 721.238 791.488L722.031 795.68C722.409 797.87 722.711 800.362 722.938 803.156C723.24 805.951 723.579 808.745 723.957 811.539C724.259 814.409 724.561 817.203 724.863 819.922C725.165 822.565 725.467 825.02 725.77 827.285L728.488 844.051L728.828 845.977C728.979 846.958 729.13 847.865 729.281 848.695C729.508 849.526 729.621 850.47 729.621 851.527ZM703.68 786.391C703.68 786.24 703.642 786.013 703.566 785.711C703.491 785.333 703.415 784.956 703.34 784.578C701.603 788.279 700.055 792.319 698.695 796.699C697.411 801.004 696.316 805.422 695.41 809.953C694.579 814.409 693.938 818.902 693.484 823.434C693.107 827.889 692.918 832.118 692.918 836.121C692.918 836.499 692.918 836.839 692.918 837.141C692.918 837.443 692.956 837.745 693.031 838.047V838.16C694.844 835.366 696.392 831.703 697.676 827.172C699.035 822.565 700.168 817.77 701.074 812.785C701.98 807.725 702.622 802.854 703 798.172C703.453 793.414 703.68 789.487 703.68 786.391Z" fill="#F7931A"/>
</g>
<defs>
<clipPath id="clip0_106_1152">
<rect width="1060" height="1060" fill="white"/>
</clipPath>
</defs>
</svg>
