<svg width="1060" height="1060" viewBox="0 0 1060 1060" fill="none" xmlns="http://www.w3.org/2000/svg">
<g clip-path="url(#clip0_106_966)">
<rect width="1060" height="1060" fill="black"/>
<path d="M790.229 490.783V535.001H826.616V682.48H870.539V535.001H907.185V490.783H790.229Z" fill="#FF8C00"/>
<path d="M781.053 491.563L658.641 491.823V682.48H781.053V638.522H702.563V608.35H766.239V564.392H702.563V535.521H781.053V491.563Z" fill="#FF8C00"/>
<path d="M581.987 682.22C606.937 682.22 630.848 673.116 649.561 654.389L618.633 623.176C598.36 643.464 565.613 643.204 545.6 623.176C535.984 613.032 530.526 600.547 530.526 586.761C530.526 572.976 535.984 560.231 545.6 550.087C565.613 530.059 598.36 529.799 618.633 550.087L649.561 519.134C612.135 481.679 551.838 481.679 514.412 519.134C496.479 537.081 486.603 560.751 486.603 586.761C486.603 612.512 496.479 635.921 514.412 654.389C533.125 673.116 557.296 682.22 581.987 682.22Z" fill="#FF8C00"/>
<path d="M1002.63 638.042C994.742 669.725 962.684 689.003 931.026 681.099C899.388 673.206 880.125 641.123 888.022 609.441C895.909 577.766 927.967 558.487 959.606 566.384C991.264 574.282 1010.53 606.369 1002.63 638.042Z" fill="white"/>
<path d="M971.371 615.323C972.55 607.45 966.562 603.222 958.375 600.401L961.035 589.744L954.547 588.126L951.968 598.503C950.259 598.078 948.509 597.678 946.77 597.28L949.379 586.835L942.901 585.218L940.242 595.872C938.833 595.551 937.443 595.233 936.104 594.899L936.114 594.865L927.167 592.631L925.448 599.561C925.448 599.561 930.256 600.663 930.156 600.732C932.775 601.388 933.255 603.126 933.175 604.505L930.146 616.644C930.326 616.694 930.566 616.764 930.826 616.864C930.606 616.814 930.376 616.754 930.136 616.694L925.898 633.7C925.578 634.501 924.768 635.701 922.929 635.241C922.989 635.331 918.221 634.061 918.221 634.061L915.002 641.494L923.439 643.594C925.008 643.985 926.538 644.405 928.057 644.785L925.368 655.569L931.846 657.19L934.504 646.516C936.274 646.996 937.993 647.446 939.673 647.866L937.024 658.48L943.501 660.091L946.19 649.337C957.246 651.428 965.553 650.587 969.052 640.573C971.87 632.52 968.912 627.878 963.094 624.847C967.332 623.867 970.521 621.075 971.371 615.323ZM956.566 636.101C954.557 644.165 941.002 639.803 936.614 638.712L940.172 624.437C944.561 625.527 958.655 627.698 956.566 636.101ZM958.565 615.203C956.736 622.536 945.46 618.804 941.802 617.894L945.031 604.943C948.689 605.855 960.475 607.56 958.565 615.203Z" fill="black"/>
<path d="M502.908 682.87L441.311 491.954H399.726L334.751 682.87H381.273L389.071 659.721H449.108L456.645 682.87H502.908ZM419.999 569.465L435.073 615.763H404.145L419.999 569.465Z" fill="#FF8C00"/>
<path d="M304.083 608.48L267.436 490.393H221.174L282.771 682.87H324.355L389.33 490.393H342.808L304.083 608.48Z" fill="#FF8C00"/>
<path d="M146.202 490.913H102.278V682.87H146.202C197.922 680.009 237.687 639.432 237.687 588.192C237.687 536.431 197.143 494.034 146.202 491.173V490.913ZM146.202 535.131C172.972 537.992 193.764 560.881 193.764 588.192C193.764 614.723 173.232 635.791 146.202 638.652V535.131Z" fill="#FF8C00"/>
<path d="M906.866 480.213L845.269 289.296H803.684L738.709 480.213H785.231L793.029 457.063H853.066L860.603 480.213H906.866ZM823.957 366.807L839.031 413.106H808.103L823.957 366.807Z" fill="#FF8C00"/>
<path d="M692.589 400.881L630.472 289.816H582.65V480.213H626.574V368.888L688.95 480.213H736.51V289.296H692.589V400.881Z" fill="#FF8C00"/>
<path d="M482.028 288.256H438.104V480.213H482.028C533.748 477.352 573.513 436.775 573.513 385.535C573.513 333.774 532.969 291.377 482.028 288.516V288.256ZM482.028 332.473C508.798 335.335 529.59 358.224 529.59 385.535C529.59 412.065 509.058 433.134 482.028 435.995V332.473Z" fill="#FF8C00"/>
<path d="M429.108 289.296L306.694 289.556V480.213H429.108V436.255H350.618V406.083H414.294V362.125H350.618V333.254H429.108V289.296Z" fill="#FF8C00"/>
<path d="M253.58 286.175V407.904C253.58 424.03 240.325 436.255 224.991 436.255C217.194 436.255 210.436 433.394 204.719 427.672C199.261 421.949 196.662 415.187 196.662 407.383L152.738 406.863C152.478 426.631 159.756 444.578 173.27 458.364C187.045 472.149 204.719 479.953 224.471 480.213H225.251C264.496 480.213 297.504 448.48 297.504 408.164V286.175H253.58Z" fill="#FF8C00"/>
<path d="M448.004 697.125C448.004 699.844 447.211 702.072 445.625 703.809C444.115 705.546 442.038 706.716 439.395 707.32C435.165 708.227 430.823 708.717 426.367 708.793C421.987 708.793 417.645 708.906 413.34 709.133V731.562C413.34 750.594 413.906 769.587 415.039 788.543C416.247 807.423 418.173 826.341 420.816 845.297C421.043 846.43 421.27 847.562 421.496 848.695C421.798 849.828 421.949 850.961 421.949 852.094C421.949 853.906 421.458 855.228 420.477 856.059C419.57 856.889 418.249 857.305 416.512 857.305C415.152 857.305 413.453 857.116 411.414 856.738C409.451 856.436 407.902 855.945 406.77 855.266C405.259 854.359 404.277 853.453 403.824 852.547C403.447 851.565 403.145 850.281 402.918 848.695C402.087 843.333 401.521 837.971 401.219 832.609C400.917 827.247 400.577 821.885 400.199 816.523C399.293 805.044 398.538 793.603 397.934 782.199C397.329 770.796 397.027 759.354 397.027 747.875C397.027 741.607 397.065 735.376 397.141 729.184C397.216 722.991 397.254 716.685 397.254 710.266C392.572 710.719 387.852 711.172 383.094 711.625C378.411 712.078 373.691 712.305 368.934 712.305C367.801 712.305 366.895 712.04 366.215 711.512C365.46 710.908 365.082 710.039 365.082 708.906C365.082 706.263 365.951 704.224 367.688 702.789C369.424 701.279 371.501 700.221 373.918 699.617C377.77 698.786 381.697 698.258 385.699 698.031C389.702 697.729 393.704 697.352 397.707 696.898C397.707 696.143 397.745 695.426 397.82 694.746C397.896 693.991 398.047 693.349 398.273 692.82C398.576 692.216 398.991 691.725 399.52 691.348C400.048 690.97 400.803 690.781 401.785 690.781C403.598 690.781 405.448 691.197 407.336 692.027C409.224 692.858 410.697 694.029 411.754 695.539L430.559 693.5C432.371 693.273 434.184 693.047 435.996 692.82C437.809 692.518 439.621 692.367 441.434 692.367C442.264 692.367 443.057 692.405 443.812 692.48C444.643 692.556 445.361 692.783 445.965 693.16C446.569 693.462 447.06 693.953 447.438 694.633C447.815 695.237 448.004 696.068 448.004 697.125ZM485.5 778.234C485.5 778.99 485.424 779.783 485.273 780.613C485.122 781.444 484.971 782.199 484.82 782.879C484.669 783.71 484.518 784.503 484.367 785.258C484.216 785.938 484.141 786.617 484.141 787.297C484.141 794.32 484.254 801.382 484.48 808.48C484.783 815.504 485.538 822.565 486.746 829.664C487.124 832.383 487.577 835.026 488.105 837.594C488.634 840.161 489.238 842.767 489.918 845.41L490.145 846.09V845.863C490.371 846.392 490.56 846.958 490.711 847.562C490.938 848.091 491.051 848.658 491.051 849.262C491.051 850.092 490.824 850.772 490.371 851.301C489.993 851.829 489.503 852.245 488.898 852.547C488.294 852.849 487.615 853.038 486.859 853.113C486.18 853.189 485.538 853.227 484.934 853.227C482.441 853.227 480.44 852.962 478.93 852.434C477.495 851.829 476.324 851.036 475.418 850.055C474.512 848.997 473.832 847.751 473.379 846.316C473.001 844.882 472.661 843.296 472.359 841.559L472.02 839.52C471.717 838.462 471.529 837.329 471.453 836.121C471.378 835.517 471.302 835.253 471.227 835.328C471.227 835.328 471.189 835.026 471.113 834.422C470.056 836.31 468.81 838.349 467.375 840.539C466.016 842.654 464.43 844.655 462.617 846.543C460.88 848.355 458.992 849.904 456.953 851.188C454.914 852.396 452.724 853 450.383 853C447.135 853 444.605 852.018 442.793 850.055C441.056 848.091 439.772 845.712 438.941 842.918C438.111 840.048 437.62 837.103 437.469 834.082C437.318 830.986 437.242 828.305 437.242 826.039C437.242 817.43 437.507 808.896 438.035 800.438C438.639 791.979 439.281 783.483 439.961 774.949C439.961 774.723 439.961 774.421 439.961 774.043C440.036 773.665 440.074 773.363 440.074 773.137C440.15 772.079 440.225 771.098 440.301 770.191C440.376 769.285 440.565 768.417 440.867 767.586V767.699C441.169 766.491 441.585 765.622 442.113 765.094C442.717 764.565 443.624 764.301 444.832 764.301C445.965 764.301 447.098 764.527 448.23 764.98C449.363 765.358 450.383 765.924 451.289 766.68C452.195 767.359 452.913 768.19 453.441 769.172C454.046 770.154 454.348 771.249 454.348 772.457C454.348 773.061 454.348 773.779 454.348 774.609C454.348 775.44 454.31 776.158 454.234 776.762C454.234 777.29 454.197 777.97 454.121 778.801C454.121 779.556 454.121 780.198 454.121 780.727C453.517 787.977 453.064 795.189 452.762 802.363C452.46 809.462 452.309 816.674 452.309 824C452.309 826.039 452.309 828.078 452.309 830.117C452.384 832.156 452.611 834.195 452.988 836.234C455.48 833.062 457.633 829.022 459.445 824.113C461.258 819.129 462.768 813.88 463.977 808.367C465.26 802.779 466.28 797.266 467.035 791.828C467.866 786.315 468.47 781.444 468.848 777.215C468.848 776.988 468.848 776.724 468.848 776.422C468.923 776.12 468.961 775.855 468.961 775.629C469.036 774.798 469.112 774.005 469.188 773.25C469.263 772.495 469.527 771.777 469.98 771.098C469.98 770.418 470.018 769.701 470.094 768.945C470.169 768.19 470.358 767.51 470.66 766.906C470.962 766.227 471.378 765.698 471.906 765.32C472.51 764.943 473.341 764.754 474.398 764.754C477.419 764.754 479.798 765.698 481.535 767.586C483.272 769.398 484.216 771.74 484.367 774.609C484.745 775.214 485.009 775.818 485.16 776.422C485.387 776.951 485.5 777.555 485.5 778.234ZM509.062 854.812C507.93 854.812 506.684 854.661 505.324 854.359C504.04 854.057 502.794 853.566 501.586 852.887C500.453 852.207 499.471 851.376 498.641 850.395C497.885 849.337 497.508 848.091 497.508 846.656C497.508 844.542 497.583 842.465 497.734 840.426C497.961 838.311 498.188 836.234 498.414 834.195V834.309L499.094 826.719C499.32 824 499.509 821.017 499.66 817.77C499.811 814.522 499.924 811.237 500 807.914C500.151 804.516 500.264 801.193 500.34 797.945C500.415 794.698 500.453 791.715 500.453 788.996C500.453 787.41 500.415 785.824 500.34 784.238C500.34 782.577 500.34 780.915 500.34 779.254C500.264 777.819 500.227 776.233 500.227 774.496C500.227 772.684 500.227 771.022 500.227 769.512C500.227 767.926 500.415 766.642 500.793 765.66C501.246 764.603 502.454 764.074 504.418 764.074C506.155 764.074 507.967 764.527 509.855 765.434C511.819 766.34 513.178 767.624 513.934 769.285H513.82C514.198 770.116 514.462 771.475 514.613 773.363C514.84 775.176 514.991 776.799 515.066 778.234C516.35 776.271 517.785 774.194 519.371 772.004C521.033 769.814 522.807 767.812 524.695 766C526.583 764.112 528.585 762.564 530.699 761.355C532.814 760.147 535.079 759.543 537.496 759.543C540.668 759.543 543.085 760.336 544.746 761.922C546.408 763.508 547.616 765.509 548.371 767.926C549.126 770.267 549.542 772.797 549.617 775.516C549.693 778.159 549.73 780.576 549.73 782.766V783.672C549.73 784.578 549.693 785.484 549.617 786.391C549.617 787.221 549.466 788.014 549.164 788.77C548.938 789.449 548.484 790.016 547.805 790.469C547.201 790.922 546.332 791.148 545.199 791.148C543.991 791.148 542.707 790.997 541.348 790.695C539.988 790.318 538.704 789.789 537.496 789.109C536.363 788.43 535.382 787.599 534.551 786.617C533.72 785.56 533.267 784.352 533.191 782.992C533.191 782.388 533.191 781.784 533.191 781.18C533.191 780.576 533.229 779.971 533.305 779.367C533.305 778.99 533.305 778.536 533.305 778.008C533.38 777.404 533.418 776.837 533.418 776.309C531.001 778.725 528.849 781.708 526.961 785.258C525.148 788.807 523.487 792.583 521.977 796.586C520.542 800.589 519.296 804.629 518.238 808.707C517.181 812.71 516.275 816.335 515.52 819.582V819.922C515.293 822.263 515.142 824.566 515.066 826.832C514.991 829.098 514.915 831.439 514.84 833.855C514.764 836.574 514.651 839.331 514.5 842.125C514.424 844.919 514.236 847.638 513.934 850.281C513.783 851.716 513.329 852.811 512.574 853.566C511.895 854.397 510.724 854.812 509.062 854.812ZM573.18 852.434C573.18 854.171 572.651 855.303 571.594 855.832C570.612 856.361 569.404 856.625 567.969 856.625C566.685 856.625 565.401 856.512 564.117 856.285C562.909 856.134 561.738 855.794 560.605 855.266C559.548 854.737 558.604 854.02 557.773 853.113C557.018 852.207 556.49 851.036 556.188 849.602C555.13 845.07 554.526 840.652 554.375 836.348C554.224 831.967 554.148 827.474 554.148 822.867V808.934C554.148 802.59 554.413 796.02 554.941 789.223C555.47 782.35 556.036 775.742 556.641 769.398C556.641 769.172 556.678 768.908 556.754 768.605C556.829 768.303 556.867 768.077 556.867 767.926C556.943 767.095 557.056 766.189 557.207 765.207C557.358 764.225 557.585 763.357 557.887 762.602C558.264 761.771 558.755 761.091 559.359 760.562C560.039 760.034 560.908 759.77 561.965 759.77C563.173 759.77 564.306 760.034 565.363 760.562C566.496 761.016 567.478 761.658 568.309 762.488C569.139 763.243 569.781 764.188 570.234 765.32C570.763 766.453 571.027 767.624 571.027 768.832C571.027 770.116 570.99 771.551 570.914 773.137C570.839 774.647 570.725 776.082 570.574 777.441C570.574 777.819 570.536 778.234 570.461 778.688C570.461 779.141 570.423 779.556 570.348 779.934C571.405 777.819 572.613 775.629 573.973 773.363C575.332 771.022 576.88 768.908 578.617 767.02C580.43 765.056 582.393 763.47 584.508 762.262C586.698 761.053 589.115 760.449 591.758 760.449C593.948 760.449 595.76 760.789 597.195 761.469C598.63 762.148 599.763 763.13 600.594 764.414C601.5 765.622 602.104 767.057 602.406 768.719C602.784 770.38 602.973 772.155 602.973 774.043C602.973 776.611 602.897 779.216 602.746 781.859C602.595 784.427 602.444 786.995 602.293 789.562C602.066 792.206 601.878 794.811 601.727 797.379C601.576 799.947 601.5 802.552 601.5 805.195C601.5 808.367 601.576 811.652 601.727 815.051C601.878 818.374 602.104 821.583 602.406 824.68C602.708 827.701 603.048 830.457 603.426 832.949C603.803 835.366 604.181 837.254 604.559 838.613C604.861 839.746 605.163 841.068 605.465 842.578C605.842 844.013 606.182 845.523 606.484 847.109C606.862 848.62 607.164 850.092 607.391 851.527C607.617 852.962 607.73 854.246 607.73 855.379C607.73 857.04 607.051 858.098 605.691 858.551C604.408 859.004 603.124 859.23 601.84 859.23C600.556 859.23 599.083 859.117 597.422 858.891C595.836 858.74 594.401 858.324 593.117 857.645C591.531 856.512 590.474 854.926 589.945 852.887C589.492 850.848 589.19 848.846 589.039 846.883L588.699 843.824C588.473 842.012 588.171 839.633 587.793 836.688C587.415 833.742 587.038 830.495 586.66 826.945C586.358 823.396 586.094 819.733 585.867 815.957C585.641 812.105 585.527 808.367 585.527 804.742C585.527 801.495 585.641 798.361 585.867 795.34C586.169 792.319 586.471 789.26 586.773 786.164C586.924 784.578 587.038 783.294 587.113 782.312C587.189 781.331 587.302 780.047 587.453 778.461C585.943 780.878 584.432 783.71 582.922 786.957C581.411 790.204 579.977 793.603 578.617 797.152C577.258 800.626 576.012 804.025 574.879 807.348C573.822 810.671 572.991 813.578 572.387 816.07L571.707 818.562C571.329 819.771 570.99 820.979 570.688 822.188C570.461 823.396 570.348 824.529 570.348 825.586C570.348 826.945 570.423 828.531 570.574 830.344C570.725 832.081 570.914 833.742 571.141 835.328C571.367 837.216 571.632 839.142 571.934 841.105C571.934 841.257 572.009 841.747 572.16 842.578C572.311 843.409 572.462 844.391 572.613 845.523C572.764 846.656 572.878 847.865 572.953 849.148C573.104 850.357 573.18 851.452 573.18 852.434ZM665.617 806.555C665.617 813.125 665.051 819.695 663.918 826.266C662.861 832.76 660.633 838.915 657.234 844.73C656.177 846.467 654.969 848.167 653.609 849.828C652.25 851.414 650.74 852.849 649.078 854.133C647.492 855.492 645.717 856.549 643.754 857.305C641.866 858.135 639.865 858.551 637.75 858.551C634.427 858.551 631.52 857.758 629.027 856.172C626.611 854.661 624.496 852.66 622.684 850.168C620.947 847.6 619.474 844.73 618.266 841.559C617.133 838.311 616.227 835.026 615.547 831.703C614.943 828.305 614.49 825.02 614.188 821.848C613.961 818.676 613.848 815.882 613.848 813.465C613.848 810.746 613.961 807.763 614.188 804.516C614.414 801.268 614.792 797.945 615.32 794.547C615.924 791.148 616.68 787.788 617.586 784.465C618.568 781.142 619.814 778.046 621.324 775.176C622.835 772.23 624.647 769.625 626.762 767.359C628.876 765.018 631.331 763.168 634.125 761.809V761.922C636.542 760.638 638.958 759.996 641.375 759.996C642.885 759.996 644.056 760.336 644.887 761.016C645.717 761.62 646.095 762.677 646.02 764.188C650.173 764.943 653.534 766.944 656.102 770.191C658.669 773.439 660.633 777.215 661.992 781.52C663.427 785.824 664.371 790.242 664.824 794.773C665.353 799.305 665.617 803.232 665.617 806.555ZM640.016 778.234C638.732 778.234 637.523 777.743 636.391 776.762C634.956 778.952 633.747 781.482 632.766 784.352C631.784 787.146 630.991 790.053 630.387 793.074C629.858 796.02 629.48 799.003 629.254 802.023C629.027 805.044 628.914 807.876 628.914 810.52C628.914 812.71 629.027 815.542 629.254 819.016C629.48 822.414 629.896 825.85 630.5 829.324C631.18 832.798 632.086 836.046 633.219 839.066C634.427 842.087 635.975 844.315 637.863 845.75C640.204 844.391 642.13 842.238 643.641 839.293C645.227 836.272 646.473 832.987 647.379 829.438C648.285 825.888 648.889 822.301 649.191 818.676C649.569 815.051 649.758 811.954 649.758 809.387C649.758 807.499 649.645 805.044 649.418 802.023C649.191 799.003 648.814 795.944 648.285 792.848C647.757 789.676 647.001 786.73 646.02 784.012C645.113 781.293 643.943 779.254 642.508 777.895C641.828 778.121 640.997 778.234 640.016 778.234ZM715.688 770.871C715.688 781.293 714.857 791.564 713.195 801.684C711.609 811.803 709.684 821.885 707.418 831.93C707.116 832.911 706.927 833.742 706.852 834.422C706.398 836.612 705.908 838.878 705.379 841.219C704.926 843.484 704.171 845.75 703.113 848.016C702.132 849.904 700.772 851.565 699.035 853C697.374 854.359 695.523 855.039 693.484 855.039C692.654 855.039 691.785 854.85 690.879 854.473C689.973 854.095 688.991 853.604 687.934 853C686.423 851.943 685.29 850.508 684.535 848.695C683.78 846.807 683.138 844.882 682.609 842.918L682.383 842.125V842.238C681.099 837.329 680.004 832.421 679.098 827.512C678.267 822.603 677.436 817.656 676.605 812.672C676.152 809.576 675.699 806.517 675.246 803.496C674.793 800.4 674.264 797.341 673.66 794.32L672.074 787.637C671.697 786.126 671.281 784.503 670.828 782.766C670.451 780.953 670.073 779.254 669.695 777.668C669.318 776.082 669.016 774.685 668.789 773.477C668.562 772.193 668.449 771.324 668.449 770.871C668.449 769.436 668.902 768.492 669.809 768.039C670.79 767.51 671.885 767.246 673.094 767.246C675.51 767.246 677.625 767.775 679.438 768.832C681.326 769.889 682.685 771.626 683.516 774.043C683.969 775.327 684.346 776.686 684.648 778.121C685.026 779.556 685.328 780.991 685.555 782.426C686.839 787.41 688.047 792.697 689.18 798.285C690.388 803.798 691.408 809.122 692.238 814.258L693.258 820.035C693.333 820.413 693.371 820.715 693.371 820.941C693.371 821.168 693.371 821.357 693.371 821.508C693.447 821.659 693.484 821.848 693.484 822.074C693.56 822.301 693.635 822.641 693.711 823.094C695.372 815.089 696.77 807.083 697.902 799.078C699.035 790.997 699.602 782.879 699.602 774.723C699.602 773.061 699.488 771.438 699.262 769.852C699.111 768.266 698.922 766.604 698.695 764.867C698.469 763.281 698.242 761.658 698.016 759.996C697.865 758.259 697.789 756.522 697.789 754.785C697.789 753.199 698.28 752.104 699.262 751.5C700.243 750.896 701.452 750.594 702.887 750.594C704.624 750.594 706.21 750.707 707.645 750.934C709.079 751.16 710.326 751.613 711.383 752.293C712.44 752.897 713.309 753.803 713.988 755.012C714.668 756.145 715.121 757.655 715.348 759.543C715.499 761.28 715.574 763.168 715.574 765.207C715.65 767.171 715.688 769.059 715.688 770.871Z" fill="white"/>
</g>
<defs>
<clipPath id="clip0_106_966">
<rect width="1060" height="1060" fill="white"/>
</clipPath>
</defs>
</svg>
