<svg width="1060" height="1060" viewBox="0 0 1060 1060" fill="none" xmlns="http://www.w3.org/2000/svg">
<g clip-path="url(#clip0_106_382)">
<rect width="1060" height="1060" fill="white"/>
<path d="M790.229 490.783V535.001H826.616V682.48H870.539V535.001H907.185V490.783H790.229Z" fill="black"/>
<path d="M781.053 491.563L658.641 491.823V682.48H781.053V638.522H702.563V608.35H766.239V564.392H702.563V535.521H781.053V491.563Z" fill="black"/>
<path d="M581.987 682.22C606.937 682.22 630.848 673.116 649.561 654.389L618.633 623.176C598.36 643.464 565.613 643.204 545.6 623.176C535.984 613.032 530.526 600.547 530.526 586.761C530.526 572.976 535.984 560.231 545.6 550.087C565.613 530.059 598.36 529.799 618.633 550.087L649.561 519.134C612.135 481.679 551.838 481.679 514.412 519.134C496.479 537.081 486.603 560.751 486.603 586.761C486.603 612.512 496.479 635.921 514.412 654.389C533.125 673.116 557.296 682.22 581.987 682.22Z" fill="black"/>
<path d="M1002.63 638.042C994.742 669.725 962.684 689.003 931.026 681.099C899.388 673.206 880.125 641.123 888.022 609.441C895.909 577.766 927.967 558.487 959.606 566.384C991.264 574.282 1010.53 606.369 1002.63 638.042Z" fill="#F7931A"/>
<path d="M971.371 615.323C972.55 607.45 966.562 603.222 958.375 600.401L961.035 589.744L954.547 588.126L951.968 598.503C950.259 598.078 948.509 597.678 946.77 597.28L949.379 586.835L942.901 585.218L940.242 595.872C938.833 595.551 937.443 595.233 936.104 594.899L936.114 594.865L927.167 592.631L925.448 599.561C925.448 599.561 930.256 600.663 930.156 600.732C932.775 601.388 933.255 603.126 933.175 604.505L930.146 616.644C930.326 616.694 930.566 616.764 930.826 616.864C930.606 616.814 930.376 616.754 930.136 616.694L925.898 633.7C925.578 634.501 924.768 635.701 922.929 635.241C922.989 635.331 918.221 634.061 918.221 634.061L915.002 641.494L923.439 643.594C925.008 643.985 926.538 644.405 928.057 644.785L925.368 655.569L931.846 657.19L934.504 646.516C936.274 646.996 937.993 647.446 939.673 647.866L937.024 658.48L943.501 660.091L946.19 649.337C957.246 651.428 965.553 650.587 969.052 640.573C971.87 632.52 968.912 627.878 963.094 624.847C967.332 623.867 970.521 621.075 971.371 615.323ZM956.566 636.101C954.557 644.165 941.002 639.803 936.614 638.712L940.172 624.437C944.561 625.527 958.655 627.698 956.566 636.101ZM958.565 615.203C956.736 622.536 945.46 618.804 941.802 617.894L945.031 604.943C948.689 605.855 960.475 607.56 958.565 615.203Z" fill="white"/>
<path d="M502.908 682.87L441.311 491.954H399.726L334.751 682.87H381.273L389.071 659.721H449.108L456.645 682.87H502.908ZM419.999 569.465L435.073 615.763H404.145L419.999 569.465Z" fill="black"/>
<path d="M304.083 608.48L267.436 490.393H221.174L282.771 682.87H324.355L389.33 490.393H342.808L304.083 608.48Z" fill="black"/>
<path d="M146.202 490.913H102.278V682.87H146.202C197.922 680.009 237.687 639.432 237.687 588.192C237.687 536.431 197.143 494.034 146.202 491.173V490.913ZM146.202 535.131C172.972 537.992 193.764 560.881 193.764 588.192C193.764 614.723 173.232 635.791 146.202 638.652V535.131Z" fill="black"/>
<path d="M906.866 480.213L845.269 289.296H803.684L738.709 480.213H785.231L793.029 457.063H853.066L860.603 480.213H906.866ZM823.957 366.807L839.031 413.106H808.103L823.957 366.807Z" fill="black"/>
<path d="M692.589 400.881L630.472 289.816H582.65V480.213H626.574V368.888L688.95 480.213H736.51V289.296H692.589V400.881Z" fill="black"/>
<path d="M482.028 288.256H438.104V480.213H482.028C533.748 477.352 573.513 436.775 573.513 385.535C573.513 333.774 532.969 291.377 482.028 288.516V288.256ZM482.028 332.473C508.798 335.335 529.59 358.224 529.59 385.535C529.59 412.065 509.058 433.134 482.028 435.995V332.473Z" fill="black"/>
<path d="M429.108 289.296L306.694 289.556V480.213H429.108V436.255H350.618V406.083H414.294V362.125H350.618V333.254H429.108V289.296Z" fill="black"/>
<path d="M253.58 286.175V407.904C253.58 424.03 240.325 436.255 224.991 436.255C217.194 436.255 210.436 433.394 204.719 427.672C199.261 421.949 196.662 415.187 196.662 407.383L152.738 406.863C152.478 426.631 159.756 444.578 173.27 458.364C187.045 472.149 204.719 479.953 224.471 480.213H225.251C264.496 480.213 297.504 448.48 297.504 408.164V286.175H253.58Z" fill="black"/>
<path d="M497.848 808.594C497.848 817.43 496.413 825.133 493.543 831.703C490.749 838.273 486.822 843.749 481.762 848.129C476.702 852.509 470.66 855.757 463.637 857.871C456.689 860.061 449.061 861.156 440.754 861.156H436.902C436.147 861.156 435.014 861.118 433.504 861.043C431.993 861.043 430.445 860.892 428.859 860.59C427.349 860.363 425.99 859.948 424.781 859.344C423.648 858.74 423.082 857.909 423.082 856.852C423.082 855.643 423.346 854.435 423.875 853.227C424.479 852.094 425.234 851.074 426.141 850.168C427.047 849.186 428.066 848.393 429.199 847.789C430.332 847.109 431.465 846.656 432.598 846.43C431.993 845.674 431.54 844.655 431.238 843.371C430.936 842.087 430.672 840.728 430.445 839.293C430.219 837.858 430.03 836.461 429.879 835.102C429.803 833.667 429.728 832.458 429.652 831.477C428.293 819.771 427.122 808.103 426.141 796.473C425.159 784.842 424.668 773.099 424.668 761.242C424.668 753.69 424.781 746.214 425.008 738.812C425.234 731.411 425.423 723.935 425.574 716.383C425.725 713.286 425.763 710.228 425.688 707.207C425.688 704.186 425.801 701.128 426.027 698.031C425.574 698.182 425.083 698.258 424.555 698.258C424.026 698.258 423.46 698.258 422.855 698.258C421.723 698.258 420.59 698.069 419.457 697.691C418.4 697.238 417.871 696.219 417.871 694.633C417.871 692.669 418.286 691.083 419.117 689.875C419.948 688.667 421.005 687.76 422.289 687.156C423.573 686.477 425.008 686.061 426.594 685.91C428.255 685.684 429.879 685.57 431.465 685.57C438.715 685.57 445.738 686.477 452.535 688.289C459.332 690.102 465.336 692.896 470.547 696.672C475.758 700.448 479.949 705.281 483.121 711.172C486.293 716.987 487.879 723.935 487.879 732.016C487.879 738.661 486.671 745.005 484.254 751.047C481.837 757.089 478.288 762.451 473.605 767.133C477.835 768.945 481.46 771.324 484.48 774.27C487.577 777.139 490.107 780.387 492.07 784.012C494.034 787.637 495.469 791.564 496.375 795.793C497.357 799.947 497.848 804.214 497.848 808.594ZM470.66 730.43C470.66 725.898 469.943 721.896 468.508 718.422C467.073 714.872 465.072 711.814 462.504 709.246C459.936 706.603 456.878 704.488 453.328 702.902C449.779 701.241 445.889 699.995 441.66 699.164C441.811 699.542 441.887 699.882 441.887 700.184C441.887 700.486 441.887 700.75 441.887 700.977C441.887 708.151 441.811 715.25 441.66 722.273C441.509 729.221 441.434 736.245 441.434 743.344V755.125C441.434 756.635 441.471 758.184 441.547 759.77C441.622 761.28 441.66 762.828 441.66 764.414C443.624 763.583 445.587 763.168 447.551 763.168C449.59 763.092 451.629 763.055 453.668 763.055C459.332 759.505 463.561 754.861 466.355 749.121C469.225 743.306 470.66 737.076 470.66 730.43ZM480.855 808.367C480.855 804.742 480.516 801.23 479.836 797.832C479.232 794.434 478.137 791.337 476.551 788.543C474.965 785.673 472.888 783.219 470.32 781.18C467.753 779.141 464.543 777.63 460.691 776.648C454.952 779.896 448.835 782.086 442.34 783.219C442.944 791.753 443.661 800.286 444.492 808.82C445.398 817.279 446.645 825.737 448.23 834.195C448.608 836.159 449.023 838.122 449.477 840.086C450.005 841.974 450.345 843.938 450.496 845.977C455.556 845.297 459.974 843.9 463.75 841.785C467.602 839.595 470.773 836.876 473.266 833.629C475.833 830.306 477.721 826.492 478.93 822.188C480.214 817.883 480.855 813.276 480.855 808.367ZM515.066 854.812C513.934 854.812 512.688 854.661 511.328 854.359C510.044 854.057 508.798 853.566 507.59 852.887C506.457 852.207 505.475 851.376 504.645 850.395C503.889 849.337 503.512 848.091 503.512 846.656C503.512 844.542 503.587 842.465 503.738 840.426C503.965 838.311 504.191 836.234 504.418 834.195V834.309L505.098 826.719C505.324 824 505.513 821.017 505.664 817.77C505.815 814.522 505.928 811.237 506.004 807.914C506.155 804.516 506.268 801.193 506.344 797.945C506.419 794.698 506.457 791.715 506.457 788.996C506.457 787.41 506.419 785.824 506.344 784.238C506.344 782.577 506.344 780.915 506.344 779.254C506.268 777.819 506.23 776.233 506.23 774.496C506.23 772.684 506.23 771.022 506.23 769.512C506.23 767.926 506.419 766.642 506.797 765.66C507.25 764.603 508.458 764.074 510.422 764.074C512.159 764.074 513.971 764.527 515.859 765.434C517.823 766.34 519.182 767.624 519.938 769.285H519.824C520.202 770.116 520.466 771.475 520.617 773.363C520.844 775.176 520.995 776.799 521.07 778.234C522.354 776.271 523.789 774.194 525.375 772.004C527.036 769.814 528.811 767.812 530.699 766C532.587 764.112 534.589 762.564 536.703 761.355C538.818 760.147 541.083 759.543 543.5 759.543C546.672 759.543 549.089 760.336 550.75 761.922C552.411 763.508 553.62 765.509 554.375 767.926C555.13 770.267 555.546 772.797 555.621 775.516C555.697 778.159 555.734 780.576 555.734 782.766V783.672C555.734 784.578 555.697 785.484 555.621 786.391C555.621 787.221 555.47 788.014 555.168 788.77C554.941 789.449 554.488 790.016 553.809 790.469C553.204 790.922 552.336 791.148 551.203 791.148C549.995 791.148 548.711 790.997 547.352 790.695C545.992 790.318 544.708 789.789 543.5 789.109C542.367 788.43 541.385 787.599 540.555 786.617C539.724 785.56 539.271 784.352 539.195 782.992C539.195 782.388 539.195 781.784 539.195 781.18C539.195 780.576 539.233 779.971 539.309 779.367C539.309 778.99 539.309 778.536 539.309 778.008C539.384 777.404 539.422 776.837 539.422 776.309C537.005 778.725 534.853 781.708 532.965 785.258C531.152 788.807 529.491 792.583 527.98 796.586C526.546 800.589 525.299 804.629 524.242 808.707C523.185 812.71 522.279 816.335 521.523 819.582V819.922C521.297 822.263 521.146 824.566 521.07 826.832C520.995 829.098 520.919 831.439 520.844 833.855C520.768 836.574 520.655 839.331 520.504 842.125C520.428 844.919 520.24 847.638 519.938 850.281C519.786 851.716 519.333 852.811 518.578 853.566C517.898 854.397 516.728 854.812 515.066 854.812ZM579.184 852.434C579.184 854.171 578.655 855.303 577.598 855.832C576.616 856.361 575.408 856.625 573.973 856.625C572.689 856.625 571.405 856.512 570.121 856.285C568.913 856.134 567.742 855.794 566.609 855.266C565.552 854.737 564.608 854.02 563.777 853.113C563.022 852.207 562.493 851.036 562.191 849.602C561.134 845.07 560.53 840.652 560.379 836.348C560.228 831.967 560.152 827.474 560.152 822.867V808.934C560.152 802.59 560.417 796.02 560.945 789.223C561.474 782.35 562.04 775.742 562.645 769.398C562.645 769.172 562.682 768.908 562.758 768.605C562.833 768.303 562.871 768.077 562.871 767.926C562.947 767.095 563.06 766.189 563.211 765.207C563.362 764.225 563.589 763.357 563.891 762.602C564.268 761.771 564.759 761.091 565.363 760.562C566.043 760.034 566.911 759.77 567.969 759.77C569.177 759.77 570.31 760.034 571.367 760.562C572.5 761.016 573.482 761.658 574.312 762.488C575.143 763.243 575.785 764.188 576.238 765.32C576.767 766.453 577.031 767.624 577.031 768.832C577.031 770.116 576.993 771.551 576.918 773.137C576.842 774.647 576.729 776.082 576.578 777.441C576.578 777.819 576.54 778.234 576.465 778.688C576.465 779.141 576.427 779.556 576.352 779.934C577.409 777.819 578.617 775.629 579.977 773.363C581.336 771.022 582.884 768.908 584.621 767.02C586.434 765.056 588.397 763.47 590.512 762.262C592.702 761.053 595.118 760.449 597.762 760.449C599.952 760.449 601.764 760.789 603.199 761.469C604.634 762.148 605.767 763.13 606.598 764.414C607.504 765.622 608.108 767.057 608.41 768.719C608.788 770.38 608.977 772.155 608.977 774.043C608.977 776.611 608.901 779.216 608.75 781.859C608.599 784.427 608.448 786.995 608.297 789.562C608.07 792.206 607.882 794.811 607.73 797.379C607.579 799.947 607.504 802.552 607.504 805.195C607.504 808.367 607.579 811.652 607.73 815.051C607.882 818.374 608.108 821.583 608.41 824.68C608.712 827.701 609.052 830.457 609.43 832.949C609.807 835.366 610.185 837.254 610.562 838.613C610.865 839.746 611.167 841.068 611.469 842.578C611.846 844.013 612.186 845.523 612.488 847.109C612.866 848.62 613.168 850.092 613.395 851.527C613.621 852.962 613.734 854.246 613.734 855.379C613.734 857.04 613.055 858.098 611.695 858.551C610.411 859.004 609.128 859.23 607.844 859.23C606.56 859.23 605.087 859.117 603.426 858.891C601.84 858.74 600.405 858.324 599.121 857.645C597.535 856.512 596.478 854.926 595.949 852.887C595.496 850.848 595.194 848.846 595.043 846.883L594.703 843.824C594.477 842.012 594.174 839.633 593.797 836.688C593.419 833.742 593.042 830.495 592.664 826.945C592.362 823.396 592.098 819.733 591.871 815.957C591.645 812.105 591.531 808.367 591.531 804.742C591.531 801.495 591.645 798.361 591.871 795.34C592.173 792.319 592.475 789.26 592.777 786.164C592.928 784.578 593.042 783.294 593.117 782.312C593.193 781.331 593.306 780.047 593.457 778.461C591.947 780.878 590.436 783.71 588.926 786.957C587.415 790.204 585.98 793.603 584.621 797.152C583.262 800.626 582.016 804.025 580.883 807.348C579.826 810.671 578.995 813.578 578.391 816.07L577.711 818.562C577.333 819.771 576.993 820.979 576.691 822.188C576.465 823.396 576.352 824.529 576.352 825.586C576.352 826.945 576.427 828.531 576.578 830.344C576.729 832.081 576.918 833.742 577.145 835.328C577.371 837.216 577.635 839.142 577.938 841.105C577.938 841.257 578.013 841.747 578.164 842.578C578.315 843.409 578.466 844.391 578.617 845.523C578.768 846.656 578.882 847.865 578.957 849.148C579.108 850.357 579.184 851.452 579.184 852.434ZM671.621 806.555C671.621 813.125 671.055 819.695 669.922 826.266C668.865 832.76 666.637 838.915 663.238 844.73C662.181 846.467 660.973 848.167 659.613 849.828C658.254 851.414 656.743 852.849 655.082 854.133C653.496 855.492 651.721 856.549 649.758 857.305C647.87 858.135 645.868 858.551 643.754 858.551C640.431 858.551 637.523 857.758 635.031 856.172C632.615 854.661 630.5 852.66 628.688 850.168C626.951 847.6 625.478 844.73 624.27 841.559C623.137 838.311 622.23 835.026 621.551 831.703C620.947 828.305 620.493 825.02 620.191 821.848C619.965 818.676 619.852 815.882 619.852 813.465C619.852 810.746 619.965 807.763 620.191 804.516C620.418 801.268 620.796 797.945 621.324 794.547C621.928 791.148 622.684 787.788 623.59 784.465C624.572 781.142 625.818 778.046 627.328 775.176C628.839 772.23 630.651 769.625 632.766 767.359C634.88 765.018 637.335 763.168 640.129 761.809V761.922C642.546 760.638 644.962 759.996 647.379 759.996C648.889 759.996 650.06 760.336 650.891 761.016C651.721 761.62 652.099 762.677 652.023 764.188C656.177 764.943 659.538 766.944 662.105 770.191C664.673 773.439 666.637 777.215 667.996 781.52C669.431 785.824 670.375 790.242 670.828 794.773C671.357 799.305 671.621 803.232 671.621 806.555ZM646.02 778.234C644.736 778.234 643.527 777.743 642.395 776.762C640.96 778.952 639.751 781.482 638.77 784.352C637.788 787.146 636.995 790.053 636.391 793.074C635.862 796.02 635.484 799.003 635.258 802.023C635.031 805.044 634.918 807.876 634.918 810.52C634.918 812.71 635.031 815.542 635.258 819.016C635.484 822.414 635.9 825.85 636.504 829.324C637.184 832.798 638.09 836.046 639.223 839.066C640.431 842.087 641.979 844.315 643.867 845.75C646.208 844.391 648.134 842.238 649.645 839.293C651.23 836.272 652.477 832.987 653.383 829.438C654.289 825.888 654.893 822.301 655.195 818.676C655.573 815.051 655.762 811.954 655.762 809.387C655.762 807.499 655.648 805.044 655.422 802.023C655.195 799.003 654.818 795.944 654.289 792.848C653.76 789.676 653.005 786.73 652.023 784.012C651.117 781.293 649.947 779.254 648.512 777.895C647.832 778.121 647.001 778.234 646.02 778.234Z" fill="#F7931A"/>
</g>
<defs>
<clipPath id="clip0_106_382">
<rect width="1060" height="1060" fill="white"/>
</clipPath>
</defs>
</svg>
