<svg width="1060" height="1060" viewBox="0 0 1060 1060" fill="none" xmlns="http://www.w3.org/2000/svg">
<g clip-path="url(#clip0_126_3)">
<rect width="1060" height="1060" fill="black"/>
<path d="M790.229 490.783V535.001H826.616V682.48H870.539V535.001H907.185V490.783H790.229Z" fill="#FF8C00"/>
<path d="M781.053 491.563L658.641 491.823V682.48H781.053V638.522H702.563V608.35H766.239V564.392H702.563V535.521H781.053V491.563Z" fill="#FF8C00"/>
<path d="M581.987 682.22C606.937 682.22 630.848 673.116 649.561 654.389L618.633 623.176C598.36 643.464 565.613 643.204 545.6 623.176C535.984 613.032 530.526 600.547 530.526 586.761C530.526 572.976 535.984 560.231 545.6 550.087C565.613 530.059 598.36 529.799 618.633 550.087L649.561 519.134C612.135 481.679 551.838 481.679 514.412 519.134C496.479 537.081 486.603 560.751 486.603 586.761C486.603 612.512 496.479 635.921 514.412 654.389C533.125 673.116 557.296 682.22 581.987 682.22Z" fill="#FF8C00"/>
<path d="M1002.63 638.042C994.742 669.725 962.684 689.003 931.026 681.099C899.388 673.206 880.125 641.123 888.022 609.441C895.909 577.766 927.967 558.487 959.606 566.384C991.264 574.282 1010.53 606.369 1002.63 638.042Z" fill="white"/>
<path d="M971.371 615.323C972.55 607.45 966.562 603.222 958.375 600.401L961.035 589.744L954.547 588.126L951.968 598.503C950.259 598.078 948.509 597.678 946.77 597.28L949.379 586.835L942.901 585.218L940.242 595.872C938.833 595.551 937.443 595.233 936.104 594.899L936.114 594.865L927.167 592.631L925.448 599.561C925.448 599.561 930.256 600.663 930.156 600.732C932.775 601.388 933.255 603.126 933.175 604.505L930.146 616.644C930.326 616.694 930.566 616.764 930.826 616.864C930.606 616.814 930.376 616.754 930.136 616.694L925.898 633.7C925.578 634.501 924.768 635.701 922.929 635.241C922.989 635.331 918.221 634.061 918.221 634.061L915.002 641.494L923.439 643.594C925.008 643.985 926.538 644.405 928.057 644.785L925.368 655.569L931.846 657.19L934.504 646.516C936.274 646.996 937.993 647.446 939.673 647.866L937.024 658.48L943.501 660.091L946.19 649.337C957.246 651.428 965.553 650.587 969.052 640.573C971.87 632.52 968.912 627.878 963.094 624.847C967.332 623.867 970.521 621.075 971.371 615.323ZM956.566 636.101C954.557 644.165 941.002 639.803 936.614 638.712L940.172 624.437C944.561 625.527 958.655 627.698 956.566 636.101ZM958.565 615.203C956.736 622.536 945.46 618.804 941.802 617.894L945.031 604.943C948.689 605.855 960.475 607.56 958.565 615.203Z" fill="black"/>
<path d="M502.908 682.87L441.311 491.954H399.726L334.751 682.87H381.273L389.071 659.721H449.108L456.645 682.87H502.908ZM419.999 569.465L435.073 615.763H404.145L419.999 569.465Z" fill="#FF8C00"/>
<path d="M304.083 608.48L267.436 490.393H221.174L282.771 682.87H324.355L389.33 490.393H342.808L304.083 608.48Z" fill="#FF8C00"/>
<path d="M146.202 490.913H102.278V682.87H146.202C197.922 680.009 237.687 639.432 237.687 588.192C237.687 536.431 197.143 494.034 146.202 491.173V490.913ZM146.202 535.131C172.972 537.992 193.764 560.881 193.764 588.192C193.764 614.723 173.232 635.791 146.202 638.652V535.131Z" fill="#FF8C00"/>
<path d="M906.866 480.213L845.269 289.296H803.684L738.709 480.213H785.231L793.029 457.063H853.066L860.603 480.213H906.866ZM823.957 366.807L839.031 413.106H808.103L823.957 366.807Z" fill="#FF8C00"/>
<path d="M692.589 400.881L630.472 289.816H582.65V480.213H626.574V368.888L688.95 480.213H736.51V289.296H692.589V400.881Z" fill="#FF8C00"/>
<path d="M482.028 288.256H438.104V480.213H482.028C533.748 477.352 573.513 436.775 573.513 385.535C573.513 333.774 532.969 291.377 482.028 288.516V288.256ZM482.028 332.473C508.798 335.335 529.59 358.224 529.59 385.535C529.59 412.065 509.058 433.134 482.028 435.995V332.473Z" fill="#FF8C00"/>
<path d="M429.108 289.296L306.694 289.556V480.213H429.108V436.255H350.618V406.083H414.294V362.125H350.618V333.254H429.108V289.296Z" fill="#FF8C00"/>
<path d="M253.58 286.175V407.904C253.58 424.03 240.325 436.255 224.991 436.255C217.194 436.255 210.436 433.394 204.719 427.672C199.261 421.949 196.662 415.187 196.662 407.383L152.738 406.863C152.478 426.631 159.756 444.578 173.27 458.364C187.045 472.149 204.719 479.953 224.471 480.213H225.251C264.496 480.213 297.504 448.48 297.504 408.164V286.175H253.58Z" fill="#FF8C00"/>
<path d="M518.805 840.312C518.805 842.503 518.238 844.542 517.105 846.43C516.048 848.318 514.5 849.677 512.461 850.508C511.781 850.81 510.309 851.074 508.043 851.301C505.777 851.452 503.059 851.603 499.887 851.754C496.715 851.905 493.316 852.018 489.691 852.094C486.066 852.169 482.592 852.245 479.27 852.32C475.947 852.32 473.001 852.32 470.434 852.32C467.866 852.32 466.016 852.32 464.883 852.32C464.43 853.151 463.788 853.831 462.957 854.359C462.126 854.964 461.182 855.266 460.125 855.266C459.143 855.266 457.973 855.001 456.613 854.473C455.254 854.02 453.932 853.378 452.648 852.547C451.44 851.716 450.383 850.772 449.477 849.715C448.57 848.658 448.117 847.562 448.117 846.43C448.117 845.448 448.344 844.164 448.797 842.578C449.25 840.992 449.779 839.368 450.383 837.707C451.062 835.97 451.704 834.271 452.309 832.609C452.913 830.948 453.404 829.589 453.781 828.531L476.438 762.375L488.445 727.711C489.805 723.859 491.089 720.008 492.297 716.156C493.581 712.229 495.091 708.378 496.828 704.602C494.411 704.753 491.995 704.866 489.578 704.941C487.161 705.017 484.745 705.055 482.328 705.055C481.648 705.055 480.44 705.055 478.703 705.055C477.042 705.055 475.116 705.055 472.926 705.055C470.811 704.979 468.546 704.941 466.129 704.941C463.788 704.866 461.56 704.79 459.445 704.715C457.406 704.564 455.632 704.413 454.121 704.262C452.686 704.111 451.818 703.922 451.516 703.695C450.458 703.167 449.93 702.336 449.93 701.203C449.93 699.013 450.647 697.314 452.082 696.105C453.517 694.822 455.254 693.878 457.293 693.273C459.332 692.669 461.447 692.292 463.637 692.141C465.902 691.99 467.828 691.914 469.414 691.914C471.227 691.914 473.039 691.99 474.852 692.141C476.664 692.292 478.477 692.367 480.289 692.367C484.065 692.367 487.803 692.216 491.504 691.914C495.204 691.612 498.867 691.461 502.492 691.461C503.776 691.461 505.173 691.612 506.684 691.914C508.194 692.141 509.553 692.594 510.762 693.273C512.046 693.878 513.103 694.708 513.934 695.766C514.764 696.823 515.18 698.182 515.18 699.844C515.18 701.203 514.915 702.449 514.387 703.582C513.858 704.639 513.292 705.81 512.688 707.094C510.044 713.513 507.703 719.97 505.664 726.465C503.625 732.884 501.51 739.341 499.32 745.836C494.109 761.469 489.012 777.064 484.027 792.621C479.118 808.103 474.096 823.698 468.961 839.406C472.057 839.255 475.154 839.142 478.25 839.066C481.346 838.915 484.443 838.727 487.539 838.5C491.844 838.122 496.148 837.632 500.453 837.027C504.758 836.348 509.138 836.008 513.594 836.008C514.953 836.008 516.161 836.348 517.219 837.027C518.276 837.632 518.805 838.727 518.805 840.312ZM550.637 856.285C550.637 857.342 550.372 858.211 549.844 858.891C549.315 859.57 548.635 860.099 547.805 860.477C547.049 860.93 546.181 861.232 545.199 861.383C544.293 861.609 543.462 861.723 542.707 861.723C540.064 861.723 537.76 860.967 535.797 859.457C533.833 857.947 532.134 855.983 530.699 853.566C529.264 851.225 528.094 848.544 527.188 845.523C526.281 842.427 525.526 839.368 524.922 836.348C524.318 833.251 523.865 830.306 523.562 827.512C523.26 824.642 523.034 822.188 522.883 820.148C522.203 813.125 521.712 805.988 521.41 798.738C521.184 791.488 521.07 784.314 521.07 777.215C521.07 757.806 521.75 738.586 523.109 719.555C523.109 719.253 523.109 718.913 523.109 718.535C523.185 718.158 523.223 717.78 523.223 717.402C523.298 715.816 523.374 714.004 523.449 711.965C523.525 709.85 523.638 707.773 523.789 705.734C523.94 703.695 524.091 701.845 524.242 700.184C524.469 698.447 524.733 697.238 525.035 696.559V696.672C525.337 695.615 525.753 694.822 526.281 694.293C526.81 693.764 527.716 693.5 529 693.5C531.719 693.5 534.022 694.406 535.91 696.219C537.798 698.031 538.742 700.297 538.742 703.016C538.742 703.62 538.704 704.224 538.629 704.828C538.629 705.357 538.591 705.885 538.516 706.414C538.44 706.943 538.365 707.471 538.289 708C538.289 708.453 538.289 708.868 538.289 709.246C538.062 712.191 537.874 715.137 537.723 718.082C537.647 720.952 537.534 723.859 537.383 726.805C537.005 733.299 536.703 739.794 536.477 746.289C536.326 752.708 536.25 759.203 536.25 765.773C536.25 768.568 536.288 772.23 536.363 776.762C536.439 781.293 536.59 786.24 536.816 791.602C537.043 796.888 537.345 802.363 537.723 808.027C538.176 813.691 538.742 819.091 539.422 824.227C540.102 829.362 540.895 834.007 541.801 838.16C542.783 842.314 543.915 845.523 545.199 847.789C545.879 848.091 546.521 848.582 547.125 849.262C547.805 849.866 548.371 850.583 548.824 851.414C549.353 852.169 549.768 852.962 550.07 853.793C550.448 854.699 550.637 855.53 550.637 856.285ZM572.387 848.016C572.387 849.753 571.971 850.999 571.141 851.754C570.385 852.434 569.139 852.773 567.402 852.773C566.496 852.773 565.477 852.66 564.344 852.434C563.286 852.207 562.229 851.905 561.172 851.527C560.115 851.074 559.133 850.546 558.227 849.941C557.32 849.337 556.641 848.658 556.188 847.902C555.885 847.449 555.621 846.052 555.395 843.711C555.168 841.37 554.979 838.462 554.828 834.988C554.753 831.514 554.639 827.625 554.488 823.32C554.413 819.016 554.337 814.673 554.262 810.293C554.262 805.913 554.262 801.646 554.262 797.492C554.262 793.339 554.262 789.714 554.262 786.617V777.895C554.262 777.139 554.262 776.384 554.262 775.629C554.337 774.874 554.488 774.232 554.715 773.703C555.017 773.099 555.432 772.608 555.961 772.23C556.565 771.853 557.396 771.664 558.453 771.664C561.776 771.664 564.193 772.608 565.703 774.496C567.289 776.309 568.271 778.763 568.648 781.859C569.026 786.466 569.29 791.073 569.441 795.68C569.668 800.211 569.857 804.818 570.008 809.5C570.159 813.729 570.272 817.921 570.348 822.074C570.499 826.152 570.763 830.23 571.141 834.309C571.216 835.139 571.292 835.932 571.367 836.688C571.443 837.443 571.556 838.198 571.707 838.953C571.858 840.464 572.009 841.974 572.16 843.484C572.311 844.919 572.387 846.43 572.387 848.016ZM557.094 759.996C557.094 759.241 557.396 758.41 558 757.504C558.68 756.598 559.435 755.729 560.266 754.898C561.172 754.068 562.078 753.312 562.984 752.633C563.891 751.878 564.646 751.236 565.25 750.707L576.352 740.512C577.258 739.832 578.202 739.077 579.184 738.246C580.241 737.34 581.336 736.887 582.469 736.887C583.224 736.887 584.055 737.189 584.961 737.793C585.943 738.322 586.811 739.001 587.566 739.832C588.397 740.587 589.077 741.456 589.605 742.438C590.134 743.419 590.398 744.288 590.398 745.043C590.398 745.194 590.398 745.345 590.398 745.496C590.398 745.647 590.323 745.798 590.172 745.949C589.945 746.855 589.492 747.648 588.812 748.328C588.133 749.008 587.378 749.65 586.547 750.254C584.206 752.142 582.393 753.577 581.109 754.559C579.901 755.465 578.768 756.333 577.711 757.164C576.654 757.919 575.445 758.75 574.086 759.656C572.802 760.562 570.99 761.884 568.648 763.621C567.818 764.225 566.987 764.716 566.156 765.094C565.401 765.471 564.57 765.66 563.664 765.66C562.984 765.66 562.267 765.509 561.512 765.207C560.757 764.905 560.039 764.49 559.359 763.961C558.68 763.432 558.113 762.828 557.66 762.148C557.283 761.469 557.094 760.751 557.094 759.996ZM601.5 852.434C601.5 854.171 600.971 855.303 599.914 855.832C598.932 856.361 597.724 856.625 596.289 856.625C595.005 856.625 593.721 856.512 592.438 856.285C591.229 856.134 590.059 855.794 588.926 855.266C587.868 854.737 586.924 854.02 586.094 853.113C585.339 852.207 584.81 851.036 584.508 849.602C583.451 845.07 582.846 840.652 582.695 836.348C582.544 831.967 582.469 827.474 582.469 822.867V808.934C582.469 802.59 582.733 796.02 583.262 789.223C583.79 782.35 584.357 775.742 584.961 769.398C584.961 769.172 584.999 768.908 585.074 768.605C585.15 768.303 585.188 768.077 585.188 767.926C585.263 767.095 585.376 766.189 585.527 765.207C585.678 764.225 585.905 763.357 586.207 762.602C586.585 761.771 587.076 761.091 587.68 760.562C588.359 760.034 589.228 759.77 590.285 759.77C591.493 759.77 592.626 760.034 593.684 760.562C594.816 761.016 595.798 761.658 596.629 762.488C597.46 763.243 598.102 764.188 598.555 765.32C599.083 766.453 599.348 767.624 599.348 768.832C599.348 770.116 599.31 771.551 599.234 773.137C599.159 774.647 599.046 776.082 598.895 777.441C598.895 777.819 598.857 778.234 598.781 778.688C598.781 779.141 598.743 779.556 598.668 779.934C599.725 777.819 600.934 775.629 602.293 773.363C603.652 771.022 605.201 768.908 606.938 767.02C608.75 765.056 610.714 763.47 612.828 762.262C615.018 761.053 617.435 760.449 620.078 760.449C622.268 760.449 624.081 760.789 625.516 761.469C626.951 762.148 628.083 763.13 628.914 764.414C629.82 765.622 630.424 767.057 630.727 768.719C631.104 770.38 631.293 772.155 631.293 774.043C631.293 776.611 631.217 779.216 631.066 781.859C630.915 784.427 630.764 786.995 630.613 789.562C630.387 792.206 630.198 794.811 630.047 797.379C629.896 799.947 629.82 802.552 629.82 805.195C629.82 808.367 629.896 811.652 630.047 815.051C630.198 818.374 630.424 821.583 630.727 824.68C631.029 827.701 631.368 830.457 631.746 832.949C632.124 835.366 632.501 837.254 632.879 838.613C633.181 839.746 633.483 841.068 633.785 842.578C634.163 844.013 634.503 845.523 634.805 847.109C635.182 848.62 635.484 850.092 635.711 851.527C635.938 852.962 636.051 854.246 636.051 855.379C636.051 857.04 635.371 858.098 634.012 858.551C632.728 859.004 631.444 859.23 630.16 859.23C628.876 859.23 627.404 859.117 625.742 858.891C624.156 858.74 622.721 858.324 621.438 857.645C619.852 856.512 618.794 854.926 618.266 852.887C617.812 850.848 617.51 848.846 617.359 846.883L617.02 843.824C616.793 842.012 616.491 839.633 616.113 836.688C615.736 833.742 615.358 830.495 614.98 826.945C614.678 823.396 614.414 819.733 614.188 815.957C613.961 812.105 613.848 808.367 613.848 804.742C613.848 801.495 613.961 798.361 614.188 795.34C614.49 792.319 614.792 789.26 615.094 786.164C615.245 784.578 615.358 783.294 615.434 782.312C615.509 781.331 615.622 780.047 615.773 778.461C614.263 780.878 612.753 783.71 611.242 786.957C609.732 790.204 608.297 793.603 606.938 797.152C605.578 800.626 604.332 804.025 603.199 807.348C602.142 810.671 601.311 813.578 600.707 816.07L600.027 818.562C599.65 819.771 599.31 820.979 599.008 822.188C598.781 823.396 598.668 824.529 598.668 825.586C598.668 826.945 598.743 828.531 598.895 830.344C599.046 832.081 599.234 833.742 599.461 835.328C599.688 837.216 599.952 839.142 600.254 841.105C600.254 841.257 600.329 841.747 600.48 842.578C600.632 843.409 600.783 844.391 600.934 845.523C601.085 846.656 601.198 847.865 601.273 849.148C601.424 850.357 601.5 851.452 601.5 852.434Z" fill="white"/>
</g>
<defs>
<clipPath id="clip0_126_3">
<rect width="1060" height="1060" fill="white"/>
</clipPath>
</defs>
</svg>
