<svg width="1060" height="1060" viewBox="0 0 1060 1060" fill="none" xmlns="http://www.w3.org/2000/svg">
<g clip-path="url(#clip0_106_662)">
<rect width="1060" height="1060" fill="white"/>
<path d="M790.229 490.783V535.001H826.616V682.48H870.539V535.001H907.185V490.783H790.229Z" fill="black"/>
<path d="M781.053 491.563L658.641 491.823V682.48H781.053V638.522H702.563V608.35H766.239V564.392H702.563V535.521H781.053V491.563Z" fill="black"/>
<path d="M581.987 682.22C606.937 682.22 630.848 673.116 649.561 654.389L618.633 623.176C598.36 643.464 565.613 643.204 545.6 623.176C535.984 613.032 530.526 600.547 530.526 586.761C530.526 572.976 535.984 560.231 545.6 550.087C565.613 530.059 598.36 529.799 618.633 550.087L649.561 519.134C612.135 481.679 551.838 481.679 514.412 519.134C496.479 537.081 486.603 560.751 486.603 586.761C486.603 612.512 496.479 635.921 514.412 654.389C533.125 673.116 557.296 682.22 581.987 682.22Z" fill="black"/>
<path d="M1002.63 638.042C994.742 669.725 962.684 689.003 931.026 681.099C899.388 673.206 880.125 641.123 888.022 609.441C895.909 577.766 927.967 558.487 959.606 566.384C991.264 574.282 1010.53 606.369 1002.63 638.042Z" fill="#F7931A"/>
<path d="M971.371 615.323C972.55 607.45 966.562 603.222 958.375 600.401L961.035 589.744L954.547 588.126L951.968 598.503C950.259 598.078 948.509 597.678 946.77 597.28L949.379 586.835L942.901 585.218L940.242 595.872C938.833 595.551 937.443 595.233 936.104 594.899L936.114 594.865L927.167 592.631L925.448 599.561C925.448 599.561 930.256 600.663 930.156 600.732C932.775 601.388 933.255 603.126 933.175 604.505L930.146 616.644C930.326 616.694 930.566 616.764 930.826 616.864C930.606 616.814 930.376 616.754 930.136 616.694L925.898 633.7C925.578 634.501 924.768 635.701 922.929 635.241C922.989 635.331 918.221 634.061 918.221 634.061L915.002 641.494L923.439 643.594C925.008 643.985 926.538 644.405 928.057 644.785L925.368 655.569L931.846 657.19L934.504 646.516C936.274 646.996 937.993 647.446 939.673 647.866L937.024 658.48L943.501 660.091L946.19 649.337C957.246 651.428 965.553 650.587 969.052 640.573C971.87 632.52 968.912 627.878 963.094 624.847C967.332 623.867 970.521 621.075 971.371 615.323ZM956.566 636.101C954.557 644.165 941.002 639.803 936.614 638.712L940.172 624.437C944.561 625.527 958.655 627.698 956.566 636.101ZM958.565 615.203C956.736 622.536 945.46 618.804 941.802 617.894L945.031 604.943C948.689 605.855 960.475 607.56 958.565 615.203Z" fill="white"/>
<path d="M502.908 682.87L441.311 491.954H399.726L334.751 682.87H381.273L389.071 659.721H449.108L456.645 682.87H502.908ZM419.999 569.465L435.073 615.763H404.145L419.999 569.465Z" fill="black"/>
<path d="M304.083 608.48L267.436 490.393H221.174L282.771 682.87H324.355L389.33 490.393H342.808L304.083 608.48Z" fill="black"/>
<path d="M146.202 490.913H102.278V682.87H146.202C197.922 680.009 237.687 639.432 237.687 588.192C237.687 536.431 197.143 494.034 146.202 491.173V490.913ZM146.202 535.131C172.972 537.992 193.764 560.881 193.764 588.192C193.764 614.723 173.232 635.791 146.202 638.652V535.131Z" fill="black"/>
<path d="M906.866 480.213L845.269 289.296H803.684L738.709 480.213H785.231L793.029 457.063H853.066L860.603 480.213H906.866ZM823.957 366.807L839.031 413.106H808.103L823.957 366.807Z" fill="black"/>
<path d="M692.589 400.881L630.472 289.816H582.65V480.213H626.574V368.888L688.95 480.213H736.51V289.296H692.589V400.881Z" fill="black"/>
<path d="M482.028 288.256H438.104V480.213H482.028C533.748 477.352 573.513 436.775 573.513 385.535C573.513 333.774 532.969 291.377 482.028 288.516V288.256ZM482.028 332.473C508.798 335.335 529.59 358.224 529.59 385.535C529.59 412.065 509.058 433.134 482.028 435.995V332.473Z" fill="black"/>
<path d="M429.108 289.296L306.694 289.556V480.213H429.108V436.255H350.618V406.083H414.294V362.125H350.618V333.254H429.108V289.296Z" fill="black"/>
<path d="M253.58 286.175V407.904C253.58 424.03 240.325 436.255 224.991 436.255C217.194 436.255 210.436 433.394 204.719 427.672C199.261 421.949 196.662 415.187 196.662 407.383L152.738 406.863C152.478 426.631 159.756 444.578 173.27 458.364C187.045 472.149 204.719 479.953 224.471 480.213H225.251C264.496 480.213 297.504 448.48 297.504 408.164V286.175H253.58Z" fill="black"/>
<path d="M250.102 764.867C250.102 768.266 249.233 770.682 247.496 772.117C245.759 773.477 243.305 774.458 240.133 775.062C240.812 786.693 241.228 798.247 241.379 809.727C241.605 821.206 241.719 832.76 241.719 844.391C241.719 846.203 241.341 847.6 240.586 848.582C239.831 849.564 238.471 850.055 236.508 850.055C234.846 850.055 233.185 849.866 231.523 849.488C229.938 849.111 228.503 848.544 227.219 847.789C225.935 846.958 224.878 845.901 224.047 844.617C223.292 843.258 222.914 841.596 222.914 839.633V804.289C222.914 799.833 222.914 795.378 222.914 790.922C222.914 786.466 222.839 782.01 222.688 777.555C216.193 778.461 209.698 779.254 203.203 779.934C196.708 780.538 190.214 780.953 183.719 781.18C183.945 797.266 184.398 813.352 185.078 829.438C185.305 832.76 185.531 836.008 185.758 839.18C186.06 842.352 186.211 845.523 186.211 848.695C186.211 850.206 185.796 851.339 184.965 852.094C184.134 852.849 182.964 853.227 181.453 853.227C180.32 853.227 179.112 853.151 177.828 853C176.544 852.773 175.26 852.434 173.977 851.98C172.768 851.527 171.635 850.961 170.578 850.281C169.521 849.602 168.69 848.771 168.086 847.789C167.859 847.411 167.671 846.279 167.52 844.391C167.368 842.503 167.217 840.124 167.066 837.254C166.991 834.384 166.915 831.137 166.84 827.512C166.764 823.887 166.727 820.148 166.727 816.297C166.727 812.445 166.727 808.669 166.727 804.969C166.727 801.193 166.727 797.719 166.727 794.547C166.727 791.375 166.727 788.618 166.727 786.277C166.727 783.936 166.727 782.312 166.727 781.406C165.669 781.406 164.725 781.18 163.895 780.727C163.064 780.198 162.648 779.367 162.648 778.234C162.648 776.875 163.026 775.591 163.781 774.383C164.612 773.099 165.594 772.042 166.727 771.211V702.789C166.727 701.279 166.991 700.07 167.52 699.164C168.124 698.258 169.219 697.805 170.805 697.805C173.372 697.805 175.411 698.182 176.922 698.938C178.508 699.693 179.678 700.75 180.434 702.109C181.264 703.393 181.793 704.979 182.02 706.867C182.322 708.68 182.51 710.643 182.586 712.758C182.812 721.971 182.964 731.185 183.039 740.398C183.115 749.612 183.266 758.826 183.492 768.039C189.987 767.435 196.444 766.831 202.863 766.227C209.283 765.547 215.74 764.565 222.234 763.281C221.857 755.276 221.366 747.346 220.762 739.492C220.233 731.638 219.44 723.708 218.383 715.703C217.779 711.927 217.061 708.189 216.23 704.488C215.4 700.712 214.984 696.898 214.984 693.047C214.984 691.688 215.475 690.819 216.457 690.441C217.514 690.064 218.609 689.875 219.742 689.875C221.555 689.875 223.367 690.177 225.18 690.781C227.068 691.385 228.578 692.443 229.711 693.953C230.391 694.935 231.108 697.012 231.863 700.184C232.618 703.28 233.298 706.98 233.902 711.285C234.582 715.59 235.224 720.234 235.828 725.219C236.432 730.203 236.961 734.999 237.414 739.605C237.867 744.137 238.245 748.253 238.547 751.953C238.924 755.578 239.151 758.221 239.227 759.883C240.133 759.656 241.077 759.467 242.059 759.316C243.04 759.09 243.984 758.977 244.891 758.977C246.703 758.977 248.025 759.543 248.855 760.676C249.686 761.733 250.102 763.13 250.102 764.867ZM267.094 854.812C265.961 854.812 264.715 854.661 263.355 854.359C262.072 854.057 260.826 853.566 259.617 852.887C258.484 852.207 257.503 851.376 256.672 850.395C255.917 849.337 255.539 848.091 255.539 846.656C255.539 844.542 255.615 842.465 255.766 840.426C255.992 838.311 256.219 836.234 256.445 834.195V834.309L257.125 826.719C257.352 824 257.54 821.017 257.691 817.77C257.842 814.522 257.956 811.237 258.031 807.914C258.182 804.516 258.296 801.193 258.371 797.945C258.447 794.698 258.484 791.715 258.484 788.996C258.484 787.41 258.447 785.824 258.371 784.238C258.371 782.577 258.371 780.915 258.371 779.254C258.296 777.819 258.258 776.233 258.258 774.496C258.258 772.684 258.258 771.022 258.258 769.512C258.258 767.926 258.447 766.642 258.824 765.66C259.277 764.603 260.486 764.074 262.449 764.074C264.186 764.074 265.999 764.527 267.887 765.434C269.85 766.34 271.21 767.624 271.965 769.285H271.852C272.229 770.116 272.493 771.475 272.645 773.363C272.871 775.176 273.022 776.799 273.098 778.234C274.382 776.271 275.816 774.194 277.402 772.004C279.064 769.814 280.839 767.812 282.727 766C284.615 764.112 286.616 762.564 288.73 761.355C290.845 760.147 293.111 759.543 295.527 759.543C298.699 759.543 301.116 760.336 302.777 761.922C304.439 763.508 305.647 765.509 306.402 767.926C307.158 770.267 307.573 772.797 307.648 775.516C307.724 778.159 307.762 780.576 307.762 782.766V783.672C307.762 784.578 307.724 785.484 307.648 786.391C307.648 787.221 307.497 788.014 307.195 788.77C306.969 789.449 306.516 790.016 305.836 790.469C305.232 790.922 304.363 791.148 303.23 791.148C302.022 791.148 300.738 790.997 299.379 790.695C298.02 790.318 296.736 789.789 295.527 789.109C294.395 788.43 293.413 787.599 292.582 786.617C291.751 785.56 291.298 784.352 291.223 782.992C291.223 782.388 291.223 781.784 291.223 781.18C291.223 780.576 291.26 779.971 291.336 779.367C291.336 778.99 291.336 778.536 291.336 778.008C291.411 777.404 291.449 776.837 291.449 776.309C289.033 778.725 286.88 781.708 284.992 785.258C283.18 788.807 281.518 792.583 280.008 796.586C278.573 800.589 277.327 804.629 276.27 808.707C275.212 812.71 274.306 816.335 273.551 819.582V819.922C273.324 822.263 273.173 824.566 273.098 826.832C273.022 829.098 272.947 831.439 272.871 833.855C272.796 836.574 272.682 839.331 272.531 842.125C272.456 844.919 272.267 847.638 271.965 850.281C271.814 851.716 271.361 852.811 270.605 853.566C269.926 854.397 268.755 854.812 267.094 854.812ZM357.719 851.527C357.719 853.038 357.341 854.057 356.586 854.586C355.831 855.19 354.773 855.492 353.414 855.492C349.865 855.492 347.297 854.548 345.711 852.66C344.201 850.772 343.068 848.28 342.312 845.184C342.086 844.126 341.859 843.069 341.633 842.012C341.406 840.879 341.217 839.784 341.066 838.727C340.915 837.745 340.764 837.065 340.613 836.688C340.462 836.31 340.311 835.592 340.16 834.535C339.254 836.725 338.121 839.029 336.762 841.445C335.478 843.786 333.967 845.977 332.23 848.016C330.493 849.979 328.53 851.603 326.34 852.887C324.225 854.171 321.884 854.812 319.316 854.812C316.598 854.812 314.332 854.171 312.52 852.887C310.707 851.527 309.272 849.866 308.215 847.902C307.233 845.863 306.516 843.635 306.062 841.219C305.685 838.802 305.496 836.499 305.496 834.309C305.496 829.173 305.987 823.622 306.969 817.656C308.026 811.615 309.461 805.611 311.273 799.645C313.086 793.603 315.201 787.826 317.617 782.312C320.034 776.724 322.677 771.853 325.547 767.699V767.812L326.227 766.793C327.057 765.66 328.001 764.452 329.059 763.168C330.191 761.809 331.513 761.129 333.023 761.129C334.458 761.129 335.704 761.771 336.762 763.055C337.819 764.263 338.574 765.547 339.027 766.906C340.991 767.284 342.577 767.775 343.785 768.379C344.993 768.908 345.938 769.587 346.617 770.418C347.297 771.249 347.75 772.23 347.977 773.363C348.203 774.421 348.316 775.591 348.316 776.875C348.316 777.404 348.316 777.97 348.316 778.574C348.316 779.178 348.279 779.783 348.203 780.387C348.128 780.991 348.09 781.708 348.09 782.539C348.09 783.37 348.09 784.125 348.09 784.805C348.09 785.56 348.203 786.542 348.43 787.75C348.732 788.958 349.034 790.204 349.336 791.488L350.129 795.68C350.507 797.87 350.809 800.362 351.035 803.156C351.337 805.951 351.677 808.745 352.055 811.539C352.357 814.409 352.659 817.203 352.961 819.922C353.263 822.565 353.565 825.02 353.867 827.285L356.586 844.051L356.926 845.977C357.077 846.958 357.228 847.865 357.379 848.695C357.605 849.526 357.719 850.47 357.719 851.527ZM331.777 786.391C331.777 786.24 331.74 786.013 331.664 785.711C331.589 785.333 331.513 784.956 331.438 784.578C329.701 788.279 328.152 792.319 326.793 796.699C325.509 801.004 324.414 805.422 323.508 809.953C322.677 814.409 322.035 818.902 321.582 823.434C321.204 827.889 321.016 832.118 321.016 836.121C321.016 836.499 321.016 836.839 321.016 837.141C321.016 837.443 321.053 837.745 321.129 838.047V838.16C322.941 835.366 324.49 831.703 325.773 827.172C327.133 822.565 328.266 817.77 329.172 812.785C330.078 807.725 330.72 802.854 331.098 798.172C331.551 793.414 331.777 789.487 331.777 786.391ZM415.719 849.488C415.719 850.319 415.53 851.036 415.152 851.641C414.775 852.169 414.284 852.622 413.68 853C413.151 853.302 412.547 853.529 411.867 853.68C411.263 853.831 410.659 853.906 410.055 853.906C409.148 853.906 408.167 853.793 407.109 853.566C406.052 853.34 404.995 853.038 403.938 852.66C402.88 852.207 401.898 851.678 400.992 851.074C400.161 850.395 399.52 849.639 399.066 848.809C398.613 847.978 398.273 846.958 398.047 845.75C397.896 844.466 397.745 843.182 397.594 841.898C396.839 843.711 395.932 845.486 394.875 847.223C393.893 848.96 392.685 850.508 391.25 851.867C389.815 853.151 388.191 854.171 386.379 854.926C384.642 855.757 382.678 856.172 380.488 856.172C376.637 856.172 373.503 855.266 371.086 853.453C368.745 851.641 366.895 849.375 365.535 846.656C364.251 843.862 363.383 840.841 362.93 837.594C362.552 834.271 362.363 831.099 362.363 828.078C362.363 825.586 362.477 822.754 362.703 819.582C362.93 816.41 363.232 813.163 363.609 809.84C363.987 806.517 364.44 803.307 364.969 800.211C365.497 797.039 366.064 794.245 366.668 791.828C367.423 789.034 368.329 785.975 369.387 782.652C370.52 779.254 371.917 776.12 373.578 773.25C375.315 770.305 377.43 767.812 379.922 765.773C382.414 763.734 385.397 762.602 388.871 762.375C388.645 756.258 388.305 750.632 387.852 745.496C387.474 740.285 387.059 734.961 386.605 729.523L385.473 716.949L385.02 712.418C384.868 711.21 384.755 710.001 384.68 708.793C384.604 707.509 384.566 706.263 384.566 705.055C384.566 703.318 385.02 702.109 385.926 701.43C386.908 700.75 388.154 700.41 389.664 700.41C392.987 700.41 395.517 700.901 397.254 701.883C398.991 702.865 400.199 704.186 400.879 705.848C401.634 707.509 402.049 709.473 402.125 711.738C402.201 713.928 402.238 716.307 402.238 718.875C402.238 720.536 402.427 722.424 402.805 724.539L403.371 728.73L404.277 740.285C404.428 742.098 404.579 743.91 404.73 745.723C404.882 747.535 405.033 749.348 405.184 751.16L407.562 775.516L412.094 821.055L412.434 825.246C412.736 828.342 413 831.552 413.227 834.875C413.529 838.198 414.057 841.483 414.812 844.73C415.039 845.561 415.228 846.354 415.379 847.109C415.605 847.865 415.719 848.658 415.719 849.488ZM389.324 783.219C389.324 782.388 389.286 781.482 389.211 780.5C389.211 779.443 389.211 778.461 389.211 777.555V774.496C388.682 775.251 388.003 776.309 387.172 777.668C386.341 778.952 385.699 780.122 385.246 781.18C384.038 783.823 382.943 787.221 381.961 791.375C380.979 795.453 380.111 799.758 379.355 804.289C378.676 808.745 378.147 813.125 377.77 817.43C377.392 821.659 377.203 825.208 377.203 828.078C377.203 829.135 377.203 830.344 377.203 831.703C377.279 833.062 377.43 834.46 377.656 835.895C377.883 837.254 378.223 838.576 378.676 839.859C379.129 841.143 379.733 842.201 380.488 843.031C381.621 841.596 382.641 839.406 383.547 836.461C384.453 833.44 385.208 830.042 385.812 826.266C386.492 822.414 387.059 818.374 387.512 814.145C387.965 809.915 388.305 805.837 388.531 801.91C388.833 797.908 389.022 794.283 389.098 791.035C389.249 787.712 389.324 785.107 389.324 783.219ZM467.602 832.27C467.602 834.535 466.96 836.876 465.676 839.293C464.467 841.71 462.882 843.938 460.918 845.977C458.954 847.94 456.689 849.564 454.121 850.848C451.629 852.132 449.137 852.773 446.645 852.773C443.095 852.773 440.036 852.094 437.469 850.734C434.901 849.299 432.673 847.411 430.785 845.07C428.897 842.654 427.349 839.935 426.141 836.914C425.008 833.893 424.102 830.797 423.422 827.625C422.742 824.378 422.251 821.168 421.949 817.996C421.723 814.749 421.609 811.803 421.609 809.16C421.609 806.895 421.723 804.214 421.949 801.117C422.251 798.021 422.704 794.811 423.309 791.488C423.988 788.165 424.895 784.88 426.027 781.633C427.16 778.385 428.557 775.478 430.219 772.91C431.956 770.342 433.995 768.266 436.336 766.68C438.753 765.094 441.509 764.301 444.605 764.301C447.022 764.301 449.174 764.792 451.062 765.773C453.026 766.755 454.65 768.077 455.934 769.738C457.293 771.324 458.312 773.174 458.992 775.289C459.747 777.404 460.125 779.594 460.125 781.859C460.125 784.805 459.445 788.014 458.086 791.488C456.727 794.962 454.952 798.323 452.762 801.57C450.647 804.818 448.23 807.763 445.512 810.406C442.868 812.974 440.225 814.938 437.582 816.297C437.733 817.656 438.035 819.658 438.488 822.301C438.941 824.868 439.546 827.436 440.301 830.004C441.132 832.572 442.076 834.799 443.133 836.688C444.266 838.576 445.587 839.52 447.098 839.52C447.853 839.52 448.495 839.293 449.023 838.84C449.628 838.387 450.156 837.783 450.609 837.027C451.062 836.272 451.44 835.441 451.742 834.535C452.12 833.629 452.46 832.76 452.762 831.93L453.441 830.344C453.592 830.117 453.668 829.966 453.668 829.891C453.743 829.815 453.819 829.702 453.895 829.551C454.423 828.569 454.914 827.663 455.367 826.832C455.896 826.001 456.613 825.284 457.52 824.68H457.406C457.708 824.378 458.01 824.227 458.312 824.227C458.69 824.151 459.03 824.113 459.332 824.113C460.163 824.113 461.069 824.378 462.051 824.906C463.033 825.435 463.939 826.115 464.77 826.945C465.6 827.701 466.28 828.569 466.809 829.551C467.337 830.457 467.602 831.363 467.602 832.27ZM445.172 782.312C445.172 781.557 445.134 780.764 445.059 779.934C444.983 779.103 444.794 778.385 444.492 777.781C443.435 779.065 442.491 780.613 441.66 782.426C440.905 784.163 440.263 786.013 439.734 787.977C439.206 789.865 438.753 791.79 438.375 793.754C438.073 795.717 437.846 797.53 437.695 799.191C439.659 796.85 441.396 794.207 442.906 791.262C444.417 788.241 445.172 785.258 445.172 782.312ZM517.672 827.625C517.672 829.211 517.408 830.835 516.879 832.496C516.35 834.158 515.746 835.743 515.066 837.254C514.16 839.444 513.065 841.596 511.781 843.711C510.497 845.75 509.025 847.6 507.363 849.262C505.702 850.848 503.814 852.132 501.699 853.113C499.585 854.095 497.206 854.586 494.562 854.586C489.88 854.586 485.991 853.415 482.895 851.074C479.798 848.733 477.344 845.788 475.531 842.238C473.719 838.689 472.435 834.799 471.68 830.57C471 826.341 470.66 822.339 470.66 818.562C470.66 815.768 470.773 812.483 471 808.707C471.227 804.855 471.642 800.891 472.246 796.812C472.926 792.734 473.87 788.694 475.078 784.691C476.362 780.689 477.986 777.139 479.949 774.043C481.913 770.871 484.292 768.303 487.086 766.34C489.956 764.376 493.354 763.395 497.281 763.395C498.112 763.395 499.32 763.546 500.906 763.848C502.492 764.15 504.04 764.603 505.551 765.207C507.137 765.736 508.496 766.491 509.629 767.473C510.837 768.379 511.441 769.436 511.441 770.645C511.441 771.777 510.913 772.646 509.855 773.25C508.874 773.854 507.665 774.307 506.23 774.609C504.871 774.836 503.436 774.987 501.926 775.062C500.491 775.062 499.32 775.062 498.414 775.062H496.375C494.26 776.951 492.523 779.745 491.164 783.445C489.805 787.07 488.747 790.96 487.992 795.113C487.237 799.267 486.708 803.383 486.406 807.461C486.104 811.464 485.953 814.749 485.953 817.316C485.953 820.941 486.217 824.529 486.746 828.078C487.35 831.552 488.521 834.837 490.258 837.934C490.635 838.613 491.164 839.406 491.844 840.312C492.599 841.143 493.43 841.559 494.336 841.559C495.016 841.559 495.695 840.992 496.375 839.859C497.13 838.727 497.81 837.405 498.414 835.895C499.018 834.384 499.509 832.911 499.887 831.477C500.264 830.042 500.529 828.984 500.68 828.305C500.755 828.003 500.793 827.663 500.793 827.285C500.793 826.908 500.793 826.53 500.793 826.152C500.793 825.473 500.793 824.831 500.793 824.227C500.868 823.547 500.982 823.018 501.133 822.641C501.661 821.357 502.341 820.488 503.172 820.035C504.078 819.582 505.173 819.355 506.457 819.355C507.59 819.355 508.798 819.507 510.082 819.809C511.366 820.111 512.574 820.602 513.707 821.281C514.84 821.961 515.784 822.829 516.539 823.887C517.294 824.944 517.672 826.19 517.672 827.625ZM639.449 851.188C639.449 852.245 638.958 853.151 637.977 853.906C636.995 854.661 635.824 855.266 634.465 855.719C633.105 856.172 631.708 856.512 630.273 856.738C628.914 856.965 627.819 857.078 626.988 857.078C626.762 857.078 626.573 857.116 626.422 857.191C626.271 857.267 626.082 857.229 625.855 857.078C624.345 856.776 623.023 856.247 621.891 855.492C620.758 854.812 619.738 853.982 618.832 853C617.926 852.094 617.057 851.074 616.227 849.941C615.396 848.809 614.527 847.638 613.621 846.43C607.579 838.802 601.878 830.986 596.516 822.98C591.229 814.9 586.434 806.404 582.129 797.492L580.77 799.078V842.805C580.77 843.635 580.732 844.579 580.656 845.637C580.581 846.618 580.392 847.562 580.09 848.469C579.788 849.375 579.335 850.13 578.73 850.734C578.126 851.339 577.296 851.641 576.238 851.641C573.822 851.641 571.82 851.263 570.234 850.508C568.724 849.753 567.516 848.733 566.609 847.449C565.779 846.09 565.212 844.504 564.91 842.691C564.608 840.879 564.457 838.878 564.457 836.688C564.457 829.589 564.382 822.527 564.23 815.504C564.079 808.48 564.004 801.419 564.004 794.32C564.004 791.224 564.117 788.203 564.344 785.258C564.57 782.312 564.684 779.292 564.684 776.195C564.684 765.396 564.268 754.672 563.438 744.023C562.607 733.299 561.738 722.576 560.832 711.852C560.605 709.359 560.341 706.867 560.039 704.375C559.812 701.883 559.699 699.391 559.699 696.898C559.699 695.086 560.303 693.878 561.512 693.273C562.72 692.669 564.004 692.367 565.363 692.367C569.592 692.367 572.915 693.236 575.332 694.973C577.749 696.71 578.957 699.844 578.957 704.375C578.957 711.247 579.184 717.969 579.637 724.539C580.014 732.771 580.241 740.927 580.316 749.008C580.467 757.089 580.618 765.245 580.77 773.477C588.926 763.281 595.345 752.331 600.027 740.625C604.71 728.844 608.259 716.534 610.676 703.695C610.751 702.94 610.865 701.996 611.016 700.863C611.242 699.73 611.507 698.635 611.809 697.578C612.186 696.445 612.677 695.501 613.281 694.746C613.961 693.915 614.829 693.5 615.887 693.5C617.095 693.5 618.341 693.727 619.625 694.18C620.909 694.557 622.042 695.124 623.023 695.879C624.081 696.634 624.911 697.54 625.516 698.598C626.195 699.655 626.535 700.826 626.535 702.109C626.535 705.432 626.12 708.642 625.289 711.738C624.534 714.835 623.741 717.969 622.91 721.141C621.324 727.56 619.625 733.488 617.812 738.926C616.076 744.363 614.036 749.612 611.695 754.672C609.43 759.656 606.786 764.603 603.766 769.512C600.745 774.345 597.158 779.367 593.004 784.578L597.762 794.094C601.764 801.721 606.22 809.16 611.129 816.41C616.038 823.585 621.4 830.419 627.215 836.914C629.178 839.104 631.18 841.143 633.219 843.031C635.333 844.844 637.184 846.958 638.77 849.375C639.223 849.828 639.449 850.432 639.449 851.188ZM650.211 854.812C649.078 854.812 647.832 854.661 646.473 854.359C645.189 854.057 643.943 853.566 642.734 852.887C641.602 852.207 640.62 851.376 639.789 850.395C639.034 849.337 638.656 848.091 638.656 846.656C638.656 844.542 638.732 842.465 638.883 840.426C639.109 838.311 639.336 836.234 639.562 834.195V834.309L640.242 826.719C640.469 824 640.658 821.017 640.809 817.77C640.96 814.522 641.073 811.237 641.148 807.914C641.299 804.516 641.413 801.193 641.488 797.945C641.564 794.698 641.602 791.715 641.602 788.996C641.602 787.41 641.564 785.824 641.488 784.238C641.488 782.577 641.488 780.915 641.488 779.254C641.413 777.819 641.375 776.233 641.375 774.496C641.375 772.684 641.375 771.022 641.375 769.512C641.375 767.926 641.564 766.642 641.941 765.66C642.395 764.603 643.603 764.074 645.566 764.074C647.303 764.074 649.116 764.527 651.004 765.434C652.967 766.34 654.327 767.624 655.082 769.285H654.969C655.346 770.116 655.611 771.475 655.762 773.363C655.988 775.176 656.139 776.799 656.215 778.234C657.499 776.271 658.934 774.194 660.52 772.004C662.181 769.814 663.956 767.812 665.844 766C667.732 764.112 669.733 762.564 671.848 761.355C673.962 760.147 676.228 759.543 678.645 759.543C681.816 759.543 684.233 760.336 685.895 761.922C687.556 763.508 688.764 765.509 689.52 767.926C690.275 770.267 690.69 772.797 690.766 775.516C690.841 778.159 690.879 780.576 690.879 782.766V783.672C690.879 784.578 690.841 785.484 690.766 786.391C690.766 787.221 690.615 788.014 690.312 788.77C690.086 789.449 689.633 790.016 688.953 790.469C688.349 790.922 687.48 791.148 686.348 791.148C685.139 791.148 683.855 790.997 682.496 790.695C681.137 790.318 679.853 789.789 678.645 789.109C677.512 788.43 676.53 787.599 675.699 786.617C674.868 785.56 674.415 784.352 674.34 782.992C674.34 782.388 674.34 781.784 674.34 781.18C674.34 780.576 674.378 779.971 674.453 779.367C674.453 778.99 674.453 778.536 674.453 778.008C674.529 777.404 674.566 776.837 674.566 776.309C672.15 778.725 669.997 781.708 668.109 785.258C666.297 788.807 664.635 792.583 663.125 796.586C661.69 800.589 660.444 804.629 659.387 808.707C658.329 812.71 657.423 816.335 656.668 819.582V819.922C656.441 822.263 656.29 824.566 656.215 826.832C656.139 829.098 656.064 831.439 655.988 833.855C655.913 836.574 655.799 839.331 655.648 842.125C655.573 844.919 655.384 847.638 655.082 850.281C654.931 851.716 654.478 852.811 653.723 853.566C653.043 854.397 651.872 854.812 650.211 854.812ZM740.836 851.527C740.836 853.038 740.458 854.057 739.703 854.586C738.948 855.19 737.891 855.492 736.531 855.492C732.982 855.492 730.414 854.548 728.828 852.66C727.318 850.772 726.185 848.28 725.43 845.184C725.203 844.126 724.977 843.069 724.75 842.012C724.523 840.879 724.335 839.784 724.184 838.727C724.033 837.745 723.882 837.065 723.73 836.688C723.579 836.31 723.428 835.592 723.277 834.535C722.371 836.725 721.238 839.029 719.879 841.445C718.595 843.786 717.085 845.977 715.348 848.016C713.611 849.979 711.647 851.603 709.457 852.887C707.342 854.171 705.001 854.812 702.434 854.812C699.715 854.812 697.449 854.171 695.637 852.887C693.824 851.527 692.389 849.866 691.332 847.902C690.35 845.863 689.633 843.635 689.18 841.219C688.802 838.802 688.613 836.499 688.613 834.309C688.613 829.173 689.104 823.622 690.086 817.656C691.143 811.615 692.578 805.611 694.391 799.645C696.203 793.603 698.318 787.826 700.734 782.312C703.151 776.724 705.794 771.853 708.664 767.699V767.812L709.344 766.793C710.174 765.66 711.118 764.452 712.176 763.168C713.309 761.809 714.63 761.129 716.141 761.129C717.576 761.129 718.822 761.771 719.879 763.055C720.936 764.263 721.691 765.547 722.145 766.906C724.108 767.284 725.694 767.775 726.902 768.379C728.111 768.908 729.055 769.587 729.734 770.418C730.414 771.249 730.867 772.23 731.094 773.363C731.32 774.421 731.434 775.591 731.434 776.875C731.434 777.404 731.434 777.97 731.434 778.574C731.434 779.178 731.396 779.783 731.32 780.387C731.245 780.991 731.207 781.708 731.207 782.539C731.207 783.37 731.207 784.125 731.207 784.805C731.207 785.56 731.32 786.542 731.547 787.75C731.849 788.958 732.151 790.204 732.453 791.488L733.246 795.68C733.624 797.87 733.926 800.362 734.152 803.156C734.454 805.951 734.794 808.745 735.172 811.539C735.474 814.409 735.776 817.203 736.078 819.922C736.38 822.565 736.682 825.02 736.984 827.285L739.703 844.051L740.043 845.977C740.194 846.958 740.345 847.865 740.496 848.695C740.723 849.526 740.836 850.47 740.836 851.527ZM714.895 786.391C714.895 786.24 714.857 786.013 714.781 785.711C714.706 785.333 714.63 784.956 714.555 784.578C712.818 788.279 711.27 792.319 709.91 796.699C708.626 801.004 707.531 805.422 706.625 809.953C705.794 814.409 705.152 818.902 704.699 823.434C704.322 827.889 704.133 832.118 704.133 836.121C704.133 836.499 704.133 836.839 704.133 837.141C704.133 837.443 704.171 837.745 704.246 838.047V838.16C706.059 835.366 707.607 831.703 708.891 827.172C710.25 822.565 711.383 817.77 712.289 812.785C713.195 807.725 713.837 802.854 714.215 798.172C714.668 793.414 714.895 789.487 714.895 786.391ZM713.309 746.402C713.309 745.647 713.611 744.816 714.215 743.91C714.895 743.004 715.65 742.135 716.48 741.305C717.387 740.474 718.293 739.719 719.199 739.039C720.105 738.284 720.861 737.642 721.465 737.113L732.566 726.918C733.473 726.238 734.417 725.483 735.398 724.652C736.456 723.746 737.551 723.293 738.684 723.293C739.439 723.293 740.27 723.595 741.176 724.199C742.158 724.728 743.026 725.408 743.781 726.238C744.612 726.993 745.292 727.862 745.82 728.844C746.349 729.826 746.613 730.694 746.613 731.449C746.613 731.6 746.613 731.751 746.613 731.902C746.613 732.053 746.538 732.204 746.387 732.355C746.16 733.262 745.707 734.055 745.027 734.734C744.348 735.414 743.592 736.056 742.762 736.66C740.421 738.548 738.608 739.983 737.324 740.965C736.116 741.871 734.983 742.74 733.926 743.57C732.868 744.326 731.66 745.156 730.301 746.062C729.017 746.969 727.204 748.29 724.863 750.027C724.033 750.632 723.202 751.122 722.371 751.5C721.616 751.878 720.785 752.066 719.879 752.066C719.199 752.066 718.482 751.915 717.727 751.613C716.971 751.311 716.254 750.896 715.574 750.367C714.895 749.839 714.328 749.234 713.875 748.555C713.497 747.875 713.309 747.158 713.309 746.402ZM776.973 856.285C776.973 857.342 776.708 858.211 776.18 858.891C775.651 859.57 774.971 860.099 774.141 860.477C773.385 860.93 772.517 861.232 771.535 861.383C770.629 861.609 769.798 861.723 769.043 861.723C766.4 861.723 764.096 860.967 762.133 859.457C760.169 857.947 758.47 855.983 757.035 853.566C755.6 851.225 754.43 848.544 753.523 845.523C752.617 842.427 751.862 839.368 751.258 836.348C750.654 833.251 750.201 830.306 749.898 827.512C749.596 824.642 749.37 822.188 749.219 820.148C748.539 813.125 748.048 805.988 747.746 798.738C747.52 791.488 747.406 784.314 747.406 777.215C747.406 757.806 748.086 738.586 749.445 719.555C749.445 719.253 749.445 718.913 749.445 718.535C749.521 718.158 749.559 717.78 749.559 717.402C749.634 715.816 749.71 714.004 749.785 711.965C749.861 709.85 749.974 707.773 750.125 705.734C750.276 703.695 750.427 701.845 750.578 700.184C750.805 698.447 751.069 697.238 751.371 696.559V696.672C751.673 695.615 752.089 694.822 752.617 694.293C753.146 693.764 754.052 693.5 755.336 693.5C758.055 693.5 760.358 694.406 762.246 696.219C764.134 698.031 765.078 700.297 765.078 703.016C765.078 703.62 765.04 704.224 764.965 704.828C764.965 705.357 764.927 705.885 764.852 706.414C764.776 706.943 764.701 707.471 764.625 708C764.625 708.453 764.625 708.868 764.625 709.246C764.398 712.191 764.21 715.137 764.059 718.082C763.983 720.952 763.87 723.859 763.719 726.805C763.341 733.299 763.039 739.794 762.812 746.289C762.661 752.708 762.586 759.203 762.586 765.773C762.586 768.568 762.624 772.23 762.699 776.762C762.775 781.293 762.926 786.24 763.152 791.602C763.379 796.888 763.681 802.363 764.059 808.027C764.512 813.691 765.078 819.091 765.758 824.227C766.438 829.362 767.23 834.007 768.137 838.16C769.118 842.314 770.251 845.523 771.535 847.789C772.215 848.091 772.857 848.582 773.461 849.262C774.141 849.866 774.707 850.583 775.16 851.414C775.689 852.169 776.104 852.962 776.406 853.793C776.784 854.699 776.973 855.53 776.973 856.285ZM829.422 806.555C829.422 813.125 828.855 819.695 827.723 826.266C826.665 832.76 824.438 838.915 821.039 844.73C819.982 846.467 818.773 848.167 817.414 849.828C816.055 851.414 814.544 852.849 812.883 854.133C811.297 855.492 809.522 856.549 807.559 857.305C805.671 858.135 803.669 858.551 801.555 858.551C798.232 858.551 795.324 857.758 792.832 856.172C790.415 854.661 788.301 852.66 786.488 850.168C784.751 847.6 783.279 844.73 782.07 841.559C780.938 838.311 780.031 835.026 779.352 831.703C778.747 828.305 778.294 825.02 777.992 821.848C777.766 818.676 777.652 815.882 777.652 813.465C777.652 810.746 777.766 807.763 777.992 804.516C778.219 801.268 778.596 797.945 779.125 794.547C779.729 791.148 780.484 787.788 781.391 784.465C782.372 781.142 783.618 778.046 785.129 775.176C786.639 772.23 788.452 769.625 790.566 767.359C792.681 765.018 795.135 763.168 797.93 761.809V761.922C800.346 760.638 802.763 759.996 805.18 759.996C806.69 759.996 807.861 760.336 808.691 761.016C809.522 761.62 809.9 762.677 809.824 764.188C813.978 764.943 817.339 766.944 819.906 770.191C822.474 773.439 824.438 777.215 825.797 781.52C827.232 785.824 828.176 790.242 828.629 794.773C829.158 799.305 829.422 803.232 829.422 806.555ZM803.82 778.234C802.536 778.234 801.328 777.743 800.195 776.762C798.76 778.952 797.552 781.482 796.57 784.352C795.589 787.146 794.796 790.053 794.191 793.074C793.663 796.02 793.285 799.003 793.059 802.023C792.832 805.044 792.719 807.876 792.719 810.52C792.719 812.71 792.832 815.542 793.059 819.016C793.285 822.414 793.701 825.85 794.305 829.324C794.984 832.798 795.891 836.046 797.023 839.066C798.232 842.087 799.78 844.315 801.668 845.75C804.009 844.391 805.935 842.238 807.445 839.293C809.031 836.272 810.277 832.987 811.184 829.438C812.09 825.888 812.694 822.301 812.996 818.676C813.374 815.051 813.562 811.954 813.562 809.387C813.562 807.499 813.449 805.044 813.223 802.023C812.996 799.003 812.618 795.944 812.09 792.848C811.561 789.676 810.806 786.73 809.824 784.012C808.918 781.293 807.747 779.254 806.312 777.895C805.633 778.121 804.802 778.234 803.82 778.234ZM879.492 770.871C879.492 781.293 878.661 791.564 877 801.684C875.414 811.803 873.488 821.885 871.223 831.93C870.921 832.911 870.732 833.742 870.656 834.422C870.203 836.612 869.712 838.878 869.184 841.219C868.73 843.484 867.975 845.75 866.918 848.016C865.936 849.904 864.577 851.565 862.84 853C861.178 854.359 859.328 855.039 857.289 855.039C856.458 855.039 855.59 854.85 854.684 854.473C853.777 854.095 852.796 853.604 851.738 853C850.228 851.943 849.095 850.508 848.34 848.695C847.585 846.807 846.943 844.882 846.414 842.918L846.188 842.125V842.238C844.904 837.329 843.809 832.421 842.902 827.512C842.072 822.603 841.241 817.656 840.41 812.672C839.957 809.576 839.504 806.517 839.051 803.496C838.598 800.4 838.069 797.341 837.465 794.32L835.879 787.637C835.501 786.126 835.086 784.503 834.633 782.766C834.255 780.953 833.878 779.254 833.5 777.668C833.122 776.082 832.82 774.685 832.594 773.477C832.367 772.193 832.254 771.324 832.254 770.871C832.254 769.436 832.707 768.492 833.613 768.039C834.595 767.51 835.69 767.246 836.898 767.246C839.315 767.246 841.43 767.775 843.242 768.832C845.13 769.889 846.49 771.626 847.32 774.043C847.773 775.327 848.151 776.686 848.453 778.121C848.831 779.556 849.133 780.991 849.359 782.426C850.643 787.41 851.852 792.697 852.984 798.285C854.193 803.798 855.212 809.122 856.043 814.258L857.062 820.035C857.138 820.413 857.176 820.715 857.176 820.941C857.176 821.168 857.176 821.357 857.176 821.508C857.251 821.659 857.289 821.848 857.289 822.074C857.365 822.301 857.44 822.641 857.516 823.094C859.177 815.089 860.574 807.083 861.707 799.078C862.84 790.997 863.406 782.879 863.406 774.723C863.406 773.061 863.293 771.438 863.066 769.852C862.915 768.266 862.727 766.604 862.5 764.867C862.273 763.281 862.047 761.658 861.82 759.996C861.669 758.259 861.594 756.522 861.594 754.785C861.594 753.199 862.085 752.104 863.066 751.5C864.048 750.896 865.257 750.594 866.691 750.594C868.428 750.594 870.014 750.707 871.449 750.934C872.884 751.16 874.13 751.613 875.188 752.293C876.245 752.897 877.113 753.803 877.793 755.012C878.473 756.145 878.926 757.655 879.152 759.543C879.303 761.28 879.379 763.168 879.379 765.207C879.454 767.171 879.492 769.059 879.492 770.871ZM932.055 832.27C932.055 834.535 931.413 836.876 930.129 839.293C928.921 841.71 927.335 843.938 925.371 845.977C923.408 847.94 921.142 849.564 918.574 850.848C916.082 852.132 913.59 852.773 911.098 852.773C907.548 852.773 904.49 852.094 901.922 850.734C899.354 849.299 897.126 847.411 895.238 845.07C893.35 842.654 891.802 839.935 890.594 836.914C889.461 833.893 888.555 830.797 887.875 827.625C887.195 824.378 886.704 821.168 886.402 817.996C886.176 814.749 886.062 811.803 886.062 809.16C886.062 806.895 886.176 804.214 886.402 801.117C886.704 798.021 887.158 794.811 887.762 791.488C888.441 788.165 889.348 784.88 890.48 781.633C891.613 778.385 893.01 775.478 894.672 772.91C896.409 770.342 898.448 768.266 900.789 766.68C903.206 765.094 905.962 764.301 909.059 764.301C911.475 764.301 913.628 764.792 915.516 765.773C917.479 766.755 919.103 768.077 920.387 769.738C921.746 771.324 922.766 773.174 923.445 775.289C924.201 777.404 924.578 779.594 924.578 781.859C924.578 784.805 923.898 788.014 922.539 791.488C921.18 794.962 919.405 798.323 917.215 801.57C915.1 804.818 912.684 807.763 909.965 810.406C907.322 812.974 904.678 814.938 902.035 816.297C902.186 817.656 902.488 819.658 902.941 822.301C903.395 824.868 903.999 827.436 904.754 830.004C905.585 832.572 906.529 834.799 907.586 836.688C908.719 838.576 910.04 839.52 911.551 839.52C912.306 839.52 912.948 839.293 913.477 838.84C914.081 838.387 914.609 837.783 915.062 837.027C915.516 836.272 915.893 835.441 916.195 834.535C916.573 833.629 916.913 832.76 917.215 831.93L917.895 830.344C918.046 830.117 918.121 829.966 918.121 829.891C918.197 829.815 918.272 829.702 918.348 829.551C918.876 828.569 919.367 827.663 919.82 826.832C920.349 826.001 921.066 825.284 921.973 824.68H921.859C922.161 824.378 922.464 824.227 922.766 824.227C923.143 824.151 923.483 824.113 923.785 824.113C924.616 824.113 925.522 824.378 926.504 824.906C927.486 825.435 928.392 826.115 929.223 826.945C930.053 827.701 930.733 828.569 931.262 829.551C931.79 830.457 932.055 831.363 932.055 832.27ZM909.625 782.312C909.625 781.557 909.587 780.764 909.512 779.934C909.436 779.103 909.247 778.385 908.945 777.781C907.888 779.065 906.944 780.613 906.113 782.426C905.358 784.163 904.716 786.013 904.188 787.977C903.659 789.865 903.206 791.79 902.828 793.754C902.526 795.717 902.299 797.53 902.148 799.191C904.112 796.85 905.849 794.207 907.359 791.262C908.87 788.241 909.625 785.258 909.625 782.312ZM904.414 753.426C904.414 752.671 904.716 751.84 905.32 750.934C906 750.027 906.755 749.159 907.586 748.328C908.492 747.497 909.398 746.742 910.305 746.062C911.211 745.307 911.966 744.665 912.57 744.137L923.672 733.941C924.578 733.262 925.522 732.507 926.504 731.676C927.561 730.77 928.656 730.316 929.789 730.316C930.544 730.316 931.375 730.618 932.281 731.223C933.263 731.751 934.132 732.431 934.887 733.262C935.717 734.017 936.397 734.885 936.926 735.867C937.454 736.849 937.719 737.717 937.719 738.473C937.719 738.624 937.719 738.775 937.719 738.926C937.719 739.077 937.643 739.228 937.492 739.379C937.266 740.285 936.812 741.078 936.133 741.758C935.453 742.438 934.698 743.079 933.867 743.684C931.526 745.572 929.714 747.007 928.43 747.988C927.221 748.895 926.089 749.763 925.031 750.594C923.974 751.349 922.766 752.18 921.406 753.086C920.122 753.992 918.31 755.314 915.969 757.051C915.138 757.655 914.307 758.146 913.477 758.523C912.721 758.901 911.891 759.09 910.984 759.09C910.305 759.09 909.587 758.939 908.832 758.637C908.077 758.335 907.359 757.919 906.68 757.391C906 756.862 905.434 756.258 904.98 755.578C904.603 754.898 904.414 754.181 904.414 753.426Z" fill="#F7931A"/>
</g>
<defs>
<clipPath id="clip0_106_662">
<rect width="1060" height="1060" fill="white"/>
</clipPath>
</defs>
</svg>
