<svg width="1060" height="1060" viewBox="0 0 1060 1060" fill="none" xmlns="http://www.w3.org/2000/svg">
<g clip-path="url(#clip0_106_709)">
<rect width="1060" height="1060" fill="black"/>
<path d="M790.229 490.783V535.001H826.616V682.48H870.539V535.001H907.185V490.783H790.229Z" fill="white"/>
<path d="M781.053 491.563L658.641 491.823V682.48H781.053V638.522H702.563V608.35H766.239V564.393H702.563V535.521H781.053V491.563Z" fill="white"/>
<path d="M581.987 682.22C606.937 682.22 630.848 673.116 649.561 654.389L618.633 623.176C598.36 643.464 565.613 643.204 545.6 623.176C535.984 613.032 530.526 600.547 530.526 586.761C530.526 572.976 535.984 560.231 545.6 550.087C565.613 530.059 598.36 529.799 618.633 550.087L649.561 519.134C612.135 481.679 551.838 481.679 514.412 519.134C496.479 537.081 486.603 560.751 486.603 586.761C486.603 612.512 496.479 635.921 514.412 654.389C533.125 673.116 557.296 682.22 581.987 682.22Z" fill="white"/>
<path d="M1002.63 638.042C994.742 669.725 962.684 689.003 931.026 681.099C899.388 673.206 880.125 641.123 888.022 609.441C895.909 577.766 927.967 558.487 959.606 566.384C991.264 574.282 1010.53 606.369 1002.63 638.042Z" fill="#F7931A"/>
<path d="M971.371 615.323C972.55 607.45 966.562 603.222 958.375 600.401L961.035 589.744L954.547 588.126L951.968 598.503C950.259 598.078 948.509 597.678 946.77 597.28L949.379 586.835L942.901 585.218L940.242 595.872C938.833 595.551 937.443 595.233 936.104 594.899L936.114 594.865L927.167 592.631L925.448 599.561C925.448 599.561 930.256 600.663 930.156 600.732C932.775 601.388 933.255 603.126 933.175 604.505L930.146 616.644C930.326 616.694 930.566 616.764 930.826 616.864C930.606 616.814 930.376 616.754 930.136 616.694L925.898 633.7C925.578 634.501 924.768 635.701 922.929 635.241C922.989 635.331 918.221 634.061 918.221 634.061L915.002 641.494L923.439 643.594C925.008 643.985 926.538 644.405 928.057 644.785L925.368 655.569L931.846 657.19L934.504 646.516C936.274 646.996 937.993 647.446 939.673 647.866L937.024 658.48L943.501 660.091L946.19 649.337C957.246 651.428 965.553 650.587 969.052 640.573C971.87 632.52 968.912 627.878 963.094 624.847C967.332 623.867 970.521 621.075 971.371 615.323ZM956.566 636.101C954.557 644.165 941.002 639.803 936.614 638.712L940.172 624.437C944.561 625.527 958.655 627.698 956.566 636.101ZM958.565 615.203C956.736 622.536 945.46 618.804 941.802 617.894L945.031 604.943C948.689 605.855 960.475 607.56 958.565 615.203Z" fill="white"/>
<path d="M502.908 682.87L441.311 491.954H399.726L334.751 682.87H381.273L389.071 659.721H449.108L456.645 682.87H502.908ZM419.999 569.465L435.073 615.763H404.145L419.999 569.465Z" fill="white"/>
<path d="M304.083 608.48L267.436 490.393H221.174L282.771 682.87H324.355L389.33 490.393H342.808L304.083 608.48Z" fill="white"/>
<path d="M146.202 490.913H102.278V682.87H146.202C197.922 680.009 237.687 639.432 237.687 588.192C237.687 536.431 197.143 494.034 146.202 491.173V490.913ZM146.202 535.131C172.972 537.992 193.764 560.881 193.764 588.192C193.764 614.723 173.232 635.791 146.202 638.652V535.131Z" fill="white"/>
<path d="M906.866 480.213L845.269 289.296H803.684L738.709 480.213H785.231L793.029 457.063H853.066L860.603 480.213H906.866ZM823.957 366.807L839.031 413.106H808.103L823.957 366.807Z" fill="white"/>
<path d="M692.589 400.881L630.472 289.816H582.65V480.213H626.574V368.888L688.95 480.213H736.51V289.296H692.589V400.881Z" fill="white"/>
<path d="M482.028 288.256H438.104V480.213H482.028C533.748 477.352 573.513 436.775 573.513 385.535C573.513 333.774 532.969 291.377 482.028 288.516V288.256ZM482.028 332.473C508.798 335.335 529.59 358.224 529.59 385.535C529.59 412.065 509.058 433.134 482.028 435.995V332.473Z" fill="white"/>
<path d="M429.108 289.296L306.694 289.556V480.213H429.108V436.255H350.618V406.083H414.294V362.125H350.618V333.254H429.108V289.296Z" fill="white"/>
<path d="M253.58 286.175V407.904C253.58 424.03 240.325 436.255 224.991 436.255C217.194 436.255 210.436 433.394 204.719 427.672C199.261 421.949 196.662 415.187 196.662 407.383L152.738 406.863C152.478 426.631 159.756 444.578 173.27 458.364C187.045 472.149 204.719 479.953 224.471 480.213H225.251C264.496 480.213 297.504 448.48 297.504 408.164V286.175H253.58Z" fill="white"/>
<path d="M209.094 819.469C209.094 820.602 208.905 821.734 208.527 822.867C208.225 823.924 207.885 824.982 207.508 826.039C205.846 830.344 203.807 834.346 201.391 838.047C198.974 841.672 196.18 844.806 193.008 847.449C189.836 850.092 186.249 852.169 182.246 853.68C178.243 855.19 173.826 855.945 168.992 855.945C162.573 855.945 157.06 854.586 152.453 851.867C147.846 849.148 143.919 845.637 140.672 841.332C137.424 836.952 134.743 832.081 132.629 826.719C130.59 821.357 128.966 815.995 127.758 810.633C125.945 802.854 124.548 795.076 123.566 787.297C122.585 779.443 122.094 771.589 122.094 763.734C122.094 759.128 122.283 754.37 122.66 749.461C123.113 744.552 123.868 739.719 124.926 734.961C125.983 730.128 127.418 725.483 129.23 721.027C131.043 716.496 133.309 712.342 136.027 708.566C138.746 704.715 141.956 701.316 145.656 698.371C149.432 695.426 153.812 693.122 158.797 691.461C160.609 690.781 162.497 690.328 164.461 690.102C166.424 689.799 168.388 689.648 170.352 689.648C174.279 689.648 178.017 690.29 181.566 691.574C185.116 692.858 188.212 694.671 190.855 697.012C193.574 699.353 195.689 702.185 197.199 705.508C198.785 708.831 199.578 712.531 199.578 716.609C199.578 717.969 199.276 718.988 198.672 719.668C198.068 720.348 197.01 720.688 195.5 720.688C192.706 720.688 190.516 720.234 188.93 719.328C187.419 718.422 186.173 717.289 185.191 715.93C184.21 714.57 183.379 713.098 182.699 711.512C182.095 709.926 181.34 708.453 180.434 707.094C179.527 705.734 178.319 704.602 176.809 703.695C175.298 702.789 173.221 702.336 170.578 702.336C167.935 702.336 165.443 702.865 163.102 703.922C160.836 704.904 158.721 706.225 156.758 707.887C154.87 709.548 153.133 711.436 151.547 713.551C150.036 715.59 148.677 717.667 147.469 719.781C144.297 725.672 142.069 731.978 140.785 738.699C139.501 745.345 138.859 752.029 138.859 758.75C138.859 761.016 138.935 763.961 139.086 767.586C139.312 771.135 139.615 775.062 139.992 779.367C140.445 783.672 141.049 788.241 141.805 793.074C142.56 797.832 143.466 802.514 144.523 807.121C145.656 811.728 146.978 816.146 148.488 820.375C150.074 824.604 151.849 828.305 153.812 831.477C155.852 834.648 158.117 837.178 160.609 839.066C163.177 840.954 166.047 841.898 169.219 841.898C172.466 841.898 175.336 841.068 177.828 839.406C180.32 837.669 182.435 835.517 184.172 832.949C185.984 830.306 187.457 827.474 188.59 824.453C189.798 821.357 190.742 818.487 191.422 815.844C191.648 815.089 191.837 814.409 191.988 813.805C192.215 813.201 192.479 812.672 192.781 812.219C193.159 811.766 193.612 811.426 194.141 811.199C194.669 810.973 195.424 810.859 196.406 810.859C197.464 810.859 198.71 811.086 200.145 811.539C201.655 811.917 203.052 812.483 204.336 813.238C205.695 813.993 206.828 814.9 207.734 815.957C208.641 817.014 209.094 818.185 209.094 819.469ZM144.184 653.059C144.184 652.454 144.41 651.964 144.863 651.586C145.316 651.208 145.883 650.944 146.562 650.793C147.242 650.566 147.922 650.453 148.602 650.453C149.281 650.378 149.848 650.34 150.301 650.34C150.98 650.34 151.736 650.378 152.566 650.453C153.397 650.453 154.152 650.642 154.832 651.02C155.738 651.473 156.38 652.115 156.758 652.945C157.135 653.776 157.551 654.645 158.004 655.551C158.91 657.967 159.854 660.346 160.836 662.688C161.893 665.029 162.988 667.332 164.121 669.598C165.178 666.954 166.236 664.311 167.293 661.668C168.35 658.949 169.408 656.23 170.465 653.512C170.691 652.832 170.918 652.266 171.145 651.812C171.447 651.284 171.9 650.793 172.504 650.34C172.655 650.038 173.033 649.887 173.637 649.887C174.316 649.887 175.034 650.076 175.789 650.453C176.544 650.831 177.224 651.322 177.828 651.926C178.432 652.454 178.923 653.059 179.301 653.738C179.754 654.418 179.98 655.098 179.98 655.777C179.98 656.382 179.603 657.816 178.848 660.082C178.092 662.272 177.224 664.689 176.242 667.332C175.26 669.975 174.279 672.505 173.297 674.922C172.391 677.339 171.749 678.962 171.371 679.793C170.767 681.379 169.974 682.625 168.992 683.531C168.086 684.362 166.764 684.777 165.027 684.777C163.895 684.777 162.837 684.551 161.855 684.098C160.874 683.569 159.967 682.965 159.137 682.285C157.777 680.775 156.607 679.151 155.625 677.414C154.643 675.602 153.699 673.827 152.793 672.09C152.415 671.41 151.773 670.126 150.867 668.238C149.961 666.35 148.979 664.349 147.922 662.234C146.94 660.12 146.072 658.194 145.316 656.457C144.561 654.645 144.184 653.512 144.184 653.059ZM257.691 832.27C257.691 834.535 257.049 836.876 255.766 839.293C254.557 841.71 252.971 843.938 251.008 845.977C249.044 847.94 246.779 849.564 244.211 850.848C241.719 852.132 239.227 852.773 236.734 852.773C233.185 852.773 230.126 852.094 227.559 850.734C224.991 849.299 222.763 847.411 220.875 845.07C218.987 842.654 217.439 839.935 216.23 836.914C215.098 833.893 214.191 830.797 213.512 827.625C212.832 824.378 212.341 821.168 212.039 817.996C211.812 814.749 211.699 811.803 211.699 809.16C211.699 806.895 211.812 804.214 212.039 801.117C212.341 798.021 212.794 794.811 213.398 791.488C214.078 788.165 214.984 784.88 216.117 781.633C217.25 778.385 218.647 775.478 220.309 772.91C222.046 770.342 224.085 768.266 226.426 766.68C228.842 765.094 231.599 764.301 234.695 764.301C237.112 764.301 239.264 764.792 241.152 765.773C243.116 766.755 244.74 768.077 246.023 769.738C247.383 771.324 248.402 773.174 249.082 775.289C249.837 777.404 250.215 779.594 250.215 781.859C250.215 784.805 249.535 788.014 248.176 791.488C246.816 794.962 245.042 798.323 242.852 801.57C240.737 804.818 238.32 807.763 235.602 810.406C232.958 812.974 230.315 814.938 227.672 816.297C227.823 817.656 228.125 819.658 228.578 822.301C229.031 824.868 229.635 827.436 230.391 830.004C231.221 832.572 232.165 834.799 233.223 836.688C234.355 838.576 235.677 839.52 237.188 839.52C237.943 839.52 238.585 839.293 239.113 838.84C239.717 838.387 240.246 837.783 240.699 837.027C241.152 836.272 241.53 835.441 241.832 834.535C242.21 833.629 242.549 832.76 242.852 831.93L243.531 830.344C243.682 830.117 243.758 829.966 243.758 829.891C243.833 829.815 243.909 829.702 243.984 829.551C244.513 828.569 245.004 827.663 245.457 826.832C245.986 826.001 246.703 825.284 247.609 824.68H247.496C247.798 824.378 248.1 824.227 248.402 824.227C248.78 824.151 249.12 824.113 249.422 824.113C250.253 824.113 251.159 824.378 252.141 824.906C253.122 825.435 254.029 826.115 254.859 826.945C255.69 827.701 256.37 828.569 256.898 829.551C257.427 830.457 257.691 831.363 257.691 832.27ZM235.262 782.312C235.262 781.557 235.224 780.764 235.148 779.934C235.073 779.103 234.884 778.385 234.582 777.781C233.525 779.065 232.581 780.613 231.75 782.426C230.995 784.163 230.353 786.013 229.824 787.977C229.296 789.865 228.842 791.79 228.465 793.754C228.163 795.717 227.936 797.53 227.785 799.191C229.749 796.85 231.486 794.207 232.996 791.262C234.507 788.241 235.262 785.258 235.262 782.312ZM301.305 769.965C301.305 770.871 300.965 771.626 300.285 772.23C299.681 772.835 298.926 773.363 298.02 773.816C297.113 774.194 296.169 774.458 295.188 774.609C294.281 774.76 293.526 774.836 292.922 774.836C292.016 774.836 291.147 774.76 290.316 774.609C289.486 774.383 288.655 774.156 287.824 773.93C286.993 773.703 286.201 773.514 285.445 773.363C284.69 773.137 283.897 773.023 283.066 773.023C281.934 773.023 280.801 773.212 279.668 773.59C278.535 773.967 277.516 774.496 276.609 775.176C275.703 775.855 274.948 776.686 274.344 777.668C273.815 778.65 273.551 779.745 273.551 780.953C273.551 782.766 273.928 784.578 274.684 786.391C275.439 788.128 276.421 789.902 277.629 791.715C278.913 793.527 280.348 795.378 281.934 797.266C283.595 799.078 285.332 800.928 287.145 802.816C289.335 805.233 291.525 807.688 293.715 810.18C295.98 812.672 297.982 815.277 299.719 817.996C301.531 820.715 303.004 823.585 304.137 826.605C305.27 829.626 305.836 832.798 305.836 836.121C305.836 838.991 305.345 841.559 304.363 843.824C303.457 846.09 302.135 848.016 300.398 849.602C298.737 851.188 296.698 852.396 294.281 853.227C291.94 854.133 289.372 854.586 286.578 854.586C285.823 854.586 284.652 854.435 283.066 854.133C281.556 853.831 279.819 853.415 277.855 852.887C275.892 852.283 273.853 851.641 271.738 850.961C269.699 850.281 267.811 849.564 266.074 848.809C264.413 847.978 263.016 847.185 261.883 846.43C260.826 845.599 260.297 844.844 260.297 844.164C260.297 843.258 260.712 842.352 261.543 841.445C262.374 840.464 263.355 839.595 264.488 838.84C265.621 838.009 266.792 837.329 268 836.801C269.284 836.272 270.341 836.008 271.172 836.008C272.305 836.008 273.475 836.272 274.684 836.801C275.967 837.329 277.251 837.934 278.535 838.613C279.97 839.368 281.405 840.048 282.84 840.652C284.35 841.257 285.898 841.559 287.484 841.559C288.693 841.559 289.372 841.143 289.523 840.312C289.75 839.482 289.863 838.538 289.863 837.48C289.863 834.837 289.41 832.345 288.504 830.004C287.598 827.587 286.427 825.246 284.992 822.98C283.557 820.715 281.896 818.525 280.008 816.41C278.12 814.22 276.232 812.068 274.344 809.953C272.38 807.839 270.454 805.724 268.566 803.609C266.754 801.495 265.13 799.342 263.695 797.152C262.26 794.887 261.09 792.583 260.184 790.242C259.353 787.901 258.938 785.409 258.938 782.766C258.938 779.518 259.655 776.611 261.09 774.043C262.525 771.4 264.375 769.134 266.641 767.246C268.982 765.358 271.587 763.923 274.457 762.941C277.402 761.884 280.348 761.355 283.293 761.355C284.275 761.355 285.785 761.582 287.824 762.035C289.863 762.413 291.865 762.979 293.828 763.734C295.792 764.49 297.529 765.396 299.039 766.453C300.549 767.51 301.305 768.681 301.305 769.965ZM367.121 854.699C367.121 855.53 366.668 856.285 365.762 856.965C364.855 857.645 363.798 858.211 362.59 858.664C361.457 859.117 360.286 859.457 359.078 859.684C357.87 859.986 356.926 860.137 356.246 860.137C354.962 860.137 353.792 859.872 352.734 859.344C351.677 858.891 350.695 858.286 349.789 857.531C348.883 856.776 348.014 855.945 347.184 855.039C346.428 854.133 345.711 853.227 345.031 852.32C342.388 849.073 339.669 845.448 336.875 841.445C334.081 837.443 331.589 833.629 329.398 830.004C329.398 830.306 329.436 830.684 329.512 831.137C329.587 831.59 329.625 831.967 329.625 832.27C329.776 833.855 329.889 835.441 329.965 837.027C330.116 838.538 330.305 840.086 330.531 841.672C330.607 842.578 330.682 843.484 330.758 844.391C330.909 845.221 331.06 846.128 331.211 847.109C331.362 848.318 331.513 849.526 331.664 850.734C331.815 851.943 331.891 853.189 331.891 854.473C331.891 856.059 331.438 857.116 330.531 857.645C329.625 858.249 328.417 858.551 326.906 858.551C325.849 858.551 324.716 858.475 323.508 858.324C322.299 858.173 321.129 857.871 319.996 857.418C318.863 856.965 317.844 856.361 316.938 855.605C316.031 854.85 315.352 853.868 314.898 852.66C314.672 851.754 314.445 850.055 314.219 847.562C313.992 845.07 313.803 842.314 313.652 839.293C313.501 836.197 313.35 833.1 313.199 830.004C313.124 826.908 313.048 824.34 312.973 822.301C312.973 821.848 312.935 821.47 312.859 821.168C312.859 820.866 312.859 820.564 312.859 820.262C312.255 819.733 311.727 819.091 311.273 818.336C310.82 817.581 310.594 816.863 310.594 816.184C310.594 815.202 310.783 814.333 311.16 813.578C311.538 812.823 311.953 812.105 312.406 811.426C311.953 802.137 311.727 792.885 311.727 783.672C311.727 776.044 311.802 768.492 311.953 761.016C312.18 753.464 312.368 745.911 312.52 738.359L312.859 723.18C312.935 722.424 312.973 721.443 312.973 720.234C312.973 719.026 312.973 717.742 312.973 716.383C312.973 714.721 312.973 712.984 312.973 711.172C312.973 709.359 313.01 707.66 313.086 706.074C313.161 704.488 313.237 703.053 313.312 701.77C313.388 700.486 313.539 699.542 313.766 698.938V699.051C314.068 697.918 314.483 697.087 315.012 696.559C315.54 696.03 316.447 695.766 317.73 695.766C320.902 695.766 323.357 696.71 325.094 698.598C326.831 700.486 327.699 703.016 327.699 706.188C327.699 711.247 327.661 716.307 327.586 721.367C327.586 726.352 327.548 731.374 327.473 736.434C327.397 741.493 327.322 746.553 327.246 751.613C327.246 756.598 327.246 761.62 327.246 766.68C327.246 768.492 327.246 770.342 327.246 772.23C327.322 774.043 327.359 775.893 327.359 777.781C327.435 779.292 327.473 780.84 327.473 782.426C327.473 784.012 327.473 785.673 327.473 787.41L339.707 767.926V768.039L340.727 766C340.953 765.622 341.066 765.358 341.066 765.207C341.142 765.056 341.217 764.867 341.293 764.641C341.444 764.339 341.708 763.885 342.086 763.281C342.539 762.677 343.294 761.771 344.352 760.562C344.729 760.185 345.182 759.845 345.711 759.543C346.24 759.241 346.919 759.09 347.75 759.09C348.581 759.09 349.411 759.354 350.242 759.883C351.148 760.336 351.941 760.94 352.621 761.695C353.301 762.451 353.867 763.281 354.32 764.188C354.773 765.094 355 765.924 355 766.68C355 767.284 354.66 768.341 353.98 769.852C353.301 771.286 352.395 773.061 351.262 775.176C350.204 777.29 348.996 779.594 347.637 782.086C346.277 784.503 344.842 786.957 343.332 789.449C341.897 791.941 340.5 794.358 339.141 796.699C337.781 799.04 336.573 801.117 335.516 802.93L332.57 807.688C334.307 810.708 336.309 814.069 338.574 817.77C340.915 821.395 343.37 825.057 345.938 828.758C348.505 832.458 351.111 836.008 353.754 839.406C356.473 842.805 359.116 845.788 361.684 848.355L362.816 849.262C363.723 849.941 364.667 850.772 365.648 851.754C366.63 852.66 367.121 853.642 367.121 854.699ZM407.449 832.27C407.449 834.535 406.807 836.876 405.523 839.293C404.315 841.71 402.729 843.938 400.766 845.977C398.802 847.94 396.536 849.564 393.969 850.848C391.477 852.132 388.984 852.773 386.492 852.773C382.943 852.773 379.884 852.094 377.316 850.734C374.749 849.299 372.521 847.411 370.633 845.07C368.745 842.654 367.197 839.935 365.988 836.914C364.855 833.893 363.949 830.797 363.27 827.625C362.59 824.378 362.099 821.168 361.797 817.996C361.57 814.749 361.457 811.803 361.457 809.16C361.457 806.895 361.57 804.214 361.797 801.117C362.099 798.021 362.552 794.811 363.156 791.488C363.836 788.165 364.742 784.88 365.875 781.633C367.008 778.385 368.405 775.478 370.066 772.91C371.803 770.342 373.842 768.266 376.184 766.68C378.6 765.094 381.357 764.301 384.453 764.301C386.87 764.301 389.022 764.792 390.91 765.773C392.874 766.755 394.497 768.077 395.781 769.738C397.141 771.324 398.16 773.174 398.84 775.289C399.595 777.404 399.973 779.594 399.973 781.859C399.973 784.805 399.293 788.014 397.934 791.488C396.574 794.962 394.799 798.323 392.609 801.57C390.495 804.818 388.078 807.763 385.359 810.406C382.716 812.974 380.073 814.938 377.43 816.297C377.581 817.656 377.883 819.658 378.336 822.301C378.789 824.868 379.393 827.436 380.148 830.004C380.979 832.572 381.923 834.799 382.98 836.688C384.113 838.576 385.435 839.52 386.945 839.52C387.701 839.52 388.342 839.293 388.871 838.84C389.475 838.387 390.004 837.783 390.457 837.027C390.91 836.272 391.288 835.441 391.59 834.535C391.967 833.629 392.307 832.76 392.609 831.93L393.289 830.344C393.44 830.117 393.516 829.966 393.516 829.891C393.591 829.815 393.667 829.702 393.742 829.551C394.271 828.569 394.762 827.663 395.215 826.832C395.743 826.001 396.461 825.284 397.367 824.68H397.254C397.556 824.378 397.858 824.227 398.16 824.227C398.538 824.151 398.878 824.113 399.18 824.113C400.01 824.113 400.917 824.378 401.898 824.906C402.88 825.435 403.786 826.115 404.617 826.945C405.448 827.701 406.128 828.569 406.656 829.551C407.185 830.457 407.449 831.363 407.449 832.27ZM385.02 782.312C385.02 781.557 384.982 780.764 384.906 779.934C384.831 779.103 384.642 778.385 384.34 777.781C383.283 779.065 382.339 780.613 381.508 782.426C380.753 784.163 380.111 786.013 379.582 787.977C379.053 789.865 378.6 791.79 378.223 793.754C377.921 795.717 377.694 797.53 377.543 799.191C379.507 796.85 381.243 794.207 382.754 791.262C384.264 788.241 385.02 785.258 385.02 782.312ZM379.809 753.426C379.809 752.671 380.111 751.84 380.715 750.934C381.395 750.027 382.15 749.159 382.98 748.328C383.887 747.497 384.793 746.742 385.699 746.062C386.605 745.307 387.361 744.665 387.965 744.137L399.066 733.941C399.973 733.262 400.917 732.507 401.898 731.676C402.956 730.77 404.051 730.316 405.184 730.316C405.939 730.316 406.77 730.618 407.676 731.223C408.658 731.751 409.526 732.431 410.281 733.262C411.112 734.017 411.792 734.885 412.32 735.867C412.849 736.849 413.113 737.717 413.113 738.473C413.113 738.624 413.113 738.775 413.113 738.926C413.113 739.077 413.038 739.228 412.887 739.379C412.66 740.285 412.207 741.078 411.527 741.758C410.848 742.438 410.092 743.079 409.262 743.684C406.921 745.572 405.108 747.007 403.824 747.988C402.616 748.895 401.483 749.763 400.426 750.594C399.368 751.349 398.16 752.18 396.801 753.086C395.517 753.992 393.704 755.314 391.363 757.051C390.533 757.655 389.702 758.146 388.871 758.523C388.116 758.901 387.285 759.09 386.379 759.09C385.699 759.09 384.982 758.939 384.227 758.637C383.471 758.335 382.754 757.919 382.074 757.391C381.395 756.862 380.828 756.258 380.375 755.578C379.997 754.898 379.809 754.181 379.809 753.426ZM526.395 808.594C526.395 817.43 524.96 825.133 522.09 831.703C519.296 838.273 515.368 843.749 510.309 848.129C505.249 852.509 499.207 855.757 492.184 857.871C485.236 860.061 477.608 861.156 469.301 861.156H465.449C464.694 861.156 463.561 861.118 462.051 861.043C460.54 861.043 458.992 860.892 457.406 860.59C455.896 860.363 454.536 859.948 453.328 859.344C452.195 858.74 451.629 857.909 451.629 856.852C451.629 855.643 451.893 854.435 452.422 853.227C453.026 852.094 453.781 851.074 454.688 850.168C455.594 849.186 456.613 848.393 457.746 847.789C458.879 847.109 460.012 846.656 461.145 846.43C460.54 845.674 460.087 844.655 459.785 843.371C459.483 842.087 459.219 840.728 458.992 839.293C458.766 837.858 458.577 836.461 458.426 835.102C458.35 833.667 458.275 832.458 458.199 831.477C456.84 819.771 455.669 808.103 454.688 796.473C453.706 784.842 453.215 773.099 453.215 761.242C453.215 753.69 453.328 746.214 453.555 738.812C453.781 731.411 453.97 723.935 454.121 716.383C454.272 713.286 454.31 710.228 454.234 707.207C454.234 704.186 454.348 701.128 454.574 698.031C454.121 698.182 453.63 698.258 453.102 698.258C452.573 698.258 452.007 698.258 451.402 698.258C450.27 698.258 449.137 698.069 448.004 697.691C446.947 697.238 446.418 696.219 446.418 694.633C446.418 692.669 446.833 691.083 447.664 689.875C448.495 688.667 449.552 687.76 450.836 687.156C452.12 686.477 453.555 686.061 455.141 685.91C456.802 685.684 458.426 685.57 460.012 685.57C467.262 685.57 474.285 686.477 481.082 688.289C487.879 690.102 493.883 692.896 499.094 696.672C504.305 700.448 508.496 705.281 511.668 711.172C514.84 716.987 516.426 723.935 516.426 732.016C516.426 738.661 515.217 745.005 512.801 751.047C510.384 757.089 506.835 762.451 502.152 767.133C506.382 768.945 510.007 771.324 513.027 774.27C516.124 777.139 518.654 780.387 520.617 784.012C522.581 787.637 524.016 791.564 524.922 795.793C525.904 799.947 526.395 804.214 526.395 808.594ZM499.207 730.43C499.207 725.898 498.49 721.896 497.055 718.422C495.62 714.872 493.618 711.814 491.051 709.246C488.483 706.603 485.424 704.488 481.875 702.902C478.326 701.241 474.436 699.995 470.207 699.164C470.358 699.542 470.434 699.882 470.434 700.184C470.434 700.486 470.434 700.75 470.434 700.977C470.434 708.151 470.358 715.25 470.207 722.273C470.056 729.221 469.98 736.245 469.98 743.344V755.125C469.98 756.635 470.018 758.184 470.094 759.77C470.169 761.28 470.207 762.828 470.207 764.414C472.171 763.583 474.134 763.168 476.098 763.168C478.137 763.092 480.176 763.055 482.215 763.055C487.879 759.505 492.108 754.861 494.902 749.121C497.772 743.306 499.207 737.076 499.207 730.43ZM509.402 808.367C509.402 804.742 509.062 801.23 508.383 797.832C507.779 794.434 506.684 791.337 505.098 788.543C503.512 785.673 501.435 783.219 498.867 781.18C496.299 779.141 493.09 777.63 489.238 776.648C483.499 779.896 477.382 782.086 470.887 783.219C471.491 791.753 472.208 800.286 473.039 808.82C473.945 817.279 475.191 825.737 476.777 834.195C477.155 836.159 477.57 838.122 478.023 840.086C478.552 841.974 478.892 843.938 479.043 845.977C484.103 845.297 488.521 843.9 492.297 841.785C496.148 839.595 499.32 836.876 501.812 833.629C504.38 830.306 506.268 826.492 507.477 822.188C508.76 817.883 509.402 813.276 509.402 808.367ZM582.129 778.234C582.129 778.99 582.053 779.783 581.902 780.613C581.751 781.444 581.6 782.199 581.449 782.879C581.298 783.71 581.147 784.503 580.996 785.258C580.845 785.938 580.77 786.617 580.77 787.297C580.77 794.32 580.883 801.382 581.109 808.48C581.411 815.504 582.167 822.565 583.375 829.664C583.753 832.383 584.206 835.026 584.734 837.594C585.263 840.161 585.867 842.767 586.547 845.41L586.773 846.09V845.863C587 846.392 587.189 846.958 587.34 847.562C587.566 848.091 587.68 848.658 587.68 849.262C587.68 850.092 587.453 850.772 587 851.301C586.622 851.829 586.132 852.245 585.527 852.547C584.923 852.849 584.243 853.038 583.488 853.113C582.809 853.189 582.167 853.227 581.562 853.227C579.07 853.227 577.069 852.962 575.559 852.434C574.124 851.829 572.953 851.036 572.047 850.055C571.141 848.997 570.461 847.751 570.008 846.316C569.63 844.882 569.29 843.296 568.988 841.559L568.648 839.52C568.346 838.462 568.158 837.329 568.082 836.121C568.007 835.517 567.931 835.253 567.855 835.328C567.855 835.328 567.818 835.026 567.742 834.422C566.685 836.31 565.439 838.349 564.004 840.539C562.645 842.654 561.059 844.655 559.246 846.543C557.509 848.355 555.621 849.904 553.582 851.188C551.543 852.396 549.353 853 547.012 853C543.764 853 541.234 852.018 539.422 850.055C537.685 848.091 536.401 845.712 535.57 842.918C534.74 840.048 534.249 837.103 534.098 834.082C533.947 830.986 533.871 828.305 533.871 826.039C533.871 817.43 534.135 808.896 534.664 800.438C535.268 791.979 535.91 783.483 536.59 774.949C536.59 774.723 536.59 774.421 536.59 774.043C536.665 773.665 536.703 773.363 536.703 773.137C536.779 772.079 536.854 771.098 536.93 770.191C537.005 769.285 537.194 768.417 537.496 767.586V767.699C537.798 766.491 538.214 765.622 538.742 765.094C539.346 764.565 540.253 764.301 541.461 764.301C542.594 764.301 543.727 764.527 544.859 764.98C545.992 765.358 547.012 765.924 547.918 766.68C548.824 767.359 549.542 768.19 550.07 769.172C550.674 770.154 550.977 771.249 550.977 772.457C550.977 773.061 550.977 773.779 550.977 774.609C550.977 775.44 550.939 776.158 550.863 776.762C550.863 777.29 550.826 777.97 550.75 778.801C550.75 779.556 550.75 780.198 550.75 780.727C550.146 787.977 549.693 795.189 549.391 802.363C549.089 809.462 548.938 816.674 548.938 824C548.938 826.039 548.938 828.078 548.938 830.117C549.013 832.156 549.24 834.195 549.617 836.234C552.109 833.062 554.262 829.022 556.074 824.113C557.887 819.129 559.397 813.88 560.605 808.367C561.889 802.779 562.909 797.266 563.664 791.828C564.495 786.315 565.099 781.444 565.477 777.215C565.477 776.988 565.477 776.724 565.477 776.422C565.552 776.12 565.59 775.855 565.59 775.629C565.665 774.798 565.741 774.005 565.816 773.25C565.892 772.495 566.156 771.777 566.609 771.098C566.609 770.418 566.647 769.701 566.723 768.945C566.798 768.19 566.987 767.51 567.289 766.906C567.591 766.227 568.007 765.698 568.535 765.32C569.139 764.943 569.97 764.754 571.027 764.754C574.048 764.754 576.427 765.698 578.164 767.586C579.901 769.398 580.845 771.74 580.996 774.609C581.374 775.214 581.638 775.818 581.789 776.422C582.016 776.951 582.129 777.555 582.129 778.234ZM645.793 849.488C645.793 850.319 645.604 851.036 645.227 851.641C644.849 852.169 644.358 852.622 643.754 853C643.225 853.302 642.621 853.529 641.941 853.68C641.337 853.831 640.733 853.906 640.129 853.906C639.223 853.906 638.241 853.793 637.184 853.566C636.126 853.34 635.069 853.038 634.012 852.66C632.954 852.207 631.973 851.678 631.066 851.074C630.236 850.395 629.594 849.639 629.141 848.809C628.688 847.978 628.348 846.958 628.121 845.75C627.97 844.466 627.819 843.182 627.668 841.898C626.913 843.711 626.007 845.486 624.949 847.223C623.967 848.96 622.759 850.508 621.324 851.867C619.889 853.151 618.266 854.171 616.453 854.926C614.716 855.757 612.753 856.172 610.562 856.172C606.711 856.172 603.577 855.266 601.16 853.453C598.819 851.641 596.969 849.375 595.609 846.656C594.326 843.862 593.457 840.841 593.004 837.594C592.626 834.271 592.438 831.099 592.438 828.078C592.438 825.586 592.551 822.754 592.777 819.582C593.004 816.41 593.306 813.163 593.684 809.84C594.061 806.517 594.514 803.307 595.043 800.211C595.572 797.039 596.138 794.245 596.742 791.828C597.497 789.034 598.404 785.975 599.461 782.652C600.594 779.254 601.991 776.12 603.652 773.25C605.389 770.305 607.504 767.812 609.996 765.773C612.488 763.734 615.471 762.602 618.945 762.375C618.719 756.258 618.379 750.632 617.926 745.496C617.548 740.285 617.133 734.961 616.68 729.523L615.547 716.949L615.094 712.418C614.943 711.21 614.829 710.001 614.754 708.793C614.678 707.509 614.641 706.263 614.641 705.055C614.641 703.318 615.094 702.109 616 701.43C616.982 700.75 618.228 700.41 619.738 700.41C623.061 700.41 625.591 700.901 627.328 701.883C629.065 702.865 630.273 704.186 630.953 705.848C631.708 707.509 632.124 709.473 632.199 711.738C632.275 713.928 632.312 716.307 632.312 718.875C632.312 720.536 632.501 722.424 632.879 724.539L633.445 728.73L634.352 740.285C634.503 742.098 634.654 743.91 634.805 745.723C634.956 747.535 635.107 749.348 635.258 751.16L637.637 775.516L642.168 821.055L642.508 825.246C642.81 828.342 643.074 831.552 643.301 834.875C643.603 838.198 644.132 841.483 644.887 844.73C645.113 845.561 645.302 846.354 645.453 847.109C645.68 847.865 645.793 848.658 645.793 849.488ZM619.398 783.219C619.398 782.388 619.361 781.482 619.285 780.5C619.285 779.443 619.285 778.461 619.285 777.555V774.496C618.757 775.251 618.077 776.309 617.246 777.668C616.415 778.952 615.773 780.122 615.32 781.18C614.112 783.823 613.017 787.221 612.035 791.375C611.053 795.453 610.185 799.758 609.43 804.289C608.75 808.745 608.221 813.125 607.844 817.43C607.466 821.659 607.277 825.208 607.277 828.078C607.277 829.135 607.277 830.344 607.277 831.703C607.353 833.062 607.504 834.46 607.73 835.895C607.957 837.254 608.297 838.576 608.75 839.859C609.203 841.143 609.807 842.201 610.562 843.031C611.695 841.596 612.715 839.406 613.621 836.461C614.527 833.44 615.283 830.042 615.887 826.266C616.566 822.414 617.133 818.374 617.586 814.145C618.039 809.915 618.379 805.837 618.605 801.91C618.908 797.908 619.096 794.283 619.172 791.035C619.323 787.712 619.398 785.107 619.398 783.219ZM697.676 832.27C697.676 834.535 697.034 836.876 695.75 839.293C694.542 841.71 692.956 843.938 690.992 845.977C689.029 847.94 686.763 849.564 684.195 850.848C681.703 852.132 679.211 852.773 676.719 852.773C673.169 852.773 670.111 852.094 667.543 850.734C664.975 849.299 662.747 847.411 660.859 845.07C658.971 842.654 657.423 839.935 656.215 836.914C655.082 833.893 654.176 830.797 653.496 827.625C652.816 824.378 652.326 821.168 652.023 817.996C651.797 814.749 651.684 811.803 651.684 809.16C651.684 806.895 651.797 804.214 652.023 801.117C652.326 798.021 652.779 794.811 653.383 791.488C654.062 788.165 654.969 784.88 656.102 781.633C657.234 778.385 658.632 775.478 660.293 772.91C662.03 770.342 664.069 768.266 666.41 766.68C668.827 765.094 671.583 764.301 674.68 764.301C677.096 764.301 679.249 764.792 681.137 765.773C683.1 766.755 684.724 768.077 686.008 769.738C687.367 771.324 688.387 773.174 689.066 775.289C689.822 777.404 690.199 779.594 690.199 781.859C690.199 784.805 689.52 788.014 688.16 791.488C686.801 794.962 685.026 798.323 682.836 801.57C680.721 804.818 678.305 807.763 675.586 810.406C672.943 812.974 670.299 814.938 667.656 816.297C667.807 817.656 668.109 819.658 668.562 822.301C669.016 824.868 669.62 827.436 670.375 830.004C671.206 832.572 672.15 834.799 673.207 836.688C674.34 838.576 675.661 839.52 677.172 839.52C677.927 839.52 678.569 839.293 679.098 838.84C679.702 838.387 680.23 837.783 680.684 837.027C681.137 836.272 681.514 835.441 681.816 834.535C682.194 833.629 682.534 832.76 682.836 831.93L683.516 830.344C683.667 830.117 683.742 829.966 683.742 829.891C683.818 829.815 683.893 829.702 683.969 829.551C684.497 828.569 684.988 827.663 685.441 826.832C685.97 826.001 686.688 825.284 687.594 824.68H687.48C687.783 824.378 688.085 824.227 688.387 824.227C688.764 824.151 689.104 824.113 689.406 824.113C690.237 824.113 691.143 824.378 692.125 824.906C693.107 825.435 694.013 826.115 694.844 826.945C695.674 827.701 696.354 828.569 696.883 829.551C697.411 830.457 697.676 831.363 697.676 832.27ZM675.246 782.312C675.246 781.557 675.208 780.764 675.133 779.934C675.057 779.103 674.868 778.385 674.566 777.781C673.509 779.065 672.565 780.613 671.734 782.426C670.979 784.163 670.337 786.013 669.809 787.977C669.28 789.865 668.827 791.79 668.449 793.754C668.147 795.717 667.921 797.53 667.77 799.191C669.733 796.85 671.47 794.207 672.98 791.262C674.491 788.241 675.246 785.258 675.246 782.312ZM650.098 726.465C650.098 725.861 650.324 725.37 650.777 724.992C651.23 724.615 651.797 724.35 652.477 724.199C653.156 723.973 653.836 723.859 654.516 723.859C655.195 723.784 655.762 723.746 656.215 723.746C656.895 723.746 657.65 723.784 658.48 723.859C659.311 723.859 660.066 724.048 660.746 724.426C661.652 724.879 662.294 725.521 662.672 726.352C663.049 727.182 663.465 728.051 663.918 728.957C664.824 731.374 665.768 733.753 666.75 736.094C667.807 738.435 668.902 740.738 670.035 743.004C671.092 740.361 672.15 737.717 673.207 735.074C674.264 732.355 675.322 729.637 676.379 726.918C676.605 726.238 676.832 725.672 677.059 725.219C677.361 724.69 677.814 724.199 678.418 723.746C678.569 723.444 678.947 723.293 679.551 723.293C680.23 723.293 680.948 723.482 681.703 723.859C682.458 724.237 683.138 724.728 683.742 725.332C684.346 725.861 684.837 726.465 685.215 727.145C685.668 727.824 685.895 728.504 685.895 729.184C685.895 729.788 685.517 731.223 684.762 733.488C684.007 735.678 683.138 738.095 682.156 740.738C681.174 743.382 680.193 745.911 679.211 748.328C678.305 750.745 677.663 752.368 677.285 753.199C676.681 754.785 675.888 756.031 674.906 756.938C674 757.768 672.678 758.184 670.941 758.184C669.809 758.184 668.751 757.957 667.77 757.504C666.788 756.975 665.882 756.371 665.051 755.691C663.691 754.181 662.521 752.557 661.539 750.82C660.557 749.008 659.613 747.233 658.707 745.496C658.329 744.816 657.688 743.533 656.781 741.645C655.875 739.757 654.893 737.755 653.836 735.641C652.854 733.526 651.986 731.6 651.23 729.863C650.475 728.051 650.098 726.918 650.098 726.465ZM716.48 745.609C716.48 746.516 716.443 747.422 716.367 748.328C716.367 749.159 716.329 750.027 716.254 750.934C716.178 751.84 716.141 752.746 716.141 753.652C716.141 754.559 716.141 755.465 716.141 756.371C716.141 757.73 715.914 758.977 715.461 760.109C715.008 761.242 713.913 761.809 712.176 761.809C711.572 761.809 710.552 761.695 709.117 761.469C707.758 761.242 706.323 760.902 704.812 760.449C703.378 759.996 702.094 759.467 700.961 758.863C699.828 758.184 699.262 757.428 699.262 756.598C699.262 756.296 699.413 755.352 699.715 753.766C700.092 752.18 700.508 750.48 700.961 748.668C701.414 746.78 701.829 745.081 702.207 743.57C702.585 741.984 702.849 741.116 703 740.965V741.078C703.378 740.247 703.755 739.757 704.133 739.605C704.51 739.454 705.115 739.379 705.945 739.379C706.852 739.379 707.909 739.492 709.117 739.719C710.326 739.87 711.458 740.21 712.516 740.738C713.648 741.191 714.592 741.833 715.348 742.664C716.103 743.419 716.48 744.401 716.48 745.609ZM736.645 817.996C736.645 818.449 736.267 819.507 735.512 821.168C734.832 822.754 733.964 824.604 732.906 826.719C731.849 828.833 730.716 831.061 729.508 833.402C728.299 835.668 727.242 837.707 726.336 839.52C725.883 840.426 725.505 841.257 725.203 842.012C724.901 842.691 724.637 843.22 724.41 843.598L725.43 849.715C726.789 858.4 728.073 867.122 729.281 875.883C730.49 884.643 731.094 893.479 731.094 902.391C731.094 905.034 731.018 907.753 730.867 910.547C730.792 913.417 730.452 916.211 729.848 918.93C729.319 921.648 728.413 924.216 727.129 926.633C725.921 929.125 724.184 931.277 721.918 933.09C720.181 934.449 718.293 935.507 716.254 936.262C714.215 937.092 712.1 937.508 709.91 937.508C705.757 937.508 702.32 936.602 699.602 934.789C696.958 933.052 694.844 930.786 693.258 927.992C691.672 925.198 690.577 922.064 689.973 918.59C689.293 915.191 688.953 911.793 688.953 908.395C688.953 902.428 689.557 896.5 690.766 890.609C691.898 884.719 693.409 878.904 695.297 873.164C697.185 867.424 699.299 861.798 701.641 856.285C704.057 850.772 706.474 845.335 708.891 839.973C707.758 833.176 706.852 826.454 706.172 819.809C705.492 813.087 704.926 806.177 704.473 799.078L704.133 793.641C703.982 790.846 703.793 788.052 703.566 785.258C703.415 782.464 703.34 779.632 703.34 776.762C703.34 775.251 703.566 773.967 704.02 772.91C704.548 771.777 705.681 771.211 707.418 771.211C708.249 771.211 709.042 771.286 709.797 771.438C710.552 771.589 711.345 771.853 712.176 772.23V772.117C713.611 772.797 714.706 773.59 715.461 774.496C716.216 775.327 716.783 776.233 717.16 777.215C717.538 778.197 717.764 779.254 717.84 780.387C717.991 781.52 718.066 782.69 718.066 783.898V785.711C718.293 790.997 718.557 795.944 718.859 800.551C719.237 805.082 719.728 809.991 720.332 815.277C721.012 813.918 721.805 812.672 722.711 811.539C723.693 810.331 725.014 809.727 726.676 809.727C727.507 809.727 728.488 809.991 729.621 810.52C730.829 811.048 731.924 811.728 732.906 812.559C733.964 813.389 734.832 814.296 735.512 815.277C736.267 816.259 736.645 817.165 736.645 817.996ZM715.914 899.672C715.914 894.688 715.65 889.59 715.121 884.379C714.668 879.168 714.064 874.033 713.309 868.973C711.043 875.014 709.079 881.358 707.418 888.004C705.757 894.725 704.926 901.258 704.926 907.602C704.926 908.885 704.964 910.283 705.039 911.793C705.115 913.379 705.303 914.965 705.605 916.551C705.908 918.137 706.323 919.647 706.852 921.082C707.38 922.517 708.098 923.688 709.004 924.594C709.079 924.669 709.306 924.707 709.684 924.707C710.665 924.707 711.496 924.178 712.176 923.121C712.855 922.139 713.422 920.855 713.875 919.27C714.328 917.684 714.668 915.909 714.895 913.945C715.197 911.982 715.423 910.056 715.574 908.168C715.725 906.355 715.801 904.656 715.801 903.07C715.876 901.56 715.914 900.427 715.914 899.672ZM789.887 806.555C789.887 813.125 789.32 819.695 788.188 826.266C787.13 832.76 784.902 838.915 781.504 844.73C780.447 846.467 779.238 848.167 777.879 849.828C776.52 851.414 775.009 852.849 773.348 854.133C771.762 855.492 769.987 856.549 768.023 857.305C766.135 858.135 764.134 858.551 762.02 858.551C758.697 858.551 755.789 857.758 753.297 856.172C750.88 854.661 748.766 852.66 746.953 850.168C745.216 847.6 743.743 844.73 742.535 841.559C741.402 838.311 740.496 835.026 739.816 831.703C739.212 828.305 738.759 825.02 738.457 821.848C738.23 818.676 738.117 815.882 738.117 813.465C738.117 810.746 738.23 807.763 738.457 804.516C738.684 801.268 739.061 797.945 739.59 794.547C740.194 791.148 740.949 787.788 741.855 784.465C742.837 781.142 744.083 778.046 745.594 775.176C747.104 772.23 748.917 769.625 751.031 767.359C753.146 765.018 755.6 763.168 758.395 761.809V761.922C760.811 760.638 763.228 759.996 765.645 759.996C767.155 759.996 768.326 760.336 769.156 761.016C769.987 761.62 770.365 762.677 770.289 764.188C774.443 764.943 777.803 766.944 780.371 770.191C782.939 773.439 784.902 777.215 786.262 781.52C787.697 785.824 788.641 790.242 789.094 794.773C789.622 799.305 789.887 803.232 789.887 806.555ZM764.285 778.234C763.001 778.234 761.793 777.743 760.66 776.762C759.225 778.952 758.017 781.482 757.035 784.352C756.053 787.146 755.26 790.053 754.656 793.074C754.128 796.02 753.75 799.003 753.523 802.023C753.297 805.044 753.184 807.876 753.184 810.52C753.184 812.71 753.297 815.542 753.523 819.016C753.75 822.414 754.165 825.85 754.77 829.324C755.449 832.798 756.355 836.046 757.488 839.066C758.697 842.087 760.245 844.315 762.133 845.75C764.474 844.391 766.4 842.238 767.91 839.293C769.496 836.272 770.742 832.987 771.648 829.438C772.555 825.888 773.159 822.301 773.461 818.676C773.839 815.051 774.027 811.954 774.027 809.387C774.027 807.499 773.914 805.044 773.688 802.023C773.461 799.003 773.083 795.944 772.555 792.848C772.026 789.676 771.271 786.73 770.289 784.012C769.383 781.293 768.212 779.254 766.777 777.895C766.098 778.121 765.267 778.234 764.285 778.234ZM839.957 770.871C839.957 781.293 839.126 791.564 837.465 801.684C835.879 811.803 833.953 821.885 831.688 831.93C831.385 832.911 831.197 833.742 831.121 834.422C830.668 836.612 830.177 838.878 829.648 841.219C829.195 843.484 828.44 845.75 827.383 848.016C826.401 849.904 825.042 851.565 823.305 853C821.643 854.359 819.793 855.039 817.754 855.039C816.923 855.039 816.055 854.85 815.148 854.473C814.242 854.095 813.26 853.604 812.203 853C810.693 851.943 809.56 850.508 808.805 848.695C808.049 846.807 807.408 844.882 806.879 842.918L806.652 842.125V842.238C805.368 837.329 804.273 832.421 803.367 827.512C802.536 822.603 801.706 817.656 800.875 812.672C800.422 809.576 799.969 806.517 799.516 803.496C799.062 800.4 798.534 797.341 797.93 794.32L796.344 787.637C795.966 786.126 795.551 784.503 795.098 782.766C794.72 780.953 794.342 779.254 793.965 777.668C793.587 776.082 793.285 774.685 793.059 773.477C792.832 772.193 792.719 771.324 792.719 770.871C792.719 769.436 793.172 768.492 794.078 768.039C795.06 767.51 796.155 767.246 797.363 767.246C799.78 767.246 801.895 767.775 803.707 768.832C805.595 769.889 806.954 771.626 807.785 774.043C808.238 775.327 808.616 776.686 808.918 778.121C809.296 779.556 809.598 780.991 809.824 782.426C811.108 787.41 812.316 792.697 813.449 798.285C814.658 803.798 815.677 809.122 816.508 814.258L817.527 820.035C817.603 820.413 817.641 820.715 817.641 820.941C817.641 821.168 817.641 821.357 817.641 821.508C817.716 821.659 817.754 821.848 817.754 822.074C817.829 822.301 817.905 822.641 817.98 823.094C819.642 815.089 821.039 807.083 822.172 799.078C823.305 790.997 823.871 782.879 823.871 774.723C823.871 773.061 823.758 771.438 823.531 769.852C823.38 768.266 823.191 766.604 822.965 764.867C822.738 763.281 822.512 761.658 822.285 759.996C822.134 758.259 822.059 756.522 822.059 754.785C822.059 753.199 822.549 752.104 823.531 751.5C824.513 750.896 825.721 750.594 827.156 750.594C828.893 750.594 830.479 750.707 831.914 750.934C833.349 751.16 834.595 751.613 835.652 752.293C836.71 752.897 837.578 753.803 838.258 755.012C838.938 756.145 839.391 757.655 839.617 759.543C839.768 761.28 839.844 763.168 839.844 765.207C839.919 767.171 839.957 769.059 839.957 770.871ZM863.066 757.73C863.066 759.014 862.764 759.958 862.16 760.562C861.632 761.091 860.612 761.355 859.102 761.355C858.422 761.355 857.365 761.28 855.93 761.129C854.495 760.902 853.022 760.6 851.512 760.223C850.077 759.845 848.793 759.316 847.66 758.637C846.603 757.957 846.074 757.126 846.074 756.145C846.074 755.842 846.188 755.012 846.414 753.652C846.641 752.217 846.905 750.707 847.207 749.121C847.585 747.535 847.887 746.1 848.113 744.816C848.415 743.533 848.642 742.815 848.793 742.664V742.777C849.171 742.173 849.624 741.796 850.152 741.645C850.681 741.493 851.21 741.418 851.738 741.418C852.418 741.418 853.286 741.531 854.344 741.758C855.477 741.909 856.572 742.173 857.629 742.551C858.762 742.853 859.781 743.268 860.688 743.797C861.594 744.326 862.16 744.892 862.387 745.496C862.613 746.1 862.727 746.931 862.727 747.988C862.802 748.97 862.802 749.876 862.727 750.707C862.727 751.009 862.689 751.387 862.613 751.84C862.613 752.217 862.613 752.52 862.613 752.746C862.613 753.124 862.613 753.501 862.613 753.879C862.689 754.257 862.764 754.634 862.84 755.012C862.915 755.389 862.953 755.805 862.953 756.258C863.029 756.711 863.066 757.202 863.066 757.73ZM867.258 848.016C867.258 849.753 866.842 850.999 866.012 851.754C865.257 852.434 864.01 852.773 862.273 852.773C861.367 852.773 860.348 852.66 859.215 852.434C858.158 852.207 857.1 851.905 856.043 851.527C854.986 851.074 854.004 850.546 853.098 849.941C852.191 849.337 851.512 848.658 851.059 847.902C850.757 847.449 850.492 846.052 850.266 843.711C850.039 841.37 849.85 838.462 849.699 834.988C849.624 831.514 849.51 827.625 849.359 823.32C849.284 819.016 849.208 814.673 849.133 810.293C849.133 805.913 849.133 801.646 849.133 797.492C849.133 793.339 849.133 789.714 849.133 786.617V777.895C849.133 777.139 849.133 776.384 849.133 775.629C849.208 774.874 849.359 774.232 849.586 773.703C849.888 773.099 850.303 772.608 850.832 772.23C851.436 771.853 852.267 771.664 853.324 771.664C856.647 771.664 859.064 772.608 860.574 774.496C862.16 776.309 863.142 778.763 863.52 781.859C863.897 786.466 864.161 791.073 864.312 795.68C864.539 800.211 864.728 804.818 864.879 809.5C865.03 813.729 865.143 817.921 865.219 822.074C865.37 826.152 865.634 830.23 866.012 834.309C866.087 835.139 866.163 835.932 866.238 836.688C866.314 837.443 866.427 838.198 866.578 838.953C866.729 840.464 866.88 841.974 867.031 843.484C867.182 844.919 867.258 846.43 867.258 848.016ZM922.199 827.625C922.199 829.211 921.935 830.835 921.406 832.496C920.878 834.158 920.273 835.743 919.594 837.254C918.688 839.444 917.592 841.596 916.309 843.711C915.025 845.75 913.552 847.6 911.891 849.262C910.229 850.848 908.341 852.132 906.227 853.113C904.112 854.095 901.733 854.586 899.09 854.586C894.408 854.586 890.518 853.415 887.422 851.074C884.326 848.733 881.871 845.788 880.059 842.238C878.246 838.689 876.962 834.799 876.207 830.57C875.527 826.341 875.188 822.339 875.188 818.562C875.188 815.768 875.301 812.483 875.527 808.707C875.754 804.855 876.169 800.891 876.773 796.812C877.453 792.734 878.397 788.694 879.605 784.691C880.889 780.689 882.513 777.139 884.477 774.043C886.44 770.871 888.819 768.303 891.613 766.34C894.483 764.376 897.882 763.395 901.809 763.395C902.639 763.395 903.848 763.546 905.434 763.848C907.02 764.15 908.568 764.603 910.078 765.207C911.664 765.736 913.023 766.491 914.156 767.473C915.365 768.379 915.969 769.436 915.969 770.645C915.969 771.777 915.44 772.646 914.383 773.25C913.401 773.854 912.193 774.307 910.758 774.609C909.398 774.836 907.964 774.987 906.453 775.062C905.018 775.062 903.848 775.062 902.941 775.062H900.902C898.788 776.951 897.051 779.745 895.691 783.445C894.332 787.07 893.275 790.96 892.52 795.113C891.764 799.267 891.236 803.383 890.934 807.461C890.632 811.464 890.48 814.749 890.48 817.316C890.48 820.941 890.745 824.529 891.273 828.078C891.878 831.552 893.048 834.837 894.785 837.934C895.163 838.613 895.691 839.406 896.371 840.312C897.126 841.143 897.957 841.559 898.863 841.559C899.543 841.559 900.223 840.992 900.902 839.859C901.658 838.727 902.337 837.405 902.941 835.895C903.546 834.384 904.036 832.911 904.414 831.477C904.792 830.042 905.056 828.984 905.207 828.305C905.283 828.003 905.32 827.663 905.32 827.285C905.32 826.908 905.32 826.53 905.32 826.152C905.32 825.473 905.32 824.831 905.32 824.227C905.396 823.547 905.509 823.018 905.66 822.641C906.189 821.357 906.868 820.488 907.699 820.035C908.605 819.582 909.701 819.355 910.984 819.355C912.117 819.355 913.326 819.507 914.609 819.809C915.893 820.111 917.102 820.602 918.234 821.281C919.367 821.961 920.311 822.829 921.066 823.887C921.822 824.944 922.199 826.19 922.199 827.625ZM971.137 832.27C971.137 834.535 970.495 836.876 969.211 839.293C968.003 841.71 966.417 843.938 964.453 845.977C962.49 847.94 960.224 849.564 957.656 850.848C955.164 852.132 952.672 852.773 950.18 852.773C946.63 852.773 943.572 852.094 941.004 850.734C938.436 849.299 936.208 847.411 934.32 845.07C932.432 842.654 930.884 839.935 929.676 836.914C928.543 833.893 927.637 830.797 926.957 827.625C926.277 824.378 925.786 821.168 925.484 817.996C925.258 814.749 925.145 811.803 925.145 809.16C925.145 806.895 925.258 804.214 925.484 801.117C925.786 798.021 926.24 794.811 926.844 791.488C927.523 788.165 928.43 784.88 929.562 781.633C930.695 778.385 932.092 775.478 933.754 772.91C935.491 770.342 937.53 768.266 939.871 766.68C942.288 765.094 945.044 764.301 948.141 764.301C950.557 764.301 952.71 764.792 954.598 765.773C956.561 766.755 958.185 768.077 959.469 769.738C960.828 771.324 961.848 773.174 962.527 775.289C963.283 777.404 963.66 779.594 963.66 781.859C963.66 784.805 962.98 788.014 961.621 791.488C960.262 794.962 958.487 798.323 956.297 801.57C954.182 804.818 951.766 807.763 949.047 810.406C946.404 812.974 943.76 814.938 941.117 816.297C941.268 817.656 941.57 819.658 942.023 822.301C942.477 824.868 943.081 827.436 943.836 830.004C944.667 832.572 945.611 834.799 946.668 836.688C947.801 838.576 949.122 839.52 950.633 839.52C951.388 839.52 952.03 839.293 952.559 838.84C953.163 838.387 953.691 837.783 954.145 837.027C954.598 836.272 954.975 835.441 955.277 834.535C955.655 833.629 955.995 832.76 956.297 831.93L956.977 830.344C957.128 830.117 957.203 829.966 957.203 829.891C957.279 829.815 957.354 829.702 957.43 829.551C957.958 828.569 958.449 827.663 958.902 826.832C959.431 826.001 960.148 825.284 961.055 824.68H960.941C961.243 824.378 961.546 824.227 961.848 824.227C962.225 824.151 962.565 824.113 962.867 824.113C963.698 824.113 964.604 824.378 965.586 824.906C966.568 825.435 967.474 826.115 968.305 826.945C969.135 827.701 969.815 828.569 970.344 829.551C970.872 830.457 971.137 831.363 971.137 832.27ZM948.707 782.312C948.707 781.557 948.669 780.764 948.594 779.934C948.518 779.103 948.329 778.385 948.027 777.781C946.97 779.065 946.026 780.613 945.195 782.426C944.44 784.163 943.798 786.013 943.27 787.977C942.741 789.865 942.288 791.79 941.91 793.754C941.608 795.717 941.382 797.53 941.23 799.191C943.194 796.85 944.931 794.207 946.441 791.262C947.952 788.241 948.707 785.258 948.707 782.312Z" fill="#F7931A"/>
</g>
<defs>
<clipPath id="clip0_106_709">
<rect width="1060" height="1060" fill="white"/>
</clipPath>
</defs>
</svg>
