<svg width="1060" height="1060" viewBox="0 0 1060 1060" fill="none" xmlns="http://www.w3.org/2000/svg">
<g clip-path="url(#clip0_131_3)">
<rect width="1060" height="1060" fill="black"/>
<path d="M790.23 490.783V535.001H826.617V682.48H870.54V535.001H907.186V490.783H790.23Z" fill="#FF8C00"/>
<path d="M781.053 491.563L658.641 491.823V682.48H781.053V638.522H702.563V608.35H766.239V564.392H702.563V535.521H781.053V491.563Z" fill="#FF8C00"/>
<path d="M581.987 682.22C606.937 682.22 630.848 673.116 649.561 654.389L618.633 623.176C598.36 643.464 565.613 643.204 545.6 623.176C535.984 613.032 530.526 600.547 530.526 586.761C530.526 572.976 535.984 560.231 545.6 550.087C565.613 530.059 598.36 529.799 618.633 550.087L649.561 519.134C612.135 481.679 551.838 481.679 514.412 519.134C496.479 537.081 486.603 560.751 486.603 586.761C486.603 612.512 496.479 635.921 514.412 654.389C533.125 673.116 557.296 682.22 581.987 682.22Z" fill="#FF8C00"/>
<path d="M1002.63 638.042C994.742 669.725 962.684 689.003 931.026 681.099C899.388 673.206 880.125 641.123 888.022 609.441C895.909 577.766 927.967 558.487 959.606 566.384C991.264 574.282 1010.53 606.369 1002.63 638.042Z" fill="white"/>
<path d="M971.371 615.323C972.55 607.45 966.562 603.222 958.375 600.401L961.035 589.744L954.547 588.126L951.968 598.503C950.259 598.078 948.509 597.678 946.77 597.28L949.379 586.835L942.901 585.218L940.242 595.872C938.833 595.551 937.443 595.233 936.104 594.899L936.114 594.865L927.167 592.631L925.448 599.561C925.448 599.561 930.256 600.663 930.156 600.732C932.775 601.388 933.255 603.126 933.175 604.505L930.146 616.644C930.326 616.694 930.566 616.764 930.826 616.864C930.606 616.814 930.376 616.754 930.136 616.694L925.898 633.7C925.578 634.501 924.768 635.701 922.929 635.241C922.989 635.331 918.221 634.061 918.221 634.061L915.002 641.494L923.439 643.594C925.008 643.985 926.538 644.405 928.057 644.785L925.368 655.569L931.846 657.19L934.504 646.516C936.274 646.996 937.993 647.446 939.673 647.866L937.024 658.48L943.501 660.091L946.19 649.337C957.246 651.428 965.553 650.587 969.052 640.573C971.87 632.52 968.912 627.878 963.094 624.847C967.332 623.867 970.521 621.075 971.371 615.323ZM956.566 636.101C954.557 644.165 941.002 639.803 936.614 638.712L940.172 624.437C944.561 625.527 958.655 627.698 956.566 636.101ZM958.565 615.203C956.736 622.536 945.46 618.804 941.802 617.894L945.031 604.943C948.689 605.855 960.475 607.56 958.565 615.203Z" fill="black"/>
<path d="M502.908 682.87L441.311 491.954H399.726L334.751 682.87H381.273L389.071 659.721H449.108L456.645 682.87H502.908ZM419.999 569.465L435.073 615.763H404.145L419.999 569.465Z" fill="#FF8C00"/>
<path d="M304.083 608.48L267.436 490.393H221.174L282.771 682.87H324.355L389.33 490.393H342.808L304.083 608.48Z" fill="#FF8C00"/>
<path d="M146.202 490.913H102.278V682.87H146.202C197.922 680.009 237.687 639.432 237.687 588.192C237.687 536.431 197.143 494.034 146.202 491.173V490.913ZM146.202 535.131C172.972 537.992 193.764 560.881 193.764 588.192C193.764 614.723 173.232 635.791 146.202 638.652V535.131Z" fill="#FF8C00"/>
<path d="M906.866 480.213L845.269 289.296H803.684L738.709 480.213H785.231L793.029 457.063H853.066L860.603 480.213H906.866ZM823.957 366.807L839.031 413.106H808.103L823.957 366.807Z" fill="#FF8C00"/>
<path d="M692.589 400.881L630.472 289.816H582.65V480.213H626.574V368.888L688.95 480.213H736.51V289.296H692.589V400.881Z" fill="#FF8C00"/>
<path d="M482.028 288.256H438.104V480.213H482.028C533.748 477.352 573.513 436.775 573.513 385.535C573.513 333.774 532.969 291.377 482.028 288.516V288.256ZM482.028 332.473C508.798 335.335 529.59 358.224 529.59 385.535C529.59 412.065 509.058 433.134 482.028 435.995V332.473Z" fill="#FF8C00"/>
<path d="M429.108 289.296L306.694 289.556V480.213H429.108V436.255H350.618V406.083H414.294V362.125H350.618V333.254H429.108V289.296Z" fill="#FF8C00"/>
<path d="M253.58 286.175V407.904C253.58 424.03 240.325 436.255 224.991 436.255C217.194 436.255 210.436 433.394 204.719 427.672C199.261 421.949 196.662 415.187 196.662 407.383L152.738 406.863C152.478 426.631 159.756 444.578 173.27 458.364C187.045 472.149 204.719 479.953 224.471 480.213H225.251C264.496 480.213 297.504 448.48 297.504 408.164V286.175H253.58Z" fill="#FF8C00"/>
<path d="M419.23 852.434C419.23 854.171 418.702 855.303 417.645 855.832C416.663 856.361 415.454 856.625 414.02 856.625C412.736 856.625 411.452 856.512 410.168 856.285C408.96 856.134 407.789 855.794 406.656 855.266C405.599 854.737 404.655 854.02 403.824 853.113C403.069 852.207 402.54 851.036 402.238 849.602C401.181 845.07 400.577 840.652 400.426 836.348C400.275 831.967 400.199 827.474 400.199 822.867V808.934C400.199 802.59 400.464 796.02 400.992 789.223C401.521 782.35 402.087 775.742 402.691 769.398C402.691 769.172 402.729 768.908 402.805 768.605C402.88 768.303 402.918 768.077 402.918 767.926C402.993 767.095 403.107 766.189 403.258 765.207C403.409 764.225 403.635 763.357 403.938 762.602C404.315 761.771 404.806 761.091 405.41 760.562C406.09 760.034 406.958 759.77 408.016 759.77C409.224 759.77 410.357 760.034 411.414 760.562C412.547 761.016 413.529 761.658 414.359 762.488C415.19 763.243 415.832 764.188 416.285 765.32C416.814 766.453 417.078 767.624 417.078 768.832C417.078 770.342 417.003 771.928 416.852 773.59C416.776 775.176 416.663 776.724 416.512 778.234C416.361 779.292 416.247 780.085 416.172 780.613C416.172 781.142 416.134 782.01 416.059 783.219C416.965 781.633 417.984 780.047 419.117 778.461C420.326 776.799 421.647 775.365 423.082 774.156C424.517 772.872 426.065 771.853 427.727 771.098C429.464 770.267 431.314 769.852 433.277 769.852C435.241 769.852 436.865 770.191 438.148 770.871C439.432 771.475 440.452 772.344 441.207 773.477C441.962 774.534 442.491 775.818 442.793 777.328C443.095 778.839 443.246 780.424 443.246 782.086C443.246 783.143 443.208 784.163 443.133 785.145C443.133 786.126 443.095 787.108 443.02 788.09C442.944 789.072 442.868 790.053 442.793 791.035C442.793 791.941 442.793 792.923 442.793 793.98C442.793 795.944 442.831 797.832 442.906 799.645C443.057 801.382 443.208 803.232 443.359 805.195C444.115 802.703 445.021 799.871 446.078 796.699C447.211 793.527 448.495 790.28 449.93 786.957C451.44 783.634 453.064 780.387 454.801 777.215C456.613 773.967 458.539 771.098 460.578 768.605C462.693 766.113 464.958 764.112 467.375 762.602C469.792 761.016 472.322 760.223 474.965 760.223C479.118 760.223 482.026 761.431 483.688 763.848C485.424 766.264 486.293 769.361 486.293 773.137C486.293 774.194 486.255 775.327 486.18 776.535C486.104 777.668 485.991 778.763 485.84 779.82C485.462 783.898 485.16 788.09 484.934 792.395C484.783 796.699 484.707 800.891 484.707 804.969V807.121C484.707 812.408 484.934 817.392 485.387 822.074C485.84 826.757 486.746 831.703 488.105 836.914L489.012 839.973C489.314 841.03 489.654 842.201 490.031 843.484C490.484 844.768 490.862 846.014 491.164 847.223C491.466 848.431 491.73 849.564 491.957 850.621C492.184 851.678 492.297 852.509 492.297 853.113C492.297 854.699 491.73 855.757 490.598 856.285C489.465 856.814 488.294 857.078 487.086 857.078C486.331 857.078 485.462 857.04 484.48 856.965C483.499 856.965 482.517 856.852 481.535 856.625C480.629 856.474 479.723 856.21 478.816 855.832C477.986 855.454 477.306 854.964 476.777 854.359V854.473C476.098 853.793 475.607 852.962 475.305 851.98C475.003 850.999 474.776 850.017 474.625 849.035L474.398 848.016C473.341 843.938 472.435 840.275 471.68 837.027C471 833.78 470.434 830.533 469.98 827.285C469.527 824.038 469.188 820.677 468.961 817.203C468.81 813.729 468.734 809.727 468.734 805.195C468.734 801.344 468.885 797.417 469.188 793.414C469.565 789.411 469.943 785.484 470.32 781.633C470.32 781.255 470.32 780.84 470.32 780.387C470.396 779.858 470.471 779.405 470.547 779.027C467.677 783.483 465.147 788.392 462.957 793.754C460.842 799.04 458.917 804.478 457.18 810.066C455.518 815.655 454.046 821.281 452.762 826.945C451.553 832.534 450.458 837.858 449.477 842.918C449.477 842.993 449.628 843.447 449.93 844.277C450.307 845.033 450.647 845.939 450.949 846.996C451.327 847.978 451.667 848.96 451.969 849.941C452.271 850.848 452.422 851.452 452.422 851.754C452.422 853.491 451.855 854.548 450.723 854.926C449.59 855.303 448.419 855.492 447.211 855.492C446.305 855.492 445.323 855.454 444.266 855.379C443.208 855.303 442.151 855.115 441.094 854.812C440.112 854.51 439.168 854.095 438.262 853.566C437.431 853.113 436.751 852.434 436.223 851.527C435.77 850.772 435.241 848.997 434.637 846.203C434.033 843.333 433.391 840.01 432.711 836.234C432.031 832.383 431.389 828.267 430.785 823.887C430.181 819.507 429.615 815.353 429.086 811.426C428.557 807.499 428.142 804.062 427.84 801.117C427.538 798.172 427.387 796.171 427.387 795.113V793.414C424.97 798.625 422.969 804.214 421.383 810.18C419.797 816.146 418.589 821.999 417.758 827.738L417.305 829.777C417.154 830.382 417.04 830.986 416.965 831.59C416.889 832.118 416.852 832.647 416.852 833.176C416.852 834.007 416.927 835.026 417.078 836.234C417.305 837.443 417.569 838.764 417.871 840.199C418.249 842.163 418.551 844.202 418.777 846.316C419.079 848.355 419.23 850.395 419.23 852.434ZM543.387 832.27C543.387 834.535 542.745 836.876 541.461 839.293C540.253 841.71 538.667 843.938 536.703 845.977C534.74 847.94 532.474 849.564 529.906 850.848C527.414 852.132 524.922 852.773 522.43 852.773C518.88 852.773 515.822 852.094 513.254 850.734C510.686 849.299 508.458 847.411 506.57 845.07C504.682 842.654 503.134 839.935 501.926 836.914C500.793 833.893 499.887 830.797 499.207 827.625C498.527 824.378 498.036 821.168 497.734 817.996C497.508 814.749 497.395 811.803 497.395 809.16C497.395 806.895 497.508 804.214 497.734 801.117C498.036 798.021 498.49 794.811 499.094 791.488C499.773 788.165 500.68 784.88 501.812 781.633C502.945 778.385 504.342 775.478 506.004 772.91C507.741 770.342 509.78 768.266 512.121 766.68C514.538 765.094 517.294 764.301 520.391 764.301C522.807 764.301 524.96 764.792 526.848 765.773C528.811 766.755 530.435 768.077 531.719 769.738C533.078 771.324 534.098 773.174 534.777 775.289C535.533 777.404 535.91 779.594 535.91 781.859C535.91 784.805 535.23 788.014 533.871 791.488C532.512 794.962 530.737 798.323 528.547 801.57C526.432 804.818 524.016 807.763 521.297 810.406C518.654 812.974 516.01 814.938 513.367 816.297C513.518 817.656 513.82 819.658 514.273 822.301C514.727 824.868 515.331 827.436 516.086 830.004C516.917 832.572 517.861 834.799 518.918 836.688C520.051 838.576 521.372 839.52 522.883 839.52C523.638 839.52 524.28 839.293 524.809 838.84C525.413 838.387 525.941 837.783 526.395 837.027C526.848 836.272 527.225 835.441 527.527 834.535C527.905 833.629 528.245 832.76 528.547 831.93L529.227 830.344C529.378 830.117 529.453 829.966 529.453 829.891C529.529 829.815 529.604 829.702 529.68 829.551C530.208 828.569 530.699 827.663 531.152 826.832C531.681 826.001 532.398 825.284 533.305 824.68H533.191C533.493 824.378 533.796 824.227 534.098 824.227C534.475 824.151 534.815 824.113 535.117 824.113C535.948 824.113 536.854 824.378 537.836 824.906C538.818 825.435 539.724 826.115 540.555 826.945C541.385 827.701 542.065 828.569 542.594 829.551C543.122 830.457 543.387 831.363 543.387 832.27ZM520.957 782.312C520.957 781.557 520.919 780.764 520.844 779.934C520.768 779.103 520.579 778.385 520.277 777.781C519.22 779.065 518.276 780.613 517.445 782.426C516.69 784.163 516.048 786.013 515.52 787.977C514.991 789.865 514.538 791.79 514.16 793.754C513.858 795.717 513.632 797.53 513.48 799.191C515.444 796.85 517.181 794.207 518.691 791.262C520.202 788.241 520.957 785.258 520.957 782.312ZM587 769.965C587 770.871 586.66 771.626 585.98 772.23C585.376 772.835 584.621 773.363 583.715 773.816C582.809 774.194 581.865 774.458 580.883 774.609C579.977 774.76 579.221 774.836 578.617 774.836C577.711 774.836 576.842 774.76 576.012 774.609C575.181 774.383 574.35 774.156 573.52 773.93C572.689 773.703 571.896 773.514 571.141 773.363C570.385 773.137 569.592 773.023 568.762 773.023C567.629 773.023 566.496 773.212 565.363 773.59C564.23 773.967 563.211 774.496 562.305 775.176C561.398 775.855 560.643 776.686 560.039 777.668C559.51 778.65 559.246 779.745 559.246 780.953C559.246 782.766 559.624 784.578 560.379 786.391C561.134 788.128 562.116 789.902 563.324 791.715C564.608 793.527 566.043 795.378 567.629 797.266C569.29 799.078 571.027 800.928 572.84 802.816C575.03 805.233 577.22 807.688 579.41 810.18C581.676 812.672 583.677 815.277 585.414 817.996C587.227 820.715 588.699 823.585 589.832 826.605C590.965 829.626 591.531 832.798 591.531 836.121C591.531 838.991 591.04 841.559 590.059 843.824C589.152 846.09 587.831 848.016 586.094 849.602C584.432 851.188 582.393 852.396 579.977 853.227C577.635 854.133 575.068 854.586 572.273 854.586C571.518 854.586 570.348 854.435 568.762 854.133C567.251 853.831 565.514 853.415 563.551 852.887C561.587 852.283 559.548 851.641 557.434 850.961C555.395 850.281 553.507 849.564 551.77 848.809C550.108 847.978 548.711 847.185 547.578 846.43C546.521 845.599 545.992 844.844 545.992 844.164C545.992 843.258 546.408 842.352 547.238 841.445C548.069 840.464 549.051 839.595 550.184 838.84C551.316 838.009 552.487 837.329 553.695 836.801C554.979 836.272 556.036 836.008 556.867 836.008C558 836.008 559.171 836.272 560.379 836.801C561.663 837.329 562.947 837.934 564.23 838.613C565.665 839.368 567.1 840.048 568.535 840.652C570.046 841.257 571.594 841.559 573.18 841.559C574.388 841.559 575.068 841.143 575.219 840.312C575.445 839.482 575.559 838.538 575.559 837.48C575.559 834.837 575.105 832.345 574.199 830.004C573.293 827.587 572.122 825.246 570.688 822.98C569.253 820.715 567.591 818.525 565.703 816.41C563.815 814.22 561.927 812.068 560.039 809.953C558.076 807.839 556.15 805.724 554.262 803.609C552.449 801.495 550.826 799.342 549.391 797.152C547.956 794.887 546.785 792.583 545.879 790.242C545.048 787.901 544.633 785.409 544.633 782.766C544.633 779.518 545.35 776.611 546.785 774.043C548.22 771.4 550.07 769.134 552.336 767.246C554.677 765.358 557.283 763.923 560.152 762.941C563.098 761.884 566.043 761.355 568.988 761.355C569.97 761.355 571.48 761.582 573.52 762.035C575.559 762.413 577.56 762.979 579.523 763.734C581.487 764.49 583.224 765.396 584.734 766.453C586.245 767.51 587 768.681 587 769.965ZM622.23 850.168C622.23 850.999 622.042 851.716 621.664 852.32C621.286 852.849 620.796 853.264 620.191 853.566C619.663 853.868 619.059 854.057 618.379 854.133C617.775 854.284 617.171 854.359 616.566 854.359C615.736 854.359 614.754 854.246 613.621 854.02C612.564 853.868 611.507 853.604 610.449 853.227C609.392 852.849 608.41 852.396 607.504 851.867C606.673 851.263 606.031 850.546 605.578 849.715C605.125 848.96 604.71 847.562 604.332 845.523C604.03 843.409 603.766 840.992 603.539 838.273C603.312 835.479 603.124 832.534 602.973 829.438C602.822 826.266 602.671 823.245 602.52 820.375C602.444 817.505 602.368 814.938 602.293 812.672C602.293 810.331 602.293 808.594 602.293 807.461C602.293 802.174 602.368 797.077 602.52 792.168C602.746 787.184 602.973 782.086 603.199 776.875C602.822 776.875 602.444 776.913 602.066 776.988C601.689 777.064 601.311 777.102 600.934 777.102C599.952 777.253 598.932 777.366 597.875 777.441C596.893 777.517 595.874 777.555 594.816 777.555C593.533 777.555 592.4 777.328 591.418 776.875C590.436 776.422 589.945 775.402 589.945 773.816C589.945 771.928 590.361 770.418 591.191 769.285C592.022 768.152 593.079 767.284 594.363 766.68C595.647 766 597.044 765.547 598.555 765.32C600.065 765.018 601.538 764.792 602.973 764.641C603.199 764.641 603.35 764.641 603.426 764.641C603.501 764.565 603.652 764.527 603.879 764.527C603.954 763.621 604.03 762.526 604.105 761.242C604.181 759.883 604.257 758.41 604.332 756.824C604.408 754.332 604.521 751.689 604.672 748.895C604.823 746.025 604.974 743.306 605.125 740.738C605.276 738.095 605.465 735.792 605.691 733.828C605.918 731.789 606.145 730.354 606.371 729.523C606.749 728.542 607.164 727.749 607.617 727.145C608.146 726.54 609.09 726.238 610.449 726.238C613.47 726.238 615.811 727.22 617.473 729.184C619.134 731.147 619.965 733.564 619.965 736.434C619.965 739.757 619.852 743.079 619.625 746.402C619.474 749.725 619.323 753.086 619.172 756.484L618.832 762.262C620.72 762.035 622.608 761.695 624.496 761.242C626.309 760.865 628.121 760.525 629.934 760.223C631.822 759.921 633.634 759.77 635.371 759.77C636.882 759.77 638.052 760.185 638.883 761.016C639.714 761.771 640.129 762.904 640.129 764.414C640.129 766.076 639.827 767.699 639.223 769.285C638.618 770.871 637.561 772.079 636.051 772.91H636.164C635.862 773.061 634.956 773.288 633.445 773.59C631.935 773.816 630.198 774.043 628.234 774.27C626.346 774.496 624.458 774.723 622.57 774.949C620.758 775.176 619.398 775.327 618.492 775.402H618.379C618.228 779.632 618.115 783.823 618.039 787.977C617.964 792.055 617.926 796.208 617.926 800.438C617.926 806.253 618.077 812.445 618.379 819.016C618.757 825.51 619.361 831.703 620.191 837.594L621.098 842.691C621.4 843.975 621.664 845.259 621.891 846.543C622.117 847.751 622.23 848.96 622.23 850.168ZM689.293 806.555C689.293 813.125 688.727 819.695 687.594 826.266C686.536 832.76 684.309 838.915 680.91 844.73C679.853 846.467 678.645 848.167 677.285 849.828C675.926 851.414 674.415 852.849 672.754 854.133C671.168 855.492 669.393 856.549 667.43 857.305C665.542 858.135 663.54 858.551 661.426 858.551C658.103 858.551 655.195 857.758 652.703 856.172C650.286 854.661 648.172 852.66 646.359 850.168C644.622 847.6 643.15 844.73 641.941 841.559C640.809 838.311 639.902 835.026 639.223 831.703C638.618 828.305 638.165 825.02 637.863 821.848C637.637 818.676 637.523 815.882 637.523 813.465C637.523 810.746 637.637 807.763 637.863 804.516C638.09 801.268 638.467 797.945 638.996 794.547C639.6 791.148 640.355 787.788 641.262 784.465C642.243 781.142 643.49 778.046 645 775.176C646.51 772.23 648.323 769.625 650.438 767.359C652.552 765.018 655.007 763.168 657.801 761.809V761.922C660.217 760.638 662.634 759.996 665.051 759.996C666.561 759.996 667.732 760.336 668.562 761.016C669.393 761.62 669.771 762.677 669.695 764.188C673.849 764.943 677.21 766.944 679.777 770.191C682.345 773.439 684.309 777.215 685.668 781.52C687.103 785.824 688.047 790.242 688.5 794.773C689.029 799.305 689.293 803.232 689.293 806.555ZM663.691 778.234C662.408 778.234 661.199 777.743 660.066 776.762C658.632 778.952 657.423 781.482 656.441 784.352C655.46 787.146 654.667 790.053 654.062 793.074C653.534 796.02 653.156 799.003 652.93 802.023C652.703 805.044 652.59 807.876 652.59 810.52C652.59 812.71 652.703 815.542 652.93 819.016C653.156 822.414 653.572 825.85 654.176 829.324C654.855 832.798 655.762 836.046 656.895 839.066C658.103 842.087 659.651 844.315 661.539 845.75C663.88 844.391 665.806 842.238 667.316 839.293C668.902 836.272 670.148 832.987 671.055 829.438C671.961 825.888 672.565 822.301 672.867 818.676C673.245 815.051 673.434 811.954 673.434 809.387C673.434 807.499 673.32 805.044 673.094 802.023C672.867 799.003 672.49 795.944 671.961 792.848C671.432 789.676 670.677 786.73 669.695 784.012C668.789 781.293 667.618 779.254 666.184 777.895C665.504 778.121 664.673 778.234 663.691 778.234Z" fill="white"/>
</g>
<defs>
<clipPath id="clip0_131_3">
<rect width="1060" height="1060" fill="white"/>
</clipPath>
</defs>
</svg>
