<?xml version="1.0" encoding="UTF-8" standalone="no"?>
<svg
   width="1060"
   height="1060"
   viewBox="0 0 1060 1060"
   fill="none"
   version="1.1"
   id="svg39"
   sodipodi:docname="white-square-logo-olomouc.svg"
   inkscape:version="1.1.1 (c3084ef, 2021-09-22)"
   xmlns:inkscape="http://www.inkscape.org/namespaces/inkscape"
   xmlns:sodipodi="http://sodipodi.sourceforge.net/DTD/sodipodi-0.dtd"
   xmlns="http://www.w3.org/2000/svg"
   xmlns:svg="http://www.w3.org/2000/svg">
  <sodipodi:namedview
     id="namedview41"
     pagecolor="#ffffff"
     bordercolor="#666666"
     borderopacity="1.0"
     inkscape:pageshadow="2"
     inkscape:pageopacity="0.0"
     inkscape:pagecheckerboard="0"
     showgrid="false"
     inkscape:snap-bbox="true"
     inkscape:bbox-paths="true"
     inkscape:bbox-nodes="true"
     inkscape:snap-bbox-edge-midpoints="true"
     inkscape:zoom="1.5168626"
     inkscape:cx="379.40153"
     inkscape:cy="684.96644"
     inkscape:window-width="1512"
     inkscape:window-height="916"
     inkscape:window-x="0"
     inkscape:window-y="38"
     inkscape:window-maximized="1"
     inkscape:current-layer="svg39"
     showguides="true"
     inkscape:guide-bbox="true">
    <sodipodi:guide
       position="530,0"
       orientation="1,0"
       id="guide15780" />
  </sodipodi:namedview>
  <g
     id="g2756">
    <rect
       width="1060"
       height="1060"
       fill="#000000"
       id="rect2"
       x="0"
       y="0" />
    <path
       d="m 790.229,490.783 v 44.218 h 36.387 V 682.48 h 43.923 V 535.001 h 36.646 v -44.218 z"
       fill="#ffffff"
       id="path4" />
    <path
       d="m 781.053,491.563 -122.412,0.26 V 682.48 h 122.412 v -43.958 h -78.49 V 608.35 h 63.676 v -43.957 h -63.676 v -28.872 h 78.49 z"
       fill="#ffffff"
       id="path6" />
    <path
       d="m 581.987,682.22 c 24.95,0 48.861,-9.104 67.574,-27.831 l -30.928,-31.213 c -20.273,20.288 -53.02,20.028 -73.033,0 -9.616,-10.144 -15.074,-22.629 -15.074,-36.415 0,-13.785 5.458,-26.53 15.074,-36.674 20.013,-20.028 52.76,-20.288 73.033,0 l 30.928,-30.953 c -37.426,-37.455 -97.723,-37.455 -135.149,0 -17.933,17.947 -27.809,41.617 -27.809,67.627 0,25.751 9.876,49.16 27.809,67.628 18.713,18.727 42.884,27.831 67.575,27.831 z"
       fill="#ffffff"
       id="path8" />
    <path
       d="m 1002.63,638.042 c -7.888,31.683 -39.946,50.961 -71.604,43.057 -31.638,-7.893 -50.901,-39.976 -43.004,-71.658 7.887,-31.675 39.945,-50.954 71.584,-43.057 31.658,7.898 50.924,39.985 43.024,71.658 z"
       fill="#f7931a"
       id="path10" />
    <path
       d="m 971.371,615.323 c 1.179,-7.873 -4.809,-12.101 -12.996,-14.922 l 2.66,-10.657 -6.488,-1.618 -2.579,10.377 c -1.709,-0.425 -3.459,-0.825 -5.198,-1.223 l 2.609,-10.445 -6.478,-1.617 -2.659,10.654 c -1.409,-0.321 -2.799,-0.639 -4.138,-0.973 l 0.01,-0.034 -8.947,-2.234 -1.719,6.93 c 0,0 4.808,1.102 4.708,1.171 2.619,0.656 3.099,2.394 3.019,3.773 l -3.029,12.139 c 0.18,0.05 0.42,0.12 0.68,0.22 -0.22,-0.05 -0.45,-0.11 -0.69,-0.17 l -4.238,17.006 c -0.32,0.801 -1.13,2.001 -2.969,1.541 0.06,0.09 -4.708,-1.18 -4.708,-1.18 l -3.219,7.433 8.437,2.1 c 1.569,0.391 3.099,0.811 4.618,1.191 l -2.689,10.784 6.478,1.621 2.658,-10.674 c 1.77,0.48 3.489,0.93 5.169,1.35 l -2.649,10.614 6.477,1.611 2.689,-10.754 c 11.056,2.091 19.363,1.25 22.862,-8.764 2.818,-8.053 -0.14,-12.695 -5.958,-15.726 4.238,-0.98 7.427,-3.772 8.277,-9.524 z m -14.805,20.778 c -2.009,8.064 -15.564,3.702 -19.952,2.611 l 3.558,-14.275 c 4.389,1.09 18.483,3.261 16.394,11.664 z m 1.999,-20.898 c -1.829,7.333 -13.105,3.601 -16.763,2.691 l 3.229,-12.951 c 3.658,0.912 15.444,2.617 13.534,10.26 z"
       fill="#ffffff"
       id="path12" />
    <path
       d="M 502.908,682.87 441.311,491.954 H 399.726 L 334.751,682.87 h 46.522 l 7.798,-23.149 h 60.037 l 7.537,23.149 z m -82.909,-113.405 15.074,46.298 h -30.928 z"
       fill="#ffffff"
       id="path14" />
    <path
       d="M 304.083,608.48 267.436,490.393 h -46.262 l 61.597,192.477 h 41.584 L 389.33,490.393 h -46.522 z"
       fill="#ffffff"
       id="path16" />
    <path
       d="M 146.202,490.913 H 102.278 V 682.87 h 43.924 c 51.72,-2.861 91.485,-43.438 91.485,-94.678 0,-51.761 -40.544,-94.158 -91.485,-97.019 z m 0,44.218 c 26.77,2.861 47.562,25.75 47.562,53.061 0,26.531 -20.532,47.599 -47.562,50.46 z"
       fill="#ffffff"
       id="path18" />
    <path
       d="M 906.866,480.213 845.269,289.296 h -41.585 l -64.975,190.917 h 46.522 l 7.798,-23.15 h 60.037 l 7.537,23.15 z m -82.909,-113.406 15.074,46.299 h -30.928 z"
       fill="#ffffff"
       id="path20" />
    <path
       d="M 692.589,400.881 630.472,289.816 H 582.65 v 190.397 h 43.924 V 368.888 l 62.376,111.325 h 47.56 V 289.296 h -43.921 z"
       fill="#ffffff"
       id="path22" />
    <path
       d="m 482.028,288.256 h -43.924 v 191.957 h 43.924 c 51.72,-2.861 91.485,-43.438 91.485,-94.678 0,-51.761 -40.544,-94.158 -91.485,-97.019 z m 0,44.217 c 26.77,2.862 47.562,25.751 47.562,53.062 0,26.53 -20.532,47.599 -47.562,50.46 z"
       fill="#ffffff"
       id="path24" />
    <path
       d="m 429.108,289.296 -122.414,0.26 v 190.657 h 122.414 v -43.958 h -78.49 v -30.172 h 63.676 v -43.958 h -63.676 v -28.871 h 78.49 z"
       fill="#ffffff"
       id="path26" />
    <path
       d="m 253.58,286.175 v 121.729 c 0,16.126 -13.255,28.351 -28.589,28.351 -7.797,0 -14.555,-2.861 -20.272,-8.583 -5.458,-5.723 -8.057,-12.485 -8.057,-20.289 l -43.924,-0.52 c -0.26,19.768 7.018,37.715 20.532,51.501 13.775,13.785 31.449,21.589 51.201,21.849 h 0.78 c 39.245,0 72.253,-31.733 72.253,-72.049 V 286.175 Z"
       fill="#ffffff"
       id="path28" />
    <text
       xml:space="preserve"
       style="font-size:232px;line-height:1.25;font-family:sans-serif;word-spacing:0px;fill:#f7931a;fill-opacity:1;stroke-width:1.20833"
       x="329.66211"
       y="853.00018"
       id="text1864"><tspan
         sodipodi:role="line"
         id="tspan1862"
         x="329.66211"
         y="853.00018"
         style="font-style:normal;font-variant:normal;font-weight:normal;font-stretch:normal;font-size:232px;font-family:'Just Another Hand';-inkscape-font-specification:'Just Another Hand';fill:#f7931a;fill-opacity:1;stroke-width:1.20833" /></text>
  </g>
  <defs
     id="defs37">
    <clipPath
       id="clip0_106_849">
      <rect
         width="1060"
         height="1060"
         fill="white"
         id="rect34" />
    </clipPath>
  </defs>
  <text
     xml:space="preserve"
     style="font-size:232px;line-height:1.25;font-family:sans-serif;word-spacing:0px;fill:#f7931a;fill-opacity:1;stroke-width:1.20833"
     x="284.85938"
     y="856.17206"
     id="text1864-4"><tspan
       sodipodi:role="line"
       id="tspan1862-1"
       x="284.85938"
       y="856.17206"
       style="font-style:normal;font-variant:normal;font-weight:normal;font-stretch:normal;font-size:232px;font-family:'Just Another Hand';-inkscape-font-specification:'Just Another Hand';fill:#f7931a;fill-opacity:1;stroke-width:1.20833">Kroměříž</tspan></text>
</svg>
