<svg width="4196" height="493" viewBox="0 0 4196 493" fill="none" xmlns="http://www.w3.org/2000/svg">
<path d="M4191.53 379.568C4171.53 459.725 4090.35 508.516 4010.21 488.517C3930.07 468.533 3881.29 387.345 3901.29 307.193C3921.26 227.026 4002.44 178.24 4082.58 198.224C4162.72 218.209 4211.5 299.406 4191.53 379.568Z" fill="#F7931A"/>
<path d="M4112.37 322.056C4115.34 302.148 4100.2 291.444 4079.47 284.305L4086.18 257.334L4069.77 253.243L4063.22 279.503C4058.91 278.427 4054.48 277.412 4050.08 276.407L4056.66 249.975L4040.26 245.884L4033.52 272.845C4029.96 272.03 4026.46 271.227 4023.05 270.379L4023.07 270.295L4000.44 264.643L3996.06 282.176C3996.06 282.176 4008.24 284.968 4007.98 285.141C4014.64 286.801 4015.83 291.201 4015.63 294.69L4007.98 325.413C4008.44 325.529 4009.02 325.699 4009.68 325.96C4009.15 325.825 4008.54 325.676 4007.96 325.529L3997.23 368.571C3996.39 370.591 3994.34 373.621 3989.68 372.47C3989.86 372.707 3977.76 369.492 3977.76 369.492L3969.61 388.284L3990.97 393.608C3994.95 394.606 3998.85 395.649 4002.67 396.631L3995.88 423.909L4012.29 427.999L4019 401.011C4023.48 402.226 4027.83 403.35 4032.08 404.405L4025.37 431.268L4041.8 435.359L4048.59 408.132C4076.58 413.43 4097.62 411.294 4106.5 385.973C4113.64 365.589 4106.12 353.827 4091.41 346.159C4102.12 343.686 4110.22 336.63 4112.37 322.056ZM4074.86 374.654C4069.8 395.041 4035.47 384.019 4024.34 381.257L4033.35 345.116C4044.48 347.896 4080.15 353.394 4074.86 374.654ZM4079.95 321.762C4075.32 340.306 4046.74 330.883 4037.47 328.575L4045.65 295.796C4054.91 298.107 4084.76 302.419 4079.95 321.762Z" fill="white"/>
<path d="M3655.23 5.92383V117.819H3747.36V491.023H3858.59V117.819H3951.39V5.92383H3655.23Z" fill="white"/>
<path d="M3631.99 7.89844L3322.01 8.55667V491.023H3631.99V379.786H3433.23V303.434H3594.48V192.197H3433.23V119.136H3631.99V7.89844Z" fill="white"/>
<path d="M3127.91 490.365C3191.09 490.365 3251.64 467.327 3299.03 419.936L3220.71 340.952C3169.37 392.292 3086.45 391.634 3035.77 340.952C3011.42 315.281 2997.6 283.687 2997.6 248.802C2997.6 213.917 3011.42 181.665 3035.77 155.995C3086.45 105.313 3169.37 104.655 3220.71 155.995L3299.03 77.6685C3204.25 -17.1134 3051.57 -17.1134 2956.8 77.6685C2911.39 123.085 2886.38 182.982 2886.38 248.802C2886.38 313.965 2911.39 373.204 2956.8 419.936C3004.18 467.327 3065.39 490.365 3127.91 490.365Z" fill="white"/>
<path d="M2931.74 492.998L2775.76 9.87305H2670.46L2505.93 492.998H2623.73L2643.48 434.417H2795.5L2814.59 492.998H2931.74ZM2721.79 206.019L2759.96 323.18H2681.65L2721.79 206.019Z" fill="white"/>
<path d="M2428.27 304.75L2335.47 5.92383H2218.32L2374.3 492.998H2479.6L2644.13 5.92383H2526.33L2428.27 304.75Z" fill="white"/>
<path d="M2028.48 7.24023H1917.25V492.998H2028.48C2159.45 485.757 2260.14 383.077 2260.14 253.41C2260.14 122.427 2157.47 15.1386 2028.48 7.89831V7.24023ZM2028.48 119.135C2096.27 126.376 2148.92 184.298 2148.92 253.41C2148.92 320.547 2096.92 373.862 2028.48 381.102V119.135Z" fill="white"/>
<path d="M1909.66 491.023L1753.68 7.89844H1648.38L1483.85 491.023H1601.65L1621.4 432.442H1773.43L1792.51 491.023H1909.66ZM1699.72 204.044L1737.89 321.205H1659.57L1699.72 204.044Z" fill="white"/>
<path d="M1367.06 290.27L1209.76 9.2149H1088.67V491.023H1199.89V209.31L1357.84 491.023H1478.28V7.89844H1367.06V290.27Z" fill="white"/>
<path d="M833.869 5.26562H722.645V491.023H833.869C964.837 483.783 1065.53 381.102 1065.53 251.435C1065.53 120.452 962.862 13.1641 833.869 5.92386V5.26562ZM833.869 117.161C901.656 124.401 954.307 182.323 954.307 251.435C954.307 318.572 902.314 371.887 833.869 379.128V117.161Z" fill="white"/>
<path d="M699.863 7.89844L389.884 8.55667V491.023H699.863V379.786H501.108V303.434H662.35V192.197H501.108V119.136H699.863V7.89844Z" fill="white"/>
<path d="M255.372 0V308.041C255.372 348.85 221.807 379.786 182.977 379.786C163.233 379.786 146.122 372.546 131.643 358.065C117.822 343.584 111.241 326.471 111.241 306.725L0.0170377 305.408C-0.641093 355.432 17.7864 400.848 52.0092 435.733C86.8901 470.618 131.643 490.365 181.661 491.023H183.635C283.013 491.023 366.596 410.722 366.596 308.699V0H255.372Z" fill="white"/>
</svg>
