<svg width="4490" height="1229" viewBox="0 0 4490 1229" fill="none" xmlns="http://www.w3.org/2000/svg">
<rect width="4490" height="1229" fill="white"/>
<path d="M4341.53 732.568C4321.52 812.725 4240.33 861.516 4160.17 841.517C4080.01 821.533 4031.22 740.345 4051.22 660.193C4071.2 580.026 4152.39 531.24 4232.55 551.224C4312.71 571.209 4361.5 652.406 4341.53 732.568Z" fill="#F7931A"/>
<path d="M4262.35 675.056C4265.32 655.148 4250.17 644.444 4229.44 637.305L4236.15 610.334L4219.74 606.243L4213.18 632.503C4208.88 631.427 4204.45 630.412 4200.04 629.407L4206.63 602.975L4190.22 598.884L4183.49 625.845C4179.92 625.03 4176.42 624.227 4173 623.379L4173.03 623.295L4150.39 617.643L4146.01 635.176C4146.01 635.176 4158.19 637.968 4157.94 638.141C4164.6 639.801 4165.79 644.201 4165.59 647.69L4157.94 678.413C4158.39 678.529 4158.98 678.699 4159.64 678.96C4159.1 678.825 4158.5 678.676 4157.91 678.529L4147.18 721.571C4146.34 723.591 4144.29 726.621 4139.63 725.47C4139.81 725.707 4127.71 722.492 4127.71 722.492L4119.56 741.284L4140.92 746.608C4144.9 747.606 4148.8 748.649 4152.62 749.631L4145.84 776.909L4162.24 780.999L4168.95 754.011C4173.43 755.226 4177.79 756.35 4182.04 757.405L4175.33 784.268L4191.76 788.359L4198.55 761.132C4226.55 766.43 4247.59 764.294 4256.48 738.973C4263.62 718.589 4256.1 706.827 4241.39 699.159C4252.1 696.686 4260.2 689.63 4262.35 675.056ZM4224.83 727.654C4219.77 748.041 4185.43 737.019 4174.29 734.257L4183.31 698.116C4194.45 700.896 4230.12 706.394 4224.83 727.654ZM4229.92 674.762C4225.29 693.306 4196.7 683.883 4187.44 681.575L4195.61 648.796C4204.88 651.107 4234.73 655.419 4229.92 674.762Z" fill="white"/>
<path d="M3805.1 358.924V470.819H3897.26V844.023H4008.51V470.819H4101.33V358.924H3805.1Z" fill="black"/>
<path d="M3781.85 360.898L3471.8 361.557V844.023H3781.85V732.786H3583.05V656.434H3744.33V545.197H3583.05V472.136H3781.85V360.898Z" fill="black"/>
<path d="M3277.66 843.365C3340.85 843.365 3401.41 820.327 3448.81 772.936L3370.47 693.952C3319.13 745.292 3236.18 744.634 3185.5 693.952C3161.14 668.281 3147.32 636.687 3147.32 601.802C3147.32 566.917 3161.14 534.665 3185.5 508.995C3236.18 458.313 3319.13 457.655 3370.47 508.995L3448.81 430.668C3354.02 335.887 3201.29 335.887 3106.5 430.668C3061.08 476.085 3036.06 535.982 3036.06 601.802C3036.06 666.965 3061.08 726.204 3106.5 772.936C3153.9 820.327 3215.12 843.365 3277.66 843.365Z" fill="black"/>
<path d="M3081.44 845.998L2925.42 362.873H2820.1L2655.52 845.998H2773.36L2793.11 787.417H2945.17L2964.26 845.998H3081.44ZM2871.44 559.019L2909.62 676.18H2831.29L2871.44 559.019Z" fill="black"/>
<path d="M2577.85 657.75L2485.03 358.924H2367.85L2523.87 845.998H2629.19L2793.76 358.924H2675.93L2577.85 657.75Z" fill="black"/>
<path d="M2177.96 360.24H2066.71V845.998H2177.96C2308.96 838.757 2409.68 736.077 2409.68 606.41C2409.68 475.427 2306.99 368.139 2177.96 360.898V360.24ZM2177.96 472.135C2245.76 479.376 2298.43 537.298 2298.43 606.41C2298.43 673.547 2246.42 726.862 2177.96 734.102V472.135Z" fill="black"/>
<path d="M2059.11 844.023L1903.1 360.898H1797.77L1633.2 844.023H1751.04L1770.79 785.442H1922.85L1941.94 844.023H2059.11ZM1849.12 557.044L1887.3 674.205H1808.97L1849.12 557.044Z" fill="black"/>
<path d="M1516.38 643.27L1359.05 362.215H1237.93V844.023H1349.18V562.31L1507.17 844.023H1627.63V360.898H1516.38V643.27Z" fill="black"/>
<path d="M983.068 358.266H871.817V844.023H983.068C1114.07 836.783 1214.78 734.102 1214.78 604.435C1214.78 473.452 1112.09 366.164 983.068 358.924V358.266ZM983.068 470.161C1050.87 477.401 1103.53 535.323 1103.53 604.435C1103.53 671.572 1051.53 724.887 983.068 732.128V470.161Z" fill="black"/>
<path d="M849.03 360.898L538.977 361.557V844.023H849.03V732.786H650.227V656.434H811.508V545.197H650.227V472.136H849.03V360.898Z" fill="black"/>
<path d="M404.433 353V661.041C404.433 701.85 370.86 732.786 332.021 732.786C312.272 732.786 295.157 725.546 280.675 711.065C266.851 696.584 260.268 679.471 260.268 659.725L149.017 658.408C148.359 708.432 166.791 753.848 201.022 788.733C235.911 823.618 280.675 843.365 330.705 844.023H332.679C432.081 844.023 515.683 763.722 515.683 661.699V353H404.433Z" fill="black"/>
</svg>
