<svg width="4197" height="493" viewBox="0 0 4197 493" fill="none" xmlns="http://www.w3.org/2000/svg">
<path d="M4192.53 379.568C4172.52 459.725 4091.33 508.516 4011.17 488.517C3931.01 468.533 3882.22 387.345 3902.22 307.193C3922.2 227.026 4003.39 178.24 4083.55 198.224C4163.71 218.209 4212.5 299.406 4192.53 379.568Z" fill="white"/>
<path d="M4113.35 322.056C4116.32 302.148 4101.17 291.444 4080.44 284.305L4087.15 257.334L4070.74 253.243L4064.18 279.503C4059.88 278.427 4055.45 277.412 4051.04 276.407L4057.63 249.975L4041.22 245.884L4034.49 272.845C4030.92 272.03 4027.42 271.227 4024 270.379L4024.03 270.295L4001.39 264.643L3997.01 282.176C3997.01 282.176 4009.19 284.968 4008.94 285.141C4015.6 286.801 4016.79 291.201 4016.59 294.69L4008.94 325.413C4009.39 325.529 4009.98 325.699 4010.64 325.96C4010.1 325.825 4009.5 325.676 4008.91 325.529L3998.18 368.571C3997.34 370.591 3995.29 373.621 3990.63 372.47C3990.81 372.707 3978.71 369.492 3978.71 369.492L3970.56 388.284L3991.92 393.608C3995.9 394.606 3999.8 395.649 4003.62 396.631L3996.84 423.909L4013.24 427.999L4019.95 401.011C4024.43 402.226 4028.79 403.35 4033.04 404.405L4026.33 431.268L4042.76 435.359L4049.55 408.132C4077.55 413.43 4098.59 411.294 4107.48 385.973C4114.62 365.589 4107.1 353.827 4092.39 346.159C4103.1 343.686 4111.2 336.63 4113.35 322.056ZM4075.83 374.654C4070.77 395.041 4036.43 384.019 4025.29 381.257L4034.31 345.116C4045.45 347.896 4081.12 353.394 4075.83 374.654ZM4080.92 321.762C4076.29 340.306 4047.7 330.883 4038.44 328.575L4046.61 295.796C4055.88 298.107 4085.73 302.419 4080.92 321.762Z" fill="black"/>
<path d="M3656.1 5.92383V117.819H3748.26V491.023H3859.51V117.819H3952.33V5.92383H3656.1Z" fill="#F7931A"/>
<path d="M3632.85 7.89844L3322.8 8.55667V491.023H3632.85V379.786H3434.05V303.434H3595.33V192.197H3434.05V119.136H3632.85V7.89844Z" fill="#F7931A"/>
<path d="M3128.66 490.365C3191.85 490.365 3252.41 467.327 3299.81 419.936L3221.47 340.952C3170.13 392.292 3087.18 391.634 3036.5 340.952C3012.14 315.281 2998.31 283.687 2998.31 248.802C2998.31 213.917 3012.14 181.665 3036.5 155.995C3087.18 105.313 3170.13 104.655 3221.47 155.995L3299.81 77.6685C3205.02 -17.1134 3052.29 -17.1134 2957.5 77.6685C2912.08 123.085 2887.06 182.982 2887.06 248.802C2887.06 313.965 2912.08 373.204 2957.5 419.936C3004.9 467.327 3066.12 490.365 3128.66 490.365Z" fill="#F7931A"/>
<path d="M2932.44 492.998L2776.42 9.87305H2671.1L2506.52 492.998H2624.36L2644.11 434.417H2796.17L2815.26 492.998H2932.44ZM2722.44 206.019L2760.62 323.18H2682.29L2722.44 206.019Z" fill="#F7931A"/>
<path d="M2428.85 304.75L2336.03 5.92383H2218.85L2374.87 492.998H2480.19L2644.77 5.92383H2526.93L2428.85 304.75Z" fill="#F7931A"/>
<path d="M2028.96 7.24023H1917.71V492.998H2028.96C2159.96 485.757 2260.68 383.077 2260.68 253.41C2260.68 122.427 2157.99 15.1386 2028.96 7.89831V7.24023ZM2028.96 119.135C2096.77 126.376 2149.43 184.298 2149.43 253.41C2149.43 320.547 2097.42 373.862 2028.96 381.102V119.135Z" fill="#F7931A"/>
<path d="M1910.12 491.023L1754.1 7.89844H1648.78L1484.2 491.023H1602.04L1621.79 432.442H1773.85L1792.94 491.023H1910.12ZM1700.12 204.044L1738.3 321.205H1659.97L1700.12 204.044Z" fill="#F7931A"/>
<path d="M1367.38 290.27L1210.05 9.2149H1088.93V491.023H1200.18V209.31L1358.17 491.023H1478.63V7.89844H1367.38V290.27Z" fill="#F7931A"/>
<path d="M834.068 5.26562H722.817V491.023H834.068C965.067 483.783 1065.79 381.102 1065.79 251.435C1065.79 120.452 963.092 13.1641 834.068 5.92386V5.26562ZM834.068 117.161C901.872 124.401 954.535 182.323 954.535 251.435C954.535 318.572 902.53 371.887 834.068 379.128V117.161Z" fill="#F7931A"/>
<path d="M700.03 7.89844L389.977 8.55667V491.023H700.03V379.786H501.227V303.434H662.507V192.197H501.227V119.136H700.03V7.89844Z" fill="#F7931A"/>
<path d="M255.433 0V308.041C255.433 348.85 221.86 379.786 183.021 379.786C163.272 379.786 146.157 372.546 131.675 358.065C117.851 343.584 111.268 326.471 111.268 306.725L0.0170418 305.408C-0.641246 355.432 17.7906 400.848 52.0216 435.733C86.9108 470.618 131.675 490.365 181.705 491.023H183.679C283.081 491.023 366.683 410.722 366.683 308.699V0H255.433Z" fill="#F7931A"/>
</svg>
