<svg width="1060" height="1060" viewBox="0 0 1060 1060" fill="none" xmlns="http://www.w3.org/2000/svg">
<g clip-path="url(#clip0_106_522)">
<rect width="1060" height="1060" fill="white"/>
<path d="M790.229 490.783V535.001H826.616V682.48H870.539V535.001H907.185V490.783H790.229Z" fill="black"/>
<path d="M781.053 491.563L658.641 491.823V682.48H781.053V638.522H702.563V608.35H766.239V564.392H702.563V535.521H781.053V491.563Z" fill="black"/>
<path d="M581.987 682.22C606.937 682.22 630.848 673.116 649.561 654.389L618.633 623.176C598.36 643.464 565.613 643.204 545.6 623.176C535.984 613.032 530.526 600.547 530.526 586.761C530.526 572.976 535.984 560.231 545.6 550.087C565.613 530.059 598.36 529.799 618.633 550.087L649.561 519.134C612.135 481.679 551.838 481.679 514.412 519.134C496.479 537.081 486.603 560.751 486.603 586.761C486.603 612.512 496.479 635.921 514.412 654.389C533.125 673.116 557.296 682.22 581.987 682.22Z" fill="black"/>
<path d="M1002.63 638.042C994.742 669.725 962.684 689.003 931.026 681.099C899.388 673.206 880.125 641.123 888.022 609.441C895.909 577.766 927.967 558.487 959.606 566.384C991.264 574.282 1010.53 606.369 1002.63 638.042Z" fill="#F7931A"/>
<path d="M971.371 615.323C972.55 607.45 966.562 603.222 958.375 600.401L961.035 589.744L954.547 588.126L951.968 598.503C950.259 598.078 948.509 597.678 946.77 597.28L949.379 586.835L942.901 585.218L940.242 595.872C938.833 595.551 937.443 595.233 936.104 594.899L936.114 594.865L927.167 592.631L925.448 599.561C925.448 599.561 930.256 600.663 930.156 600.732C932.775 601.388 933.255 603.126 933.175 604.505L930.146 616.644C930.326 616.694 930.566 616.764 930.826 616.864C930.606 616.814 930.376 616.754 930.136 616.694L925.898 633.7C925.578 634.501 924.768 635.701 922.929 635.241C922.989 635.331 918.221 634.061 918.221 634.061L915.002 641.494L923.439 643.594C925.008 643.985 926.538 644.405 928.057 644.785L925.368 655.569L931.846 657.19L934.504 646.516C936.274 646.996 937.993 647.446 939.673 647.866L937.024 658.48L943.501 660.091L946.19 649.337C957.246 651.428 965.553 650.587 969.052 640.573C971.87 632.52 968.912 627.878 963.094 624.847C967.332 623.867 970.521 621.075 971.371 615.323ZM956.566 636.101C954.557 644.165 941.002 639.803 936.614 638.712L940.172 624.437C944.561 625.527 958.655 627.698 956.566 636.101ZM958.565 615.203C956.736 622.536 945.46 618.804 941.802 617.894L945.031 604.943C948.689 605.855 960.475 607.56 958.565 615.203Z" fill="white"/>
<path d="M502.908 682.87L441.311 491.954H399.726L334.751 682.87H381.273L389.071 659.721H449.108L456.645 682.87H502.908ZM419.999 569.465L435.073 615.763H404.145L419.999 569.465Z" fill="black"/>
<path d="M304.083 608.48L267.436 490.393H221.174L282.771 682.87H324.355L389.33 490.393H342.808L304.083 608.48Z" fill="black"/>
<path d="M146.202 490.913H102.278V682.87H146.202C197.922 680.009 237.687 639.432 237.687 588.192C237.687 536.431 197.143 494.034 146.202 491.173V490.913ZM146.202 535.131C172.972 537.992 193.764 560.881 193.764 588.192C193.764 614.723 173.232 635.791 146.202 638.652V535.131Z" fill="black"/>
<path d="M906.866 480.213L845.269 289.296H803.684L738.709 480.213H785.231L793.029 457.063H853.066L860.603 480.213H906.866ZM823.957 366.807L839.031 413.106H808.103L823.957 366.807Z" fill="black"/>
<path d="M692.589 400.881L630.472 289.816H582.65V480.213H626.574V368.888L688.95 480.213H736.51V289.296H692.589V400.881Z" fill="black"/>
<path d="M482.028 288.256H438.104V480.213H482.028C533.748 477.352 573.513 436.775 573.513 385.535C573.513 333.774 532.969 291.377 482.028 288.516V288.256ZM482.028 332.473C508.798 335.335 529.59 358.224 529.59 385.535C529.59 412.065 509.058 433.134 482.028 435.995V332.473Z" fill="black"/>
<path d="M429.108 289.296L306.694 289.556V480.213H429.108V436.255H350.618V406.083H414.294V362.125H350.618V333.254H429.108V289.296Z" fill="black"/>
<path d="M253.58 286.175V407.904C253.58 424.03 240.325 436.255 224.991 436.255C217.194 436.255 210.436 433.394 204.719 427.672C199.261 421.949 196.662 415.187 196.662 407.383L152.738 406.863C152.478 426.631 159.756 444.578 173.27 458.364C187.045 472.149 204.719 479.953 224.471 480.213H225.251C264.496 480.213 297.504 448.48 297.504 408.164V286.175H253.58Z" fill="black"/>
<path d="M436.223 836.461C436.223 838.198 435.279 839.859 433.391 841.445C431.578 843.031 429.199 844.504 426.254 845.863C423.384 847.147 420.174 848.355 416.625 849.488C413.151 850.546 409.715 851.452 406.316 852.207C402.993 852.962 399.935 853.529 397.141 853.906C394.346 854.359 392.27 854.586 390.91 854.586C388.342 854.586 385.964 854.284 383.773 853.68C381.659 853.076 379.809 852.169 378.223 850.961C376.637 849.677 375.391 848.053 374.484 846.09C373.654 844.126 373.238 841.747 373.238 838.953C373.238 818.789 373.314 798.701 373.465 778.688C373.616 758.674 373.691 738.51 373.691 718.195C373.691 715.023 373.616 711.889 373.465 708.793C373.314 705.697 373.238 702.562 373.238 699.391C373.238 698.635 373.276 697.767 373.352 696.785C373.427 695.728 373.616 694.784 373.918 693.953C374.22 693.047 374.673 692.292 375.277 691.688C375.882 691.083 376.712 690.781 377.77 690.781C378.827 690.781 379.922 690.932 381.055 691.234C382.263 691.536 383.358 691.99 384.34 692.594C385.397 693.198 386.303 693.953 387.059 694.859C387.889 695.69 388.493 696.672 388.871 697.805C389.249 699.164 389.4 700.637 389.324 702.223C389.324 703.733 389.324 705.281 389.324 706.867C389.702 726.956 389.966 746.893 390.117 766.68C390.344 786.466 390.457 806.404 390.457 826.492C390.457 828.758 390.457 831.023 390.457 833.289C390.533 835.555 390.684 837.82 390.91 840.086C392.949 840.01 395.441 839.671 398.387 839.066C401.332 838.462 404.277 837.707 407.223 836.801C410.243 835.819 413.076 834.724 415.719 833.516C418.362 832.307 420.439 831.023 421.949 829.664C422.629 828.984 423.346 828.305 424.102 827.625C424.857 826.87 425.801 826.492 426.934 826.492C427.915 826.492 428.935 826.832 429.992 827.512C431.125 828.191 432.145 829.06 433.051 830.117C433.957 831.099 434.712 832.156 435.316 833.289C435.921 834.422 436.223 835.479 436.223 836.461ZM452.195 757.73C452.195 759.014 451.893 759.958 451.289 760.562C450.76 761.091 449.741 761.355 448.23 761.355C447.551 761.355 446.493 761.28 445.059 761.129C443.624 760.902 442.151 760.6 440.641 760.223C439.206 759.845 437.922 759.316 436.789 758.637C435.732 757.957 435.203 757.126 435.203 756.145C435.203 755.842 435.316 755.012 435.543 753.652C435.77 752.217 436.034 750.707 436.336 749.121C436.714 747.535 437.016 746.1 437.242 744.816C437.544 743.533 437.771 742.815 437.922 742.664V742.777C438.299 742.173 438.753 741.796 439.281 741.645C439.81 741.493 440.339 741.418 440.867 741.418C441.547 741.418 442.415 741.531 443.473 741.758C444.605 741.909 445.701 742.173 446.758 742.551C447.891 742.853 448.91 743.268 449.816 743.797C450.723 744.326 451.289 744.892 451.516 745.496C451.742 746.1 451.855 746.931 451.855 747.988C451.931 748.97 451.931 749.876 451.855 750.707C451.855 751.009 451.818 751.387 451.742 751.84C451.742 752.217 451.742 752.52 451.742 752.746C451.742 753.124 451.742 753.501 451.742 753.879C451.818 754.257 451.893 754.634 451.969 755.012C452.044 755.389 452.082 755.805 452.082 756.258C452.158 756.711 452.195 757.202 452.195 757.73ZM456.387 848.016C456.387 849.753 455.971 850.999 455.141 851.754C454.385 852.434 453.139 852.773 451.402 852.773C450.496 852.773 449.477 852.66 448.344 852.434C447.286 852.207 446.229 851.905 445.172 851.527C444.115 851.074 443.133 850.546 442.227 849.941C441.32 849.337 440.641 848.658 440.188 847.902C439.885 847.449 439.621 846.052 439.395 843.711C439.168 841.37 438.979 838.462 438.828 834.988C438.753 831.514 438.639 827.625 438.488 823.32C438.413 819.016 438.337 814.673 438.262 810.293C438.262 805.913 438.262 801.646 438.262 797.492C438.262 793.339 438.262 789.714 438.262 786.617V777.895C438.262 777.139 438.262 776.384 438.262 775.629C438.337 774.874 438.488 774.232 438.715 773.703C439.017 773.099 439.432 772.608 439.961 772.23C440.565 771.853 441.396 771.664 442.453 771.664C445.776 771.664 448.193 772.608 449.703 774.496C451.289 776.309 452.271 778.763 452.648 781.859C453.026 786.466 453.29 791.073 453.441 795.68C453.668 800.211 453.857 804.818 454.008 809.5C454.159 813.729 454.272 817.921 454.348 822.074C454.499 826.152 454.763 830.23 455.141 834.309C455.216 835.139 455.292 835.932 455.367 836.688C455.443 837.443 455.556 838.198 455.707 838.953C455.858 840.464 456.009 841.974 456.16 843.484C456.311 844.919 456.387 846.43 456.387 848.016ZM518.578 788.996C518.578 792.092 518.427 795.529 518.125 799.305C517.823 803.005 517.37 806.857 516.766 810.859C516.161 814.862 515.331 818.902 514.273 822.98C513.292 826.983 512.083 830.835 510.648 834.535C509.214 838.236 507.514 841.672 505.551 844.844C503.663 847.94 501.51 850.546 499.094 852.66C497.357 854.171 495.393 855.379 493.203 856.285C491.089 857.267 488.898 857.758 486.633 857.758C485.802 857.758 484.934 857.607 484.027 857.305C483.121 857.078 482.441 856.474 481.988 855.492C480.327 855.341 478.665 855.001 477.004 854.473C475.418 854.02 474.096 852.962 473.039 851.301C472.812 850.772 472.624 850.13 472.473 849.375C472.322 848.62 472.171 847.827 472.02 846.996C471.944 846.618 471.868 846.279 471.793 845.977C471.717 845.599 471.642 845.259 471.566 844.957C469.376 831.363 467.866 817.77 467.035 804.176C466.28 790.582 465.902 776.875 465.902 763.055C465.902 761.846 465.902 759.732 465.902 756.711C465.902 753.69 465.902 750.254 465.902 746.402C465.978 742.551 466.016 738.51 466.016 734.281C466.091 730.052 466.167 726.087 466.242 722.387C466.318 718.686 466.431 715.514 466.582 712.871C466.733 710.152 466.884 708.415 467.035 707.66C467.337 706.603 467.753 705.734 468.281 705.055C468.81 704.375 469.716 704.035 471 704.035C474.549 704.035 477.079 705.168 478.59 707.434C480.176 709.624 480.969 712.342 480.969 715.59V744.703C480.969 748.253 480.969 751.462 480.969 754.332C480.969 757.126 480.969 759.883 480.969 762.602C481.044 765.245 481.12 768.001 481.195 770.871C481.271 773.665 481.384 776.799 481.535 780.273C482.441 778.234 483.536 776.233 484.82 774.27C486.18 772.306 487.69 770.531 489.352 768.945C491.013 767.359 492.863 766.076 494.902 765.094C496.941 764.112 499.207 763.621 501.699 763.621C505.324 763.621 508.232 764.414 510.422 766C512.688 767.586 514.387 769.625 515.52 772.117C516.728 774.534 517.521 777.253 517.898 780.273C518.352 783.294 518.578 786.202 518.578 788.996ZM502.945 786.391C502.945 784.88 502.87 783.219 502.719 781.406C502.643 779.594 502.19 778.008 501.359 776.648C500.68 777.177 500.076 777.743 499.547 778.348C499.094 778.952 498.603 779.632 498.074 780.387L497.848 780.727V780.613C495.733 784.087 493.996 788.128 492.637 792.734C491.353 797.341 490.296 802.137 489.465 807.121C488.71 812.03 488.181 816.939 487.879 821.848C487.577 826.681 487.426 831.061 487.426 834.988C487.426 835.819 487.426 837.065 487.426 838.727C487.501 840.312 487.652 841.634 487.879 842.691C490.824 840.199 493.241 836.574 495.129 831.816C497.092 826.983 498.641 821.81 499.773 816.297C500.982 810.708 501.812 805.233 502.266 799.871C502.719 794.509 502.945 790.016 502.945 786.391ZM570.688 832.27C570.688 834.535 570.046 836.876 568.762 839.293C567.553 841.71 565.967 843.938 564.004 845.977C562.04 847.94 559.775 849.564 557.207 850.848C554.715 852.132 552.223 852.773 549.73 852.773C546.181 852.773 543.122 852.094 540.555 850.734C537.987 849.299 535.759 847.411 533.871 845.07C531.983 842.654 530.435 839.935 529.227 836.914C528.094 833.893 527.188 830.797 526.508 827.625C525.828 824.378 525.337 821.168 525.035 817.996C524.809 814.749 524.695 811.803 524.695 809.16C524.695 806.895 524.809 804.214 525.035 801.117C525.337 798.021 525.79 794.811 526.395 791.488C527.074 788.165 527.98 784.88 529.113 781.633C530.246 778.385 531.643 775.478 533.305 772.91C535.042 770.342 537.081 768.266 539.422 766.68C541.839 765.094 544.595 764.301 547.691 764.301C550.108 764.301 552.26 764.792 554.148 765.773C556.112 766.755 557.736 768.077 559.02 769.738C560.379 771.324 561.398 773.174 562.078 775.289C562.833 777.404 563.211 779.594 563.211 781.859C563.211 784.805 562.531 788.014 561.172 791.488C559.812 794.962 558.038 798.323 555.848 801.57C553.733 804.818 551.316 807.763 548.598 810.406C545.954 812.974 543.311 814.938 540.668 816.297C540.819 817.656 541.121 819.658 541.574 822.301C542.027 824.868 542.632 827.436 543.387 830.004C544.217 832.572 545.161 834.799 546.219 836.688C547.352 838.576 548.673 839.52 550.184 839.52C550.939 839.52 551.581 839.293 552.109 838.84C552.714 838.387 553.242 837.783 553.695 837.027C554.148 836.272 554.526 835.441 554.828 834.535C555.206 833.629 555.546 832.76 555.848 831.93L556.527 830.344C556.678 830.117 556.754 829.966 556.754 829.891C556.829 829.815 556.905 829.702 556.98 829.551C557.509 828.569 558 827.663 558.453 826.832C558.982 826.001 559.699 825.284 560.605 824.68H560.492C560.794 824.378 561.096 824.227 561.398 824.227C561.776 824.151 562.116 824.113 562.418 824.113C563.249 824.113 564.155 824.378 565.137 824.906C566.118 825.435 567.025 826.115 567.855 826.945C568.686 827.701 569.366 828.569 569.895 829.551C570.423 830.457 570.688 831.363 570.688 832.27ZM548.258 782.312C548.258 781.557 548.22 780.764 548.145 779.934C548.069 779.103 547.88 778.385 547.578 777.781C546.521 779.065 545.577 780.613 544.746 782.426C543.991 784.163 543.349 786.013 542.82 787.977C542.292 789.865 541.839 791.79 541.461 793.754C541.159 795.717 540.932 797.53 540.781 799.191C542.745 796.85 544.482 794.207 545.992 791.262C547.503 788.241 548.258 785.258 548.258 782.312ZM586.547 854.812C585.414 854.812 584.168 854.661 582.809 854.359C581.525 854.057 580.279 853.566 579.07 852.887C577.938 852.207 576.956 851.376 576.125 850.395C575.37 849.337 574.992 848.091 574.992 846.656C574.992 844.542 575.068 842.465 575.219 840.426C575.445 838.311 575.672 836.234 575.898 834.195V834.309L576.578 826.719C576.805 824 576.993 821.017 577.145 817.77C577.296 814.522 577.409 811.237 577.484 807.914C577.635 804.516 577.749 801.193 577.824 797.945C577.9 794.698 577.938 791.715 577.938 788.996C577.938 787.41 577.9 785.824 577.824 784.238C577.824 782.577 577.824 780.915 577.824 779.254C577.749 777.819 577.711 776.233 577.711 774.496C577.711 772.684 577.711 771.022 577.711 769.512C577.711 767.926 577.9 766.642 578.277 765.66C578.73 764.603 579.939 764.074 581.902 764.074C583.639 764.074 585.452 764.527 587.34 765.434C589.303 766.34 590.663 767.624 591.418 769.285H591.305C591.682 770.116 591.947 771.475 592.098 773.363C592.324 775.176 592.475 776.799 592.551 778.234C593.835 776.271 595.27 774.194 596.855 772.004C598.517 769.814 600.292 767.812 602.18 766C604.068 764.112 606.069 762.564 608.184 761.355C610.298 760.147 612.564 759.543 614.98 759.543C618.152 759.543 620.569 760.336 622.23 761.922C623.892 763.508 625.1 765.509 625.855 767.926C626.611 770.267 627.026 772.797 627.102 775.516C627.177 778.159 627.215 780.576 627.215 782.766V783.672C627.215 784.578 627.177 785.484 627.102 786.391C627.102 787.221 626.951 788.014 626.648 788.77C626.422 789.449 625.969 790.016 625.289 790.469C624.685 790.922 623.816 791.148 622.684 791.148C621.475 791.148 620.191 790.997 618.832 790.695C617.473 790.318 616.189 789.789 614.98 789.109C613.848 788.43 612.866 787.599 612.035 786.617C611.204 785.56 610.751 784.352 610.676 782.992C610.676 782.388 610.676 781.784 610.676 781.18C610.676 780.576 610.714 779.971 610.789 779.367C610.789 778.99 610.789 778.536 610.789 778.008C610.865 777.404 610.902 776.837 610.902 776.309C608.486 778.725 606.333 781.708 604.445 785.258C602.633 788.807 600.971 792.583 599.461 796.586C598.026 800.589 596.78 804.629 595.723 808.707C594.665 812.71 593.759 816.335 593.004 819.582V819.922C592.777 822.263 592.626 824.566 592.551 826.832C592.475 829.098 592.4 831.439 592.324 833.855C592.249 836.574 592.135 839.331 591.984 842.125C591.909 844.919 591.72 847.638 591.418 850.281C591.267 851.716 590.814 852.811 590.059 853.566C589.379 854.397 588.208 854.812 586.547 854.812ZM675.812 832.27C675.812 834.535 675.171 836.876 673.887 839.293C672.678 841.71 671.092 843.938 669.129 845.977C667.165 847.94 664.9 849.564 662.332 850.848C659.84 852.132 657.348 852.773 654.855 852.773C651.306 852.773 648.247 852.094 645.68 850.734C643.112 849.299 640.884 847.411 638.996 845.07C637.108 842.654 635.56 839.935 634.352 836.914C633.219 833.893 632.312 830.797 631.633 827.625C630.953 824.378 630.462 821.168 630.16 817.996C629.934 814.749 629.82 811.803 629.82 809.16C629.82 806.895 629.934 804.214 630.16 801.117C630.462 798.021 630.915 794.811 631.52 791.488C632.199 788.165 633.105 784.88 634.238 781.633C635.371 778.385 636.768 775.478 638.43 772.91C640.167 770.342 642.206 768.266 644.547 766.68C646.964 765.094 649.72 764.301 652.816 764.301C655.233 764.301 657.385 764.792 659.273 765.773C661.237 766.755 662.861 768.077 664.145 769.738C665.504 771.324 666.523 773.174 667.203 775.289C667.958 777.404 668.336 779.594 668.336 781.859C668.336 784.805 667.656 788.014 666.297 791.488C664.938 794.962 663.163 798.323 660.973 801.57C658.858 804.818 656.441 807.763 653.723 810.406C651.079 812.974 648.436 814.938 645.793 816.297C645.944 817.656 646.246 819.658 646.699 822.301C647.152 824.868 647.757 827.436 648.512 830.004C649.342 832.572 650.286 834.799 651.344 836.688C652.477 838.576 653.798 839.52 655.309 839.52C656.064 839.52 656.706 839.293 657.234 838.84C657.839 838.387 658.367 837.783 658.82 837.027C659.273 836.272 659.651 835.441 659.953 834.535C660.331 833.629 660.671 832.76 660.973 831.93L661.652 830.344C661.803 830.117 661.879 829.966 661.879 829.891C661.954 829.815 662.03 829.702 662.105 829.551C662.634 828.569 663.125 827.663 663.578 826.832C664.107 826.001 664.824 825.284 665.73 824.68H665.617C665.919 824.378 666.221 824.227 666.523 824.227C666.901 824.151 667.241 824.113 667.543 824.113C668.374 824.113 669.28 824.378 670.262 824.906C671.243 825.435 672.15 826.115 672.98 826.945C673.811 827.701 674.491 828.569 675.02 829.551C675.548 830.457 675.812 831.363 675.812 832.27ZM653.383 782.312C653.383 781.557 653.345 780.764 653.27 779.934C653.194 779.103 653.005 778.385 652.703 777.781C651.646 779.065 650.702 780.613 649.871 782.426C649.116 784.163 648.474 786.013 647.945 787.977C647.417 789.865 646.964 791.79 646.586 793.754C646.284 795.717 646.057 797.53 645.906 799.191C647.87 796.85 649.607 794.207 651.117 791.262C652.628 788.241 653.383 785.258 653.383 782.312ZM725.883 827.625C725.883 829.211 725.618 830.835 725.09 832.496C724.561 834.158 723.957 835.743 723.277 837.254C722.371 839.444 721.276 841.596 719.992 843.711C718.708 845.75 717.236 847.6 715.574 849.262C713.913 850.848 712.025 852.132 709.91 853.113C707.796 854.095 705.417 854.586 702.773 854.586C698.091 854.586 694.202 853.415 691.105 851.074C688.009 848.733 685.555 845.788 683.742 842.238C681.93 838.689 680.646 834.799 679.891 830.57C679.211 826.341 678.871 822.339 678.871 818.562C678.871 815.768 678.984 812.483 679.211 808.707C679.438 804.855 679.853 800.891 680.457 796.812C681.137 792.734 682.081 788.694 683.289 784.691C684.573 780.689 686.197 777.139 688.16 774.043C690.124 770.871 692.503 768.303 695.297 766.34C698.167 764.376 701.565 763.395 705.492 763.395C706.323 763.395 707.531 763.546 709.117 763.848C710.703 764.15 712.251 764.603 713.762 765.207C715.348 765.736 716.707 766.491 717.84 767.473C719.048 768.379 719.652 769.436 719.652 770.645C719.652 771.777 719.124 772.646 718.066 773.25C717.085 773.854 715.876 774.307 714.441 774.609C713.082 774.836 711.647 774.987 710.137 775.062C708.702 775.062 707.531 775.062 706.625 775.062H704.586C702.471 776.951 700.734 779.745 699.375 783.445C698.016 787.07 696.958 790.96 696.203 795.113C695.448 799.267 694.919 803.383 694.617 807.461C694.315 811.464 694.164 814.749 694.164 817.316C694.164 820.941 694.428 824.529 694.957 828.078C695.561 831.552 696.732 834.837 698.469 837.934C698.846 838.613 699.375 839.406 700.055 840.312C700.81 841.143 701.641 841.559 702.547 841.559C703.227 841.559 703.906 840.992 704.586 839.859C705.341 838.727 706.021 837.405 706.625 835.895C707.229 834.384 707.72 832.911 708.098 831.477C708.475 830.042 708.74 828.984 708.891 828.305C708.966 828.003 709.004 827.663 709.004 827.285C709.004 826.908 709.004 826.53 709.004 826.152C709.004 825.473 709.004 824.831 709.004 824.227C709.079 823.547 709.193 823.018 709.344 822.641C709.872 821.357 710.552 820.488 711.383 820.035C712.289 819.582 713.384 819.355 714.668 819.355C715.801 819.355 717.009 819.507 718.293 819.809C719.577 820.111 720.785 820.602 721.918 821.281C723.051 821.961 723.995 822.829 724.75 823.887C725.505 824.944 725.883 826.19 725.883 827.625Z" fill="#F7931A"/>
</g>
<defs>
<clipPath id="clip0_106_522">
<rect width="1060" height="1060" fill="white"/>
</clipPath>
</defs>
</svg>
