<svg width="1060" height="1060" viewBox="0 0 1060 1060" fill="none" xmlns="http://www.w3.org/2000/svg">
<g clip-path="url(#clip0_106_289)">
<rect width="1060" height="1060" fill="black"/>
<path d="M790.229 490.783V535.001H826.616V682.48H870.539V535.001H907.185V490.783H790.229Z" fill="white"/>
<path d="M781.053 491.563L658.641 491.823V682.48H781.053V638.522H702.563V608.35H766.239V564.393H702.563V535.521H781.053V491.563Z" fill="white"/>
<path d="M581.987 682.22C606.937 682.22 630.848 673.116 649.561 654.389L618.633 623.176C598.36 643.464 565.613 643.204 545.6 623.176C535.984 613.032 530.526 600.547 530.526 586.761C530.526 572.976 535.984 560.231 545.6 550.087C565.613 530.059 598.36 529.799 618.633 550.087L649.561 519.134C612.135 481.679 551.838 481.679 514.412 519.134C496.479 537.081 486.603 560.751 486.603 586.761C486.603 612.512 496.479 635.921 514.412 654.389C533.125 673.116 557.296 682.22 581.987 682.22Z" fill="white"/>
<path d="M1002.63 638.042C994.742 669.725 962.684 689.003 931.026 681.099C899.388 673.206 880.125 641.123 888.022 609.441C895.909 577.766 927.967 558.487 959.606 566.384C991.264 574.282 1010.53 606.369 1002.63 638.042Z" fill="#F7931A"/>
<path d="M971.371 615.323C972.55 607.45 966.562 603.222 958.375 600.401L961.035 589.744L954.547 588.126L951.968 598.503C950.259 598.078 948.509 597.678 946.77 597.28L949.379 586.835L942.901 585.218L940.242 595.872C938.833 595.551 937.443 595.233 936.104 594.899L936.114 594.865L927.167 592.631L925.448 599.561C925.448 599.561 930.256 600.663 930.156 600.732C932.775 601.388 933.255 603.126 933.175 604.505L930.146 616.644C930.326 616.694 930.566 616.764 930.826 616.864C930.606 616.814 930.376 616.754 930.136 616.694L925.898 633.7C925.578 634.501 924.768 635.701 922.929 635.241C922.989 635.331 918.221 634.061 918.221 634.061L915.002 641.494L923.439 643.594C925.008 643.985 926.538 644.405 928.057 644.785L925.368 655.569L931.846 657.19L934.504 646.516C936.274 646.996 937.993 647.446 939.673 647.866L937.024 658.48L943.501 660.091L946.19 649.337C957.246 651.428 965.553 650.587 969.052 640.573C971.87 632.52 968.912 627.878 963.094 624.847C967.332 623.867 970.521 621.075 971.371 615.323ZM956.566 636.101C954.557 644.165 941.002 639.803 936.614 638.712L940.172 624.437C944.561 625.527 958.655 627.698 956.566 636.101ZM958.565 615.203C956.736 622.536 945.46 618.804 941.802 617.894L945.031 604.943C948.689 605.855 960.475 607.56 958.565 615.203Z" fill="white"/>
<path d="M502.908 682.87L441.311 491.954H399.726L334.751 682.87H381.273L389.071 659.721H449.108L456.645 682.87H502.908ZM419.999 569.465L435.073 615.763H404.145L419.999 569.465Z" fill="white"/>
<path d="M304.083 608.48L267.436 490.393H221.174L282.771 682.87H324.355L389.33 490.393H342.808L304.083 608.48Z" fill="white"/>
<path d="M146.202 490.913H102.278V682.87H146.202C197.922 680.009 237.687 639.432 237.687 588.192C237.687 536.431 197.143 494.034 146.202 491.173V490.913ZM146.202 535.131C172.972 537.992 193.764 560.881 193.764 588.192C193.764 614.723 173.232 635.791 146.202 638.652V535.131Z" fill="white"/>
<path d="M906.866 480.213L845.269 289.296H803.685L738.709 480.213H785.232L793.029 457.063H853.066L860.603 480.213H906.866ZM823.957 366.807L839.031 413.106H808.103L823.957 366.807Z" fill="white"/>
<path d="M692.589 400.881L630.472 289.816H582.65V480.213H626.574V368.888L688.95 480.213H736.51V289.296H692.589V400.881Z" fill="white"/>
<path d="M482.028 288.256H438.104V480.213H482.028C533.748 477.352 573.513 436.775 573.513 385.535C573.513 333.774 532.969 291.377 482.028 288.516V288.256ZM482.028 332.473C508.798 335.335 529.59 358.224 529.59 385.535C529.59 412.065 509.058 433.134 482.028 435.995V332.473Z" fill="white"/>
<path d="M429.108 289.296L306.694 289.556V480.213H429.108V436.255H350.618V406.083H414.294V362.125H350.618V333.254H429.108V289.296Z" fill="white"/>
<path d="M253.58 286.175V407.904C253.58 424.03 240.325 436.255 224.991 436.255C217.194 436.255 210.436 433.394 204.719 427.672C199.261 421.949 196.662 415.187 196.662 407.383L152.738 406.863C152.478 426.631 159.756 444.578 173.27 458.364C187.045 472.149 204.719 479.953 224.471 480.213H225.251C264.496 480.213 297.504 448.48 297.504 408.164V286.175H253.58Z" fill="white"/>
<path d="M472.926 731.109C472.926 738.586 471.717 746.1 469.301 753.652C466.96 761.204 463.637 768.266 459.332 774.836C455.103 781.406 450.005 787.259 444.039 792.395C438.073 797.53 431.54 801.419 424.441 804.062C424.895 810.331 425.423 816.561 426.027 822.754C426.632 828.947 427.462 835.177 428.52 841.445C428.746 842.578 428.973 843.749 429.199 844.957C429.501 846.165 429.652 847.411 429.652 848.695C429.652 850.659 429.161 851.98 428.18 852.66C427.198 853.34 425.801 853.68 423.988 853.68C422.704 853.68 421.156 853.529 419.344 853.227C417.531 852.924 415.983 852.471 414.699 851.867C413.189 851.036 412.169 850.206 411.641 849.375C411.188 848.469 410.848 847.26 410.621 845.75C409.337 839.331 408.544 832.911 408.242 826.492C408.016 820.073 407.676 813.654 407.223 807.234C405.712 807.083 404.466 806.706 403.484 806.102C402.503 805.422 402.012 804.289 402.012 802.703C402.012 801.193 402.427 799.607 403.258 797.945C404.164 796.284 405.184 795 406.316 794.094C405.637 780.047 405.335 766.113 405.41 752.293C405.561 738.473 405.561 724.539 405.41 710.492C405.033 710.643 404.693 710.757 404.391 710.832C404.089 710.908 403.749 710.945 403.371 710.945C402.54 710.945 401.861 710.757 401.332 710.379C400.803 709.926 400.35 709.397 399.973 708.793C399.671 708.189 399.444 707.547 399.293 706.867C399.142 706.112 399.066 705.432 399.066 704.828C399.066 702.562 399.633 700.939 400.766 699.957C401.898 698.9 403.447 697.956 405.41 697.125C405.41 696.294 405.41 695.35 405.41 694.293C405.486 693.16 405.637 692.141 405.863 691.234C406.165 690.253 406.618 689.46 407.223 688.855C407.827 688.176 408.733 687.836 409.941 687.836C411.905 687.836 413.793 688.214 415.605 688.969C417.418 689.724 418.777 691.008 419.684 692.82C422.327 692.367 424.895 691.952 427.387 691.574C429.879 691.197 432.447 691.008 435.09 691.008C441.056 691.008 446.38 692.027 451.062 694.066C455.745 696.03 459.71 698.824 462.957 702.449C466.204 705.999 468.659 710.228 470.32 715.137C472.057 720.046 472.926 725.37 472.926 731.109ZM455.934 729.07C455.934 725.596 455.48 722.349 454.574 719.328C453.668 716.232 452.309 713.589 450.496 711.398C448.684 709.133 446.38 707.358 443.586 706.074C440.792 704.79 437.507 704.148 433.73 704.148C431.691 704.148 429.615 704.299 427.5 704.602C425.461 704.904 423.46 705.357 421.496 705.961C421.496 719.781 421.572 733.488 421.723 747.082C421.949 760.676 422.478 774.307 423.309 787.977C428.142 785.484 432.56 782.01 436.562 777.555C440.565 773.099 444.001 768.19 446.871 762.828C449.741 757.391 451.969 751.764 453.555 745.949C455.141 740.059 455.934 734.432 455.934 729.07ZM482.102 854.812C480.969 854.812 479.723 854.661 478.363 854.359C477.079 854.057 475.833 853.566 474.625 852.887C473.492 852.207 472.51 851.376 471.68 850.395C470.924 849.337 470.547 848.091 470.547 846.656C470.547 844.542 470.622 842.465 470.773 840.426C471 838.311 471.227 836.234 471.453 834.195V834.309L472.133 826.719C472.359 824 472.548 821.017 472.699 817.77C472.85 814.522 472.964 811.237 473.039 807.914C473.19 804.516 473.303 801.193 473.379 797.945C473.454 794.698 473.492 791.715 473.492 788.996C473.492 787.41 473.454 785.824 473.379 784.238C473.379 782.577 473.379 780.915 473.379 779.254C473.303 777.819 473.266 776.233 473.266 774.496C473.266 772.684 473.266 771.022 473.266 769.512C473.266 767.926 473.454 766.642 473.832 765.66C474.285 764.603 475.493 764.074 477.457 764.074C479.194 764.074 481.007 764.527 482.895 765.434C484.858 766.34 486.217 767.624 486.973 769.285H486.859C487.237 770.116 487.501 771.475 487.652 773.363C487.879 775.176 488.03 776.799 488.105 778.234C489.389 776.271 490.824 774.194 492.41 772.004C494.072 769.814 495.846 767.812 497.734 766C499.622 764.112 501.624 762.564 503.738 761.355C505.853 760.147 508.118 759.543 510.535 759.543C513.707 759.543 516.124 760.336 517.785 761.922C519.447 763.508 520.655 765.509 521.41 767.926C522.165 770.267 522.581 772.797 522.656 775.516C522.732 778.159 522.77 780.576 522.77 782.766V783.672C522.77 784.578 522.732 785.484 522.656 786.391C522.656 787.221 522.505 788.014 522.203 788.77C521.977 789.449 521.523 790.016 520.844 790.469C520.24 790.922 519.371 791.148 518.238 791.148C517.03 791.148 515.746 790.997 514.387 790.695C513.027 790.318 511.743 789.789 510.535 789.109C509.402 788.43 508.421 787.599 507.59 786.617C506.759 785.56 506.306 784.352 506.23 782.992C506.23 782.388 506.23 781.784 506.23 781.18C506.23 780.576 506.268 779.971 506.344 779.367C506.344 778.99 506.344 778.536 506.344 778.008C506.419 777.404 506.457 776.837 506.457 776.309C504.04 778.725 501.888 781.708 500 785.258C498.188 788.807 496.526 792.583 495.016 796.586C493.581 800.589 492.335 804.629 491.277 808.707C490.22 812.71 489.314 816.335 488.559 819.582V819.922C488.332 822.263 488.181 824.566 488.105 826.832C488.03 829.098 487.954 831.439 487.879 833.855C487.803 836.574 487.69 839.331 487.539 842.125C487.464 844.919 487.275 847.638 486.973 850.281C486.822 851.716 486.368 852.811 485.613 853.566C484.934 854.397 483.763 854.812 482.102 854.812ZM572.727 851.527C572.727 853.038 572.349 854.057 571.594 854.586C570.839 855.19 569.781 855.492 568.422 855.492C564.872 855.492 562.305 854.548 560.719 852.66C559.208 850.772 558.076 848.28 557.32 845.184C557.094 844.126 556.867 843.069 556.641 842.012C556.414 840.879 556.225 839.784 556.074 838.727C555.923 837.745 555.772 837.065 555.621 836.688C555.47 836.31 555.319 835.592 555.168 834.535C554.262 836.725 553.129 839.029 551.77 841.445C550.486 843.786 548.975 845.977 547.238 848.016C545.501 849.979 543.538 851.603 541.348 852.887C539.233 854.171 536.892 854.812 534.324 854.812C531.605 854.812 529.34 854.171 527.527 852.887C525.715 851.527 524.28 849.866 523.223 847.902C522.241 845.863 521.523 843.635 521.07 841.219C520.693 838.802 520.504 836.499 520.504 834.309C520.504 829.173 520.995 823.622 521.977 817.656C523.034 811.615 524.469 805.611 526.281 799.645C528.094 793.603 530.208 787.826 532.625 782.312C535.042 776.724 537.685 771.853 540.555 767.699V767.812L541.234 766.793C542.065 765.66 543.009 764.452 544.066 763.168C545.199 761.809 546.521 761.129 548.031 761.129C549.466 761.129 550.712 761.771 551.77 763.055C552.827 764.263 553.582 765.547 554.035 766.906C555.999 767.284 557.585 767.775 558.793 768.379C560.001 768.908 560.945 769.587 561.625 770.418C562.305 771.249 562.758 772.23 562.984 773.363C563.211 774.421 563.324 775.591 563.324 776.875C563.324 777.404 563.324 777.97 563.324 778.574C563.324 779.178 563.286 779.783 563.211 780.387C563.135 780.991 563.098 781.708 563.098 782.539C563.098 783.37 563.098 784.125 563.098 784.805C563.098 785.56 563.211 786.542 563.438 787.75C563.74 788.958 564.042 790.204 564.344 791.488L565.137 795.68C565.514 797.87 565.816 800.362 566.043 803.156C566.345 805.951 566.685 808.745 567.062 811.539C567.365 814.409 567.667 817.203 567.969 819.922C568.271 822.565 568.573 825.02 568.875 827.285L571.594 844.051L571.934 845.977C572.085 846.958 572.236 847.865 572.387 848.695C572.613 849.526 572.727 850.47 572.727 851.527ZM546.785 786.391C546.785 786.24 546.747 786.013 546.672 785.711C546.596 785.333 546.521 784.956 546.445 784.578C544.708 788.279 543.16 792.319 541.801 796.699C540.517 801.004 539.422 805.422 538.516 809.953C537.685 814.409 537.043 818.902 536.59 823.434C536.212 827.889 536.023 832.118 536.023 836.121C536.023 836.499 536.023 836.839 536.023 837.141C536.023 837.443 536.061 837.745 536.137 838.047V838.16C537.949 835.366 539.497 831.703 540.781 827.172C542.141 822.565 543.273 817.77 544.18 812.785C545.086 807.725 545.728 802.854 546.105 798.172C546.559 793.414 546.785 789.487 546.785 786.391ZM634.012 846.883C634.012 848.393 633.521 849.488 632.539 850.168C631.557 850.848 630.349 851.188 628.914 851.188C628.008 851.188 627.064 851.112 626.082 850.961C625.1 850.734 624.156 850.508 623.25 850.281C621.664 849.828 620.418 849.262 619.512 848.582C618.681 847.902 618.039 847.147 617.586 846.316C617.133 845.41 616.831 844.428 616.68 843.371C616.604 842.314 616.529 841.143 616.453 839.859C616.453 839.482 616.415 839.142 616.34 838.84C616.34 838.538 616.34 838.236 616.34 837.934C616.113 833.629 615.887 829.211 615.66 824.68C615.509 820.148 615.434 815.73 615.434 811.426C615.434 809.236 615.434 807.046 615.434 804.855C615.509 802.665 615.585 800.475 615.66 798.285C615.736 796.095 615.773 793.943 615.773 791.828C615.849 789.638 615.887 787.448 615.887 785.258C615.887 784.805 615.849 784.389 615.773 784.012C615.773 783.559 615.736 783.105 615.66 782.652C613.697 785.522 611.96 788.732 610.449 792.281C609.014 795.755 607.73 799.38 606.598 803.156C605.465 806.857 604.483 810.595 603.652 814.371C602.897 818.072 602.255 821.621 601.727 825.02L601.387 827.398C601.009 830.042 600.632 832.76 600.254 835.555C599.876 838.273 599.688 840.992 599.688 843.711C599.688 844.844 599.876 846.09 600.254 847.449C600.405 848.053 600.518 848.658 600.594 849.262C600.745 849.79 600.82 850.47 600.82 851.301C600.82 853.113 600.367 854.322 599.461 854.926C598.555 855.605 597.346 855.945 595.836 855.945C594.93 855.945 593.91 855.87 592.777 855.719C591.72 855.568 590.663 855.303 589.605 854.926C588.624 854.624 587.68 854.208 586.773 853.68C585.867 853.151 585.15 852.471 584.621 851.641C584.168 850.659 583.715 848.053 583.262 843.824C582.884 839.595 582.507 834.346 582.129 828.078C581.827 821.81 581.525 814.786 581.223 807.008C580.921 799.154 580.618 791.111 580.316 782.879C580.09 774.647 579.863 766.491 579.637 758.41C579.486 750.329 579.335 742.891 579.184 736.094C579.108 729.297 579.033 723.406 578.957 718.422C578.882 713.362 578.844 709.812 578.844 707.773C578.844 706.263 579.033 704.904 579.41 703.695C579.863 702.411 581.072 701.77 583.035 701.77C585.074 701.77 587 702.26 588.812 703.242C590.625 704.148 591.947 705.583 592.777 707.547C592.928 707.849 593.079 709.095 593.23 711.285C593.382 713.4 593.533 716.156 593.684 719.555C593.835 722.878 593.986 726.729 594.137 731.109C594.288 735.414 594.439 739.908 594.59 744.59C594.741 749.197 594.892 753.841 595.043 758.523C595.194 763.206 595.345 767.586 595.496 771.664L596.062 788.43C596.969 786.089 598.102 783.634 599.461 781.066C600.82 778.499 602.368 776.158 604.105 774.043C605.918 771.928 607.919 770.191 610.109 768.832C612.375 767.473 614.867 766.793 617.586 766.793C620.909 766.793 623.514 767.661 625.402 769.398C627.29 771.135 628.688 773.288 629.594 775.855C630.576 778.423 631.18 781.18 631.406 784.125C631.633 787.07 631.746 789.751 631.746 792.168C631.746 793.678 631.708 795.151 631.633 796.586C631.633 798.021 631.595 799.456 631.52 800.891C631.444 802.401 631.368 803.911 631.293 805.422C631.293 806.857 631.293 808.329 631.293 809.84C631.293 815.051 631.406 820.413 631.633 825.926C631.859 831.363 632.426 836.725 633.332 842.012L633.559 843.598C633.71 844.051 633.823 844.579 633.898 845.184C633.974 845.788 634.012 846.354 634.012 846.883ZM691.898 851.527C691.898 853.038 691.521 854.057 690.766 854.586C690.01 855.19 688.953 855.492 687.594 855.492C684.044 855.492 681.477 854.548 679.891 852.66C678.38 850.772 677.247 848.28 676.492 845.184C676.266 844.126 676.039 843.069 675.812 842.012C675.586 840.879 675.397 839.784 675.246 838.727C675.095 837.745 674.944 837.065 674.793 836.688C674.642 836.31 674.491 835.592 674.34 834.535C673.434 836.725 672.301 839.029 670.941 841.445C669.658 843.786 668.147 845.977 666.41 848.016C664.673 849.979 662.71 851.603 660.52 852.887C658.405 854.171 656.064 854.812 653.496 854.812C650.777 854.812 648.512 854.171 646.699 852.887C644.887 851.527 643.452 849.866 642.395 847.902C641.413 845.863 640.695 843.635 640.242 841.219C639.865 838.802 639.676 836.499 639.676 834.309C639.676 829.173 640.167 823.622 641.148 817.656C642.206 811.615 643.641 805.611 645.453 799.645C647.266 793.603 649.38 787.826 651.797 782.312C654.214 776.724 656.857 771.853 659.727 767.699V767.812L660.406 766.793C661.237 765.66 662.181 764.452 663.238 763.168C664.371 761.809 665.693 761.129 667.203 761.129C668.638 761.129 669.884 761.771 670.941 763.055C671.999 764.263 672.754 765.547 673.207 766.906C675.171 767.284 676.757 767.775 677.965 768.379C679.173 768.908 680.117 769.587 680.797 770.418C681.477 771.249 681.93 772.23 682.156 773.363C682.383 774.421 682.496 775.591 682.496 776.875C682.496 777.404 682.496 777.97 682.496 778.574C682.496 779.178 682.458 779.783 682.383 780.387C682.307 780.991 682.27 781.708 682.27 782.539C682.27 783.37 682.27 784.125 682.27 784.805C682.27 785.56 682.383 786.542 682.609 787.75C682.911 788.958 683.214 790.204 683.516 791.488L684.309 795.68C684.686 797.87 684.988 800.362 685.215 803.156C685.517 805.951 685.857 808.745 686.234 811.539C686.536 814.409 686.839 817.203 687.141 819.922C687.443 822.565 687.745 825.02 688.047 827.285L690.766 844.051L691.105 845.977C691.257 846.958 691.408 847.865 691.559 848.695C691.785 849.526 691.898 850.47 691.898 851.527ZM665.957 786.391C665.957 786.24 665.919 786.013 665.844 785.711C665.768 785.333 665.693 784.956 665.617 784.578C663.88 788.279 662.332 792.319 660.973 796.699C659.689 801.004 658.594 805.422 657.688 809.953C656.857 814.409 656.215 818.902 655.762 823.434C655.384 827.889 655.195 832.118 655.195 836.121C655.195 836.499 655.195 836.839 655.195 837.141C655.195 837.443 655.233 837.745 655.309 838.047V838.16C657.121 835.366 658.669 831.703 659.953 827.172C661.312 822.565 662.445 817.77 663.352 812.785C664.258 807.725 664.9 802.854 665.277 798.172C665.73 793.414 665.957 789.487 665.957 786.391Z" fill="#F7931A"/>
</g>
<defs>
<clipPath id="clip0_106_289">
<rect width="1060" height="1060" fill="white"/>
</clipPath>
</defs>
</svg>
