<svg width="1060" height="1060" viewBox="0 0 1060 1060" fill="none" xmlns="http://www.w3.org/2000/svg">
<g clip-path="url(#clip0_106_872)">
<rect width="1060" height="1060" fill="white"/>
<path d="M790.229 490.783V535.001H826.616V682.48H870.539V535.001H907.185V490.783H790.229Z" fill="black"/>
<path d="M781.053 491.563L658.641 491.823V682.48H781.053V638.522H702.563V608.35H766.239V564.392H702.563V535.521H781.053V491.563Z" fill="black"/>
<path d="M581.987 682.22C606.937 682.22 630.848 673.116 649.561 654.389L618.633 623.176C598.36 643.464 565.613 643.204 545.6 623.176C535.984 613.032 530.526 600.547 530.526 586.761C530.526 572.976 535.984 560.231 545.6 550.087C565.613 530.059 598.36 529.799 618.633 550.087L649.561 519.134C612.135 481.679 551.838 481.679 514.412 519.134C496.479 537.081 486.603 560.751 486.603 586.761C486.603 612.512 496.479 635.921 514.412 654.389C533.125 673.116 557.296 682.22 581.987 682.22Z" fill="black"/>
<path d="M1002.63 638.042C994.742 669.725 962.684 689.003 931.026 681.099C899.388 673.206 880.125 641.123 888.022 609.441C895.909 577.766 927.967 558.487 959.606 566.384C991.264 574.282 1010.53 606.369 1002.63 638.042Z" fill="#F7931A"/>
<path d="M971.371 615.323C972.55 607.45 966.562 603.222 958.375 600.401L961.035 589.744L954.547 588.126L951.968 598.503C950.259 598.078 948.509 597.678 946.77 597.28L949.379 586.835L942.901 585.218L940.242 595.872C938.833 595.551 937.443 595.233 936.104 594.899L936.114 594.865L927.167 592.631L925.448 599.561C925.448 599.561 930.256 600.663 930.156 600.732C932.775 601.388 933.255 603.126 933.175 604.505L930.146 616.644C930.326 616.694 930.566 616.764 930.826 616.864C930.606 616.814 930.376 616.754 930.136 616.694L925.898 633.7C925.578 634.501 924.768 635.701 922.929 635.241C922.989 635.331 918.221 634.061 918.221 634.061L915.002 641.494L923.439 643.594C925.008 643.985 926.538 644.405 928.057 644.785L925.368 655.569L931.846 657.19L934.504 646.516C936.274 646.996 937.993 647.446 939.673 647.866L937.024 658.48L943.501 660.091L946.19 649.337C957.246 651.428 965.553 650.587 969.052 640.573C971.87 632.52 968.912 627.878 963.094 624.847C967.332 623.867 970.521 621.075 971.371 615.323ZM956.566 636.101C954.557 644.165 941.002 639.803 936.614 638.712L940.172 624.437C944.561 625.527 958.655 627.698 956.566 636.101ZM958.565 615.203C956.736 622.536 945.46 618.804 941.802 617.894L945.031 604.943C948.689 605.855 960.475 607.56 958.565 615.203Z" fill="white"/>
<path d="M502.908 682.87L441.311 491.954H399.726L334.751 682.87H381.273L389.071 659.721H449.108L456.645 682.87H502.908ZM419.999 569.465L435.073 615.763H404.145L419.999 569.465Z" fill="black"/>
<path d="M304.083 608.48L267.436 490.393H221.174L282.771 682.87H324.355L389.33 490.393H342.808L304.083 608.48Z" fill="black"/>
<path d="M146.202 490.913H102.278V682.87H146.202C197.922 680.009 237.687 639.432 237.687 588.192C237.687 536.431 197.143 494.034 146.202 491.173V490.913ZM146.202 535.131C172.972 537.992 193.764 560.881 193.764 588.192C193.764 614.723 173.232 635.791 146.202 638.652V535.131Z" fill="black"/>
<path d="M906.866 480.213L845.269 289.296H803.684L738.709 480.213H785.231L793.029 457.063H853.066L860.603 480.213H906.866ZM823.957 366.807L839.031 413.106H808.103L823.957 366.807Z" fill="black"/>
<path d="M692.589 400.881L630.472 289.816H582.65V480.213H626.574V368.888L688.95 480.213H736.51V289.296H692.589V400.881Z" fill="black"/>
<path d="M482.028 288.256H438.104V480.213H482.028C533.748 477.352 573.513 436.775 573.513 385.535C573.513 333.774 532.969 291.377 482.028 288.516V288.256ZM482.028 332.473C508.798 335.335 529.59 358.224 529.59 385.535C529.59 412.065 509.058 433.134 482.028 435.995V332.473Z" fill="black"/>
<path d="M429.108 289.296L306.694 289.556V480.213H429.108V436.255H350.618V406.083H414.294V362.125H350.618V333.254H429.108V289.296Z" fill="black"/>
<path d="M253.58 286.175V407.904C253.58 424.03 240.325 436.255 224.991 436.255C217.194 436.255 210.436 433.394 204.719 427.672C199.261 421.949 196.662 415.187 196.662 407.383L152.738 406.863C152.478 426.631 159.756 444.578 173.27 458.364C187.045 472.149 204.719 479.953 224.471 480.213H225.251C264.496 480.213 297.504 448.48 297.504 408.164V286.175H253.58Z" fill="black"/>
<path d="M403.938 766C403.938 769.172 403.862 772.872 403.711 777.102C403.635 781.255 403.371 785.711 402.918 790.469C402.54 795.227 401.936 800.098 401.105 805.082C400.35 810.066 399.331 814.938 398.047 819.695C396.763 824.453 395.177 828.947 393.289 833.176C391.401 837.405 389.135 841.105 386.492 844.277C383.849 847.449 380.79 849.979 377.316 851.867C373.842 853.68 369.878 854.586 365.422 854.586C360.966 854.586 356.926 853.566 353.301 851.527C349.676 849.413 346.617 846.656 344.125 843.258C342.086 840.539 340.273 837.216 338.688 833.289C337.177 829.286 335.818 824.944 334.609 820.262C333.477 815.579 332.495 810.708 331.664 805.648C330.833 800.589 330.154 795.604 329.625 790.695C329.172 785.786 328.832 781.142 328.605 776.762C328.379 772.306 328.266 768.417 328.266 765.094C328.266 759.505 328.492 753.652 328.945 747.535C329.474 741.418 330.418 735.376 331.777 729.41C333.137 723.368 334.987 717.553 337.328 711.965C339.669 706.376 342.69 701.354 346.391 696.898C346.768 696.445 347.221 695.917 347.75 695.312C348.354 694.708 348.996 694.142 349.676 693.613C350.355 693.009 351.035 692.518 351.715 692.141C352.47 691.688 353.188 691.461 353.867 691.461C354.547 691.461 355.189 691.65 355.793 692.027C356.473 692.405 357.039 692.896 357.492 693.5C359.078 692.594 360.74 691.952 362.477 691.574C364.289 691.197 366.102 691.008 367.914 691.008C373.427 691.008 378.147 692.329 382.074 694.973C386.077 697.54 389.4 700.939 392.043 705.168C394.686 709.397 396.801 714.193 398.387 719.555C399.973 724.917 401.181 730.392 402.012 735.98C402.842 741.569 403.371 746.969 403.598 752.18C403.824 757.391 403.938 761.997 403.938 766ZM386.266 770.984C386.266 769.021 386.19 766.038 386.039 762.035C385.964 757.957 385.699 753.501 385.246 748.668C384.793 743.759 384.151 738.737 383.32 733.602C382.565 728.466 381.508 723.822 380.148 719.668C378.789 715.439 377.09 712.003 375.051 709.359C373.087 706.641 370.708 705.281 367.914 705.281C366.781 705.281 365.762 705.81 364.855 706.867C363.949 707.924 363.081 709.284 362.25 710.945C361.419 712.607 360.664 714.419 359.984 716.383C359.305 718.346 358.625 720.234 357.945 722.047C357.266 723.859 356.624 725.483 356.02 726.918C355.415 728.353 354.773 729.372 354.094 729.977C353.867 730.203 353.49 730.354 352.961 730.43C352.508 730.43 352.055 730.43 351.602 730.43C350.318 730.43 349.109 730.203 347.977 729.75C346.693 734.885 345.786 740.021 345.258 745.156C344.805 750.216 344.578 755.352 344.578 760.562C344.578 762.148 344.654 764.527 344.805 767.699C344.956 770.871 345.182 774.496 345.484 778.574C345.786 782.652 346.202 787.033 346.73 791.715C347.259 796.397 347.901 801.079 348.656 805.762C349.411 810.368 350.28 814.824 351.262 819.129C352.319 823.358 353.527 827.134 354.887 830.457C356.246 833.704 357.757 836.31 359.418 838.273C361.079 840.237 362.93 841.219 364.969 841.219C366.102 841.219 367.121 840.917 368.027 840.312C368.934 839.633 369.802 838.953 370.633 838.273C372.898 836.234 374.862 833.553 376.523 830.23C378.185 826.908 379.582 823.245 380.715 819.242C381.848 815.24 382.792 811.048 383.547 806.668C384.302 802.212 384.868 797.832 385.246 793.527C385.624 789.223 385.888 785.145 386.039 781.293C386.19 777.366 386.266 773.93 386.266 770.984ZM443.133 856.285C443.133 857.342 442.868 858.211 442.34 858.891C441.811 859.57 441.132 860.099 440.301 860.477C439.546 860.93 438.677 861.232 437.695 861.383C436.789 861.609 435.958 861.723 435.203 861.723C432.56 861.723 430.257 860.967 428.293 859.457C426.329 857.947 424.63 855.983 423.195 853.566C421.76 851.225 420.59 848.544 419.684 845.523C418.777 842.427 418.022 839.368 417.418 836.348C416.814 833.251 416.361 830.306 416.059 827.512C415.757 824.642 415.53 822.188 415.379 820.148C414.699 813.125 414.208 805.988 413.906 798.738C413.68 791.488 413.566 784.314 413.566 777.215C413.566 757.806 414.246 738.586 415.605 719.555C415.605 719.253 415.605 718.913 415.605 718.535C415.681 718.158 415.719 717.78 415.719 717.402C415.794 715.816 415.87 714.004 415.945 711.965C416.021 709.85 416.134 707.773 416.285 705.734C416.436 703.695 416.587 701.845 416.738 700.184C416.965 698.447 417.229 697.238 417.531 696.559V696.672C417.833 695.615 418.249 694.822 418.777 694.293C419.306 693.764 420.212 693.5 421.496 693.5C424.215 693.5 426.518 694.406 428.406 696.219C430.294 698.031 431.238 700.297 431.238 703.016C431.238 703.62 431.201 704.224 431.125 704.828C431.125 705.357 431.087 705.885 431.012 706.414C430.936 706.943 430.861 707.471 430.785 708C430.785 708.453 430.785 708.868 430.785 709.246C430.559 712.191 430.37 715.137 430.219 718.082C430.143 720.952 430.03 723.859 429.879 726.805C429.501 733.299 429.199 739.794 428.973 746.289C428.822 752.708 428.746 759.203 428.746 765.773C428.746 768.568 428.784 772.23 428.859 776.762C428.935 781.293 429.086 786.24 429.312 791.602C429.539 796.888 429.841 802.363 430.219 808.027C430.672 813.691 431.238 819.091 431.918 824.227C432.598 829.362 433.391 834.007 434.297 838.16C435.279 842.314 436.411 845.523 437.695 847.789C438.375 848.091 439.017 848.582 439.621 849.262C440.301 849.866 440.867 850.583 441.32 851.414C441.849 852.169 442.264 852.962 442.566 853.793C442.944 854.699 443.133 855.53 443.133 856.285ZM495.582 806.555C495.582 813.125 495.016 819.695 493.883 826.266C492.826 832.76 490.598 838.915 487.199 844.73C486.142 846.467 484.934 848.167 483.574 849.828C482.215 851.414 480.704 852.849 479.043 854.133C477.457 855.492 475.682 856.549 473.719 857.305C471.831 858.135 469.829 858.551 467.715 858.551C464.392 858.551 461.484 857.758 458.992 856.172C456.576 854.661 454.461 852.66 452.648 850.168C450.911 847.6 449.439 844.73 448.23 841.559C447.098 838.311 446.191 835.026 445.512 831.703C444.908 828.305 444.454 825.02 444.152 821.848C443.926 818.676 443.812 815.882 443.812 813.465C443.812 810.746 443.926 807.763 444.152 804.516C444.379 801.268 444.757 797.945 445.285 794.547C445.889 791.148 446.645 787.788 447.551 784.465C448.533 781.142 449.779 778.046 451.289 775.176C452.799 772.23 454.612 769.625 456.727 767.359C458.841 765.018 461.296 763.168 464.09 761.809V761.922C466.507 760.638 468.923 759.996 471.34 759.996C472.85 759.996 474.021 760.336 474.852 761.016C475.682 761.62 476.06 762.677 475.984 764.188C480.138 764.943 483.499 766.944 486.066 770.191C488.634 773.439 490.598 777.215 491.957 781.52C493.392 785.824 494.336 790.242 494.789 794.773C495.318 799.305 495.582 803.232 495.582 806.555ZM469.98 778.234C468.697 778.234 467.488 777.743 466.355 776.762C464.921 778.952 463.712 781.482 462.73 784.352C461.749 787.146 460.956 790.053 460.352 793.074C459.823 796.02 459.445 799.003 459.219 802.023C458.992 805.044 458.879 807.876 458.879 810.52C458.879 812.71 458.992 815.542 459.219 819.016C459.445 822.414 459.861 825.85 460.465 829.324C461.145 832.798 462.051 836.046 463.184 839.066C464.392 842.087 465.94 844.315 467.828 845.75C470.169 844.391 472.095 842.238 473.605 839.293C475.191 836.272 476.438 832.987 477.344 829.438C478.25 825.888 478.854 822.301 479.156 818.676C479.534 815.051 479.723 811.954 479.723 809.387C479.723 807.499 479.609 805.044 479.383 802.023C479.156 799.003 478.779 795.944 478.25 792.848C477.721 789.676 476.966 786.73 475.984 784.012C475.078 781.293 473.908 779.254 472.473 777.895C471.793 778.121 470.962 778.234 469.98 778.234ZM522.543 852.434C522.543 854.171 522.014 855.303 520.957 855.832C519.975 856.361 518.767 856.625 517.332 856.625C516.048 856.625 514.764 856.512 513.48 856.285C512.272 856.134 511.102 855.794 509.969 855.266C508.911 854.737 507.967 854.02 507.137 853.113C506.382 852.207 505.853 851.036 505.551 849.602C504.493 845.07 503.889 840.652 503.738 836.348C503.587 831.967 503.512 827.474 503.512 822.867V808.934C503.512 802.59 503.776 796.02 504.305 789.223C504.833 782.35 505.4 775.742 506.004 769.398C506.004 769.172 506.042 768.908 506.117 768.605C506.193 768.303 506.23 768.077 506.23 767.926C506.306 767.095 506.419 766.189 506.57 765.207C506.721 764.225 506.948 763.357 507.25 762.602C507.628 761.771 508.118 761.091 508.723 760.562C509.402 760.034 510.271 759.77 511.328 759.77C512.536 759.77 513.669 760.034 514.727 760.562C515.859 761.016 516.841 761.658 517.672 762.488C518.503 763.243 519.145 764.188 519.598 765.32C520.126 766.453 520.391 767.624 520.391 768.832C520.391 770.342 520.315 771.928 520.164 773.59C520.089 775.176 519.975 776.724 519.824 778.234C519.673 779.292 519.56 780.085 519.484 780.613C519.484 781.142 519.447 782.01 519.371 783.219C520.277 781.633 521.297 780.047 522.43 778.461C523.638 776.799 524.96 775.365 526.395 774.156C527.829 772.872 529.378 771.853 531.039 771.098C532.776 770.267 534.626 769.852 536.59 769.852C538.553 769.852 540.177 770.191 541.461 770.871C542.745 771.475 543.764 772.344 544.52 773.477C545.275 774.534 545.803 775.818 546.105 777.328C546.408 778.839 546.559 780.424 546.559 782.086C546.559 783.143 546.521 784.163 546.445 785.145C546.445 786.126 546.408 787.108 546.332 788.09C546.257 789.072 546.181 790.053 546.105 791.035C546.105 791.941 546.105 792.923 546.105 793.98C546.105 795.944 546.143 797.832 546.219 799.645C546.37 801.382 546.521 803.232 546.672 805.195C547.427 802.703 548.333 799.871 549.391 796.699C550.523 793.527 551.807 790.28 553.242 786.957C554.753 783.634 556.376 780.387 558.113 777.215C559.926 773.967 561.852 771.098 563.891 768.605C566.005 766.113 568.271 764.112 570.688 762.602C573.104 761.016 575.634 760.223 578.277 760.223C582.431 760.223 585.339 761.431 587 763.848C588.737 766.264 589.605 769.361 589.605 773.137C589.605 774.194 589.568 775.327 589.492 776.535C589.417 777.668 589.303 778.763 589.152 779.82C588.775 783.898 588.473 788.09 588.246 792.395C588.095 796.699 588.02 800.891 588.02 804.969V807.121C588.02 812.408 588.246 817.392 588.699 822.074C589.152 826.757 590.059 831.703 591.418 836.914L592.324 839.973C592.626 841.03 592.966 842.201 593.344 843.484C593.797 844.768 594.174 846.014 594.477 847.223C594.779 848.431 595.043 849.564 595.27 850.621C595.496 851.678 595.609 852.509 595.609 853.113C595.609 854.699 595.043 855.757 593.91 856.285C592.777 856.814 591.607 857.078 590.398 857.078C589.643 857.078 588.775 857.04 587.793 856.965C586.811 856.965 585.829 856.852 584.848 856.625C583.941 856.474 583.035 856.21 582.129 855.832C581.298 855.454 580.618 854.964 580.09 854.359V854.473C579.41 853.793 578.919 852.962 578.617 851.98C578.315 850.999 578.089 850.017 577.938 849.035L577.711 848.016C576.654 843.938 575.747 840.275 574.992 837.027C574.312 833.78 573.746 830.533 573.293 827.285C572.84 824.038 572.5 820.677 572.273 817.203C572.122 813.729 572.047 809.727 572.047 805.195C572.047 801.344 572.198 797.417 572.5 793.414C572.878 789.411 573.255 785.484 573.633 781.633C573.633 781.255 573.633 780.84 573.633 780.387C573.708 779.858 573.784 779.405 573.859 779.027C570.99 783.483 568.46 788.392 566.27 793.754C564.155 799.04 562.229 804.478 560.492 810.066C558.831 815.655 557.358 821.281 556.074 826.945C554.866 832.534 553.771 837.858 552.789 842.918C552.789 842.993 552.94 843.447 553.242 844.277C553.62 845.033 553.96 845.939 554.262 846.996C554.639 847.978 554.979 848.96 555.281 849.941C555.583 850.848 555.734 851.452 555.734 851.754C555.734 853.491 555.168 854.548 554.035 854.926C552.902 855.303 551.732 855.492 550.523 855.492C549.617 855.492 548.635 855.454 547.578 855.379C546.521 855.303 545.464 855.115 544.406 854.812C543.424 854.51 542.48 854.095 541.574 853.566C540.743 853.113 540.064 852.434 539.535 851.527C539.082 850.772 538.553 848.997 537.949 846.203C537.345 843.333 536.703 840.01 536.023 836.234C535.344 832.383 534.702 828.267 534.098 823.887C533.493 819.507 532.927 815.353 532.398 811.426C531.87 807.499 531.454 804.062 531.152 801.117C530.85 798.172 530.699 796.171 530.699 795.113V793.414C528.283 798.625 526.281 804.214 524.695 810.18C523.109 816.146 521.901 821.999 521.07 827.738L520.617 829.777C520.466 830.382 520.353 830.986 520.277 831.59C520.202 832.118 520.164 832.647 520.164 833.176C520.164 834.007 520.24 835.026 520.391 836.234C520.617 837.443 520.882 838.764 521.184 840.199C521.561 842.163 521.863 844.202 522.09 846.316C522.392 848.355 522.543 850.395 522.543 852.434ZM652.137 806.555C652.137 813.125 651.57 819.695 650.438 826.266C649.38 832.76 647.152 838.915 643.754 844.73C642.697 846.467 641.488 848.167 640.129 849.828C638.77 851.414 637.259 852.849 635.598 854.133C634.012 855.492 632.237 856.549 630.273 857.305C628.385 858.135 626.384 858.551 624.27 858.551C620.947 858.551 618.039 857.758 615.547 856.172C613.13 854.661 611.016 852.66 609.203 850.168C607.466 847.6 605.993 844.73 604.785 841.559C603.652 838.311 602.746 835.026 602.066 831.703C601.462 828.305 601.009 825.02 600.707 821.848C600.48 818.676 600.367 815.882 600.367 813.465C600.367 810.746 600.48 807.763 600.707 804.516C600.934 801.268 601.311 797.945 601.84 794.547C602.444 791.148 603.199 787.788 604.105 784.465C605.087 781.142 606.333 778.046 607.844 775.176C609.354 772.23 611.167 769.625 613.281 767.359C615.396 765.018 617.85 763.168 620.645 761.809V761.922C623.061 760.638 625.478 759.996 627.895 759.996C629.405 759.996 630.576 760.336 631.406 761.016C632.237 761.62 632.615 762.677 632.539 764.188C636.693 764.943 640.053 766.944 642.621 770.191C645.189 773.439 647.152 777.215 648.512 781.52C649.947 785.824 650.891 790.242 651.344 794.773C651.872 799.305 652.137 803.232 652.137 806.555ZM626.535 778.234C625.251 778.234 624.043 777.743 622.91 776.762C621.475 778.952 620.267 781.482 619.285 784.352C618.303 787.146 617.51 790.053 616.906 793.074C616.378 796.02 616 799.003 615.773 802.023C615.547 805.044 615.434 807.876 615.434 810.52C615.434 812.71 615.547 815.542 615.773 819.016C616 822.414 616.415 825.85 617.02 829.324C617.699 832.798 618.605 836.046 619.738 839.066C620.947 842.087 622.495 844.315 624.383 845.75C626.724 844.391 628.65 842.238 630.16 839.293C631.746 836.272 632.992 832.987 633.898 829.438C634.805 825.888 635.409 822.301 635.711 818.676C636.089 815.051 636.277 811.954 636.277 809.387C636.277 807.499 636.164 805.044 635.938 802.023C635.711 799.003 635.333 795.944 634.805 792.848C634.276 789.676 633.521 786.73 632.539 784.012C631.633 781.293 630.462 779.254 629.027 777.895C628.348 778.121 627.517 778.234 626.535 778.234ZM708.098 778.234C708.098 778.99 708.022 779.783 707.871 780.613C707.72 781.444 707.569 782.199 707.418 782.879C707.267 783.71 707.116 784.503 706.965 785.258C706.814 785.938 706.738 786.617 706.738 787.297C706.738 794.32 706.852 801.382 707.078 808.48C707.38 815.504 708.135 822.565 709.344 829.664C709.721 832.383 710.174 835.026 710.703 837.594C711.232 840.161 711.836 842.767 712.516 845.41L712.742 846.09V845.863C712.969 846.392 713.158 846.958 713.309 847.562C713.535 848.091 713.648 848.658 713.648 849.262C713.648 850.092 713.422 850.772 712.969 851.301C712.591 851.829 712.1 852.245 711.496 852.547C710.892 852.849 710.212 853.038 709.457 853.113C708.777 853.189 708.135 853.227 707.531 853.227C705.039 853.227 703.038 852.962 701.527 852.434C700.092 851.829 698.922 851.036 698.016 850.055C697.109 848.997 696.43 847.751 695.977 846.316C695.599 844.882 695.259 843.296 694.957 841.559L694.617 839.52C694.315 838.462 694.126 837.329 694.051 836.121C693.975 835.517 693.9 835.253 693.824 835.328C693.824 835.328 693.786 835.026 693.711 834.422C692.654 836.31 691.408 838.349 689.973 840.539C688.613 842.654 687.027 844.655 685.215 846.543C683.478 848.355 681.59 849.904 679.551 851.188C677.512 852.396 675.322 853 672.98 853C669.733 853 667.203 852.018 665.391 850.055C663.654 848.091 662.37 845.712 661.539 842.918C660.708 840.048 660.217 837.103 660.066 834.082C659.915 830.986 659.84 828.305 659.84 826.039C659.84 817.43 660.104 808.896 660.633 800.438C661.237 791.979 661.879 783.483 662.559 774.949C662.559 774.723 662.559 774.421 662.559 774.043C662.634 773.665 662.672 773.363 662.672 773.137C662.747 772.079 662.823 771.098 662.898 770.191C662.974 769.285 663.163 768.417 663.465 767.586V767.699C663.767 766.491 664.182 765.622 664.711 765.094C665.315 764.565 666.221 764.301 667.43 764.301C668.562 764.301 669.695 764.527 670.828 764.98C671.961 765.358 672.98 765.924 673.887 766.68C674.793 767.359 675.51 768.19 676.039 769.172C676.643 770.154 676.945 771.249 676.945 772.457C676.945 773.061 676.945 773.779 676.945 774.609C676.945 775.44 676.908 776.158 676.832 776.762C676.832 777.29 676.794 777.97 676.719 778.801C676.719 779.556 676.719 780.198 676.719 780.727C676.115 787.977 675.661 795.189 675.359 802.363C675.057 809.462 674.906 816.674 674.906 824C674.906 826.039 674.906 828.078 674.906 830.117C674.982 832.156 675.208 834.195 675.586 836.234C678.078 833.062 680.23 829.022 682.043 824.113C683.855 819.129 685.366 813.88 686.574 808.367C687.858 802.779 688.878 797.266 689.633 791.828C690.464 786.315 691.068 781.444 691.445 777.215C691.445 776.988 691.445 776.724 691.445 776.422C691.521 776.12 691.559 775.855 691.559 775.629C691.634 774.798 691.71 774.005 691.785 773.25C691.861 772.495 692.125 771.777 692.578 771.098C692.578 770.418 692.616 769.701 692.691 768.945C692.767 768.19 692.956 767.51 693.258 766.906C693.56 766.227 693.975 765.698 694.504 765.32C695.108 764.943 695.939 764.754 696.996 764.754C700.017 764.754 702.396 765.698 704.133 767.586C705.87 769.398 706.814 771.74 706.965 774.609C707.342 775.214 707.607 775.818 707.758 776.422C707.984 776.951 708.098 777.555 708.098 778.234ZM765.871 827.625C765.871 829.211 765.607 830.835 765.078 832.496C764.549 834.158 763.945 835.743 763.266 837.254C762.359 839.444 761.264 841.596 759.98 843.711C758.697 845.75 757.224 847.6 755.562 849.262C753.901 850.848 752.013 852.132 749.898 853.113C747.784 854.095 745.405 854.586 742.762 854.586C738.079 854.586 734.19 853.415 731.094 851.074C727.997 848.733 725.543 845.788 723.73 842.238C721.918 838.689 720.634 834.799 719.879 830.57C719.199 826.341 718.859 822.339 718.859 818.562C718.859 815.768 718.973 812.483 719.199 808.707C719.426 804.855 719.841 800.891 720.445 796.812C721.125 792.734 722.069 788.694 723.277 784.691C724.561 780.689 726.185 777.139 728.148 774.043C730.112 770.871 732.491 768.303 735.285 766.34C738.155 764.376 741.553 763.395 745.48 763.395C746.311 763.395 747.52 763.546 749.105 763.848C750.691 764.15 752.24 764.603 753.75 765.207C755.336 765.736 756.695 766.491 757.828 767.473C759.036 768.379 759.641 769.436 759.641 770.645C759.641 771.777 759.112 772.646 758.055 773.25C757.073 773.854 755.865 774.307 754.43 774.609C753.07 774.836 751.635 774.987 750.125 775.062C748.69 775.062 747.52 775.062 746.613 775.062H744.574C742.46 776.951 740.723 779.745 739.363 783.445C738.004 787.07 736.947 790.96 736.191 795.113C735.436 799.267 734.908 803.383 734.605 807.461C734.303 811.464 734.152 814.749 734.152 817.316C734.152 820.941 734.417 824.529 734.945 828.078C735.549 831.552 736.72 834.837 738.457 837.934C738.835 838.613 739.363 839.406 740.043 840.312C740.798 841.143 741.629 841.559 742.535 841.559C743.215 841.559 743.895 840.992 744.574 839.859C745.329 838.727 746.009 837.405 746.613 835.895C747.217 834.384 747.708 832.911 748.086 831.477C748.464 830.042 748.728 828.984 748.879 828.305C748.954 828.003 748.992 827.663 748.992 827.285C748.992 826.908 748.992 826.53 748.992 826.152C748.992 825.473 748.992 824.831 748.992 824.227C749.068 823.547 749.181 823.018 749.332 822.641C749.861 821.357 750.54 820.488 751.371 820.035C752.277 819.582 753.372 819.355 754.656 819.355C755.789 819.355 756.997 819.507 758.281 819.809C759.565 820.111 760.773 820.602 761.906 821.281C763.039 821.961 763.983 822.829 764.738 823.887C765.493 824.944 765.871 826.19 765.871 827.625Z" fill="#F7931A"/>
</g>
<defs>
<clipPath id="clip0_106_872">
<rect width="1060" height="1060" fill="white"/>
</clipPath>
</defs>
</svg>
