<?xml version="1.0" encoding="UTF-8" standalone="no"?>
<!DOCTYPE svg PUBLIC "-//W3C//DTD SVG 1.1//EN" "http://www.w3.org/Graphics/SVG/1.1/DTD/svg11.dtd">
<!-- Created with Vectornator (http://vectornator.io/) -->
<svg height="100%" stroke-miterlimit="10" style="fill-rule:nonzero;clip-rule:evenodd;stroke-linecap:round;stroke-linejoin:round;" version="1.1" viewBox="264.866 178.524 858.768 600.674" width="100%" xml:space="preserve" xmlns="http://www.w3.org/2000/svg" xmlns:xlink="http://www.w3.org/1999/xlink">
<defs/>
<g id="V-JEDNADVACET">
<g opacity="1">
<path d="M912.513 587.577L912.513 631.777L948.913 631.777L948.913 779.197L992.853 779.197L992.853 631.777L1029.51 631.777L1029.51 587.577L912.513 587.577Z" fill="#f7931a" fill-rule="nonzero" opacity="1" stroke="none"/>
<path d="M901.653 588.357L779.193 588.617L779.193 779.197L901.653 779.197L901.653 735.257L823.133 735.257L823.133 705.097L886.833 705.097L886.833 661.157L823.133 661.157L823.133 632.297L901.653 632.297L901.653 588.357Z" fill="#f7931a" fill-rule="nonzero" opacity="1" stroke="none"/>
<path d="M703.193 778.937C728.153 778.937 752.073 769.837 770.793 751.117L739.853 719.917C719.573 740.197 686.813 739.937 666.793 719.917C657.173 709.777 651.713 697.297 651.713 683.517C651.713 669.737 657.173 656.997 666.793 646.857C686.813 626.837 719.573 626.577 739.853 646.857L770.793 615.917C733.353 578.477 673.033 578.477 635.593 615.917C617.653 633.857 607.773 657.517 607.773 683.517C607.773 709.257 617.653 732.657 635.593 751.117C654.313 769.837 678.493 778.937 703.193 778.937Z" fill="#f7931a" fill-rule="nonzero" opacity="1" stroke="none"/>
</g>
<g opacity="1">
<path d="M1029.51 574.918L967.893 384.078L926.293 384.078L861.293 574.918L907.833 574.918L915.633 551.778L975.693 551.778L983.233 574.918L1029.51 574.918ZM946.573 461.558L961.653 507.838L930.713 507.838L946.573 461.558Z" fill="#f7931a" fill-rule="nonzero" opacity="1" stroke="none"/>
<path d="M828.613 500.558L791.953 382.518L745.673 382.518L807.293 574.918L848.893 574.918L913.893 382.518L867.353 382.518L828.613 500.558Z" fill="#f7931a" fill-rule="nonzero" opacity="1" stroke="none"/>
<path d="M669.673 383.038L625.733 383.038L625.733 574.918L669.673 574.918C721.413 572.058 761.193 531.498 761.193 480.278C761.193 428.538 720.633 386.158 669.673 383.298L669.673 383.038ZM669.673 427.238C696.453 430.098 717.253 452.978 717.253 480.278C717.253 506.798 696.713 527.858 669.673 530.718L669.673 427.238Z" fill="#f7931a" fill-rule="nonzero" opacity="1" stroke="none"/>
</g>
<g opacity="1">
<path d="M1029.09 372.484L967.473 181.644L925.873 181.644L860.873 372.484L907.413 372.484L915.213 349.344L975.273 349.344L982.813 372.484L1029.09 372.484ZM946.153 259.124L961.233 305.404L930.293 305.404L946.153 259.124Z" fill="#f7931a" fill-rule="nonzero" opacity="1" stroke="none"/>
<path d="M814.733 293.184L752.593 182.164L704.753 182.164L704.753 372.484L748.693 372.484L748.693 261.204L811.093 372.484L858.673 372.484L858.673 181.644L814.733 181.644L814.733 293.184Z" fill="#f7931a" fill-rule="nonzero" opacity="1" stroke="none"/>
<path d="M606.093 180.604L562.153 180.604L562.153 372.484L606.093 372.484C657.833 369.624 697.613 329.064 697.613 277.844C697.613 226.104 657.053 183.724 606.093 180.864L606.093 180.604ZM606.093 224.804C632.873 227.664 653.673 250.544 653.673 277.844C653.673 304.364 633.133 325.424 606.093 328.284L606.093 224.804Z" fill="#f7931a" fill-rule="nonzero" opacity="1" stroke="none"/>
<path d="M550.153 181.644L427.693 181.904L427.693 372.484L550.153 372.484L550.153 328.544L471.633 328.544L471.633 298.384L535.333 298.384L535.333 254.444L471.633 254.444L471.633 225.584L550.153 225.584L550.153 181.644Z" fill="#f7931a" fill-rule="nonzero" opacity="1" stroke="none"/>
<path d="M369.753 178.524L369.753 300.204C369.753 316.324 356.493 328.544 341.153 328.544C333.353 328.544 326.593 325.684 320.873 319.964C315.413 314.244 312.813 307.484 312.813 299.684L268.873 299.164C268.613 318.924 275.893 336.864 289.413 350.644C303.193 364.424 320.873 372.224 340.633 372.484L341.413 372.484C380.673 372.484 413.693 340.764 413.693 300.464L413.693 178.524L369.753 178.524Z" fill="#f7931a" fill-rule="nonzero" opacity="1" stroke="none"/>
</g>
<g opacity="1">
<path d="M1121.86 734.391C1113.97 766.054 1081.9 785.324 1050.24 777.428C1018.58 769.534 999.312 737.463 1007.21 705.802C1015.1 674.135 1047.17 654.864 1078.83 662.758C1110.49 670.652 1129.76 702.727 1121.86 734.391Z" fill="#ffffff" fill-rule="nonzero" opacity="1" stroke="none"/>
<path d="M1090.6 711.673C1091.77 703.809 1085.78 699.581 1077.6 696.761L1080.25 686.107L1073.77 684.491L1071.18 694.864C1069.48 694.439 1067.73 694.038 1065.99 693.641L1068.59 683.2L1062.11 681.584L1059.45 692.234C1058.04 691.913 1056.66 691.595 1055.31 691.261L1055.32 691.227L1046.38 688.994L1044.65 695.921C1044.65 695.921 1049.46 697.023 1049.36 697.091C1051.99 697.747 1052.46 699.485 1052.38 700.863L1049.36 713C1049.54 713.046 1049.77 713.112 1050.03 713.216C1049.81 713.162 1049.58 713.103 1049.35 713.046L1045.1 730.047C1044.78 730.845 1043.97 732.042 1042.13 731.588C1042.2 731.682 1037.42 730.411 1037.42 730.411L1034.2 737.834L1042.64 739.938C1044.21 740.331 1045.75 740.743 1047.26 741.131L1044.58 751.906L1051.06 753.522L1053.71 742.862C1055.48 743.342 1057.2 743.785 1058.88 744.202L1056.23 754.813L1062.72 756.429L1065.4 745.674C1076.46 747.767 1084.77 746.923 1088.27 736.922C1091.09 728.869 1088.13 724.224 1082.32 721.195C1086.55 720.218 1089.74 717.43 1090.6 711.673ZM1075.78 732.45C1073.78 740.503 1060.22 736.15 1055.82 735.058L1059.38 720.783C1063.78 721.88 1077.87 724.052 1075.78 732.45ZM1077.78 711.557C1075.96 718.882 1064.67 715.161 1061.01 714.248L1064.24 701.301C1067.9 702.213 1079.69 703.916 1077.78 711.557Z" fill="#000000" fill-rule="nonzero" opacity="1" stroke="none"/>
</g>
<g opacity="1">
<path d="M269.636 419.012L269.636 602.971C269.636 687.574 338.204 756.142 422.807 756.142C507.41 756.142 575.978 687.574 575.978 602.971L575.978 419.012L269.636 419.012Z" fill="#e90000" fill-rule="nonzero" opacity="1" stroke="#000000" stroke-linecap="butt" stroke-linejoin="miter" stroke-width="3"/>
<path d="M269.636 581.676L269.636 602.971C269.636 687.574 338.204 756.142 422.807 756.142L422.807 581.676L269.636 581.676Z" fill="#ffffff" fill-rule="nonzero" opacity="1" stroke="#000000" stroke-linecap="butt" stroke-linejoin="miter" stroke-width="2"/>
<path d="M422.807 419.012L575.978 419.012L575.978 581.676L422.807 581.676L422.807 419.012Z" fill="#ffffff" fill-rule="nonzero" opacity="1" stroke="#000000" stroke-linecap="butt" stroke-linejoin="miter" stroke-width="2"/>
<path d="M268.866 418.243L268.866 602.971C268.866 687.99 337.788 756.912 422.807 756.912C507.826 756.912 576.747 687.99 576.747 602.971L576.747 418.243L268.866 418.243Z" fill="none" opacity="1" stroke="#000000" stroke-linecap="butt" stroke-linejoin="miter" stroke-width="8"/>
<path d="M343.044 455.301L336.951 455.061C332.41 455.203 329.406 456.094 326.718 453.821C322.983 450.664 328.058 446.807 328.058 446.807C325.936 455.899 338.57 449.932 343.413 454.165L343.044 455.301Z" fill="#ffd500" fill-rule="nonzero" opacity="1" stroke="#000000" stroke-linecap="butt" stroke-linejoin="miter" stroke-width="2"/>
<path d="M337.686 447.707C336.809 449.002 336.368 450.407 336.951 452.068C335.347 451.554 334.893 450.299 334.55 448.973L337.686 447.707Z" fill="#ffffff" fill-rule="nonzero" opacity="1" stroke="#000000" stroke-linecap="butt" stroke-linejoin="miter" stroke-width="2"/>
<path d="M336.951 455.061L336.951 452.068C337.824 454.473 339.993 454.931 341.695 456.09L336.951 455.061Z" fill="#ffffff" fill-rule="nonzero" opacity="1" stroke="#000000" stroke-linecap="butt" stroke-linejoin="miter" stroke-width="2"/>
<g opacity="1">
<path d="M334.959 469.385L310.458 444.902C310.551 444.878 310.643 444.851 310.735 444.821C312.953 444.053 314.129 441.631 313.361 439.411C312.594 437.192 310.174 436.015 307.957 436.783C307.337 436.998 306.776 437.354 306.317 437.822C305.294 436.073 303.179 435.289 301.265 435.95C299.047 436.718 297.87 439.14 298.638 441.36C298.792 441.8 299.017 442.213 299.306 442.58C299.206 442.605 299.108 442.634 299.011 442.666C296.793 443.434 295.617 445.856 296.384 448.075C297.152 450.295 299.571 451.472 301.789 450.704C301.949 450.647 302.106 450.58 302.259 450.503L304.129 453.607C302.933 454.754 302.513 456.493 303.052 458.061C303.819 460.281 306.239 461.458 308.457 460.69C308.618 460.633 308.775 460.565 308.927 460.489L311.44 463.037L306.152 465.412C307.642 469.374 310.943 470.353 314.371 471.125L311.464 476.072C319.226 479.681 325.591 477.012 332.946 474.206L334.959 469.385Z" fill="#ffffff" fill-rule="nonzero" opacity="1" stroke="#000000" stroke-linecap="butt" stroke-linejoin="miter" stroke-width="2.00054"/>
<path d="M305.655 456.213C305.155 455.99 304.612 455.992 304.139 456.175C303.004 456.709 302.344 457.732 300.05 458.617C302.843 459.857 304.429 460.295 305.564 459.876C306.037 459.694 306.44 459.331 306.662 458.83C307.106 457.829 306.655 456.657 305.655 456.213Z" fill="#ffd500" fill-rule="nonzero" opacity="1" stroke="#000000" stroke-linecap="butt" stroke-linejoin="miter" stroke-width="2.00054"/>
<path d="M299.712 448.212C299.315 448.589 298.803 448.769 298.296 448.756C297.048 448.633 296.084 447.89 293.626 447.825C295.843 445.72 297.191 444.776 298.4 444.79C298.907 444.804 299.409 445.011 299.785 445.408C300.539 446.203 300.506 447.458 299.712 448.212Z" fill="#ffd500" fill-rule="nonzero" opacity="1" stroke="#000000" stroke-linecap="butt" stroke-linejoin="miter" stroke-width="2.00054"/>
<path d="M300.785 439.709C300.323 439.415 300.024 438.962 299.913 438.467C299.728 437.225 300.212 436.109 299.675 433.707C302.256 435.346 303.499 436.424 303.78 437.6C303.891 438.096 303.813 438.633 303.52 439.096C302.934 440.021 301.709 440.295 300.785 439.709Z" fill="#ffd500" fill-rule="nonzero" opacity="1" stroke="#000000" stroke-linecap="butt" stroke-linejoin="miter" stroke-width="2.00054"/>
<path d="M309.436 439.633C309.405 439.087 309.599 438.579 309.937 438.201C310.838 437.328 312.027 437.072 313.666 435.237C313.837 438.292 313.684 439.931 312.892 440.845C312.554 441.223 312.071 441.472 311.525 441.503C310.432 441.564 309.497 440.727 309.436 439.633Z" fill="#ffd500" fill-rule="nonzero" opacity="1" stroke="#000000" stroke-linecap="butt" stroke-linejoin="miter" stroke-width="2.00054"/>
</g>
<g opacity="1">
<path d="M351.68 502.317L327.435 515.649C323.731 517.686 321.126 514.54 320.86 512.142C319.148 514.108 319.15 516.518 321.799 517.936C317.079 518.932 313.552 521.281 313.996 528.129C317.025 524.621 321.129 523.742 325.496 523.505L324.719 530.153L311.886 531.308L310.893 530.763C310.977 529.762 310.673 528.768 310.043 527.986C308.688 526.308 306.231 526.048 304.555 527.404C303.333 528.394 302.824 530.02 303.262 531.531C302.136 531.315 300.973 531.606 300.08 532.326C298.404 533.682 298.144 536.142 299.499 537.819C300.854 539.496 303.311 539.757 304.987 538.401C305.183 538.24 305.363 538.062 305.525 537.867L305.653 538.002C305.595 538.042 305.539 538.083 305.483 538.126C303.808 539.482 303.547 541.941 304.902 543.618C306.257 545.295 308.714 545.556 310.39 544.2C311.296 543.465 311.827 542.363 311.836 541.195L313.805 541.767C313.681 542.812 313.984 543.863 314.645 544.682C316 546.359 318.457 546.619 320.133 545.263C321.384 544.248 321.884 542.568 321.391 541.034C323.429 542.634 326.43 543.621 328.844 543.864L328.271 541.123C329.743 542.854 331.84 543.994 334.928 544.199L334.092 541.249C336.266 542.454 336.646 543.579 341.058 543.611C337.015 536.527 336.757 532.735 338.187 526.477C344.263 523.467 349.754 518.387 354.763 511.593" fill="#ffffff" fill-rule="nonzero" opacity="1" stroke="#000000" stroke-linecap="butt" stroke-linejoin="miter" stroke-width="2.00086"/>
<path d="M301.865 537.001C301.44 537.346 300.915 537.485 300.411 537.431C299.176 537.21 298.275 536.393 295.829 536.134C298.205 534.211 299.624 533.377 300.828 533.487C301.332 533.54 301.816 533.786 302.16 534.212C302.848 535.064 302.716 536.313 301.865 537.001Z" fill="#ffd500" fill-rule="nonzero" opacity="1" stroke="#000000" stroke-linecap="butt" stroke-linejoin="miter" stroke-width="2.00086"/>
<path d="M305.92 530.297C305.442 530.03 305.118 529.594 304.979 529.106C304.725 527.877 305.146 526.735 304.475 524.367C307.144 525.858 308.446 526.865 308.792 528.024C308.931 528.512 308.883 529.054 308.616 529.532C308.083 530.488 306.876 530.831 305.92 530.297Z" fill="#ffd500" fill-rule="nonzero" opacity="1" stroke="#000000" stroke-linecap="butt" stroke-linejoin="miter" stroke-width="2.00086"/>
<path d="M309.179 542.787C308.985 543.3 308.602 543.685 308.14 543.893C306.962 544.325 305.772 544.076 303.53 545.087C304.612 542.227 305.416 540.79 306.511 540.277C306.974 540.068 307.516 540.036 308.027 540.23C309.051 540.618 309.566 541.763 309.179 542.787Z" fill="#ffd500" fill-rule="nonzero" opacity="1" stroke="#000000" stroke-linecap="butt" stroke-linejoin="miter" stroke-width="2.00086"/>
<path d="M316.889 542.342C316.464 542.686 316.218 543.171 316.165 543.675C316.123 544.93 316.731 545.983 316.472 548.431C318.849 546.508 319.961 545.294 320.106 544.093C320.159 543.588 320.02 543.063 319.676 542.637C318.988 541.785 317.74 541.653 316.889 542.342Z" fill="#ffd500" fill-rule="nonzero" opacity="1" stroke="#000000" stroke-linecap="butt" stroke-linejoin="miter" stroke-width="2.00086"/>
</g>
<path d="M372.644 436.114C365.974 442.128 369.5 450.966 374.181 455.82C370.717 457.064 371.367 462.123 373.856 463.751C373.636 459.411 375.877 457.869 378.087 458.199C378.811 459.621 379.558 461.004 380.317 462.368C376.724 468.61 372.753 474.715 369.616 482.445L364.452 476.321C363.181 481.34 364.977 485.769 367.242 489.461C366.81 491.38 366.599 493.417 366.599 495.517C366.599 501.205 368.26 506.388 371.064 510.24C371.947 511.454 376.308 514.581 377.417 515.498C371.55 519.832 364.687 508.423 358.785 491.079C357.48 487.245 356.222 484.508 355.032 480.026L346.79 467.507L330.932 491.044C338.924 502.516 345.992 499.34 351.25 506.423C349.204 505.311 348.656 502.426 345.326 503.067L350.152 510.823C349.367 511.365 348.897 512.259 348.895 513.215C348.895 514.823 350.197 516.126 351.804 516.126L363.564 511.954C365.91 520.207 371.538 524.126 377.35 523.179C382.981 522.261 387.427 524.643 390.52 528.316C390.842 522.909 389.667 518.658 386.094 516.099C389.17 515.152 391.873 513.041 393.911 510.24C396.714 506.388 398.375 501.205 398.375 495.517C398.375 493.422 398.147 491.398 397.721 489.481C399.998 485.785 401.797 481.349 400.523 476.321L395.358 482.446C392.222 474.716 388.25 468.611 384.658 462.368C385.417 461.004 386.164 459.621 386.888 458.199C389.097 457.869 391.339 459.411 391.118 463.751C393.608 462.123 394.257 457.064 390.794 455.82C395.475 450.966 399.001 442.128 392.33 436.114C393.355 442.512 391.849 445.452 389.519 446.762C389.61 441.967 385.342 441.939 383.79 445.023C387.273 444.953 387.314 449.1 384.556 454.476C383.894 455.854 383.2 457.197 382.487 458.523C381.774 457.197 381.08 455.854 380.418 454.476C377.659 449.1 377.702 444.953 381.185 445.023C379.633 441.939 375.365 441.967 375.455 446.762C373.126 445.452 371.619 442.512 372.644 436.114ZM382.487 466.149C386.503 473.041 389.195 479.753 392.134 488.587C392.833 490.688 393.149 493.048 393.149 495.517C393.149 500.469 392.418 502.677 390.146 505.798C388.853 507.576 387.336 508.908 385.683 509.727C387.588 503.904 384.592 499.718 382.487 495.109C380.382 499.718 377.64 504.14 379.29 509.727C377.638 508.908 376.121 507.576 374.827 505.798C372.556 502.677 371.826 500.469 371.826 495.517C371.826 493.05 372.141 490.692 372.839 488.592C375.779 479.755 378.471 473.042 382.487 466.149Z" fill="#ffffff" fill-rule="nonzero" opacity="1" stroke="#000000" stroke-linecap="butt" stroke-linejoin="miter" stroke-width="2"/>
<g opacity="1">
<path d="M334.278 475.209L303.151 490.383C303.159 490.287 303.164 490.191 303.166 490.094C303.166 487.745 301.263 485.841 298.917 485.841C296.57 485.842 294.668 487.746 294.668 490.094C294.669 490.751 294.821 491.398 295.113 491.985C293.127 492.381 291.696 494.125 291.694 496.152C291.694 498.501 293.596 500.405 295.943 500.405C296.41 500.403 296.873 500.325 297.314 500.172C297.305 500.274 297.3 500.377 297.299 500.479C297.299 502.828 299.201 504.732 301.548 504.732C303.895 504.732 305.797 502.828 305.797 500.479C305.795 500.308 305.783 500.138 305.761 499.969L309.302 499.214C309.995 500.721 311.5 501.687 313.156 501.689C315.503 501.689 317.406 499.785 317.406 497.436C317.404 497.265 317.392 497.095 317.369 496.926L320.597 495.381L321.11 501.16C325.339 501.046 327.343 498.243 329.192 495.253L332.913 499.619C338.858 493.457 338.418 486.564 338.173 478.69L334.278 475.209Z" fill="#ffffff" fill-rule="nonzero" opacity="1" stroke="#000000" stroke-linecap="butt" stroke-linejoin="miter" stroke-width="2"/>
<path d="M312.262 498.623C311.888 499.023 311.713 499.537 311.73 500.045C311.864 501.293 312.614 502.251 312.699 504.711C314.784 502.474 315.716 501.117 315.691 499.907C315.674 499.399 315.463 498.899 315.062 498.525C314.262 497.778 313.008 497.822 312.262 498.623Z" fill="#ffd500" fill-rule="nonzero" opacity="1" stroke="#000000" stroke-linecap="butt" stroke-linejoin="miter" stroke-width="2"/>
<path d="M302.764 501.629C302.991 502.128 302.993 502.671 302.815 503.146C302.291 504.287 301.275 504.955 300.41 507.259C299.147 504.474 298.696 502.89 299.105 501.752C299.283 501.276 299.643 500.869 300.141 500.643C301.137 500.19 302.312 500.632 302.764 501.629Z" fill="#ffd500" fill-rule="nonzero" opacity="1" stroke="#000000" stroke-linecap="butt" stroke-linejoin="miter" stroke-width="2"/>
<path d="M295.086 497.834C294.658 498.175 294.132 498.311 293.628 498.253C292.396 498.023 291.5 497.2 289.056 496.923C291.447 495.017 292.871 494.193 294.075 494.312C294.579 494.369 295.061 494.619 295.402 495.047C296.083 495.904 295.942 497.152 295.086 497.834Z" fill="#ffd500" fill-rule="nonzero" opacity="1" stroke="#000000" stroke-linecap="butt" stroke-linejoin="miter" stroke-width="2"/>
<path d="M297.843 489.627C297.317 489.477 296.901 489.128 296.654 488.684C296.124 487.547 296.272 486.339 295.075 484.189C298.014 485.026 299.513 485.706 300.116 486.754C300.363 487.198 300.441 487.735 300.291 488.262C299.992 489.316 298.896 489.927 297.843 489.627Z" fill="#ffd500" fill-rule="nonzero" opacity="1" stroke="#000000" stroke-linecap="butt" stroke-linejoin="miter" stroke-width="2"/>
</g>
<path d="M340.058 439.099C338.073 439.099 336.842 440.386 336.892 442.208C334.44 442.511 332.438 443.604 330.62 445.018L331.904 446.303C331.806 446.602 331.756 446.915 331.755 447.23C331.755 448.881 333.092 450.219 334.742 450.219C336.206 450.218 337.453 449.154 337.686 447.707C342.683 446.01 343.284 450.101 343.044 455.301L336.951 455.061L334.384 460.442C336.089 459.08 338.358 459.207 340.53 459.42C337.94 463.999 332.819 467.066 331.16 462.155C326.62 464.642 328.134 470.263 331.787 469.488C327.424 472.422 324.807 477.104 321.61 481.206C327.895 482.005 333.174 480.358 337.228 475.734C334.817 480.157 334.882 485.075 333.887 489.781C339.337 487.766 345.098 486.313 346.691 477.349C347.771 483.304 349.803 489.609 356.439 491.842C356.309 485.025 359.19 482.44 357.475 475.733C360.338 475.548 363.158 474.893 365.705 471.242C363.689 469.289 363.678 466.055 361.729 464.084C365.145 462.553 366.114 460.591 366.866 458.589C363.711 459.427 362.712 457.388 360.838 456.515C363.438 454.815 365.798 452.911 365.265 448.545C359.775 449.907 355.598 445.743 356.006 439.099L340.058 439.099Z" fill="#ffffff" fill-rule="nonzero" opacity="1" stroke="#000000" stroke-linecap="butt" stroke-linejoin="miter" stroke-width="2"/>
<path d="M348.788 429.653L348.431 429.989C347.706 430.62 346.8 431.19 346.621 432.177C346.586 432.292 346.567 432.412 346.567 432.533C345.612 432.533 344.838 433.308 344.838 434.263C344.839 435.218 345.612 435.992 346.567 435.992L341.911 435.992C342.844 435.794 343.44 434.875 343.242 433.941C343.043 433.006 342.126 432.41 341.192 432.609C341.167 432.49 341.123 432.377 341.064 432.271C340.684 431.343 339.68 430.975 338.84 430.508L338.421 430.254C338.421 430.254 338.962 432.633 339.239 434.107C339.516 435.581 340.058 439.099 340.058 439.099L348.788 439.099L357.518 439.099C357.518 439.099 358.059 435.581 358.337 434.107C358.614 432.633 359.155 430.254 359.155 430.254L358.736 430.508C357.896 430.975 356.892 431.343 356.512 432.271C356.453 432.377 356.409 432.49 356.384 432.609C355.45 432.41 354.533 433.006 354.334 433.941C354.136 434.875 354.732 435.794 355.665 435.992L351.009 435.992C351.964 435.992 352.737 435.218 352.737 434.263C352.738 433.308 351.964 432.533 351.009 432.533C351.009 432.412 350.99 432.292 350.955 432.177C350.776 431.19 349.87 430.62 349.145 429.989L348.788 429.653Z" fill="#ffd500" fill-rule="nonzero" opacity="1" stroke="#000000" stroke-linecap="butt" stroke-linejoin="miter" stroke-width="2"/>
<path d="M353.913 441.739C354.635 439.807 356.338 438.252 360.249 437.551C360.805 442.233 362.481 447.523 356.005 448.38C356.89 451.687 356.216 455.491 356.216 459.21L352.837 458.492C352.837 467.467 348.882 469.257 347.689 474.143C343.732 473.576 341.106 471.787 339.506 468.843" fill="#ffffff" fill-rule="nonzero" opacity="1" stroke="#000000" stroke-linecap="butt" stroke-linejoin="miter" stroke-width="2"/>
<path d="M340.53 459.42C343.513 459.712 346.295 460.169 347.106 457.153L349.973 458.037L350.51 447.948C348.287 448.897 347.466 446.976 345.439 446.628" fill="none" opacity="1" stroke="#000000" stroke-linecap="butt" stroke-linejoin="miter" stroke-width="2"/>
<path d="M359.05 439.188C356.187 442.813 353.71 442.54 354.847 446.022L356.242 445.712" fill="none" opacity="1" stroke="#000000" stroke-linecap="butt" stroke-linejoin="miter" stroke-width="2"/>
<g opacity="1">
<path d="M353.67 503.71L348.785 530.961C348.039 535.125 343.957 535.175 341.926 533.874C342.377 536.443 344.252 537.956 347.019 536.786C344.825 541.086 344.432 545.307 350.032 549.268C349.211 544.705 351.109 540.958 353.67 537.41L358.346 542.194L351.175 552.908L350.128 553.339C349.403 552.644 348.439 552.256 347.436 552.254C345.28 552.254 343.533 554.003 343.533 556.16C343.534 557.733 344.477 559.152 345.926 559.761C345.051 560.501 344.546 561.59 344.544 562.737C344.544 564.894 346.291 566.643 348.446 566.643C350.601 566.643 352.349 564.894 352.348 562.737C352.347 562.484 352.322 562.232 352.272 561.983L352.457 561.969C352.452 562.038 352.448 562.108 352.447 562.178C352.447 564.335 354.194 566.084 356.348 566.084C358.504 566.084 360.251 564.335 360.251 562.178C360.25 561.011 359.727 559.905 358.826 559.164L360.508 557.991C361.242 558.744 362.249 559.169 363.301 559.169C365.456 559.169 367.203 557.421 367.203 555.264C367.201 553.652 366.21 552.206 364.708 551.625C367.232 551.045 369.886 549.33 371.593 547.604L369.102 546.327C371.373 546.27 373.578 545.354 375.678 543.08L372.86 541.875C375.164 540.941 376.277 541.352 379.075 537.938C371.029 536.632 367.921 534.448 363.958 529.401C365.439 522.78 364.945 515.311 362.815 507.142" fill="#ffffff" fill-rule="nonzero" opacity="1" stroke="#000000" stroke-linecap="butt" stroke-linejoin="miter" stroke-width="2"/>
<path d="M349.298 564.287C349.298 564.835 349.077 565.331 348.718 565.69C347.77 566.511 346.569 566.7 344.83 568.44C344.83 565.381 345.073 563.753 345.916 562.885C346.274 562.526 346.77 562.304 347.317 562.304C348.411 562.304 349.298 563.192 349.298 564.287Z" fill="#ffd500" fill-rule="nonzero" opacity="1" stroke="#000000" stroke-linecap="butt" stroke-linejoin="miter" stroke-width="2"/>
<path d="M346.639 556.916C346.131 557.12 345.589 557.099 345.122 556.9C344.007 556.325 343.385 555.279 341.123 554.313C343.96 553.173 345.56 552.793 346.679 553.252C347.145 553.451 347.536 553.828 347.74 554.337C348.147 555.353 347.654 556.508 346.639 556.916Z" fill="#ffd500" fill-rule="nonzero" opacity="1" stroke="#000000" stroke-linecap="butt" stroke-linejoin="miter" stroke-width="2"/>
<path d="M358.392 562.233C358.668 562.706 358.727 563.246 358.598 563.737C358.194 564.925 357.252 565.694 356.628 568.075C355.086 565.434 354.475 563.905 354.765 562.731C354.893 562.24 355.209 561.798 355.681 561.521C356.626 560.969 357.84 561.287 358.392 562.233Z" fill="#ffd500" fill-rule="nonzero" opacity="1" stroke="#000000" stroke-linecap="butt" stroke-linejoin="miter" stroke-width="2"/>
<path d="M362.894 555.952C362.894 556.499 363.116 556.995 363.474 557.354C364.422 558.176 365.624 558.364 367.363 560.104C367.363 557.045 367.119 555.417 366.277 554.549C365.918 554.19 365.423 553.968 364.875 553.968C363.781 553.968 362.894 554.856 362.894 555.952Z" fill="#ffd500" fill-rule="nonzero" opacity="1" stroke="#000000" stroke-linecap="butt" stroke-linejoin="miter" stroke-width="2"/>
</g>
<path d="M344.095 443.074C344.095 444.069 343.29 444.875 342.297 444.875C341.303 444.875 340.498 444.069 340.498 443.074C340.498 442.577 340.7 442.127 341.025 441.802L341.55 441.394L343.569 441.802C343.894 442.127 344.095 442.577 344.095 443.074Z" fill="none" opacity="1" stroke="#000000" stroke-linecap="butt" stroke-linejoin="miter" stroke-width="2"/>
<path d="M338.55 442.834L341.025 441.802L341.55 441.394L343.569 441.802L348.082 442.174" fill="none" opacity="1" stroke="#000000" stroke-linecap="butt" stroke-linejoin="miter" stroke-width="2"/>
<path d="M341.55 441.394C341.557 442.243 341.346 443 342.002 443.791" fill="none" opacity="1" stroke="#000000" stroke-linecap="butt" stroke-linejoin="miter" stroke-width="2"/>
<g opacity="1">
<path d="M485.12 614.281L479.028 614.041C474.486 614.183 471.482 615.074 468.794 612.801C465.059 609.644 470.134 605.788 470.134 605.788C468.012 614.879 480.646 608.912 485.489 613.145L485.12 614.281Z" fill="#ffd500" fill-rule="nonzero" opacity="1" stroke="#000000" stroke-linecap="butt" stroke-linejoin="miter" stroke-width="2"/>
<path d="M479.763 606.687C478.886 607.982 478.445 609.387 479.028 611.048C477.423 610.534 476.969 609.279 476.626 607.954L479.763 606.687Z" fill="#ffffff" fill-rule="nonzero" opacity="1" stroke="#000000" stroke-linecap="butt" stroke-linejoin="miter" stroke-width="2"/>
<path d="M479.028 614.041L479.028 611.048C479.9 613.453 482.069 613.912 483.771 615.07L479.028 614.041Z" fill="#ffffff" fill-rule="nonzero" opacity="1" stroke="#000000" stroke-linecap="butt" stroke-linejoin="miter" stroke-width="2"/>
<g opacity="1">
<path d="M477.036 628.365L452.534 603.882C452.627 603.858 452.719 603.831 452.811 603.801C455.029 603.034 456.205 600.612 455.438 598.392C454.67 596.172 452.251 594.995 450.033 595.763C449.413 595.978 448.852 596.334 448.393 596.803C447.37 595.053 445.255 594.269 443.341 594.93C441.123 595.698 439.947 598.12 440.714 600.34C440.868 600.781 441.094 601.193 441.382 601.56C441.283 601.585 441.184 601.614 441.087 601.646C438.869 602.414 437.693 604.836 438.46 607.056C439.228 609.275 441.647 610.452 443.865 609.684C444.026 609.627 444.183 609.56 444.335 609.484L446.205 612.587C445.009 613.734 444.589 615.473 445.128 617.041C445.895 619.261 448.315 620.438 450.533 619.67C450.694 619.613 450.851 619.546 451.003 619.469L453.516 622.018L448.228 624.392C449.718 628.354 453.019 629.333 456.447 630.106L453.54 635.052C461.302 638.661 467.667 635.992 475.023 633.186L477.036 628.365Z" fill="#ffffff" fill-rule="nonzero" opacity="1" stroke="#000000" stroke-linecap="butt" stroke-linejoin="miter" stroke-width="2.00054"/>
<path d="M447.731 615.193C447.231 614.971 446.688 614.972 446.215 615.155C445.08 615.689 444.421 616.712 442.126 617.597C444.919 618.837 446.505 619.275 447.64 618.856C448.113 618.674 448.517 618.311 448.739 617.81C449.182 616.809 448.731 615.637 447.731 615.193Z" fill="#ffd500" fill-rule="nonzero" opacity="1" stroke="#000000" stroke-linecap="butt" stroke-linejoin="miter" stroke-width="2.00054"/>
<path d="M441.788 607.192C441.391 607.569 440.879 607.749 440.372 607.736C439.124 607.613 438.16 606.87 435.702 606.806C437.919 604.7 439.267 603.756 440.476 603.771C440.983 603.784 441.485 603.991 441.861 604.388C442.615 605.183 442.582 606.438 441.788 607.192Z" fill="#ffd500" fill-rule="nonzero" opacity="1" stroke="#000000" stroke-linecap="butt" stroke-linejoin="miter" stroke-width="2.00054"/>
<path d="M442.861 598.689C442.399 598.395 442.1 597.942 441.989 597.447C441.804 596.206 442.288 595.089 441.751 592.687C444.332 594.326 445.575 595.404 445.857 596.581C445.967 597.076 445.889 597.614 445.596 598.076C445.01 599.001 443.786 599.275 442.861 598.689Z" fill="#ffd500" fill-rule="nonzero" opacity="1" stroke="#000000" stroke-linecap="butt" stroke-linejoin="miter" stroke-width="2.00054"/>
<path d="M451.512 598.614C451.482 598.067 451.675 597.559 452.013 597.181C452.914 596.308 454.103 596.053 455.742 594.218C455.913 597.272 455.761 598.911 454.968 599.825C454.63 600.203 454.148 600.453 453.601 600.483C452.508 600.544 451.573 599.707 451.512 598.614Z" fill="#ffd500" fill-rule="nonzero" opacity="1" stroke="#000000" stroke-linecap="butt" stroke-linejoin="miter" stroke-width="2.00054"/>
</g>
<g opacity="1">
<path d="M493.756 661.297L469.512 674.629C465.807 676.666 463.202 673.52 462.936 671.122C461.224 673.088 461.226 675.499 463.875 676.916C459.155 677.913 455.628 680.261 456.072 687.109C459.101 683.602 463.206 682.723 467.572 682.485L466.795 689.133L453.963 690.288L452.969 689.743C453.053 688.742 452.749 687.748 452.119 686.966C450.764 685.289 448.307 685.028 446.631 686.384C445.409 687.374 444.9 689 445.338 690.511C444.212 690.295 443.049 690.586 442.156 691.306C440.48 692.662 440.22 695.122 441.575 696.799C442.93 698.477 445.387 698.737 447.063 697.381C447.259 697.221 447.439 697.042 447.601 696.847L447.729 696.982C447.671 697.022 447.615 697.063 447.559 697.106C445.884 698.462 445.623 700.921 446.978 702.598C448.333 704.276 450.79 704.536 452.466 703.18C453.373 702.445 453.903 701.343 453.912 700.175L455.881 700.747C455.757 701.792 456.06 702.843 456.721 703.662C458.076 705.339 460.533 705.6 462.209 704.243C463.46 703.228 463.96 701.548 463.468 700.014C465.505 701.614 468.507 702.601 470.92 702.845L470.347 700.103C471.819 701.834 473.917 702.974 477.004 703.179L476.168 700.229C478.342 701.434 478.723 702.559 483.135 702.591C479.091 695.507 478.833 691.715 480.263 685.458C486.339 682.447 491.831 677.367 496.839 670.573" fill="#ffffff" fill-rule="nonzero" opacity="1" stroke="#000000" stroke-linecap="butt" stroke-linejoin="miter" stroke-width="2.00086"/>
<path d="M443.941 695.981C443.516 696.326 442.991 696.465 442.487 696.411C441.252 696.19 440.351 695.374 437.905 695.114C440.282 693.191 441.7 692.357 442.904 692.467C443.408 692.52 443.892 692.766 444.236 693.192C444.924 694.044 444.792 695.293 443.941 695.981Z" fill="#ffd500" fill-rule="nonzero" opacity="1" stroke="#000000" stroke-linecap="butt" stroke-linejoin="miter" stroke-width="2.00086"/>
<path d="M447.996 689.277C447.518 689.01 447.194 688.574 447.056 688.086C446.801 686.857 447.222 685.715 446.551 683.347C449.22 684.838 450.522 685.845 450.869 687.004C451.007 687.493 450.959 688.034 450.692 688.512C450.159 689.468 448.952 689.811 447.996 689.277Z" fill="#ffd500" fill-rule="nonzero" opacity="1" stroke="#000000" stroke-linecap="butt" stroke-linejoin="miter" stroke-width="2.00086"/>
<path d="M451.255 701.768C451.061 702.28 450.678 702.665 450.216 702.873C449.038 703.306 447.848 703.056 445.606 704.067C446.689 701.207 447.492 699.77 448.587 699.257C449.05 699.048 449.592 699.016 450.103 699.21C451.127 699.598 451.642 700.743 451.255 701.768Z" fill="#ffd500" fill-rule="nonzero" opacity="1" stroke="#000000" stroke-linecap="butt" stroke-linejoin="miter" stroke-width="2.00086"/>
<path d="M458.966 701.322C458.54 701.666 458.294 702.151 458.241 702.655C458.199 703.91 458.807 704.963 458.549 707.411C460.925 705.488 462.037 704.275 462.182 703.073C462.235 702.568 462.096 702.043 461.752 701.617C461.064 700.766 459.817 700.633 458.966 701.322Z" fill="#ffd500" fill-rule="nonzero" opacity="1" stroke="#000000" stroke-linecap="butt" stroke-linejoin="miter" stroke-width="2.00086"/>
</g>
<path d="M514.721 595.095C508.05 601.108 511.576 609.946 516.257 614.8C512.793 616.044 513.443 621.104 515.932 622.731C515.712 618.392 517.954 616.85 520.163 617.179C520.887 618.601 521.634 619.985 522.393 621.348C518.801 627.591 514.829 633.696 511.693 641.425L506.528 635.301C505.257 640.32 507.053 644.749 509.318 648.441C508.886 650.361 508.675 652.397 508.675 654.497C508.675 660.185 510.336 665.368 513.14 669.22C514.023 670.434 518.385 673.561 519.493 674.478C513.626 678.812 506.763 667.403 500.861 650.059C499.556 646.225 498.298 643.488 497.108 639.006L488.866 626.487L473.008 650.024C481.001 661.497 488.068 658.32 493.326 665.403C491.28 664.291 490.732 661.406 487.402 662.047L492.228 669.803C491.443 670.345 490.973 671.239 490.971 672.195C490.971 673.803 492.273 675.106 493.88 675.107L505.64 670.935C507.986 679.187 513.614 683.106 519.427 682.159C525.057 681.241 529.503 683.623 532.596 687.297C532.918 681.889 531.743 677.639 528.17 675.08C531.246 674.132 533.949 672.021 535.987 669.22C538.791 665.368 540.452 660.185 540.452 654.497C540.452 652.402 540.223 650.378 539.797 648.461C542.074 644.765 543.873 640.33 542.6 635.301L537.434 641.426C534.298 633.696 530.326 627.591 526.734 621.348C527.493 619.985 528.24 618.601 528.964 617.179C531.173 616.85 533.415 618.392 533.195 622.731C535.684 621.104 536.333 616.044 532.87 614.8C537.551 609.946 541.077 601.108 534.406 595.095C535.431 601.492 533.925 604.432 531.596 605.743C531.686 600.947 527.418 600.919 525.866 604.004C529.349 603.934 529.391 608.081 526.632 613.456C525.97 614.834 525.277 616.178 524.563 617.503C523.85 616.178 523.156 614.834 522.494 613.456C519.736 608.081 519.778 603.934 523.261 604.004C521.709 600.919 517.441 600.947 517.531 605.743C515.202 604.432 513.696 601.492 514.721 595.095ZM524.563 625.129C528.579 632.021 531.271 638.733 534.21 647.567C534.909 649.668 535.225 652.028 535.225 654.497C535.225 659.45 534.494 661.657 532.223 664.778C530.929 666.556 529.412 667.888 527.76 668.707C529.664 662.885 526.668 658.698 524.563 654.089C522.458 658.698 519.716 663.121 521.367 668.707C519.714 667.888 518.198 666.556 516.904 664.778C514.632 661.657 513.902 659.45 513.902 654.497C513.902 652.03 514.217 649.672 514.915 647.572C517.855 638.735 520.547 632.023 524.563 625.129Z" fill="#ffffff" fill-rule="nonzero" opacity="1" stroke="#000000" stroke-linecap="butt" stroke-linejoin="miter" stroke-width="2"/>
<g opacity="1">
<path d="M476.354 634.19L445.227 649.363C445.236 649.267 445.24 649.171 445.242 649.074C445.242 646.726 443.34 644.821 440.993 644.821C438.646 644.822 436.744 646.726 436.744 649.074C436.745 649.731 436.897 650.378 437.19 650.965C435.203 651.361 433.772 653.105 433.77 655.132C433.77 657.481 435.672 659.385 438.019 659.385C438.486 659.383 438.949 659.305 439.39 659.153C439.381 659.254 439.376 659.357 439.375 659.459C439.375 661.808 441.277 663.712 443.624 663.712C445.971 663.712 447.873 661.808 447.873 659.459C447.871 659.288 447.859 659.118 447.837 658.949L451.378 658.194C452.071 659.701 453.576 660.667 455.233 660.669C457.579 660.669 459.482 658.765 459.482 656.416C459.48 656.245 459.468 656.075 459.445 655.906L462.673 654.362L463.187 660.14C467.415 660.026 469.419 657.223 471.268 654.233L474.989 658.599C480.934 652.437 480.494 645.544 480.249 637.67L476.354 634.19Z" fill="#ffffff" fill-rule="nonzero" opacity="1" stroke="#000000" stroke-linecap="butt" stroke-linejoin="miter" stroke-width="2"/>
<path d="M454.338 657.603C453.965 658.004 453.789 658.518 453.806 659.025C453.94 660.273 454.69 661.231 454.776 663.691C456.86 661.454 457.792 660.097 457.767 658.887C457.75 658.38 457.539 657.879 457.139 657.505C456.338 656.758 455.084 656.802 454.338 657.603Z" fill="#ffd500" fill-rule="nonzero" opacity="1" stroke="#000000" stroke-linecap="butt" stroke-linejoin="miter" stroke-width="2"/>
<path d="M444.841 660.609C445.067 661.108 445.069 661.651 444.891 662.126C444.367 663.267 443.351 663.935 442.486 666.24C441.223 663.454 440.772 661.871 441.181 660.732C441.359 660.257 441.719 659.849 442.217 659.623C443.214 659.17 444.388 659.612 444.841 660.609Z" fill="#ffd500" fill-rule="nonzero" opacity="1" stroke="#000000" stroke-linecap="butt" stroke-linejoin="miter" stroke-width="2"/>
<path d="M437.162 656.814C436.734 657.155 436.209 657.291 435.705 657.234C434.472 657.003 433.576 656.18 431.132 655.903C433.523 653.997 434.948 653.173 436.151 653.292C436.655 653.349 437.137 653.599 437.478 654.027C438.16 654.884 438.018 656.132 437.162 656.814Z" fill="#ffd500" fill-rule="nonzero" opacity="1" stroke="#000000" stroke-linecap="butt" stroke-linejoin="miter" stroke-width="2"/>
<path d="M439.919 648.607C439.393 648.457 438.977 648.108 438.73 647.665C438.2 646.527 438.348 645.319 437.151 643.169C440.091 644.006 441.589 644.686 442.192 645.734C442.439 646.178 442.517 646.715 442.367 647.242C442.068 648.296 440.972 648.907 439.919 648.607Z" fill="#ffd500" fill-rule="nonzero" opacity="1" stroke="#000000" stroke-linecap="butt" stroke-linejoin="miter" stroke-width="2"/>
</g>
<path d="M482.134 598.079C480.149 598.079 478.918 599.366 478.968 601.188C476.516 601.491 474.514 602.584 472.697 603.998L473.981 605.283C473.882 605.582 473.832 605.895 473.831 606.21C473.831 607.861 475.168 609.199 476.818 609.199C478.282 609.198 479.529 608.134 479.763 606.687C484.759 604.99 485.36 609.081 485.12 614.281L479.028 614.041L476.46 619.422C478.165 618.06 480.434 618.187 482.606 618.4C480.016 622.979 474.895 626.046 473.236 621.135C468.696 623.623 470.21 629.243 473.863 628.468C469.5 631.402 466.883 636.084 463.686 640.186C469.971 640.985 475.25 639.338 479.304 634.714C476.893 639.137 476.958 644.055 475.963 648.762C481.413 646.746 487.174 645.293 488.767 636.329C489.847 642.284 491.879 648.59 498.515 650.822C498.385 644.005 501.266 641.42 499.552 634.713C502.414 634.528 505.234 633.873 507.781 630.222C505.765 628.269 505.754 625.035 503.805 623.064C507.221 621.534 508.19 619.571 508.942 617.57C505.787 618.407 504.788 616.368 502.914 615.496C505.515 613.796 507.874 611.891 507.341 607.525C501.851 608.887 497.674 604.723 498.082 598.079L482.134 598.079Z" fill="#ffffff" fill-rule="nonzero" opacity="1" stroke="#000000" stroke-linecap="butt" stroke-linejoin="miter" stroke-width="2"/>
<path d="M490.864 588.633L490.507 588.969C489.782 589.6 488.876 590.17 488.697 591.157C488.662 591.272 488.643 591.392 488.643 591.513C487.688 591.513 486.914 592.288 486.915 593.243C486.915 594.198 487.688 594.973 488.643 594.972L483.987 594.972C484.92 594.774 485.516 593.855 485.318 592.921C485.119 591.987 484.202 591.39 483.268 591.589C483.243 591.471 483.199 591.357 483.14 591.252C482.76 590.323 481.756 589.955 480.916 589.488L480.497 589.234C480.497 589.234 481.038 591.613 481.315 593.087C481.593 594.561 482.134 598.079 482.134 598.079L490.864 598.079L499.594 598.079C499.594 598.079 500.136 594.561 500.413 593.087C500.69 591.613 501.231 589.234 501.231 589.234L500.812 589.488C499.972 589.955 498.968 590.323 498.588 591.252C498.529 591.357 498.485 591.471 498.46 591.589C497.526 591.39 496.609 591.987 496.41 592.921C496.212 593.855 496.808 594.774 497.742 594.972L493.085 594.972C494.04 594.973 494.813 594.198 494.814 593.243C494.814 592.288 494.04 591.513 493.085 591.513C493.085 591.392 493.066 591.272 493.031 591.157C492.852 590.17 491.946 589.6 491.221 588.969L490.864 588.633Z" fill="#ffd500" fill-rule="nonzero" opacity="1" stroke="#000000" stroke-linecap="butt" stroke-linejoin="miter" stroke-width="2"/>
<path d="M495.989 600.719C496.711 598.787 498.414 597.232 502.325 596.531C502.881 601.213 504.557 606.504 498.081 607.361C498.966 610.668 498.292 614.471 498.292 618.19L494.913 617.472C494.913 626.447 490.958 628.237 489.765 633.123C485.808 632.557 483.182 630.767 481.582 627.823" fill="#ffffff" fill-rule="nonzero" opacity="1" stroke="#000000" stroke-linecap="butt" stroke-linejoin="miter" stroke-width="2"/>
<path d="M482.606 618.4C485.589 618.693 488.371 619.149 489.182 616.134L492.049 617.017L492.586 606.928C490.364 607.877 489.542 605.956 487.515 605.608" fill="none" opacity="1" stroke="#000000" stroke-linecap="butt" stroke-linejoin="miter" stroke-width="2"/>
<path d="M501.126 598.168C498.263 601.793 495.786 601.52 496.923 605.002L498.318 604.692" fill="none" opacity="1" stroke="#000000" stroke-linecap="butt" stroke-linejoin="miter" stroke-width="2"/>
<g opacity="1">
<path d="M495.746 662.69L490.861 689.941C490.115 694.105 486.033 694.155 484.002 692.854C484.454 695.423 486.328 696.936 489.095 695.766C486.901 700.066 486.508 704.288 492.108 708.248C491.287 703.685 493.185 699.938 495.746 696.39L500.422 701.175L493.251 711.888L492.204 712.319C491.479 711.624 490.515 711.236 489.512 711.234C487.357 711.234 485.609 712.983 485.609 715.14C485.61 716.713 486.553 718.132 488.002 718.741C487.127 719.482 486.622 720.57 486.62 721.717C486.62 723.874 488.367 725.623 490.522 725.623C492.677 725.623 494.425 723.874 494.425 721.717C494.423 721.464 494.398 721.212 494.348 720.964L494.533 720.949C494.528 721.019 494.525 721.088 494.523 721.158C494.523 723.315 496.27 725.064 498.425 725.064C500.58 725.064 502.327 723.315 502.327 721.158C502.326 719.991 501.803 718.885 500.902 718.144L502.584 716.971C503.318 717.724 504.325 718.149 505.377 718.15C507.532 718.15 509.279 716.401 509.279 714.244C509.277 712.632 508.286 711.187 506.784 710.605C509.309 710.025 511.962 708.31 513.669 706.584L511.179 705.307C513.449 705.25 515.654 704.334 517.754 702.06L514.936 700.856C517.24 699.921 518.353 700.332 521.152 696.919C513.105 695.612 509.997 693.428 506.035 688.381C507.515 681.76 507.021 674.292 504.891 666.122" fill="#ffffff" fill-rule="nonzero" opacity="1" stroke="#000000" stroke-linecap="butt" stroke-linejoin="miter" stroke-width="2"/>
<path d="M491.375 723.268C491.375 723.815 491.153 724.311 490.794 724.67C489.846 725.492 488.645 725.68 486.906 727.421C486.906 724.362 487.149 722.733 487.992 721.865C488.35 721.506 488.846 721.284 489.393 721.284C490.487 721.284 491.375 722.172 491.375 723.268Z" fill="#ffd500" fill-rule="nonzero" opacity="1" stroke="#000000" stroke-linecap="butt" stroke-linejoin="miter" stroke-width="2"/>
<path d="M488.715 715.896C488.207 716.1 487.665 716.079 487.198 715.88C486.083 715.305 485.461 714.26 483.199 713.293C486.036 712.153 487.636 711.773 488.755 712.232C489.221 712.431 489.612 712.809 489.816 713.317C490.223 714.333 489.731 715.488 488.715 715.896Z" fill="#ffd500" fill-rule="nonzero" opacity="1" stroke="#000000" stroke-linecap="butt" stroke-linejoin="miter" stroke-width="2"/>
<path d="M500.468 721.213C500.744 721.686 500.803 722.226 500.674 722.717C500.27 723.905 499.328 724.675 498.704 727.056C497.162 724.415 496.551 722.886 496.841 721.711C496.969 721.22 497.285 720.778 497.758 720.502C498.702 719.949 499.916 720.267 500.468 721.213Z" fill="#ffd500" fill-rule="nonzero" opacity="1" stroke="#000000" stroke-linecap="butt" stroke-linejoin="miter" stroke-width="2"/>
<path d="M504.97 714.932C504.97 715.479 505.192 715.975 505.55 716.334C506.499 717.156 507.7 717.344 509.439 719.085C509.439 716.026 509.195 714.397 508.353 713.529C507.994 713.17 507.499 712.948 506.952 712.948C505.857 712.948 504.97 713.836 504.97 714.932Z" fill="#ffd500" fill-rule="nonzero" opacity="1" stroke="#000000" stroke-linecap="butt" stroke-linejoin="miter" stroke-width="2"/>
</g>
<path d="M486.171 602.055C486.171 603.049 485.366 603.855 484.373 603.855C483.38 603.855 482.574 603.049 482.574 602.055C482.574 601.558 482.776 601.108 483.101 600.782L483.626 600.375L485.645 600.782C485.97 601.108 486.171 601.558 486.171 602.055Z" fill="none" opacity="1" stroke="#000000" stroke-linecap="butt" stroke-linejoin="miter" stroke-width="2"/>
<path d="M480.626 601.815L483.101 600.782L483.626 600.375L485.645 600.782L490.158 601.155" fill="none" opacity="1" stroke="#000000" stroke-linecap="butt" stroke-linejoin="miter" stroke-width="2"/>
<path d="M483.626 600.375C483.633 601.223 483.422 601.98 484.078 602.772" fill="none" opacity="1" stroke="#000000" stroke-linecap="butt" stroke-linejoin="miter" stroke-width="2"/>
</g>
<path d="M478.504 521.561L471.832 530.015C464.744 528.383 458.481 529.268 458.492 537.993L477.071 538.41L486.187 527.715" fill="#e90000" fill-rule="nonzero" opacity="1" stroke="#000000" stroke-linecap="butt" stroke-linejoin="miter" stroke-width="2"/>
<path d="M533.323 539.452L512.692 539.035C512.799 525.632 526.822 530.692 535.177 531.311" fill="#e90000" fill-rule="nonzero" opacity="1" stroke="#000000" stroke-linecap="butt" stroke-linejoin="miter" stroke-width="2"/>
<path d="M470.469 523.479C458.141 522.748 445.806 519.668 436.874 513.71C435.435 512.531 434.247 510.774 435.612 509.499L434.831 508.07C444.3 505.604 452.536 502.809 456.562 491.634L454.478 475.198C458.629 478.239 460.142 481.72 460.987 485.312C462.049 480.633 463.232 475.953 464.846 471.273C466.676 474.03 468.297 476.786 469.572 479.543C472.206 473.709 475.529 468.563 480.378 464.944L479.811 476.243C484.318 470.044 489.55 464.45 497.367 461.009C496.489 464.074 495.75 467.14 496.512 470.205C503.444 464.112 510.376 462.677 517.308 462.655C515.554 464.955 513.33 466.55 512.598 470.383C519.33 467.442 526.451 465.279 535.383 466.74C531.376 469.328 526.483 471.917 525.075 474.505C532.542 473.319 542.401 473.92 548.773 476.017C544.681 477.045 539.546 479.532 539.134 482.018C545.546 482.72 554.289 483.609 559.059 488.142C555.914 489.133 552.896 490.284 551.933 494.002C557.663 496.433 559.777 495.565 565.051 502.14C564.192 502.28 559.605 502.011 557.843 504.152C561.371 505.77 563.917 508.25 564.751 512.228C562.014 512.687 561.933 512.477 559.227 513.768C561.719 515.938 561.775 518.909 562.302 522.131L554.004 522.956L555.57 529.922L546.958 532.797L541.714 539.751L527.952 539.751C525.461 541.263 522.732 542.297 519.568 542.46C518.142 530.521 530.576 532.612 537.476 530.269C524.098 533.408 506.768 532.501 491.174 528.216L486.809 534.745L482.936 540.539L470.803 540.107C468.344 541.358 465.955 541.891 463.91 541.647C463.769 534.07 470.363 533.317 476.802 532.867L479.951 526.164L470.469 523.479Z" fill="#e90000" fill-rule="nonzero" opacity="1" stroke="#000000" stroke-linecap="butt" stroke-linejoin="miter" stroke-width="2"/>
<path d="M457.843 503.158C457.843 504.206 456.995 505.055 455.948 505.055C454.901 505.055 454.052 504.206 454.052 503.158C454.052 502.634 454.265 502.159 454.608 501.816L455.161 501.387L457.288 501.816C457.631 502.159 457.843 502.634 457.843 503.158Z" fill="#ffffff" fill-rule="nonzero" opacity="1" stroke="#000000" stroke-linecap="butt" stroke-linejoin="miter" stroke-width="2"/>
<path d="M455.161 501.387C455.169 502.281 454.946 503.079 455.637 503.913" fill="none" opacity="1" stroke="#000000" stroke-linecap="butt" stroke-linejoin="miter" stroke-width="2"/>
<path d="M473.112 512.432L479.604 517.501L480.462 513.609L487.968 519.201L489.085 515.754L496.742 522.389L497.709 517.9L507.45 524.764L507.214 518.88L517.177 524.965L516.31 519.399L524.298 524.956L525.471 520.762L530.862 524.759L533.475 522.278L538.772 526.164L540.956 524.031L545.287 525.853" fill="none" opacity="1" stroke="#000000" stroke-linecap="butt" stroke-linejoin="miter" stroke-width="2"/>
<path d="M473.45 503.591L471.991 495.464L478.868 505.884L483.244 494.005L486.162 504.633L493.873 493.172L495.54 503.383L502.834 492.13L506.168 501.716L512.42 495.047L514.296 502.966L521.798 496.714L522.632 504.008L530.342 499.84L529.092 506.926L537.219 502.133L539.303 509.01L546.389 506.092L547.431 512.136L553.746 515.356" fill="none" opacity="1" stroke="#000000" stroke-linecap="butt" stroke-linejoin="miter" stroke-width="2"/>
<path d="M466.812 488.264L465.77 481.387L473.273 489.932L476.399 480.137L480.567 488.681C482.875 482.496 486.179 477.641 490.153 473.676L489.945 487.431C493.589 481.896 497.416 477.274 501.615 474.51L500.156 487.431C503.168 482.225 506.662 478.466 510.784 476.594L509.326 488.681C512.291 484.932 516.527 481.631 520.579 479.512L518.912 488.264L529.332 483.471L527.248 490.973L537.042 488.681L535.792 494.099L543.711 493.057L543.503 497.851" fill="none" opacity="1" stroke="#000000" stroke-linecap="butt" stroke-linejoin="miter" stroke-width="2"/>
<g opacity="1">
<path d="M331.045 674.825L324.373 683.28C317.285 681.647 311.022 682.532 311.034 691.257L329.612 691.674L338.729 680.979" fill="#e90000" fill-rule="nonzero" opacity="1" stroke="#000000" stroke-linecap="butt" stroke-linejoin="miter" stroke-width="2"/>
<path d="M385.865 692.716L365.233 692.299C365.34 678.896 379.363 683.956 387.718 684.575" fill="#e90000" fill-rule="nonzero" opacity="1" stroke="#000000" stroke-linecap="butt" stroke-linejoin="miter" stroke-width="2"/>
<path d="M323.01 676.743C310.682 676.012 298.348 672.933 289.416 666.975C287.976 665.795 286.788 664.038 288.153 662.763L287.372 661.334C296.841 658.868 305.078 656.073 309.103 644.898L307.019 628.462C311.17 631.504 312.684 634.984 313.528 638.577C314.59 633.897 315.774 629.217 317.387 624.537C319.217 627.294 320.838 630.051 322.114 632.807C324.748 626.973 328.07 621.827 332.919 618.208L332.353 629.507C336.859 623.308 342.092 617.714 349.908 614.273C349.031 617.338 348.291 620.404 349.053 623.469C355.985 617.376 362.917 615.941 369.849 615.919C368.095 618.22 365.871 619.814 365.139 623.647C371.871 620.706 378.992 618.544 387.925 620.004C383.917 622.593 379.024 625.181 377.617 627.769C385.083 626.584 394.942 627.184 401.314 629.282C397.223 630.309 392.088 632.796 391.675 635.283C398.087 635.984 406.83 636.873 411.6 641.406C408.455 642.397 405.438 643.548 404.474 647.266C410.204 649.697 412.319 648.829 417.592 655.405C416.733 655.544 412.146 655.275 410.384 657.416C413.913 659.034 416.458 661.514 417.292 665.492C414.555 665.951 414.475 665.741 411.768 667.032C414.261 669.202 414.316 672.173 414.843 675.395L406.545 676.22L408.112 683.186L399.5 686.061L394.255 693.015L380.493 693.015C378.003 694.527 375.274 695.561 372.109 695.724C370.684 683.785 383.118 685.876 390.017 683.533C376.639 686.672 359.309 685.765 343.715 681.48L339.351 688.009L335.477 693.803L323.344 693.371C320.885 694.622 318.496 695.155 316.451 694.911C316.31 687.334 322.904 686.581 329.344 686.131L332.492 679.428L323.01 676.743Z" fill="#e90000" fill-rule="nonzero" opacity="1" stroke="#000000" stroke-linecap="butt" stroke-linejoin="miter" stroke-width="2"/>
<path d="M310.384 656.422C310.384 657.47 309.536 658.319 308.489 658.319C307.442 658.319 306.594 657.47 306.594 656.422C306.594 655.898 306.806 655.424 307.149 655.08L307.702 654.651L309.829 655.08C310.172 655.424 310.384 655.898 310.384 656.422Z" fill="#ffffff" fill-rule="nonzero" opacity="1" stroke="#000000" stroke-linecap="butt" stroke-linejoin="miter" stroke-width="2"/>
<path d="M307.702 654.651C307.71 655.545 307.487 656.343 308.179 657.178" fill="none" opacity="1" stroke="#000000" stroke-linecap="butt" stroke-linejoin="miter" stroke-width="2"/>
<path d="M325.653 665.696L332.145 670.765L333.004 666.873L340.509 672.465L341.627 669.019L349.283 675.653L350.25 671.165L359.992 678.028L359.756 672.144L369.718 678.229L368.851 672.663L376.839 678.22L378.013 674.027L383.403 678.023L386.016 675.542L391.313 679.428L393.497 677.296L397.828 679.117" fill="none" opacity="1" stroke="#000000" stroke-linecap="butt" stroke-linejoin="miter" stroke-width="2"/>
<path d="M325.991 656.856L324.532 648.728L331.409 659.148L335.786 647.269L338.703 657.898L346.414 646.436L348.081 656.647L355.375 645.394L358.709 654.98L364.961 648.311L366.837 656.23L374.339 649.978L375.173 657.272L382.884 653.104L381.633 660.19L389.761 655.397L391.845 662.274L398.93 659.356L399.972 665.4L406.287 668.62" fill="none" opacity="1" stroke="#000000" stroke-linecap="butt" stroke-linejoin="miter" stroke-width="2"/>
<path d="M319.354 641.528L318.312 634.651L325.814 643.196L328.94 633.401L333.108 641.945C335.416 635.76 338.721 630.905 342.694 626.941L342.486 640.695C346.13 635.16 349.958 630.538 354.156 627.774L352.697 640.695C355.709 635.49 359.203 631.731 363.326 629.858L361.867 641.945C364.832 638.196 369.068 634.895 373.12 632.776L371.453 641.528L381.873 636.735L379.789 644.238L389.584 641.945L388.333 647.364L396.252 646.322L396.044 651.115" fill="none" opacity="1" stroke="#000000" stroke-linecap="butt" stroke-linejoin="miter" stroke-width="2"/>
</g>
</g>
</g>
</svg>
