<?xml version="1.0" encoding="UTF-8" standalone="no"?>
<!DOCTYPE svg PUBLIC "-//W3C//DTD SVG 1.1//EN" "http://www.w3.org/Graphics/SVG/1.1/DTD/svg11.dtd">
<!-- Created with Vectornator (http://vectornator.io/) -->
<svg height="100%" stroke-miterlimit="10" style="fill-rule:nonzero;clip-rule:evenodd;stroke-linecap:round;stroke-linejoin:round;" version="1.1" viewBox="239.835 352.034 1100 1100" width="100%" xml:space="preserve" xmlns="http://www.w3.org/2000/svg" xmlns:xlink="http://www.w3.org/1999/xlink">
<defs/>
<g id="V-JEDNADVACET-copy-copy">
<path d="M240.835 353.034L1338.83 353.034L1338.83 1451.03L240.835 1451.03L240.835 353.034Z" fill="#000000" fill-rule="nonzero" opacity="1" stroke="#000000" stroke-linecap="butt" stroke-linejoin="miter" stroke-width="2"/>
<path d="M240.835 902.034C240.835 598.829 486.631 353.034 789.835 353.034C1093.04 353.034 1338.83 598.829 1338.83 902.034C1338.83 1205.24 1093.04 1451.03 789.835 1451.03C486.631 1451.03 240.835 1205.24 240.835 902.034Z" fill="#000000" fill-rule="nonzero" opacity="0" stroke="none"/>
<g opacity="1">
<path d="M1004.48 983.724L1004.48 1027.92L1040.88 1027.92L1040.88 1175.34L1084.82 1175.34L1084.82 1027.92L1121.48 1027.92L1121.48 983.724L1004.48 983.724Z" fill="#ffffff" fill-rule="nonzero" opacity="1" stroke="none"/>
<path d="M993.62 984.504L871.16 984.764L871.16 1175.34L993.62 1175.34L993.62 1131.4L915.1 1131.4L915.1 1101.24L978.8 1101.24L978.8 1057.3L915.1 1057.3L915.1 1028.44L993.62 1028.44L993.62 984.504Z" fill="#ffffff" fill-rule="nonzero" opacity="1" stroke="none"/>
<path d="M795.16 1175.08C820.12 1175.08 844.04 1165.98 862.76 1147.26L831.82 1116.06C811.54 1136.34 778.78 1136.08 758.76 1116.06C749.14 1105.92 743.68 1093.44 743.68 1079.66C743.68 1065.88 749.14 1053.14 758.76 1043C778.78 1022.98 811.54 1022.72 831.82 1043L862.76 1012.06C825.32 974.624 765 974.624 727.56 1012.06C709.62 1030 699.74 1053.66 699.74 1079.66C699.74 1105.4 709.62 1128.8 727.56 1147.26C746.28 1165.98 770.46 1175.08 795.16 1175.08Z" fill="#ffffff" fill-rule="nonzero" opacity="1" stroke="none"/>
</g>
<g opacity="1">
<path d="M1121.48 971.065L1059.86 780.225L1018.26 780.225L953.26 971.065L999.8 971.065L1007.6 947.925L1067.66 947.925L1075.2 971.065L1121.48 971.065ZM1038.54 857.705L1053.62 903.985L1022.68 903.985L1038.54 857.705Z" fill="#ffffff" fill-rule="nonzero" opacity="1" stroke="none"/>
<path d="M920.58 896.705L883.92 778.665L837.64 778.665L899.26 971.065L940.86 971.065L1005.86 778.665L959.32 778.665L920.58 896.705Z" fill="#ffffff" fill-rule="nonzero" opacity="1" stroke="none"/>
<path d="M761.64 779.185L717.7 779.185L717.7 971.065L761.64 971.065C813.38 968.205 853.16 927.645 853.16 876.425C853.16 824.685 812.6 782.305 761.64 779.445L761.64 779.185ZM761.64 823.385C788.42 826.245 809.22 849.125 809.22 876.425C809.22 902.945 788.68 924.005 761.64 926.865L761.64 823.385Z" fill="#ffffff" fill-rule="nonzero" opacity="1" stroke="none"/>
</g>
<g opacity="1">
<path d="M1121.06 768.63L1059.44 577.79L1017.84 577.79L952.84 768.63L999.38 768.63L1007.18 745.49L1067.24 745.49L1074.78 768.63L1121.06 768.63ZM1038.12 655.27L1053.2 701.55L1022.26 701.55L1038.12 655.27Z" fill="#ffffff" fill-rule="nonzero" opacity="1" stroke="none"/>
<path d="M906.7 689.33L844.56 578.31L796.72 578.31L796.72 768.63L840.66 768.63L840.66 657.35L903.06 768.63L950.64 768.63L950.64 577.79L906.7 577.79L906.7 689.33Z" fill="#ffffff" fill-rule="nonzero" opacity="1" stroke="none"/>
<path d="M698.06 576.75L654.12 576.75L654.12 768.63L698.06 768.63C749.8 765.77 789.58 725.21 789.58 673.99C789.58 622.25 749.02 579.87 698.06 577.01L698.06 576.75ZM698.06 620.95C724.84 623.81 745.64 646.69 745.64 673.99C745.64 700.51 725.1 721.57 698.06 724.43L698.06 620.95Z" fill="#ffffff" fill-rule="nonzero" opacity="1" stroke="none"/>
<path d="M642.12 577.79L519.66 578.05L519.66 768.63L642.12 768.63L642.12 724.69L563.6 724.69L563.6 694.53L627.3 694.53L627.3 650.59L563.6 650.59L563.6 621.73L642.12 621.73L642.12 577.79Z" fill="#ffffff" fill-rule="nonzero" opacity="1" stroke="none"/>
<path d="M461.72 574.67L461.72 696.35C461.72 712.47 448.46 724.69 433.12 724.69C425.32 724.69 418.56 721.83 412.84 716.11C407.38 710.39 404.78 703.63 404.78 695.83L360.84 695.31C360.58 715.07 367.86 733.01 381.38 746.79C395.16 760.57 412.84 768.37 432.6 768.63L433.38 768.63C472.64 768.63 505.66 736.91 505.66 696.61L505.66 574.67L461.72 574.67Z" fill="#ffffff" fill-rule="nonzero" opacity="1" stroke="none"/>
</g>
<g opacity="1">
<path d="M1213.83 1130.54C1205.94 1162.2 1173.87 1181.47 1142.2 1173.57C1110.55 1165.68 1091.28 1133.61 1099.18 1101.95C1107.07 1070.28 1139.14 1051.01 1170.79 1058.9C1202.46 1066.8 1221.73 1098.87 1213.83 1130.54Z" fill="#f7931a" fill-rule="nonzero" opacity="1" stroke="none"/>
<path d="M1182.56 1107.82C1183.74 1099.96 1177.75 1095.73 1169.56 1092.91L1172.22 1082.25L1165.73 1080.64L1163.15 1091.01C1161.44 1090.59 1159.69 1090.19 1157.95 1089.79L1160.56 1079.35L1154.08 1077.73L1151.42 1088.38C1150.01 1088.06 1148.62 1087.74 1147.28 1087.41L1147.29 1087.37L1138.34 1085.14L1136.62 1092.07C1136.62 1092.07 1141.43 1093.17 1141.33 1093.24C1143.95 1093.89 1144.43 1095.63 1144.35 1097.01L1141.32 1109.15C1141.5 1109.19 1141.74 1109.26 1142 1109.36C1141.78 1109.31 1141.55 1109.25 1141.31 1109.19L1137.07 1126.19C1136.75 1126.99 1135.94 1128.19 1134.1 1127.73C1134.16 1127.83 1129.39 1126.56 1129.39 1126.56L1126.17 1133.98L1134.61 1136.08C1136.18 1136.48 1137.71 1136.89 1139.23 1137.28L1136.55 1148.05L1143.02 1149.67L1145.68 1139.01C1147.45 1139.49 1149.17 1139.93 1150.85 1140.35L1148.2 1150.96L1154.68 1152.58L1157.37 1141.82C1168.43 1143.91 1176.74 1143.07 1180.24 1133.07C1183.06 1125.02 1180.1 1120.37 1174.28 1117.34C1178.52 1116.36 1181.71 1113.58 1182.56 1107.82ZM1167.75 1128.6C1165.74 1136.65 1152.18 1132.3 1147.79 1131.2L1151.35 1116.93C1155.74 1118.03 1169.84 1120.2 1167.75 1128.6ZM1169.75 1107.7C1167.92 1115.03 1156.64 1111.31 1152.98 1110.39L1156.21 1097.45C1159.87 1098.36 1171.66 1100.06 1169.75 1107.7Z" fill="#ffffff" fill-rule="nonzero" opacity="1" stroke="none"/>
</g>
<g opacity="1">
<path d="M361.603 815.159L361.603 999.118C361.603 1083.72 430.171 1152.29 514.774 1152.29C599.377 1152.29 667.945 1083.72 667.945 999.118L667.945 815.159L361.603 815.159Z" fill="#e90000" fill-rule="nonzero" opacity="1" stroke="#000000" stroke-linecap="butt" stroke-linejoin="miter" stroke-width="3"/>
<path d="M361.603 977.823L361.603 999.118C361.603 1083.72 430.171 1152.29 514.774 1152.29L514.774 977.823L361.603 977.823Z" fill="#ffffff" fill-rule="nonzero" opacity="1" stroke="#000000" stroke-linecap="butt" stroke-linejoin="miter" stroke-width="2"/>
<path d="M514.774 815.159L667.945 815.159L667.945 977.823L514.774 977.823L514.774 815.159Z" fill="#ffffff" fill-rule="nonzero" opacity="1" stroke="#000000" stroke-linecap="butt" stroke-linejoin="miter" stroke-width="2"/>
<path d="M360.833 814.39L360.833 999.118C360.833 1084.14 429.755 1153.06 514.774 1153.06C599.793 1153.06 668.714 1084.14 668.714 999.118L668.714 814.39L360.833 814.39Z" fill="none" opacity="0" stroke="#000000" stroke-linecap="butt" stroke-linejoin="miter" stroke-width="8"/>
<path d="M435.011 851.447L428.919 851.208C424.377 851.35 421.373 852.24 418.685 849.968C414.95 846.811 420.025 842.954 420.025 842.954C417.903 852.046 430.537 846.079 435.38 850.312L435.011 851.447Z" fill="#ffd500" fill-rule="nonzero" opacity="1" stroke="#000000" stroke-linecap="butt" stroke-linejoin="miter" stroke-width="2"/>
<path d="M429.654 843.854C428.777 845.149 428.336 846.554 428.919 848.215C427.314 847.701 426.86 846.446 426.517 845.12L429.654 843.854Z" fill="#ffffff" fill-rule="nonzero" opacity="1" stroke="#000000" stroke-linecap="butt" stroke-linejoin="miter" stroke-width="2"/>
<path d="M428.919 851.208L428.919 848.215C429.791 850.62 431.96 851.078 433.662 852.237L428.919 851.208Z" fill="#ffffff" fill-rule="nonzero" opacity="1" stroke="#000000" stroke-linecap="butt" stroke-linejoin="miter" stroke-width="2"/>
<g opacity="1">
<path d="M426.927 865.531L402.425 841.048C402.518 841.025 402.61 840.998 402.702 840.968C404.92 840.2 406.096 837.778 405.329 835.558C404.561 833.339 402.142 832.162 399.924 832.93C399.304 833.145 398.743 833.501 398.284 833.969C397.261 832.22 395.146 831.436 393.232 832.097C391.014 832.864 389.838 835.287 390.605 837.506C390.759 837.947 390.985 838.36 391.273 838.727C391.174 838.752 391.075 838.781 390.978 838.813C388.76 839.58 387.584 842.002 388.351 844.222C389.119 846.442 391.538 847.619 393.756 846.851C393.917 846.793 394.074 846.726 394.226 846.65L396.096 849.753C394.9 850.901 394.48 852.64 395.019 854.208C395.786 856.428 398.206 857.605 400.424 856.837C400.585 856.78 400.742 856.712 400.894 856.636L403.407 859.184L398.119 861.559C399.609 865.521 402.91 866.5 406.338 867.272L403.432 872.219C411.193 875.828 417.558 873.159 424.914 870.353L426.927 865.531Z" fill="#ffffff" fill-rule="nonzero" opacity="1" stroke="#000000" stroke-linecap="butt" stroke-linejoin="miter" stroke-width="2.00054"/>
<path d="M397.622 852.359C397.122 852.137 396.579 852.139 396.106 852.322C394.971 852.856 394.312 853.878 392.017 854.763C394.81 856.004 396.396 856.442 397.531 856.023C398.004 855.841 398.408 855.477 398.63 854.977C399.073 853.975 398.622 852.804 397.622 852.359Z" fill="#ffd500" fill-rule="nonzero" opacity="1" stroke="#000000" stroke-linecap="butt" stroke-linejoin="miter" stroke-width="2.00054"/>
<path d="M391.679 844.359C391.282 844.736 390.77 844.916 390.263 844.903C389.015 844.78 388.051 844.037 385.593 843.972C387.81 841.867 389.158 840.923 390.367 840.937C390.874 840.951 391.376 841.157 391.752 841.555C392.506 842.349 392.473 843.605 391.679 844.359Z" fill="#ffd500" fill-rule="nonzero" opacity="1" stroke="#000000" stroke-linecap="butt" stroke-linejoin="miter" stroke-width="2.00054"/>
<path d="M392.752 835.855C392.29 835.562 391.991 835.109 391.88 834.614C391.695 833.372 392.179 832.256 391.642 829.854C394.223 831.492 395.466 832.57 395.748 833.747C395.858 834.243 395.78 834.78 395.487 835.243C394.901 836.168 393.677 836.442 392.752 835.855Z" fill="#ffd500" fill-rule="nonzero" opacity="1" stroke="#000000" stroke-linecap="butt" stroke-linejoin="miter" stroke-width="2.00054"/>
<path d="M401.403 835.78C401.373 835.233 401.566 834.726 401.904 834.348C402.805 833.474 403.994 833.219 405.633 831.384C405.804 834.438 405.652 836.078 404.859 836.992C404.521 837.37 404.039 837.619 403.492 837.65C402.399 837.711 401.464 836.874 401.403 835.78Z" fill="#ffd500" fill-rule="nonzero" opacity="1" stroke="#000000" stroke-linecap="butt" stroke-linejoin="miter" stroke-width="2.00054"/>
</g>
<g opacity="1">
<path d="M443.647 898.464L419.403 911.796C415.698 913.833 413.093 910.687 412.827 908.289C411.115 910.255 411.117 912.665 413.766 914.083C409.046 915.079 405.519 917.427 405.963 924.276C408.992 920.768 413.097 919.889 417.463 919.652L416.686 926.3L403.854 927.454L402.86 926.91C402.944 925.909 402.64 924.915 402.01 924.133C400.655 922.455 398.198 922.195 396.522 923.551C395.3 924.54 394.791 926.167 395.229 927.677C394.103 927.462 392.94 927.753 392.047 928.473C390.371 929.829 390.111 932.288 391.466 933.966C392.821 935.643 395.278 935.904 396.954 934.547C397.15 934.387 397.33 934.209 397.492 934.014L397.62 934.149C397.562 934.189 397.506 934.23 397.45 934.273C395.775 935.629 395.514 938.087 396.869 939.765C398.224 941.442 400.681 941.703 402.357 940.346C403.264 939.612 403.794 938.51 403.803 937.342L405.772 937.914C405.648 938.959 405.951 940.01 406.612 940.828C407.967 942.506 410.424 942.766 412.1 941.41C413.351 940.395 413.851 938.715 413.359 937.18C415.396 938.781 418.398 939.768 420.811 940.011L420.238 937.27C421.71 939.001 423.808 940.141 426.895 940.346L426.059 937.396C428.233 938.601 428.614 939.726 433.026 939.758C428.982 932.673 428.724 928.882 430.154 922.624C436.23 919.614 441.722 914.534 446.73 907.74" fill="#ffffff" fill-rule="nonzero" opacity="1" stroke="#000000" stroke-linecap="butt" stroke-linejoin="miter" stroke-width="2.00086"/>
<path d="M393.832 933.148C393.407 933.492 392.882 933.632 392.378 933.578C391.143 933.357 390.242 932.54 387.796 932.281C390.173 930.358 391.591 929.524 392.795 929.633C393.299 929.687 393.783 929.933 394.127 930.359C394.815 931.211 394.683 932.459 393.832 933.148Z" fill="#ffd500" fill-rule="nonzero" opacity="1" stroke="#000000" stroke-linecap="butt" stroke-linejoin="miter" stroke-width="2.00086"/>
<path d="M397.887 926.444C397.409 926.177 397.085 925.741 396.947 925.253C396.692 924.024 397.113 922.882 396.442 920.514C399.111 922.005 400.413 923.012 400.76 924.171C400.898 924.659 400.85 925.2 400.583 925.679C400.05 926.635 398.843 926.978 397.887 926.444Z" fill="#ffd500" fill-rule="nonzero" opacity="1" stroke="#000000" stroke-linecap="butt" stroke-linejoin="miter" stroke-width="2.00086"/>
<path d="M401.146 938.934C400.952 939.446 400.569 939.832 400.107 940.04C398.929 940.472 397.739 940.223 395.497 941.234C396.58 938.373 397.383 936.937 398.478 936.424C398.941 936.215 399.483 936.183 399.994 936.377C401.018 936.765 401.533 937.91 401.146 938.934Z" fill="#ffd500" fill-rule="nonzero" opacity="1" stroke="#000000" stroke-linecap="butt" stroke-linejoin="miter" stroke-width="2.00086"/>
<path d="M408.857 938.489C408.431 938.833 408.185 939.317 408.132 939.822C408.09 941.077 408.698 942.13 408.44 944.578C410.816 942.655 411.928 941.441 412.073 940.24C412.126 939.735 411.987 939.21 411.643 938.784C410.955 937.932 409.708 937.8 408.857 938.489Z" fill="#ffd500" fill-rule="nonzero" opacity="1" stroke="#000000" stroke-linecap="butt" stroke-linejoin="miter" stroke-width="2.00086"/>
</g>
<path d="M464.612 832.261C457.941 838.275 461.467 847.112 466.148 851.967C462.684 853.211 463.334 858.27 465.823 859.898C465.603 855.558 467.845 854.016 470.054 854.346C470.778 855.767 471.525 857.151 472.284 858.514C468.692 864.757 464.72 870.862 461.584 878.592L456.419 872.468C455.148 877.487 456.944 881.916 459.21 885.608C458.777 887.527 458.566 889.564 458.566 891.664C458.566 897.352 460.227 902.535 463.031 906.387C463.914 907.601 468.276 910.728 469.384 911.645C463.517 915.979 456.654 904.569 450.752 887.226C449.447 883.392 448.189 880.655 446.999 876.173L438.757 863.653L422.899 887.191C430.892 898.663 437.959 895.487 443.217 902.57C441.171 901.458 440.623 898.573 437.293 899.214L442.119 906.969C441.334 907.512 440.864 908.406 440.862 909.362C440.862 910.969 442.164 912.273 443.771 912.273L455.531 908.101C457.877 916.354 463.505 920.272 469.318 919.325C474.948 918.408 479.394 920.789 482.487 924.463C482.809 919.056 481.634 914.805 478.061 912.246C481.137 911.299 483.84 909.187 485.878 906.387C488.682 902.535 490.343 897.352 490.343 891.664C490.343 889.569 490.114 887.544 489.688 885.628C491.965 881.932 493.764 877.496 492.491 872.468L487.325 878.592C484.189 870.863 480.217 864.757 476.625 858.514C477.384 857.151 478.131 855.767 478.855 854.346C481.064 854.016 483.306 855.558 483.086 859.898C485.575 858.27 486.224 853.211 482.761 851.967C487.442 847.112 490.968 838.275 484.297 832.261C485.322 838.659 483.816 841.599 481.487 842.909C481.577 838.114 477.309 838.086 475.757 841.17C479.24 841.1 479.282 845.247 476.523 850.623C475.861 852.001 475.168 853.344 474.454 854.67C473.741 853.344 473.047 852.001 472.385 850.623C469.627 845.247 469.669 841.1 473.152 841.17C471.6 838.086 467.332 838.114 467.422 842.909C465.093 841.599 463.587 838.659 464.612 832.261ZM474.454 862.296C478.47 869.188 481.162 875.899 484.101 884.733C484.8 886.835 485.116 889.195 485.116 891.664C485.116 896.616 484.385 898.824 482.114 901.945C480.82 903.723 479.303 905.055 477.651 905.874C479.555 900.051 476.559 895.865 474.454 891.256C472.349 895.865 469.607 900.287 471.258 905.874C469.605 905.055 468.089 903.723 466.795 901.945C464.523 898.824 463.793 896.616 463.793 891.664C463.793 889.197 464.108 886.839 464.806 884.739C467.746 875.902 470.438 869.189 474.454 862.296Z" fill="#ffffff" fill-rule="nonzero" opacity="1" stroke="#000000" stroke-linecap="butt" stroke-linejoin="miter" stroke-width="2"/>
<g opacity="1">
<path d="M426.245 871.356L395.118 886.529C395.127 886.433 395.131 886.337 395.133 886.241C395.133 883.892 393.231 881.988 390.884 881.988C388.537 881.988 386.635 883.892 386.635 886.241C386.636 886.897 386.788 887.545 387.081 888.132C385.094 888.528 383.663 890.272 383.661 892.299C383.661 894.648 385.563 896.552 387.91 896.552C388.377 896.55 388.84 896.472 389.281 896.319C389.272 896.421 389.267 896.523 389.266 896.626C389.266 898.975 391.168 900.879 393.515 900.879C395.862 900.878 397.764 898.974 397.764 896.626C397.762 896.455 397.75 896.285 397.728 896.116L401.269 895.361C401.962 896.867 403.467 897.833 405.124 897.836C407.47 897.836 409.373 895.931 409.373 893.583C409.371 893.412 409.359 893.242 409.336 893.072L412.564 891.528L413.078 897.307C417.306 897.193 419.31 894.39 421.159 891.4L424.88 895.766C430.825 889.604 430.385 882.711 430.14 874.836L426.245 871.356Z" fill="#ffffff" fill-rule="nonzero" opacity="1" stroke="#000000" stroke-linecap="butt" stroke-linejoin="miter" stroke-width="2"/>
<path d="M404.229 894.77C403.856 895.17 403.68 895.684 403.698 896.191C403.831 897.44 404.581 898.397 404.667 900.857C406.751 898.62 407.683 897.263 407.658 896.054C407.641 895.546 407.43 895.046 407.03 894.672C406.229 893.925 404.975 893.969 404.229 894.77Z" fill="#ffd500" fill-rule="nonzero" opacity="1" stroke="#000000" stroke-linecap="butt" stroke-linejoin="miter" stroke-width="2"/>
<path d="M394.732 897.776C394.958 898.275 394.961 898.818 394.782 899.293C394.258 900.433 393.242 901.102 392.377 903.406C391.114 900.621 390.663 899.037 391.072 897.898C391.25 897.423 391.61 897.016 392.108 896.79C393.105 896.337 394.279 896.779 394.732 897.776Z" fill="#ffd500" fill-rule="nonzero" opacity="1" stroke="#000000" stroke-linecap="butt" stroke-linejoin="miter" stroke-width="2"/>
<path d="M387.053 893.981C386.625 894.322 386.1 894.457 385.596 894.4C384.363 894.17 383.467 893.347 381.023 893.07C383.414 891.164 384.839 890.34 386.042 890.459C386.546 890.516 387.028 890.765 387.369 891.194C388.051 892.051 387.909 893.298 387.053 893.981Z" fill="#ffd500" fill-rule="nonzero" opacity="1" stroke="#000000" stroke-linecap="butt" stroke-linejoin="miter" stroke-width="2"/>
<path d="M389.81 885.774C389.284 885.624 388.868 885.275 388.621 884.831C388.091 883.694 388.239 882.486 387.042 880.335C389.982 881.172 391.48 881.852 392.084 882.901C392.33 883.344 392.408 883.882 392.258 884.409C391.959 885.462 390.863 886.073 389.81 885.774Z" fill="#ffd500" fill-rule="nonzero" opacity="1" stroke="#000000" stroke-linecap="butt" stroke-linejoin="miter" stroke-width="2"/>
</g>
<path d="M432.025 835.246C430.04 835.246 428.809 836.532 428.859 838.355C426.407 838.658 424.405 839.751 422.588 841.165L423.872 842.449C423.773 842.749 423.723 843.062 423.722 843.377C423.722 845.028 425.059 846.366 426.709 846.366C428.173 846.364 429.42 845.3 429.654 843.854C434.65 842.157 435.251 846.248 435.011 851.447L428.919 851.208L426.351 856.589C428.056 855.227 430.325 855.354 432.497 855.567C429.908 860.146 424.786 863.213 423.127 858.302C418.587 860.789 420.101 866.41 423.754 865.634C419.391 868.569 416.774 873.251 413.577 877.353C419.862 878.152 425.141 876.505 429.195 871.881C426.784 876.303 426.849 881.222 425.854 885.928C431.304 883.913 437.065 882.459 438.658 873.495C439.738 879.451 441.77 885.756 448.406 887.989C448.276 881.172 451.157 878.586 449.443 871.88C452.305 871.694 455.125 871.04 457.672 867.389C455.656 865.436 455.646 862.202 453.696 860.231C457.112 858.7 458.081 856.737 458.833 854.736C455.678 855.573 454.679 853.535 452.805 852.662C455.406 850.962 457.765 849.058 457.232 844.692C451.743 846.053 447.565 841.89 447.973 835.246L432.025 835.246Z" fill="#ffffff" fill-rule="nonzero" opacity="1" stroke="#000000" stroke-linecap="butt" stroke-linejoin="miter" stroke-width="2"/>
<path d="M440.755 825.8L440.398 826.136C439.673 826.767 438.767 827.336 438.588 828.323C438.553 828.439 438.534 828.559 438.534 828.68C437.579 828.68 436.805 829.454 436.806 830.41C436.806 831.365 437.579 832.139 438.534 832.139L433.878 832.139C434.811 831.941 435.407 831.022 435.209 830.088C435.01 829.153 434.093 828.557 433.159 828.755C433.134 828.637 433.09 828.524 433.031 828.418C432.651 827.49 431.647 827.121 430.807 826.655L430.388 826.401C430.388 826.401 430.929 828.78 431.206 830.254C431.484 831.727 432.025 835.246 432.025 835.246L440.755 835.246L449.485 835.246C449.485 835.246 450.027 831.727 450.304 830.254C450.581 828.78 451.122 826.401 451.122 826.401L450.703 826.655C449.863 827.121 448.859 827.49 448.479 828.418C448.42 828.524 448.377 828.637 448.351 828.755C447.417 828.557 446.5 829.153 446.301 830.088C446.103 831.022 446.699 831.941 447.633 832.139L442.976 832.139C443.931 832.139 444.704 831.365 444.705 830.41C444.705 829.454 443.931 828.68 442.976 828.68C442.976 828.559 442.958 828.439 442.922 828.323C442.743 827.336 441.837 826.767 441.112 826.136L440.755 825.8Z" fill="#ffd500" fill-rule="nonzero" opacity="1" stroke="#000000" stroke-linecap="butt" stroke-linejoin="miter" stroke-width="2"/>
<path d="M445.88 837.886C446.602 835.953 448.305 834.399 452.217 833.698C452.772 838.379 454.448 843.67 447.972 844.527C448.857 847.834 448.183 851.638 448.183 855.357L444.804 854.639C444.804 863.613 440.849 865.404 439.656 870.289C435.699 869.723 433.073 867.934 431.473 864.99" fill="#ffffff" fill-rule="nonzero" opacity="1" stroke="#000000" stroke-linecap="butt" stroke-linejoin="miter" stroke-width="2"/>
<path d="M432.497 855.567C435.48 855.859 438.262 856.316 439.073 853.3L441.94 854.184L442.477 844.094C440.255 845.044 439.433 843.122 437.406 842.775" fill="none" opacity="1" stroke="#000000" stroke-linecap="butt" stroke-linejoin="miter" stroke-width="2"/>
<path d="M451.017 835.335C448.154 838.96 445.677 838.686 446.814 842.169L448.209 841.859" fill="none" opacity="1" stroke="#000000" stroke-linecap="butt" stroke-linejoin="miter" stroke-width="2"/>
<g opacity="1">
<path d="M445.637 899.856L440.752 927.108C440.006 931.272 435.924 931.322 433.893 930.02C434.345 932.59 436.219 934.103 438.986 932.933C436.792 937.233 436.399 941.454 441.999 945.415C441.178 940.852 443.076 937.105 445.637 933.557L450.313 938.341L443.142 949.055L442.095 949.485C441.37 948.791 440.406 948.403 439.403 948.401C437.248 948.401 435.5 950.15 435.5 952.307C435.501 953.88 436.444 955.299 437.893 955.907C437.018 956.648 436.513 957.737 436.511 958.884C436.511 961.041 438.258 962.79 440.413 962.79C442.569 962.79 444.316 961.041 444.316 958.884C444.314 958.631 444.289 958.378 444.239 958.13L444.424 958.116C444.419 958.185 444.416 958.255 444.414 958.325C444.414 960.482 446.161 962.23 448.316 962.231C450.471 962.231 452.218 960.482 452.218 958.325C452.217 957.158 451.694 956.052 450.793 955.31L452.475 954.138C453.209 954.891 454.216 955.316 455.268 955.316C457.423 955.316 459.17 953.568 459.17 951.411C459.168 949.799 458.177 948.353 456.675 947.772C459.2 947.192 461.853 945.477 463.56 943.751L461.07 942.474C463.34 942.417 465.545 941.501 467.645 939.226L464.827 938.022C467.131 937.088 468.244 937.499 471.043 934.085C462.996 932.779 459.888 930.595 455.926 925.548C457.406 918.926 456.912 911.458 454.782 903.288" fill="#ffffff" fill-rule="nonzero" opacity="1" stroke="#000000" stroke-linecap="butt" stroke-linejoin="miter" stroke-width="2"/>
<path d="M441.266 960.434C441.266 960.982 441.044 961.478 440.685 961.837C439.737 962.658 438.536 962.847 436.797 964.587C436.797 961.528 437.04 959.9 437.883 959.032C438.241 958.673 438.737 958.451 439.284 958.451C440.378 958.451 441.266 959.339 441.266 960.434Z" fill="#ffd500" fill-rule="nonzero" opacity="1" stroke="#000000" stroke-linecap="butt" stroke-linejoin="miter" stroke-width="2"/>
<path d="M438.606 953.063C438.098 953.267 437.556 953.246 437.089 953.046C435.974 952.472 435.352 951.426 433.09 950.459C435.927 949.32 437.527 948.939 438.646 949.398C439.112 949.598 439.503 949.975 439.707 950.484C440.114 951.5 439.622 952.655 438.606 953.063Z" fill="#ffd500" fill-rule="nonzero" opacity="1" stroke="#000000" stroke-linecap="butt" stroke-linejoin="miter" stroke-width="2"/>
<path d="M450.359 958.38C450.635 958.853 450.694 959.393 450.565 959.884C450.161 961.072 449.219 961.841 448.595 964.222C447.053 961.581 446.442 960.052 446.732 958.877C446.86 958.386 447.176 957.945 447.649 957.668C448.593 957.115 449.807 957.434 450.359 958.38Z" fill="#ffd500" fill-rule="nonzero" opacity="1" stroke="#000000" stroke-linecap="butt" stroke-linejoin="miter" stroke-width="2"/>
<path d="M454.861 952.098C454.861 952.646 455.083 953.142 455.441 953.501C456.39 954.322 457.591 954.511 459.33 956.251C459.33 953.192 459.086 951.564 458.244 950.696C457.885 950.337 457.39 950.115 456.843 950.115C455.748 950.115 454.861 951.003 454.861 952.098Z" fill="#ffd500" fill-rule="nonzero" opacity="1" stroke="#000000" stroke-linecap="butt" stroke-linejoin="miter" stroke-width="2"/>
</g>
<path d="M436.062 839.221C436.062 840.215 435.257 841.021 434.264 841.021C433.271 841.021 432.465 840.215 432.465 839.221C432.465 838.724 432.667 838.274 432.992 837.948L433.517 837.541L435.536 837.948C435.861 838.274 436.062 838.724 436.062 839.221Z" fill="none" opacity="1" stroke="#000000" stroke-linecap="butt" stroke-linejoin="miter" stroke-width="2"/>
<path d="M430.517 838.981L432.992 837.948L433.517 837.541L435.536 837.948L440.049 838.321" fill="none" opacity="1" stroke="#000000" stroke-linecap="butt" stroke-linejoin="miter" stroke-width="2"/>
<path d="M433.517 837.541C433.524 838.389 433.313 839.147 433.969 839.938" fill="none" opacity="1" stroke="#000000" stroke-linecap="butt" stroke-linejoin="miter" stroke-width="2"/>
<g opacity="1">
<path d="M577.087 1010.43L570.995 1010.19C566.453 1010.33 563.449 1011.22 560.761 1008.95C557.026 1005.79 562.101 1001.93 562.101 1001.93C559.979 1011.03 572.613 1005.06 577.456 1009.29L577.087 1010.43Z" fill="#ffd500" fill-rule="nonzero" opacity="1" stroke="#000000" stroke-linecap="butt" stroke-linejoin="miter" stroke-width="2"/>
<path d="M571.73 1002.83C570.853 1004.13 570.412 1005.53 570.995 1007.19C569.39 1006.68 568.936 1005.43 568.593 1004.1L571.73 1002.83Z" fill="#ffffff" fill-rule="nonzero" opacity="1" stroke="#000000" stroke-linecap="butt" stroke-linejoin="miter" stroke-width="2"/>
<path d="M570.995 1010.19L570.995 1007.19C571.867 1009.6 574.036 1010.06 575.738 1011.22L570.995 1010.19Z" fill="#ffffff" fill-rule="nonzero" opacity="1" stroke="#000000" stroke-linecap="butt" stroke-linejoin="miter" stroke-width="2"/>
<g opacity="1">
<path d="M569.003 1024.51L544.501 1000.03C544.594 1000 544.686 999.978 544.778 999.948C546.996 999.18 548.172 996.758 547.405 994.538C546.637 992.319 544.218 991.142 542 991.91C541.381 992.125 540.819 992.481 540.36 992.949C539.337 991.2 537.223 990.416 535.308 991.077C533.09 991.845 531.914 994.267 532.681 996.487C532.835 996.927 533.061 997.34 533.349 997.707C533.25 997.732 533.151 997.761 533.054 997.793C530.836 998.561 529.66 1000.98 530.427 1003.2C531.195 1005.42 533.615 1006.6 535.832 1005.83C535.993 1005.77 536.15 1005.71 536.302 1005.63L538.172 1008.73C536.976 1009.88 536.556 1011.62 537.095 1013.19C537.863 1015.41 540.282 1016.59 542.5 1015.82C542.661 1015.76 542.818 1015.69 542.97 1015.62L545.483 1018.16L540.195 1020.54C541.685 1024.5 544.987 1025.48 548.414 1026.25L545.508 1031.2C553.269 1034.81 559.634 1032.14 566.99 1029.33L569.003 1024.51Z" fill="#ffffff" fill-rule="nonzero" opacity="1" stroke="#000000" stroke-linecap="butt" stroke-linejoin="miter" stroke-width="2.00054"/>
<path d="M539.698 1011.34C539.198 1011.12 538.655 1011.12 538.182 1011.3C537.047 1011.84 536.388 1012.86 534.093 1013.74C536.886 1014.98 538.472 1015.42 539.607 1015C540.08 1014.82 540.484 1014.46 540.706 1013.96C541.15 1012.96 540.698 1011.78 539.698 1011.34Z" fill="#ffd500" fill-rule="nonzero" opacity="1" stroke="#000000" stroke-linecap="butt" stroke-linejoin="miter" stroke-width="2.00054"/>
<path d="M533.755 1003.34C533.358 1003.72 532.846 1003.9 532.339 1003.88C531.091 1003.76 530.128 1003.02 527.669 1002.95C529.886 1000.85 531.234 999.903 532.443 999.917C532.95 999.931 533.452 1000.14 533.829 1000.53C534.582 1001.33 534.549 1002.58 533.755 1003.34Z" fill="#ffd500" fill-rule="nonzero" opacity="1" stroke="#000000" stroke-linecap="butt" stroke-linejoin="miter" stroke-width="2.00054"/>
<path d="M534.829 994.835C534.366 994.542 534.067 994.089 533.956 993.594C533.771 992.352 534.255 991.236 533.718 988.834C536.299 990.472 537.542 991.55 537.824 992.727C537.934 993.223 537.856 993.76 537.563 994.223C536.977 995.148 535.753 995.422 534.829 994.835Z" fill="#ffd500" fill-rule="nonzero" opacity="1" stroke="#000000" stroke-linecap="butt" stroke-linejoin="miter" stroke-width="2.00054"/>
<path d="M543.479 994.76C543.449 994.214 543.642 993.706 543.981 993.328C544.881 992.455 546.07 992.199 547.71 990.364C547.88 993.419 547.728 995.058 546.935 995.972C546.597 996.35 546.115 996.599 545.568 996.63C544.476 996.691 543.54 995.854 543.479 994.76Z" fill="#ffd500" fill-rule="nonzero" opacity="1" stroke="#000000" stroke-linecap="butt" stroke-linejoin="miter" stroke-width="2.00054"/>
</g>
<g opacity="1">
<path d="M585.723 1057.44L561.479 1070.78C557.774 1072.81 555.169 1069.67 554.903 1067.27C553.191 1069.24 553.193 1071.65 555.842 1073.06C551.122 1074.06 547.595 1076.41 548.039 1083.26C551.068 1079.75 555.173 1078.87 559.539 1078.63L558.762 1085.28L545.93 1086.43L544.936 1085.89C545.02 1084.89 544.716 1083.89 544.086 1083.11C542.731 1081.44 540.274 1081.18 538.598 1082.53C537.377 1083.52 536.867 1085.15 537.305 1086.66C536.18 1086.44 535.016 1086.73 534.123 1087.45C532.448 1088.81 532.187 1091.27 533.542 1092.95C534.897 1094.62 537.354 1094.88 539.03 1093.53C539.226 1093.37 539.406 1093.19 539.568 1092.99L539.696 1093.13C539.638 1093.17 539.582 1093.21 539.527 1093.25C537.851 1094.61 537.591 1097.07 538.945 1098.74C540.3 1100.42 542.757 1100.68 544.433 1099.33C545.34 1098.59 545.87 1097.49 545.88 1096.32L547.848 1096.89C547.725 1097.94 548.027 1098.99 548.688 1099.81C550.043 1101.49 552.5 1101.75 554.176 1100.39C555.428 1099.38 555.927 1097.7 555.435 1096.16C557.472 1097.76 560.474 1098.75 562.888 1098.99L562.314 1096.25C563.786 1097.98 565.884 1099.12 568.971 1099.33L568.135 1096.38C570.309 1097.58 570.69 1098.71 575.102 1098.74C571.058 1091.65 570.8 1087.86 572.231 1081.6C578.306 1078.59 583.798 1073.51 588.806 1066.72" fill="#ffffff" fill-rule="nonzero" opacity="1" stroke="#000000" stroke-linecap="butt" stroke-linejoin="miter" stroke-width="2.00086"/>
<path d="M535.908 1092.13C535.483 1092.47 534.958 1092.61 534.454 1092.56C533.219 1092.34 532.318 1091.52 529.872 1091.26C532.249 1089.34 533.667 1088.5 534.871 1088.61C535.375 1088.67 535.859 1088.91 536.203 1089.34C536.892 1090.19 536.759 1091.44 535.908 1092.13Z" fill="#ffd500" fill-rule="nonzero" opacity="1" stroke="#000000" stroke-linecap="butt" stroke-linejoin="miter" stroke-width="2.00086"/>
<path d="M539.963 1085.42C539.485 1085.16 539.161 1084.72 539.023 1084.23C538.768 1083 539.189 1081.86 538.519 1079.49C541.187 1080.99 542.489 1081.99 542.836 1083.15C542.974 1083.64 542.926 1084.18 542.659 1084.66C542.126 1085.62 540.919 1085.96 539.963 1085.42Z" fill="#ffd500" fill-rule="nonzero" opacity="1" stroke="#000000" stroke-linecap="butt" stroke-linejoin="miter" stroke-width="2.00086"/>
<path d="M543.222 1097.91C543.028 1098.43 542.645 1098.81 542.183 1099.02C541.006 1099.45 539.816 1099.2 537.573 1100.21C538.656 1097.35 539.46 1095.92 540.555 1095.4C541.017 1095.2 541.559 1095.16 542.071 1095.36C543.094 1095.75 543.61 1096.89 543.222 1097.91Z" fill="#ffd500" fill-rule="nonzero" opacity="1" stroke="#000000" stroke-linecap="butt" stroke-linejoin="miter" stroke-width="2.00086"/>
<path d="M550.933 1097.47C550.507 1097.81 550.261 1098.3 550.208 1098.8C550.166 1100.06 550.775 1101.11 550.516 1103.56C552.892 1101.63 554.004 1100.42 554.149 1099.22C554.203 1098.72 554.064 1098.19 553.72 1097.76C553.031 1096.91 551.784 1096.78 550.933 1097.47Z" fill="#ffd500" fill-rule="nonzero" opacity="1" stroke="#000000" stroke-linecap="butt" stroke-linejoin="miter" stroke-width="2.00086"/>
</g>
<path d="M606.688 991.241C600.017 997.255 603.543 1006.09 608.224 1010.95C604.761 1012.19 605.41 1017.25 607.9 1018.88C607.679 1014.54 609.921 1013 612.13 1013.33C612.854 1014.75 613.601 1016.13 614.36 1017.49C610.768 1023.74 606.796 1029.84 603.66 1037.57L598.495 1031.45C597.224 1036.47 599.02 1040.9 601.286 1044.59C600.854 1046.51 600.643 1048.54 600.643 1050.64C600.643 1056.33 602.304 1061.52 605.107 1065.37C605.99 1066.58 610.352 1069.71 611.46 1070.63C605.593 1074.96 598.73 1063.55 592.828 1046.21C591.523 1042.37 590.265 1039.64 589.075 1035.15L580.833 1022.63L564.975 1046.17C572.968 1057.64 580.035 1054.47 585.293 1061.55C583.247 1060.44 582.699 1057.55 579.369 1058.19L584.196 1065.95C583.41 1066.49 582.94 1067.39 582.939 1068.34C582.938 1069.95 584.241 1071.25 585.847 1071.25L597.607 1067.08C599.953 1075.33 605.582 1079.25 611.394 1078.31C617.024 1077.39 621.47 1079.77 624.563 1083.44C624.885 1078.04 623.71 1073.79 620.137 1071.23C623.214 1070.28 625.916 1068.17 627.954 1065.37C630.758 1061.52 632.419 1056.33 632.419 1050.64C632.419 1048.55 632.19 1046.52 631.764 1044.61C634.041 1040.91 635.84 1036.48 634.567 1031.45L629.402 1037.57C626.265 1029.84 622.294 1023.74 618.701 1017.49C619.46 1016.13 620.207 1014.75 620.931 1013.33C623.141 1013 625.382 1014.54 625.162 1018.88C627.651 1017.25 628.301 1012.19 624.837 1010.95C629.518 1006.09 633.044 997.255 626.373 991.241C627.399 997.639 625.892 1000.58 623.563 1001.89C623.653 997.094 619.385 997.066 617.833 1000.15C621.316 1000.08 621.358 1004.23 618.599 1009.6C617.937 1010.98 617.244 1012.32 616.53 1013.65C615.817 1012.32 615.123 1010.98 614.461 1009.6C611.703 1004.23 611.745 1000.08 615.228 1000.15C613.676 997.066 609.408 997.094 609.499 1001.89C607.169 1000.58 605.663 997.639 606.688 991.241ZM616.53 1021.28C620.546 1028.17 623.238 1034.88 626.177 1043.71C626.877 1045.82 627.192 1048.17 627.192 1050.64C627.192 1055.6 626.461 1057.8 624.19 1060.93C622.896 1062.7 621.379 1064.03 619.727 1064.85C621.631 1059.03 618.635 1054.84 616.53 1050.24C614.425 1054.84 611.683 1059.27 613.334 1064.85C611.681 1064.03 610.165 1062.7 608.871 1060.93C606.599 1057.8 605.869 1055.6 605.869 1050.64C605.869 1048.18 606.184 1045.82 606.882 1043.72C609.822 1034.88 612.514 1028.17 616.53 1021.28Z" fill="#ffffff" fill-rule="nonzero" opacity="1" stroke="#000000" stroke-linecap="butt" stroke-linejoin="miter" stroke-width="2"/>
<g opacity="1">
<path d="M568.322 1030.34L537.195 1045.51C537.203 1045.41 537.208 1045.32 537.209 1045.22C537.209 1042.87 535.307 1040.97 532.96 1040.97C530.613 1040.97 528.711 1042.87 528.711 1045.22C528.712 1045.88 528.864 1046.52 529.157 1047.11C527.17 1047.51 525.739 1049.25 525.737 1051.28C525.737 1053.63 527.639 1055.53 529.986 1055.53C530.453 1055.53 530.916 1055.45 531.357 1055.3C531.348 1055.4 531.343 1055.5 531.342 1055.61C531.342 1057.95 533.244 1059.86 535.591 1059.86C537.938 1059.86 539.84 1057.95 539.84 1055.61C539.838 1055.44 539.826 1055.26 539.804 1055.1L543.345 1054.34C544.038 1055.85 545.543 1056.81 547.2 1056.82C549.547 1056.82 551.449 1054.91 551.449 1052.56C551.447 1052.39 551.435 1052.22 551.413 1052.05L554.64 1050.51L555.154 1056.29C559.382 1056.17 561.386 1053.37 563.235 1050.38L566.956 1054.75C572.901 1048.58 572.461 1041.69 572.216 1033.82L568.322 1030.34Z" fill="#ffffff" fill-rule="nonzero" opacity="1" stroke="#000000" stroke-linecap="butt" stroke-linejoin="miter" stroke-width="2"/>
<path d="M546.305 1053.75C545.932 1054.15 545.756 1054.66 545.774 1055.17C545.907 1056.42 546.657 1057.38 546.743 1059.84C548.827 1057.6 549.759 1056.24 549.734 1055.03C549.717 1054.53 549.506 1054.03 549.106 1053.65C548.305 1052.91 547.051 1052.95 546.305 1053.75Z" fill="#ffd500" fill-rule="nonzero" opacity="1" stroke="#000000" stroke-linecap="butt" stroke-linejoin="miter" stroke-width="2"/>
<path d="M536.808 1056.76C537.034 1057.25 537.037 1057.8 536.858 1058.27C536.334 1059.41 535.318 1060.08 534.453 1062.39C533.19 1059.6 532.74 1058.02 533.148 1056.88C533.326 1056.4 533.686 1056 534.184 1055.77C535.181 1055.32 536.355 1055.76 536.808 1056.76Z" fill="#ffd500" fill-rule="nonzero" opacity="1" stroke="#000000" stroke-linecap="butt" stroke-linejoin="miter" stroke-width="2"/>
<path d="M529.129 1052.96C528.701 1053.3 528.176 1053.44 527.672 1053.38C526.439 1053.15 525.543 1052.33 523.1 1052.05C525.49 1050.14 526.915 1049.32 528.118 1049.44C528.622 1049.5 529.104 1049.75 529.445 1050.17C530.127 1051.03 529.985 1052.28 529.129 1052.96Z" fill="#ffd500" fill-rule="nonzero" opacity="1" stroke="#000000" stroke-linecap="butt" stroke-linejoin="miter" stroke-width="2"/>
<path d="M531.886 1044.75C531.36 1044.6 530.944 1044.25 530.697 1043.81C530.167 1042.67 530.315 1041.47 529.118 1039.32C532.058 1040.15 533.556 1040.83 534.16 1041.88C534.406 1042.32 534.484 1042.86 534.334 1043.39C534.035 1044.44 532.939 1045.05 531.886 1044.75Z" fill="#ffd500" fill-rule="nonzero" opacity="1" stroke="#000000" stroke-linecap="butt" stroke-linejoin="miter" stroke-width="2"/>
</g>
<path d="M574.101 994.226C572.116 994.226 570.886 995.513 570.935 997.335C568.483 997.638 566.481 998.731 564.664 1000.15L565.948 1001.43C565.849 1001.73 565.799 1002.04 565.798 1002.36C565.798 1004.01 567.135 1005.35 568.785 1005.35C570.249 1005.34 571.496 1004.28 571.73 1002.83C576.726 1001.14 577.327 1005.23 577.087 1010.43L570.995 1010.19L568.427 1015.57C570.132 1014.21 572.401 1014.33 574.573 1014.55C571.984 1019.13 566.862 1022.19 565.203 1017.28C560.663 1019.77 562.177 1025.39 565.83 1024.61C561.467 1027.55 558.85 1032.23 555.653 1036.33C561.938 1037.13 567.217 1035.49 571.271 1030.86C568.86 1035.28 568.925 1040.2 567.93 1044.91C573.38 1042.89 579.141 1041.44 580.734 1032.48C581.814 1038.43 583.846 1044.74 590.482 1046.97C590.352 1040.15 593.233 1037.57 591.519 1030.86C594.381 1030.67 597.201 1030.02 599.748 1026.37C597.732 1024.42 597.722 1021.18 595.773 1019.21C599.189 1017.68 600.157 1015.72 600.909 1013.72C597.754 1014.55 596.755 1012.52 594.882 1011.64C597.482 1009.94 599.841 1008.04 599.308 1003.67C593.819 1005.03 589.641 1000.87 590.049 994.226L574.101 994.226Z" fill="#ffffff" fill-rule="nonzero" opacity="1" stroke="#000000" stroke-linecap="butt" stroke-linejoin="miter" stroke-width="2"/>
<path d="M582.831 984.78L582.474 985.116C581.749 985.747 580.843 986.317 580.665 987.304C580.629 987.419 580.61 987.539 580.61 987.66C579.655 987.66 578.882 988.434 578.882 989.39C578.882 990.345 579.656 991.119 580.61 991.119L575.954 991.119C576.887 990.921 577.483 990.002 577.285 989.068C577.087 988.133 576.169 987.537 575.235 987.736C575.21 987.617 575.167 987.504 575.108 987.398C574.728 986.47 573.723 986.101 572.883 985.635L572.464 985.381C572.464 985.381 573.005 987.76 573.283 989.234C573.56 990.708 574.101 994.226 574.101 994.226L582.831 994.226L591.562 994.226C591.562 994.226 592.103 990.708 592.38 989.234C592.657 987.76 593.198 985.381 593.198 985.381L592.779 985.635C591.939 986.101 590.935 986.47 590.555 987.398C590.496 987.504 590.453 987.617 590.427 987.736C589.493 987.537 588.576 988.133 588.377 989.068C588.179 990.002 588.775 990.921 589.709 991.119L585.052 991.119C586.007 991.119 586.781 990.345 586.781 989.39C586.781 988.434 586.007 987.66 585.052 987.66C585.052 987.539 585.034 987.419 584.998 987.304C584.819 986.317 583.913 985.747 583.188 985.116L582.831 984.78Z" fill="#ffd500" fill-rule="nonzero" opacity="1" stroke="#000000" stroke-linecap="butt" stroke-linejoin="miter" stroke-width="2"/>
<path d="M587.956 996.866C588.679 994.934 590.381 993.379 594.293 992.678C594.848 997.36 596.524 1002.65 590.048 1003.51C590.934 1006.81 590.259 1010.62 590.259 1014.34L586.88 1013.62C586.88 1022.59 582.925 1024.38 581.733 1029.27C577.775 1028.7 575.15 1026.91 573.549 1023.97" fill="#ffffff" fill-rule="nonzero" opacity="1" stroke="#000000" stroke-linecap="butt" stroke-linejoin="miter" stroke-width="2"/>
<path d="M574.573 1014.55C577.557 1014.84 580.338 1015.3 581.149 1012.28L584.016 1013.16L584.554 1003.07C582.331 1004.02 581.509 1002.1 579.483 1001.76" fill="none" opacity="1" stroke="#000000" stroke-linecap="butt" stroke-linejoin="miter" stroke-width="2"/>
<path d="M593.093 994.315C590.23 997.94 587.753 997.667 588.89 1001.15L590.286 1000.84" fill="none" opacity="1" stroke="#000000" stroke-linecap="butt" stroke-linejoin="miter" stroke-width="2"/>
<g opacity="1">
<path d="M587.713 1058.84L582.828 1086.09C582.082 1090.25 578 1090.3 575.97 1089C576.421 1091.57 578.295 1093.08 581.062 1091.91C578.868 1096.21 578.475 1100.43 584.075 1104.39C583.254 1099.83 585.152 1096.08 587.713 1092.54L592.39 1097.32L585.219 1108.04L584.171 1108.47C583.446 1107.77 582.482 1107.38 581.479 1107.38C579.324 1107.38 577.577 1109.13 577.577 1111.29C577.577 1112.86 578.52 1114.28 579.97 1114.89C579.094 1115.63 578.589 1116.72 578.587 1117.86C578.587 1120.02 580.334 1121.77 582.489 1121.77C584.645 1121.77 586.392 1120.02 586.392 1117.86C586.391 1117.61 586.365 1117.36 586.315 1117.11L586.5 1117.1C586.495 1117.17 586.492 1117.24 586.49 1117.31C586.49 1119.46 588.237 1121.21 590.392 1121.21C592.547 1121.21 594.294 1119.46 594.294 1117.31C594.293 1116.14 593.771 1115.03 592.869 1114.29L594.551 1113.12C595.286 1113.87 596.292 1114.3 597.344 1114.3C599.499 1114.3 601.246 1112.55 601.246 1110.39C601.244 1108.78 600.253 1107.33 598.751 1106.75C601.276 1106.17 603.93 1104.46 605.636 1102.73L603.146 1101.45C605.416 1101.4 607.621 1100.48 609.721 1098.21L606.904 1097C609.207 1096.07 610.32 1096.48 613.119 1093.07C605.072 1091.76 601.964 1089.58 598.002 1084.53C599.482 1077.91 598.988 1070.44 596.858 1062.27" fill="#ffffff" fill-rule="nonzero" opacity="1" stroke="#000000" stroke-linecap="butt" stroke-linejoin="miter" stroke-width="2"/>
<path d="M583.342 1119.41C583.342 1119.96 583.12 1120.46 582.761 1120.82C581.813 1121.64 580.612 1121.83 578.873 1123.57C578.873 1120.51 579.116 1118.88 579.959 1118.01C580.317 1117.65 580.813 1117.43 581.36 1117.43C582.454 1117.43 583.342 1118.32 583.342 1119.41Z" fill="#ffd500" fill-rule="nonzero" opacity="1" stroke="#000000" stroke-linecap="butt" stroke-linejoin="miter" stroke-width="2"/>
<path d="M580.682 1112.04C580.174 1112.25 579.632 1112.23 579.165 1112.03C578.051 1111.45 577.428 1110.41 575.167 1109.44C578.003 1108.3 579.603 1107.92 580.722 1108.38C581.189 1108.58 581.579 1108.96 581.783 1109.46C582.191 1110.48 581.698 1111.64 580.682 1112.04Z" fill="#ffd500" fill-rule="nonzero" opacity="1" stroke="#000000" stroke-linecap="butt" stroke-linejoin="miter" stroke-width="2"/>
<path d="M592.435 1117.36C592.712 1117.83 592.77 1118.37 592.641 1118.86C592.237 1120.05 591.295 1120.82 590.671 1123.2C589.129 1120.56 588.518 1119.03 588.808 1117.86C588.936 1117.37 589.252 1116.92 589.725 1116.65C590.67 1116.1 591.883 1116.41 592.435 1117.36Z" fill="#ffd500" fill-rule="nonzero" opacity="1" stroke="#000000" stroke-linecap="butt" stroke-linejoin="miter" stroke-width="2"/>
<path d="M596.937 1111.08C596.937 1111.63 597.159 1112.12 597.518 1112.48C598.466 1113.3 599.667 1113.49 601.406 1115.23C601.406 1112.17 601.162 1110.54 600.32 1109.68C599.961 1109.32 599.466 1109.1 598.919 1109.1C597.824 1109.1 596.937 1109.98 596.937 1111.08Z" fill="#ffd500" fill-rule="nonzero" opacity="1" stroke="#000000" stroke-linecap="butt" stroke-linejoin="miter" stroke-width="2"/>
</g>
<path d="M578.139 998.201C578.139 999.196 577.333 1000 576.34 1000C575.347 1000 574.541 999.196 574.541 998.201C574.541 997.704 574.743 997.254 575.068 996.929L575.593 996.521L577.612 996.929C577.937 997.254 578.139 997.704 578.139 998.201Z" fill="none" opacity="1" stroke="#000000" stroke-linecap="butt" stroke-linejoin="miter" stroke-width="2"/>
<path d="M572.593 997.961L575.068 996.929L575.593 996.521L577.612 996.929L582.125 997.301" fill="none" opacity="1" stroke="#000000" stroke-linecap="butt" stroke-linejoin="miter" stroke-width="2"/>
<path d="M575.593 996.521C575.601 997.37 575.389 998.127 576.045 998.918" fill="none" opacity="1" stroke="#000000" stroke-linecap="butt" stroke-linejoin="miter" stroke-width="2"/>
</g>
<path d="M570.471 917.708L563.799 926.162C556.711 924.53 550.448 925.415 550.459 934.14L569.038 934.556L578.155 923.862" fill="#e90000" fill-rule="nonzero" opacity="1" stroke="#000000" stroke-linecap="butt" stroke-linejoin="miter" stroke-width="2"/>
<path d="M625.29 935.598L604.659 935.182C604.766 921.779 618.789 926.838 627.144 927.458" fill="#e90000" fill-rule="nonzero" opacity="1" stroke="#000000" stroke-linecap="butt" stroke-linejoin="miter" stroke-width="2"/>
<path d="M562.436 919.626C550.108 918.895 537.773 915.815 528.841 909.857C527.402 908.678 526.214 906.921 527.579 905.646L526.798 904.216C536.267 901.751 544.504 898.956 548.529 887.781L546.445 871.345C550.596 874.386 552.109 877.867 552.954 881.459C554.016 876.779 555.199 872.1 556.813 867.42C558.643 870.177 560.264 872.933 561.54 875.69C564.173 869.856 567.496 864.71 572.345 861.091L571.778 872.39C576.285 866.191 581.518 860.597 589.334 857.156C588.457 860.221 587.717 863.287 588.479 866.352C595.411 860.259 602.343 858.824 609.275 858.802C607.521 861.102 605.297 862.697 604.565 866.53C611.297 863.589 618.418 861.426 627.35 862.887C623.343 865.475 618.45 868.063 617.042 870.651C624.509 869.466 634.368 870.066 640.74 872.164C636.649 873.192 631.513 875.679 631.101 878.165C637.513 878.867 646.256 879.755 651.026 884.288C647.881 885.28 644.863 886.43 643.9 890.148C649.63 892.58 651.745 891.712 657.018 898.287C656.159 898.427 651.572 898.158 649.81 900.299C653.338 901.917 655.884 904.397 656.718 908.375C653.981 908.834 653.9 908.624 651.194 909.915C653.687 912.085 653.742 915.056 654.269 918.277L645.971 919.102L647.537 926.069L638.925 928.944L633.681 935.898L619.919 935.898C617.428 937.409 614.699 938.444 611.535 938.607C610.109 926.668 622.544 928.758 629.443 926.416C616.065 929.555 598.735 928.648 583.141 924.363L578.776 930.892L574.903 936.686L562.77 936.254C560.311 937.505 557.922 938.037 555.877 937.794C555.736 930.217 562.33 929.464 568.77 929.014L571.918 922.31L562.436 919.626Z" fill="#e90000" fill-rule="nonzero" opacity="1" stroke="#000000" stroke-linecap="butt" stroke-linejoin="miter" stroke-width="2"/>
<path d="M549.81 899.305C549.81 900.352 548.962 901.202 547.915 901.202C546.868 901.202 546.02 900.352 546.02 899.305C546.02 898.781 546.232 898.306 546.575 897.963L547.128 897.534L549.255 897.963C549.598 898.306 549.81 898.781 549.81 899.305Z" fill="#ffffff" fill-rule="nonzero" opacity="1" stroke="#000000" stroke-linecap="butt" stroke-linejoin="miter" stroke-width="2"/>
<path d="M547.128 897.534C547.136 898.428 546.913 899.226 547.605 900.06" fill="none" opacity="1" stroke="#000000" stroke-linecap="butt" stroke-linejoin="miter" stroke-width="2"/>
<path d="M565.079 908.579L571.571 913.647L572.43 909.755L579.935 915.348L581.053 911.901L588.709 918.535L589.676 914.047L599.418 920.91L599.181 915.027L609.144 921.112L608.277 915.546L616.265 921.103L617.438 916.909L622.829 920.906L625.442 918.425L630.739 922.31L632.923 920.178L637.254 922" fill="none" opacity="1" stroke="#000000" stroke-linecap="butt" stroke-linejoin="miter" stroke-width="2"/>
<path d="M565.417 899.738L563.958 891.611L570.835 902.031L575.212 890.152L578.129 900.78L585.84 889.318L587.507 899.53L594.801 888.276L598.135 897.863L604.387 891.194L606.263 899.113L613.765 892.861L614.599 900.155L622.309 895.987L621.059 903.073L629.187 898.279L631.271 905.157L638.356 902.239L639.398 908.283L645.713 911.503" fill="none" opacity="1" stroke="#000000" stroke-linecap="butt" stroke-linejoin="miter" stroke-width="2"/>
<path d="M558.78 884.411L557.738 877.534L565.24 886.078L568.366 876.284L572.534 884.828C574.842 878.643 578.147 873.787 582.12 869.823L581.912 883.578C585.556 878.042 589.383 873.421 593.582 870.657L592.123 883.578C595.135 878.372 598.629 874.613 602.751 872.741L601.293 884.828C604.258 881.079 608.494 877.777 612.546 875.658L610.879 884.411L621.299 879.618L619.215 887.12L629.01 884.828L627.759 890.246L635.678 889.204L635.47 893.997" fill="none" opacity="1" stroke="#000000" stroke-linecap="butt" stroke-linejoin="miter" stroke-width="2"/>
<g opacity="1">
<path d="M423.012 1070.97L416.34 1079.43C409.252 1077.79 402.989 1078.68 403.001 1087.4L421.58 1087.82L430.696 1077.13" fill="#e90000" fill-rule="nonzero" opacity="1" stroke="#000000" stroke-linecap="butt" stroke-linejoin="miter" stroke-width="2"/>
<path d="M477.832 1088.86L457.2 1088.45C457.307 1075.04 471.331 1080.1 479.685 1080.72" fill="#e90000" fill-rule="nonzero" opacity="1" stroke="#000000" stroke-linecap="butt" stroke-linejoin="miter" stroke-width="2"/>
<path d="M414.977 1072.89C402.649 1072.16 390.315 1069.08 381.383 1063.12C379.943 1061.94 378.755 1060.18 380.12 1058.91L379.339 1057.48C388.808 1055.01 397.045 1052.22 401.07 1041.04L398.986 1024.61C403.137 1027.65 404.651 1031.13 405.495 1034.72C406.557 1030.04 407.741 1025.36 409.354 1020.68C411.185 1023.44 412.805 1026.2 414.081 1028.95C416.715 1023.12 420.037 1017.97 424.887 1014.35L424.32 1025.65C428.827 1019.45 434.059 1013.86 441.875 1010.42C440.998 1013.49 440.258 1016.55 441.02 1019.62C447.952 1013.52 454.884 1012.09 461.816 1012.07C460.063 1014.37 457.838 1015.96 457.107 1019.79C463.838 1016.85 470.959 1014.69 479.892 1016.15C475.884 1018.74 470.991 1021.33 469.584 1023.92C477.05 1022.73 486.909 1023.33 493.281 1025.43C489.19 1026.46 484.055 1028.94 483.642 1031.43C490.054 1032.13 498.797 1033.02 503.567 1037.55C500.422 1038.54 497.405 1039.69 496.441 1043.41C502.171 1045.84 504.286 1044.98 509.559 1051.55C508.701 1051.69 504.113 1051.42 502.352 1053.56C505.88 1055.18 508.425 1057.66 509.259 1061.64C506.522 1062.1 506.442 1061.89 503.736 1063.18C506.228 1065.35 506.284 1068.32 506.81 1071.54L498.513 1072.37L500.079 1079.33L491.467 1082.21L486.222 1089.16L472.46 1089.16C469.97 1090.67 467.241 1091.71 464.076 1091.87C462.651 1079.93 475.085 1082.02 481.985 1079.68C468.606 1082.82 451.276 1081.91 435.682 1077.63L431.318 1084.16L427.444 1089.95L415.311 1089.52C412.852 1090.77 410.463 1091.3 408.418 1091.06C408.277 1083.48 414.871 1082.73 421.311 1082.28L424.46 1075.57L414.977 1072.89Z" fill="#e90000" fill-rule="nonzero" opacity="1" stroke="#000000" stroke-linecap="butt" stroke-linejoin="miter" stroke-width="2"/>
<path d="M402.352 1052.57C402.352 1053.62 401.503 1054.47 400.456 1054.47C399.409 1054.47 398.561 1053.62 398.561 1052.57C398.561 1052.04 398.773 1051.57 399.116 1051.23L399.669 1050.8L401.796 1051.23C402.139 1051.57 402.352 1052.04 402.352 1052.57Z" fill="#ffffff" fill-rule="nonzero" opacity="1" stroke="#000000" stroke-linecap="butt" stroke-linejoin="miter" stroke-width="2"/>
<path d="M399.669 1050.8C399.677 1051.69 399.454 1052.49 400.146 1053.32" fill="none" opacity="1" stroke="#000000" stroke-linecap="butt" stroke-linejoin="miter" stroke-width="2"/>
<path d="M417.62 1061.84L424.112 1066.91L424.971 1063.02L432.476 1068.61L433.594 1065.17L441.25 1071.8L442.217 1067.31L451.959 1074.17L451.723 1068.29L461.685 1074.38L460.818 1068.81L468.806 1074.37L469.98 1070.17L475.37 1074.17L477.984 1071.69L483.28 1075.57L485.464 1073.44L489.795 1075.26" fill="none" opacity="1" stroke="#000000" stroke-linecap="butt" stroke-linejoin="miter" stroke-width="2"/>
<path d="M417.958 1053L416.499 1044.87L423.376 1055.29L427.753 1043.42L430.67 1054.04L438.381 1042.58L440.048 1052.79L447.342 1041.54L450.677 1051.13L456.929 1044.46L458.804 1052.38L466.306 1046.13L467.14 1053.42L474.851 1049.25L473.6 1056.34L481.728 1051.54L483.812 1058.42L490.897 1055.5L491.939 1061.55L498.254 1064.77" fill="none" opacity="1" stroke="#000000" stroke-linecap="butt" stroke-linejoin="miter" stroke-width="2"/>
<path d="M411.321 1037.68L410.279 1030.8L417.781 1039.34L420.907 1029.55L425.075 1038.09C427.383 1031.91 430.688 1027.05 434.661 1023.09L434.453 1036.84C438.097 1031.31 441.925 1026.69 446.123 1023.92L444.664 1036.84C447.676 1031.64 451.17 1027.88 455.293 1026.01L453.834 1038.09C456.799 1034.34 461.035 1031.04 465.087 1028.92L463.42 1037.68L473.84 1032.88L471.756 1040.38L481.551 1038.09L480.3 1043.51L488.22 1042.47L488.011 1047.26" fill="none" opacity="1" stroke="#000000" stroke-linecap="butt" stroke-linejoin="miter" stroke-width="2"/>
</g>
</g>
<path d="M360.833 814.39L360.833 999.118C360.833 1084.14 429.755 1153.06 514.774 1153.06C599.793 1153.06 668.714 1084.14 668.714 999.118L668.714 814.39L360.833 814.39Z" fill="none" opacity="1" stroke="#ffffff" stroke-linecap="butt" stroke-linejoin="miter" stroke-width="8"/>
</g>
</svg>
